M48
;DRILL file {KiCad 4.0.4-stable} date Fri Dec  9 21:16:20 2016
;FORMAT={-:-/ absolute / inch / decimal}
FMAT,2
INCH,TZ
T1C0.013
T2C0.032
T3C0.040
%
G90
G05
M72
T1
X4.6725Y-4.2552
X4.6809Y-4.4522
X4.8576Y-4.2206
X4.89Y-4.4993
X4.9023Y-3.7927
X4.9441Y-4.2669
X5.155Y-4.1356
X5.22Y-3.9511
X5.2655Y-4.66
X5.2874Y-4.4302
X5.322Y-4.3058
T2
X4.765Y-4.695
X4.865Y-4.695
X4.965Y-4.695
T3
X4.61Y-3.665
X4.71Y-3.665
X4.81Y-3.665
X4.97Y-3.665
X5.07Y-3.665
X5.23Y-3.665
X5.33Y-3.665
T0
M30
