G04 #@! TF.FileFunction,Legend,Top*
%FSLAX46Y46*%
G04 Gerber Fmt 4.6, Leading zero omitted, Abs format (unit mm)*
G04 Created by KiCad (PCBNEW 4.0.4-stable) date Fri Dec  9 21:16:25 2016*
%MOMM*%
%LPD*%
G01*
G04 APERTURE LIST*
%ADD10C,2.000000*%
%ADD11C,0.200000*%
%ADD12C,0.150000*%
G04 APERTURE END LIST*
D10*
D11*
X117200000Y-122600000D02*
X115900000Y-122600000D01*
X117200000Y-121900000D02*
X117200000Y-122600000D01*
X116000000Y-121900000D02*
X117200000Y-121900000D01*
X115100000Y-122400000D02*
X115100000Y-122600000D01*
X115900000Y-121900000D02*
X115900000Y-122600000D01*
X115900000Y-121600000D02*
X117200000Y-121600000D01*
X117000000Y-121400000D02*
X117000000Y-121600000D01*
X116300000Y-121500000D02*
X116300000Y-121600000D01*
X117000000Y-121000000D02*
X117000000Y-121400000D01*
X115900000Y-121000000D02*
X117000000Y-121000000D01*
X116300000Y-120500000D02*
X116300000Y-121400000D01*
X115900000Y-120400000D02*
X117100000Y-120400000D01*
X115400000Y-121200000D02*
X115600000Y-121400000D01*
X115400000Y-120800000D02*
X115400000Y-121200000D01*
X114800000Y-121200000D02*
X114600000Y-121400000D01*
X114800000Y-120800000D02*
X114800000Y-121200000D01*
X115100000Y-120400000D02*
X115100000Y-122400000D01*
D12*
X123943000Y-96105000D02*
X120343000Y-96105000D01*
X123943000Y-98205000D02*
X120343000Y-98205000D01*
X121893000Y-97455000D02*
X121893000Y-96855000D01*
X121893000Y-96855000D02*
X122193000Y-97155000D01*
X122193000Y-97155000D02*
X121993000Y-97355000D01*
X121993000Y-97355000D02*
X121993000Y-97105000D01*
X121993000Y-97105000D02*
X122043000Y-97155000D01*
X122293000Y-97655000D02*
X122293000Y-96655000D01*
X121793000Y-97155000D02*
X121293000Y-97155000D01*
X122293000Y-97155000D02*
X121793000Y-97655000D01*
X121793000Y-97655000D02*
X121793000Y-96655000D01*
X121793000Y-96655000D02*
X122293000Y-97155000D01*
X123943000Y-98772000D02*
X120343000Y-98772000D01*
X123943000Y-100872000D02*
X120343000Y-100872000D01*
X121893000Y-100122000D02*
X121893000Y-99522000D01*
X121893000Y-99522000D02*
X122193000Y-99822000D01*
X122193000Y-99822000D02*
X121993000Y-100022000D01*
X121993000Y-100022000D02*
X121993000Y-99772000D01*
X121993000Y-99772000D02*
X122043000Y-99822000D01*
X122293000Y-100322000D02*
X122293000Y-99322000D01*
X121793000Y-99822000D02*
X121293000Y-99822000D01*
X122293000Y-99822000D02*
X121793000Y-100322000D01*
X121793000Y-100322000D02*
X121793000Y-99322000D01*
X121793000Y-99322000D02*
X122293000Y-99822000D01*
X116594000Y-96480000D02*
X117594000Y-96480000D01*
X117594000Y-97830000D02*
X116594000Y-97830000D01*
X117594000Y-100497000D02*
X116594000Y-100497000D01*
X116594000Y-99147000D02*
X117594000Y-99147000D01*
X133000000Y-112811000D02*
X133700000Y-112811000D01*
X133700000Y-114011000D02*
X133000000Y-114011000D01*
X128336040Y-106227880D02*
X133537960Y-106227880D01*
X133537960Y-103830120D02*
X128336040Y-103830120D01*
X126337060Y-102730300D02*
X126337060Y-103830120D01*
X125737620Y-103230680D02*
X126936500Y-103230680D01*
X126941580Y-103830120D02*
X126941580Y-106227880D01*
X121605040Y-115498880D02*
X126806960Y-115498880D01*
X126806960Y-113101120D02*
X121605040Y-113101120D01*
X119606060Y-112001300D02*
X119606060Y-113101120D01*
X119006620Y-112501680D02*
X120205500Y-112501680D01*
X120210580Y-113101120D02*
X120210580Y-115498880D01*
X116490000Y-112430000D02*
X117190000Y-112430000D01*
X117190000Y-113630000D02*
X116490000Y-113630000D01*
X124688000Y-94641000D02*
X126238000Y-94641000D01*
X130048000Y-94361000D02*
X127508000Y-94361000D01*
X127508000Y-94361000D02*
X127508000Y-91821000D01*
X126238000Y-91541000D02*
X124688000Y-91541000D01*
X124688000Y-91541000D02*
X124688000Y-94641000D01*
X127508000Y-91821000D02*
X130048000Y-91821000D01*
X130048000Y-91821000D02*
X130048000Y-94361000D01*
X131292000Y-94641000D02*
X132842000Y-94641000D01*
X136652000Y-94361000D02*
X134112000Y-94361000D01*
X134112000Y-94361000D02*
X134112000Y-91821000D01*
X132842000Y-91541000D02*
X131292000Y-91541000D01*
X131292000Y-91541000D02*
X131292000Y-94641000D01*
X134112000Y-91821000D02*
X136652000Y-91821000D01*
X136652000Y-91821000D02*
X136652000Y-94361000D01*
X122174000Y-94641000D02*
X123724000Y-94641000D01*
X123724000Y-94641000D02*
X123724000Y-91541000D01*
X123724000Y-91541000D02*
X122174000Y-91541000D01*
X120904000Y-94361000D02*
X115824000Y-94361000D01*
X115824000Y-94361000D02*
X115824000Y-91821000D01*
X115824000Y-91821000D02*
X120904000Y-91821000D01*
X120904000Y-91821000D02*
X120904000Y-94361000D01*
X130175000Y-99568000D02*
G75*
G03X130175000Y-99568000I-127000J0D01*
G01*
X129413000Y-100203000D02*
X134493000Y-100203000D01*
X129413000Y-96901000D02*
X134493000Y-96901000D01*
X129413000Y-100711000D02*
X134493000Y-100711000D01*
X129413000Y-100711000D02*
X129413000Y-96901000D01*
X134493000Y-100711000D02*
X134493000Y-96901000D01*
X127127000Y-121285000D02*
X127127000Y-120015000D01*
X126339600Y-120535700D02*
X126377700Y-120789700D01*
X126377700Y-120789700D02*
X126555500Y-121069100D01*
X126555500Y-121069100D02*
X126873000Y-121285000D01*
X126873000Y-121285000D02*
X127317500Y-121297700D01*
X127317500Y-121297700D02*
X127673100Y-121094500D01*
X127673100Y-121094500D02*
X127850900Y-120802400D01*
X127850900Y-120802400D02*
X127901700Y-120484900D01*
X127901700Y-120484900D02*
X127800100Y-120078500D01*
X127800100Y-120078500D02*
X127457200Y-119824500D01*
X127457200Y-119824500D02*
X127279400Y-119735600D01*
X118745000Y-117475000D02*
X128397000Y-117475000D01*
X128397000Y-120523000D02*
X128397000Y-121793000D01*
X128397000Y-121793000D02*
X118745000Y-121793000D01*
X118745000Y-121793000D02*
X118745000Y-116713000D01*
X128397000Y-116713000D02*
X128397000Y-119253000D01*
X128397000Y-119253000D02*
X128397000Y-120523000D01*
X135977000Y-104513000D02*
X135977000Y-103513000D01*
X137327000Y-103513000D02*
X137327000Y-104513000D01*
X133469000Y-110276000D02*
X132469000Y-110276000D01*
X132469000Y-108926000D02*
X133469000Y-108926000D01*
X134141160Y-118983760D02*
X134092900Y-118983760D01*
X131342180Y-119684800D02*
X131342180Y-118983760D01*
X131342180Y-118983760D02*
X131591100Y-118983760D01*
X134141160Y-118983760D02*
X134341820Y-118983760D01*
X134341820Y-118983760D02*
X134341820Y-119684800D01*
X118256000Y-103278000D02*
X118256000Y-104078000D01*
X123806000Y-103278000D02*
X123806000Y-104178000D01*
X123806000Y-109828000D02*
X123806000Y-108928000D01*
X118256000Y-109828000D02*
X118256000Y-108928000D01*
X118256000Y-103278000D02*
X123806000Y-103278000D01*
X118256000Y-109828000D02*
X123806000Y-109828000D01*
X118256000Y-104078000D02*
X116981000Y-104078000D01*
X124610905Y-97734381D02*
X124610905Y-96734381D01*
X124849000Y-96734381D01*
X124991858Y-96782000D01*
X125087096Y-96877238D01*
X125134715Y-96972476D01*
X125182334Y-97162952D01*
X125182334Y-97305810D01*
X125134715Y-97496286D01*
X125087096Y-97591524D01*
X124991858Y-97686762D01*
X124849000Y-97734381D01*
X124610905Y-97734381D01*
X126134715Y-97734381D02*
X125563286Y-97734381D01*
X125849000Y-97734381D02*
X125849000Y-96734381D01*
X125753762Y-96877238D01*
X125658524Y-96972476D01*
X125563286Y-97020095D01*
X124483905Y-100274381D02*
X124483905Y-99274381D01*
X124722000Y-99274381D01*
X124864858Y-99322000D01*
X124960096Y-99417238D01*
X125007715Y-99512476D01*
X125055334Y-99702952D01*
X125055334Y-99845810D01*
X125007715Y-100036286D01*
X124960096Y-100131524D01*
X124864858Y-100226762D01*
X124722000Y-100274381D01*
X124483905Y-100274381D01*
X125436286Y-99369619D02*
X125483905Y-99322000D01*
X125579143Y-99274381D01*
X125817239Y-99274381D01*
X125912477Y-99322000D01*
X125960096Y-99369619D01*
X126007715Y-99464857D01*
X126007715Y-99560095D01*
X125960096Y-99702952D01*
X125388667Y-100274381D01*
X126007715Y-100274381D01*
X114641334Y-101798381D02*
X114308000Y-101322190D01*
X114069905Y-101798381D02*
X114069905Y-100798381D01*
X114450858Y-100798381D01*
X114546096Y-100846000D01*
X114593715Y-100893619D01*
X114641334Y-100988857D01*
X114641334Y-101131714D01*
X114593715Y-101226952D01*
X114546096Y-101274571D01*
X114450858Y-101322190D01*
X114069905Y-101322190D01*
X115593715Y-101798381D02*
X115022286Y-101798381D01*
X115308000Y-101798381D02*
X115308000Y-100798381D01*
X115212762Y-100941238D01*
X115117524Y-101036476D01*
X115022286Y-101084095D01*
X114514334Y-96083381D02*
X114181000Y-95607190D01*
X113942905Y-96083381D02*
X113942905Y-95083381D01*
X114323858Y-95083381D01*
X114419096Y-95131000D01*
X114466715Y-95178619D01*
X114514334Y-95273857D01*
X114514334Y-95416714D01*
X114466715Y-95511952D01*
X114419096Y-95559571D01*
X114323858Y-95607190D01*
X113942905Y-95607190D01*
X115371477Y-95416714D02*
X115371477Y-96083381D01*
X115133381Y-95035762D02*
X114895286Y-95750048D01*
X115514334Y-95750048D01*
X133310334Y-112117143D02*
X133262715Y-112164762D01*
X133119858Y-112212381D01*
X133024620Y-112212381D01*
X132881762Y-112164762D01*
X132786524Y-112069524D01*
X132738905Y-111974286D01*
X132691286Y-111783810D01*
X132691286Y-111640952D01*
X132738905Y-111450476D01*
X132786524Y-111355238D01*
X132881762Y-111260000D01*
X133024620Y-111212381D01*
X133119858Y-111212381D01*
X133262715Y-111260000D01*
X133310334Y-111307619D01*
X134262715Y-112212381D02*
X133691286Y-112212381D01*
X133977000Y-112212381D02*
X133977000Y-111212381D01*
X133881762Y-111355238D01*
X133786524Y-111450476D01*
X133691286Y-111498095D01*
X130643334Y-103481143D02*
X130595715Y-103528762D01*
X130452858Y-103576381D01*
X130357620Y-103576381D01*
X130214762Y-103528762D01*
X130119524Y-103433524D01*
X130071905Y-103338286D01*
X130024286Y-103147810D01*
X130024286Y-103004952D01*
X130071905Y-102814476D01*
X130119524Y-102719238D01*
X130214762Y-102624000D01*
X130357620Y-102576381D01*
X130452858Y-102576381D01*
X130595715Y-102624000D01*
X130643334Y-102671619D01*
X131024286Y-102671619D02*
X131071905Y-102624000D01*
X131167143Y-102576381D01*
X131405239Y-102576381D01*
X131500477Y-102624000D01*
X131548096Y-102671619D01*
X131595715Y-102766857D01*
X131595715Y-102862095D01*
X131548096Y-103004952D01*
X130976667Y-103576381D01*
X131595715Y-103576381D01*
X125956108Y-103299569D02*
X126718013Y-103299569D01*
X126337061Y-103680521D02*
X126337061Y-102918616D01*
X123838674Y-111558343D02*
X123791055Y-111605962D01*
X123648198Y-111653581D01*
X123552960Y-111653581D01*
X123410102Y-111605962D01*
X123314864Y-111510724D01*
X123267245Y-111415486D01*
X123219626Y-111225010D01*
X123219626Y-111082152D01*
X123267245Y-110891676D01*
X123314864Y-110796438D01*
X123410102Y-110701200D01*
X123552960Y-110653581D01*
X123648198Y-110653581D01*
X123791055Y-110701200D01*
X123838674Y-110748819D01*
X124172007Y-110653581D02*
X124791055Y-110653581D01*
X124457721Y-111034533D01*
X124600579Y-111034533D01*
X124695817Y-111082152D01*
X124743436Y-111129771D01*
X124791055Y-111225010D01*
X124791055Y-111463105D01*
X124743436Y-111558343D01*
X124695817Y-111605962D01*
X124600579Y-111653581D01*
X124314864Y-111653581D01*
X124219626Y-111605962D01*
X124172007Y-111558343D01*
X119225108Y-112570569D02*
X119987013Y-112570569D01*
X119606061Y-112951521D02*
X119606061Y-112189616D01*
X116673334Y-111487143D02*
X116625715Y-111534762D01*
X116482858Y-111582381D01*
X116387620Y-111582381D01*
X116244762Y-111534762D01*
X116149524Y-111439524D01*
X116101905Y-111344286D01*
X116054286Y-111153810D01*
X116054286Y-111010952D01*
X116101905Y-110820476D01*
X116149524Y-110725238D01*
X116244762Y-110630000D01*
X116387620Y-110582381D01*
X116482858Y-110582381D01*
X116625715Y-110630000D01*
X116673334Y-110677619D01*
X117530477Y-110915714D02*
X117530477Y-111582381D01*
X117292381Y-110534762D02*
X117054286Y-111249048D01*
X117673334Y-111249048D01*
X126261905Y-96210381D02*
X126261905Y-95210381D01*
X126642858Y-95210381D01*
X126738096Y-95258000D01*
X126785715Y-95305619D01*
X126833334Y-95400857D01*
X126833334Y-95543714D01*
X126785715Y-95638952D01*
X126738096Y-95686571D01*
X126642858Y-95734190D01*
X126261905Y-95734190D01*
X127785715Y-96210381D02*
X127214286Y-96210381D01*
X127500000Y-96210381D02*
X127500000Y-95210381D01*
X127404762Y-95353238D01*
X127309524Y-95448476D01*
X127214286Y-95496095D01*
X135405905Y-96210381D02*
X135405905Y-95210381D01*
X135786858Y-95210381D01*
X135882096Y-95258000D01*
X135929715Y-95305619D01*
X135977334Y-95400857D01*
X135977334Y-95543714D01*
X135929715Y-95638952D01*
X135882096Y-95686571D01*
X135786858Y-95734190D01*
X135405905Y-95734190D01*
X136358286Y-95305619D02*
X136405905Y-95258000D01*
X136501143Y-95210381D01*
X136739239Y-95210381D01*
X136834477Y-95258000D01*
X136882096Y-95305619D01*
X136929715Y-95400857D01*
X136929715Y-95496095D01*
X136882096Y-95638952D01*
X136310667Y-96210381D01*
X136929715Y-96210381D01*
X116863905Y-96083381D02*
X116863905Y-95083381D01*
X117244858Y-95083381D01*
X117340096Y-95131000D01*
X117387715Y-95178619D01*
X117435334Y-95273857D01*
X117435334Y-95416714D01*
X117387715Y-95511952D01*
X117340096Y-95559571D01*
X117244858Y-95607190D01*
X116863905Y-95607190D01*
X117768667Y-95083381D02*
X118387715Y-95083381D01*
X118054381Y-95464333D01*
X118197239Y-95464333D01*
X118292477Y-95511952D01*
X118340096Y-95559571D01*
X118387715Y-95654810D01*
X118387715Y-95892905D01*
X118340096Y-95988143D01*
X118292477Y-96035762D01*
X118197239Y-96083381D01*
X117911524Y-96083381D01*
X117816286Y-96035762D01*
X117768667Y-95988143D01*
X135540762Y-98718619D02*
X135445524Y-98671000D01*
X135350286Y-98575762D01*
X135207429Y-98432905D01*
X135112190Y-98385286D01*
X135016952Y-98385286D01*
X135064571Y-98623381D02*
X134969333Y-98575762D01*
X134874095Y-98480524D01*
X134826476Y-98290048D01*
X134826476Y-97956714D01*
X134874095Y-97766238D01*
X134969333Y-97671000D01*
X135064571Y-97623381D01*
X135255048Y-97623381D01*
X135350286Y-97671000D01*
X135445524Y-97766238D01*
X135493143Y-97956714D01*
X135493143Y-98290048D01*
X135445524Y-98480524D01*
X135350286Y-98575762D01*
X135255048Y-98623381D01*
X135064571Y-98623381D01*
X136445524Y-98623381D02*
X135874095Y-98623381D01*
X136159809Y-98623381D02*
X136159809Y-97623381D01*
X136064571Y-97766238D01*
X135969333Y-97861476D01*
X135874095Y-97909095D01*
X118181381Y-119165666D02*
X117705190Y-119499000D01*
X118181381Y-119737095D02*
X117181381Y-119737095D01*
X117181381Y-119356142D01*
X117229000Y-119260904D01*
X117276619Y-119213285D01*
X117371857Y-119165666D01*
X117514714Y-119165666D01*
X117609952Y-119213285D01*
X117657571Y-119260904D01*
X117705190Y-119356142D01*
X117705190Y-119737095D01*
X117276619Y-118784714D02*
X117229000Y-118737095D01*
X117181381Y-118641857D01*
X117181381Y-118403761D01*
X117229000Y-118308523D01*
X117276619Y-118260904D01*
X117371857Y-118213285D01*
X117467095Y-118213285D01*
X117609952Y-118260904D01*
X118181381Y-118832333D01*
X118181381Y-118213285D01*
X139004381Y-104179666D02*
X138528190Y-104513000D01*
X139004381Y-104751095D02*
X138004381Y-104751095D01*
X138004381Y-104370142D01*
X138052000Y-104274904D01*
X138099619Y-104227285D01*
X138194857Y-104179666D01*
X138337714Y-104179666D01*
X138432952Y-104227285D01*
X138480571Y-104274904D01*
X138528190Y-104370142D01*
X138528190Y-104751095D01*
X138004381Y-103846333D02*
X138004381Y-103227285D01*
X138385333Y-103560619D01*
X138385333Y-103417761D01*
X138432952Y-103322523D01*
X138480571Y-103274904D01*
X138575810Y-103227285D01*
X138813905Y-103227285D01*
X138909143Y-103274904D01*
X138956762Y-103322523D01*
X139004381Y-103417761D01*
X139004381Y-103703476D01*
X138956762Y-103798714D01*
X138909143Y-103846333D01*
X132802334Y-108153381D02*
X132469000Y-107677190D01*
X132230905Y-108153381D02*
X132230905Y-107153381D01*
X132611858Y-107153381D01*
X132707096Y-107201000D01*
X132754715Y-107248619D01*
X132802334Y-107343857D01*
X132802334Y-107486714D01*
X132754715Y-107581952D01*
X132707096Y-107629571D01*
X132611858Y-107677190D01*
X132230905Y-107677190D01*
X133707096Y-107153381D02*
X133230905Y-107153381D01*
X133183286Y-107629571D01*
X133230905Y-107581952D01*
X133326143Y-107534333D01*
X133564239Y-107534333D01*
X133659477Y-107581952D01*
X133707096Y-107629571D01*
X133754715Y-107724810D01*
X133754715Y-107962905D01*
X133707096Y-108058143D01*
X133659477Y-108105762D01*
X133564239Y-108153381D01*
X133326143Y-108153381D01*
X133230905Y-108105762D01*
X133183286Y-108058143D01*
X132080095Y-116836381D02*
X132080095Y-117645905D01*
X132127714Y-117741143D01*
X132175333Y-117788762D01*
X132270571Y-117836381D01*
X132461048Y-117836381D01*
X132556286Y-117788762D01*
X132603905Y-117741143D01*
X132651524Y-117645905D01*
X132651524Y-116836381D01*
X133651524Y-117836381D02*
X133080095Y-117836381D01*
X133365809Y-117836381D02*
X133365809Y-116836381D01*
X133270571Y-116979238D01*
X133175333Y-117074476D01*
X133080095Y-117122095D01*
X120269095Y-101805381D02*
X120269095Y-102614905D01*
X120316714Y-102710143D01*
X120364333Y-102757762D01*
X120459571Y-102805381D01*
X120650048Y-102805381D01*
X120745286Y-102757762D01*
X120792905Y-102710143D01*
X120840524Y-102614905D01*
X120840524Y-101805381D01*
X121269095Y-101900619D02*
X121316714Y-101853000D01*
X121411952Y-101805381D01*
X121650048Y-101805381D01*
X121745286Y-101853000D01*
X121792905Y-101900619D01*
X121840524Y-101995857D01*
X121840524Y-102091095D01*
X121792905Y-102233952D01*
X121221476Y-102805381D01*
X121840524Y-102805381D01*
M02*
