G04 #@! TF.FileFunction,Legend,Bot*
%FSLAX46Y46*%
G04 Gerber Fmt 4.6, Leading zero omitted, Abs format (unit mm)*
G04 Created by KiCad (PCBNEW 4.0.4-stable) date Fri Dec  9 21:16:25 2016*
%MOMM*%
%LPD*%
G01*
G04 APERTURE LIST*
%ADD10C,2.000000*%
%ADD11C,0.300000*%
G04 APERTURE END LIST*
D10*
D11*
X137436428Y-104940571D02*
X137436428Y-103440571D01*
X136793571Y-104512000D02*
X136079285Y-104512000D01*
X136936428Y-104940571D02*
X136436428Y-103440571D01*
X135936428Y-104940571D01*
X134579285Y-104940571D02*
X135079285Y-104226286D01*
X135436428Y-104940571D02*
X135436428Y-103440571D01*
X134865000Y-103440571D01*
X134722142Y-103512000D01*
X134650714Y-103583429D01*
X134579285Y-103726286D01*
X134579285Y-103940571D01*
X134650714Y-104083429D01*
X134722142Y-104154857D01*
X134865000Y-104226286D01*
X135436428Y-104226286D01*
X133079285Y-104797714D02*
X133150714Y-104869143D01*
X133365000Y-104940571D01*
X133507857Y-104940571D01*
X133722142Y-104869143D01*
X133865000Y-104726286D01*
X133936428Y-104583429D01*
X134007857Y-104297714D01*
X134007857Y-104083429D01*
X133936428Y-103797714D01*
X133865000Y-103654857D01*
X133722142Y-103512000D01*
X133507857Y-103440571D01*
X133365000Y-103440571D01*
X133150714Y-103512000D01*
X133079285Y-103583429D01*
X132579285Y-103440571D02*
X131579285Y-103440571D01*
X132222142Y-104940571D01*
X129936429Y-104869143D02*
X129722143Y-104940571D01*
X129365000Y-104940571D01*
X129222143Y-104869143D01*
X129150714Y-104797714D01*
X129079286Y-104654857D01*
X129079286Y-104512000D01*
X129150714Y-104369143D01*
X129222143Y-104297714D01*
X129365000Y-104226286D01*
X129650714Y-104154857D01*
X129793572Y-104083429D01*
X129865000Y-104012000D01*
X129936429Y-103869143D01*
X129936429Y-103726286D01*
X129865000Y-103583429D01*
X129793572Y-103512000D01*
X129650714Y-103440571D01*
X129293572Y-103440571D01*
X129079286Y-103512000D01*
X127793572Y-104940571D02*
X127793572Y-104154857D01*
X127865001Y-104012000D01*
X128007858Y-103940571D01*
X128293572Y-103940571D01*
X128436429Y-104012000D01*
X127793572Y-104869143D02*
X127936429Y-104940571D01*
X128293572Y-104940571D01*
X128436429Y-104869143D01*
X128507858Y-104726286D01*
X128507858Y-104583429D01*
X128436429Y-104440571D01*
X128293572Y-104369143D01*
X127936429Y-104369143D01*
X127793572Y-104297714D01*
X127293572Y-103940571D02*
X126722143Y-103940571D01*
X127079286Y-104940571D02*
X127079286Y-103654857D01*
X127007858Y-103512000D01*
X126865000Y-103440571D01*
X126722143Y-103440571D01*
X125650715Y-104869143D02*
X125793572Y-104940571D01*
X126079286Y-104940571D01*
X126222143Y-104869143D01*
X126293572Y-104726286D01*
X126293572Y-104154857D01*
X126222143Y-104012000D01*
X126079286Y-103940571D01*
X125793572Y-103940571D01*
X125650715Y-104012000D01*
X125579286Y-104154857D01*
X125579286Y-104297714D01*
X126293572Y-104440571D01*
X125150715Y-103940571D02*
X124579286Y-103940571D01*
X124936429Y-103440571D02*
X124936429Y-104726286D01*
X124865001Y-104869143D01*
X124722143Y-104940571D01*
X124579286Y-104940571D01*
X124222143Y-103940571D02*
X123865000Y-104940571D01*
X123507858Y-103940571D02*
X123865000Y-104940571D01*
X124007858Y-105297714D01*
X124079286Y-105369143D01*
X124222143Y-105440571D01*
X121865001Y-104869143D02*
X121650715Y-104940571D01*
X121293572Y-104940571D01*
X121150715Y-104869143D01*
X121079286Y-104797714D01*
X121007858Y-104654857D01*
X121007858Y-104512000D01*
X121079286Y-104369143D01*
X121150715Y-104297714D01*
X121293572Y-104226286D01*
X121579286Y-104154857D01*
X121722144Y-104083429D01*
X121793572Y-104012000D01*
X121865001Y-103869143D01*
X121865001Y-103726286D01*
X121793572Y-103583429D01*
X121722144Y-103512000D01*
X121579286Y-103440571D01*
X121222144Y-103440571D01*
X121007858Y-103512000D01*
X120507858Y-103940571D02*
X120222144Y-104940571D01*
X119936430Y-104226286D01*
X119650715Y-104940571D01*
X119365001Y-103940571D01*
X118793572Y-104940571D02*
X118793572Y-103940571D01*
X118793572Y-103440571D02*
X118865001Y-103512000D01*
X118793572Y-103583429D01*
X118722144Y-103512000D01*
X118793572Y-103440571D01*
X118793572Y-103583429D01*
X118293572Y-103940571D02*
X117722143Y-103940571D01*
X118079286Y-103440571D02*
X118079286Y-104726286D01*
X118007858Y-104869143D01*
X117865000Y-104940571D01*
X117722143Y-104940571D01*
X116579286Y-104869143D02*
X116722143Y-104940571D01*
X117007857Y-104940571D01*
X117150715Y-104869143D01*
X117222143Y-104797714D01*
X117293572Y-104654857D01*
X117293572Y-104226286D01*
X117222143Y-104083429D01*
X117150715Y-104012000D01*
X117007857Y-103940571D01*
X116722143Y-103940571D01*
X116579286Y-104012000D01*
X115936429Y-104940571D02*
X115936429Y-103440571D01*
X115293572Y-104940571D02*
X115293572Y-104154857D01*
X115365001Y-104012000D01*
X115507858Y-103940571D01*
X115722143Y-103940571D01*
X115865001Y-104012000D01*
X115936429Y-104083429D01*
X130650714Y-107490571D02*
X130650714Y-105990571D01*
X130079286Y-105990571D01*
X129936428Y-106062000D01*
X129865000Y-106133429D01*
X129793571Y-106276286D01*
X129793571Y-106490571D01*
X129865000Y-106633429D01*
X129936428Y-106704857D01*
X130079286Y-106776286D01*
X130650714Y-106776286D01*
X129150714Y-107490571D02*
X129150714Y-106490571D01*
X129150714Y-105990571D02*
X129222143Y-106062000D01*
X129150714Y-106133429D01*
X129079286Y-106062000D01*
X129150714Y-105990571D01*
X129150714Y-106133429D01*
X128650714Y-106490571D02*
X128079285Y-106490571D01*
X128436428Y-105990571D02*
X128436428Y-107276286D01*
X128365000Y-107419143D01*
X128222142Y-107490571D01*
X128079285Y-107490571D01*
X127793571Y-106490571D02*
X127222142Y-106490571D01*
X127579285Y-105990571D02*
X127579285Y-107276286D01*
X127507857Y-107419143D01*
X127364999Y-107490571D01*
X127222142Y-107490571D01*
X124722142Y-107490571D02*
X125222142Y-106776286D01*
X125579285Y-107490571D02*
X125579285Y-105990571D01*
X125007857Y-105990571D01*
X124864999Y-106062000D01*
X124793571Y-106133429D01*
X124722142Y-106276286D01*
X124722142Y-106490571D01*
X124793571Y-106633429D01*
X124864999Y-106704857D01*
X125007857Y-106776286D01*
X125579285Y-106776286D01*
X124150714Y-107062000D02*
X123436428Y-107062000D01*
X124293571Y-107490571D02*
X123793571Y-105990571D01*
X123293571Y-107490571D01*
X122865000Y-107419143D02*
X122650714Y-107490571D01*
X122293571Y-107490571D01*
X122150714Y-107419143D01*
X122079285Y-107347714D01*
X122007857Y-107204857D01*
X122007857Y-107062000D01*
X122079285Y-106919143D01*
X122150714Y-106847714D01*
X122293571Y-106776286D01*
X122579285Y-106704857D01*
X122722143Y-106633429D01*
X122793571Y-106562000D01*
X122865000Y-106419143D01*
X122865000Y-106276286D01*
X122793571Y-106133429D01*
X122722143Y-106062000D01*
X122579285Y-105990571D01*
X122222143Y-105990571D01*
X122007857Y-106062000D01*
M02*
