G04 #@! TF.FileFunction,Copper,L2,Bot,Signal*
%FSLAX46Y46*%
G04 Gerber Fmt 4.6, Leading zero omitted, Abs format (unit mm)*
G04 Created by KiCad (PCBNEW 4.0.4-stable) date Fri Dec  9 21:16:25 2016*
%MOMM*%
%LPD*%
G01*
G04 APERTURE LIST*
%ADD10C,2.000000*%
%ADD11R,2.032000X2.032000*%
%ADD12O,2.032000X2.032000*%
%ADD13R,1.727200X2.032000*%
%ADD14O,1.727200X2.032000*%
%ADD15C,1.524000*%
%ADD16C,0.685800*%
%ADD17C,0.152400*%
%ADD18C,0.254000*%
G04 APERTURE END LIST*
D10*
D11*
X126238000Y-93091000D03*
D12*
X128778000Y-93091000D03*
D11*
X132842000Y-93091000D03*
D12*
X135382000Y-93091000D03*
D13*
X122174000Y-93091000D03*
D14*
X119634000Y-93091000D03*
X117094000Y-93091000D03*
D15*
X123571000Y-119253000D03*
X121031000Y-119253000D03*
X126111000Y-119253000D03*
D16*
X132588000Y-100357100D03*
X135177700Y-109367600D03*
X124518300Y-96334600D03*
X118680600Y-108083300D03*
X125579000Y-108378000D03*
X133742700Y-118364100D03*
X134300000Y-112526300D03*
X130937000Y-105043300D03*
X124206000Y-114282500D03*
X123383300Y-107203000D03*
X118893600Y-113084700D03*
D17*
X121031000Y-119253000D02*
X123571000Y-119253000D01*
D18*
G36*
X115709474Y-92332766D02*
X115595400Y-92906255D01*
X115595400Y-93275745D01*
X115709474Y-93849234D01*
X116034330Y-94335415D01*
X116520511Y-94660271D01*
X117094000Y-94774345D01*
X117667489Y-94660271D01*
X118153670Y-94335415D01*
X118364000Y-94020634D01*
X118574330Y-94335415D01*
X119060511Y-94660271D01*
X119634000Y-94774345D01*
X120207489Y-94660271D01*
X120693670Y-94335415D01*
X120708500Y-94313220D01*
X120772073Y-94466699D01*
X120950702Y-94645327D01*
X121184091Y-94742000D01*
X121888250Y-94742000D01*
X122047000Y-94583250D01*
X122047000Y-93218000D01*
X122301000Y-93218000D01*
X122301000Y-94583250D01*
X122459750Y-94742000D01*
X123163909Y-94742000D01*
X123397298Y-94645327D01*
X123575927Y-94466699D01*
X123672600Y-94233310D01*
X123672600Y-93376750D01*
X124587000Y-93376750D01*
X124587000Y-94233310D01*
X124683673Y-94466699D01*
X124862302Y-94645327D01*
X125095691Y-94742000D01*
X125952250Y-94742000D01*
X126111000Y-94583250D01*
X126111000Y-93218000D01*
X124745750Y-93218000D01*
X124587000Y-93376750D01*
X123672600Y-93376750D01*
X123513850Y-93218000D01*
X122301000Y-93218000D01*
X122047000Y-93218000D01*
X122027000Y-93218000D01*
X122027000Y-92964000D01*
X122047000Y-92964000D01*
X122047000Y-92944000D01*
X122301000Y-92944000D01*
X122301000Y-92964000D01*
X123513850Y-92964000D01*
X123672600Y-92805250D01*
X123672600Y-92202000D01*
X124587000Y-92202000D01*
X124587000Y-92805250D01*
X124745750Y-92964000D01*
X126111000Y-92964000D01*
X126111000Y-92944000D01*
X126365000Y-92944000D01*
X126365000Y-92964000D01*
X126385000Y-92964000D01*
X126385000Y-93218000D01*
X126365000Y-93218000D01*
X126365000Y-94583250D01*
X126523750Y-94742000D01*
X127380309Y-94742000D01*
X127613698Y-94645327D01*
X127792327Y-94466699D01*
X127813481Y-94415628D01*
X128113845Y-94616325D01*
X128745655Y-94742000D01*
X128810345Y-94742000D01*
X129442155Y-94616325D01*
X129977778Y-94258433D01*
X130335670Y-93722810D01*
X130461345Y-93091000D01*
X130335670Y-92459190D01*
X130163821Y-92202000D01*
X131178560Y-92202000D01*
X131178560Y-94107000D01*
X131222838Y-94342317D01*
X131361910Y-94558441D01*
X131574110Y-94703431D01*
X131826000Y-94754440D01*
X133858000Y-94754440D01*
X134093317Y-94710162D01*
X134309441Y-94571090D01*
X134416233Y-94414794D01*
X134717845Y-94616325D01*
X135349655Y-94742000D01*
X135414345Y-94742000D01*
X136046155Y-94616325D01*
X136581778Y-94258433D01*
X136939670Y-93722810D01*
X137033000Y-93253609D01*
X137033000Y-122428000D01*
X115250359Y-122428000D01*
X115108261Y-122399735D01*
X115062000Y-122368824D01*
X115062000Y-119529661D01*
X119633758Y-119529661D01*
X119845990Y-120043303D01*
X120238630Y-120436629D01*
X120751900Y-120649757D01*
X121307661Y-120650242D01*
X121821303Y-120438010D01*
X122214629Y-120045370D01*
X122248334Y-119964200D01*
X122353305Y-119964200D01*
X122385990Y-120043303D01*
X122778630Y-120436629D01*
X123291900Y-120649757D01*
X123847661Y-120650242D01*
X124361303Y-120438010D01*
X124754629Y-120045370D01*
X124840949Y-119837488D01*
X124925990Y-120043303D01*
X125318630Y-120436629D01*
X125831900Y-120649757D01*
X126387661Y-120650242D01*
X126901303Y-120438010D01*
X127294629Y-120045370D01*
X127507757Y-119532100D01*
X127508242Y-118976339D01*
X127296010Y-118462697D01*
X126903370Y-118069371D01*
X126390100Y-117856243D01*
X125834339Y-117855758D01*
X125320697Y-118067990D01*
X124927371Y-118460630D01*
X124841051Y-118668512D01*
X124756010Y-118462697D01*
X124363370Y-118069371D01*
X123850100Y-117856243D01*
X123294339Y-117855758D01*
X122780697Y-118067990D01*
X122387371Y-118460630D01*
X122353666Y-118541800D01*
X122248695Y-118541800D01*
X122216010Y-118462697D01*
X121823370Y-118069371D01*
X121310100Y-117856243D01*
X120754339Y-117855758D01*
X120240697Y-118067990D01*
X119847371Y-118460630D01*
X119634243Y-118973900D01*
X119633758Y-119529661D01*
X115062000Y-119529661D01*
X115062000Y-92202000D01*
X115796849Y-92202000D01*
X115709474Y-92332766D01*
X115709474Y-92332766D01*
G37*
X115709474Y-92332766D02*
X115595400Y-92906255D01*
X115595400Y-93275745D01*
X115709474Y-93849234D01*
X116034330Y-94335415D01*
X116520511Y-94660271D01*
X117094000Y-94774345D01*
X117667489Y-94660271D01*
X118153670Y-94335415D01*
X118364000Y-94020634D01*
X118574330Y-94335415D01*
X119060511Y-94660271D01*
X119634000Y-94774345D01*
X120207489Y-94660271D01*
X120693670Y-94335415D01*
X120708500Y-94313220D01*
X120772073Y-94466699D01*
X120950702Y-94645327D01*
X121184091Y-94742000D01*
X121888250Y-94742000D01*
X122047000Y-94583250D01*
X122047000Y-93218000D01*
X122301000Y-93218000D01*
X122301000Y-94583250D01*
X122459750Y-94742000D01*
X123163909Y-94742000D01*
X123397298Y-94645327D01*
X123575927Y-94466699D01*
X123672600Y-94233310D01*
X123672600Y-93376750D01*
X124587000Y-93376750D01*
X124587000Y-94233310D01*
X124683673Y-94466699D01*
X124862302Y-94645327D01*
X125095691Y-94742000D01*
X125952250Y-94742000D01*
X126111000Y-94583250D01*
X126111000Y-93218000D01*
X124745750Y-93218000D01*
X124587000Y-93376750D01*
X123672600Y-93376750D01*
X123513850Y-93218000D01*
X122301000Y-93218000D01*
X122047000Y-93218000D01*
X122027000Y-93218000D01*
X122027000Y-92964000D01*
X122047000Y-92964000D01*
X122047000Y-92944000D01*
X122301000Y-92944000D01*
X122301000Y-92964000D01*
X123513850Y-92964000D01*
X123672600Y-92805250D01*
X123672600Y-92202000D01*
X124587000Y-92202000D01*
X124587000Y-92805250D01*
X124745750Y-92964000D01*
X126111000Y-92964000D01*
X126111000Y-92944000D01*
X126365000Y-92944000D01*
X126365000Y-92964000D01*
X126385000Y-92964000D01*
X126385000Y-93218000D01*
X126365000Y-93218000D01*
X126365000Y-94583250D01*
X126523750Y-94742000D01*
X127380309Y-94742000D01*
X127613698Y-94645327D01*
X127792327Y-94466699D01*
X127813481Y-94415628D01*
X128113845Y-94616325D01*
X128745655Y-94742000D01*
X128810345Y-94742000D01*
X129442155Y-94616325D01*
X129977778Y-94258433D01*
X130335670Y-93722810D01*
X130461345Y-93091000D01*
X130335670Y-92459190D01*
X130163821Y-92202000D01*
X131178560Y-92202000D01*
X131178560Y-94107000D01*
X131222838Y-94342317D01*
X131361910Y-94558441D01*
X131574110Y-94703431D01*
X131826000Y-94754440D01*
X133858000Y-94754440D01*
X134093317Y-94710162D01*
X134309441Y-94571090D01*
X134416233Y-94414794D01*
X134717845Y-94616325D01*
X135349655Y-94742000D01*
X135414345Y-94742000D01*
X136046155Y-94616325D01*
X136581778Y-94258433D01*
X136939670Y-93722810D01*
X137033000Y-93253609D01*
X137033000Y-122428000D01*
X115250359Y-122428000D01*
X115108261Y-122399735D01*
X115062000Y-122368824D01*
X115062000Y-119529661D01*
X119633758Y-119529661D01*
X119845990Y-120043303D01*
X120238630Y-120436629D01*
X120751900Y-120649757D01*
X121307661Y-120650242D01*
X121821303Y-120438010D01*
X122214629Y-120045370D01*
X122248334Y-119964200D01*
X122353305Y-119964200D01*
X122385990Y-120043303D01*
X122778630Y-120436629D01*
X123291900Y-120649757D01*
X123847661Y-120650242D01*
X124361303Y-120438010D01*
X124754629Y-120045370D01*
X124840949Y-119837488D01*
X124925990Y-120043303D01*
X125318630Y-120436629D01*
X125831900Y-120649757D01*
X126387661Y-120650242D01*
X126901303Y-120438010D01*
X127294629Y-120045370D01*
X127507757Y-119532100D01*
X127508242Y-118976339D01*
X127296010Y-118462697D01*
X126903370Y-118069371D01*
X126390100Y-117856243D01*
X125834339Y-117855758D01*
X125320697Y-118067990D01*
X124927371Y-118460630D01*
X124841051Y-118668512D01*
X124756010Y-118462697D01*
X124363370Y-118069371D01*
X123850100Y-117856243D01*
X123294339Y-117855758D01*
X122780697Y-118067990D01*
X122387371Y-118460630D01*
X122353666Y-118541800D01*
X122248695Y-118541800D01*
X122216010Y-118462697D01*
X121823370Y-118069371D01*
X121310100Y-117856243D01*
X120754339Y-117855758D01*
X120240697Y-118067990D01*
X119847371Y-118460630D01*
X119634243Y-118973900D01*
X119633758Y-119529661D01*
X115062000Y-119529661D01*
X115062000Y-92202000D01*
X115796849Y-92202000D01*
X115709474Y-92332766D01*
M02*
