G04 #@! TF.FileFunction,Soldermask,Top*
%FSLAX46Y46*%
G04 Gerber Fmt 4.6, Leading zero omitted, Abs format (unit mm)*
G04 Created by KiCad (PCBNEW 4.0.4-stable) date Fri Dec  9 21:16:25 2016*
%MOMM*%
%LPD*%
G01*
G04 APERTURE LIST*
%ADD10C,2.000000*%
%ADD11R,1.597660X1.800860*%
%ADD12R,1.200000X0.900000*%
%ADD13R,1.200000X0.750000*%
%ADD14R,2.999740X1.501140*%
%ADD15R,2.032000X2.032000*%
%ADD16O,2.032000X2.032000*%
%ADD17R,1.727200X2.032000*%
%ADD18O,1.727200X2.032000*%
%ADD19O,0.609600X1.473200*%
%ADD20C,1.524000*%
%ADD21R,0.900000X1.200000*%
%ADD22R,0.800100X0.800100*%
%ADD23R,1.200000X0.400000*%
G04 APERTURE END LIST*
D10*
D11*
X120373140Y-97155000D03*
X123212860Y-97155000D03*
X120373140Y-99822000D03*
X123212860Y-99822000D03*
D12*
X118194000Y-97155000D03*
X115994000Y-97155000D03*
X115994000Y-99822000D03*
X118194000Y-99822000D03*
D13*
X132400000Y-113411000D03*
X134300000Y-113411000D03*
D14*
X132935980Y-105029000D03*
X128938020Y-105029000D03*
X126204980Y-114300000D03*
X122207020Y-114300000D03*
D13*
X115890000Y-113030000D03*
X117790000Y-113030000D03*
D15*
X126238000Y-93091000D03*
D16*
X128778000Y-93091000D03*
D15*
X132842000Y-93091000D03*
D16*
X135382000Y-93091000D03*
D17*
X122174000Y-93091000D03*
D18*
X119634000Y-93091000D03*
X117094000Y-93091000D03*
D19*
X130048000Y-101600000D03*
X131318000Y-101600000D03*
X132588000Y-101600000D03*
X133858000Y-101600000D03*
X133858000Y-96012000D03*
X132588000Y-96012000D03*
X131318000Y-96012000D03*
X130048000Y-96012000D03*
D20*
X123571000Y-119253000D03*
X121031000Y-119253000D03*
X126111000Y-119253000D03*
D21*
X136652000Y-102913000D03*
X136652000Y-105113000D03*
D12*
X131869000Y-109601000D03*
X134069000Y-109601000D03*
D22*
X131892000Y-120634760D03*
X133792000Y-120634760D03*
X132842000Y-118635780D03*
D23*
X117581000Y-104603000D03*
X117581000Y-105253000D03*
X117581000Y-105903000D03*
X117581000Y-106553000D03*
X117581000Y-107203000D03*
X117581000Y-107853000D03*
X117581000Y-108503000D03*
X124481000Y-108503000D03*
X124481000Y-107853000D03*
X124481000Y-107203000D03*
X124481000Y-106553000D03*
X124481000Y-105903000D03*
X124481000Y-105253000D03*
X124481000Y-104603000D03*
M02*
