G04 #@! TF.FileFunction,Copper,L1,Top,Signal*
%FSLAX46Y46*%
G04 Gerber Fmt 4.6, Leading zero omitted, Abs format (unit mm)*
G04 Created by KiCad (PCBNEW 4.0.4-stable) date Fri Dec  9 21:16:25 2016*
%MOMM*%
%LPD*%
G01*
G04 APERTURE LIST*
%ADD10C,2.000000*%
%ADD11R,1.597660X1.800860*%
%ADD12R,1.200000X0.900000*%
%ADD13R,1.200000X0.750000*%
%ADD14R,2.999740X1.501140*%
%ADD15R,2.032000X2.032000*%
%ADD16O,2.032000X2.032000*%
%ADD17R,1.727200X2.032000*%
%ADD18O,1.727200X2.032000*%
%ADD19O,0.609600X1.473200*%
%ADD20C,1.524000*%
%ADD21R,0.900000X1.200000*%
%ADD22R,0.800100X0.800100*%
%ADD23R,1.200000X0.400000*%
%ADD24C,0.685800*%
%ADD25C,0.152400*%
G04 APERTURE END LIST*
D10*
D11*
X120373140Y-97155000D03*
X123212860Y-97155000D03*
X120373140Y-99822000D03*
X123212860Y-99822000D03*
D12*
X118194000Y-97155000D03*
X115994000Y-97155000D03*
X115994000Y-99822000D03*
X118194000Y-99822000D03*
D13*
X132400000Y-113411000D03*
X134300000Y-113411000D03*
D14*
X132935980Y-105029000D03*
X128938020Y-105029000D03*
X126204980Y-114300000D03*
X122207020Y-114300000D03*
D13*
X115890000Y-113030000D03*
X117790000Y-113030000D03*
D15*
X126238000Y-93091000D03*
D16*
X128778000Y-93091000D03*
D15*
X132842000Y-93091000D03*
D16*
X135382000Y-93091000D03*
D17*
X122174000Y-93091000D03*
D18*
X119634000Y-93091000D03*
X117094000Y-93091000D03*
D19*
X130048000Y-101600000D03*
X131318000Y-101600000D03*
X132588000Y-101600000D03*
X133858000Y-101600000D03*
X133858000Y-96012000D03*
X132588000Y-96012000D03*
X131318000Y-96012000D03*
X130048000Y-96012000D03*
D20*
X123571000Y-119253000D03*
X121031000Y-119253000D03*
X126111000Y-119253000D03*
D21*
X136652000Y-102913000D03*
X136652000Y-105113000D03*
D12*
X131869000Y-109601000D03*
X134069000Y-109601000D03*
D22*
X131892000Y-120634760D03*
X133792000Y-120634760D03*
X132842000Y-118635780D03*
D23*
X117581000Y-104603000D03*
X117581000Y-105253000D03*
X117581000Y-105903000D03*
X117581000Y-106553000D03*
X117581000Y-107203000D03*
X117581000Y-107853000D03*
X117581000Y-108503000D03*
X124481000Y-108503000D03*
X124481000Y-107853000D03*
X124481000Y-107203000D03*
X124481000Y-106553000D03*
X124481000Y-105903000D03*
X124481000Y-105253000D03*
X124481000Y-104603000D03*
D24*
X132588000Y-100357100D03*
X135177700Y-109367600D03*
X124518300Y-96334600D03*
X118680600Y-108083300D03*
X125579000Y-108378000D03*
X133742700Y-118364100D03*
X134300000Y-112526300D03*
X130937000Y-105043300D03*
X124206000Y-114282500D03*
X123383300Y-107203000D03*
X118893600Y-113084700D03*
D25*
X128073600Y-105029000D02*
X127209200Y-105029000D01*
X131892000Y-114522900D02*
X132400000Y-114014900D01*
X131892000Y-120634800D02*
X131892000Y-114522900D01*
X132400000Y-113411000D02*
X132400000Y-114014900D01*
X132400000Y-113411000D02*
X132400000Y-112807100D01*
X128073600Y-105029000D02*
X128938000Y-105029000D01*
X128938000Y-105029000D02*
X128938000Y-104049500D01*
X126783200Y-104603000D02*
X127209200Y-105029000D01*
X124481000Y-104603000D02*
X126783200Y-104603000D01*
X119634000Y-93091000D02*
X120726500Y-93091000D01*
X120726500Y-94183500D02*
X120726500Y-93091000D01*
X122185100Y-95642100D02*
X120726500Y-94183500D01*
X122185100Y-98211500D02*
X122185100Y-95642100D01*
X122666200Y-98692600D02*
X122185100Y-98211500D01*
X124109500Y-98692600D02*
X122666200Y-98692600D01*
X124481000Y-99064100D02*
X124109500Y-98692600D01*
X124481000Y-104603000D02*
X124481000Y-99064100D01*
X118541500Y-92788500D02*
X118541500Y-93091000D01*
X117585900Y-91832900D02*
X118541500Y-92788500D01*
X116612600Y-91832900D02*
X117585900Y-91832900D01*
X115994000Y-92451500D02*
X116612600Y-91832900D01*
X115994000Y-97155000D02*
X115994000Y-92451500D01*
X119634000Y-93091000D02*
X118541500Y-93091000D01*
X132551000Y-112807100D02*
X132400000Y-112807100D01*
X137331000Y-108027100D02*
X132551000Y-112807100D01*
X137331000Y-104405000D02*
X137331000Y-108027100D01*
X136975500Y-104049500D02*
X137331000Y-104405000D01*
X128938000Y-104049500D02*
X136975500Y-104049500D01*
X115994000Y-97155000D02*
X115994000Y-99822000D01*
X115994000Y-106444900D02*
X116752100Y-107203000D01*
X115994000Y-99822000D02*
X115994000Y-106444900D01*
X117581000Y-107203000D02*
X116752100Y-107203000D01*
X134069000Y-109601000D02*
X134897900Y-109601000D01*
X135131300Y-109367600D02*
X134897900Y-109601000D01*
X135177700Y-109367600D02*
X135131300Y-109367600D01*
X123212900Y-97155000D02*
X124240600Y-97155000D01*
X124240600Y-96612300D02*
X124240600Y-97155000D01*
X124518300Y-96334600D02*
X124240600Y-96612300D01*
X117581000Y-107853000D02*
X118409900Y-107853000D01*
X117581000Y-108503000D02*
X118409900Y-108503000D01*
X118409900Y-107853000D02*
X118409900Y-108083300D01*
X118409900Y-108083300D02*
X118409900Y-108503000D01*
X124481000Y-108503000D02*
X125309900Y-108503000D01*
X125434900Y-108378000D02*
X125309900Y-108503000D01*
X125579000Y-108378000D02*
X125434900Y-108378000D01*
X132588000Y-100634500D02*
X131318000Y-100634500D01*
X132588000Y-100357100D02*
X132588000Y-100634500D01*
X132588000Y-100634500D02*
X132588000Y-101600000D01*
X131318000Y-101600000D02*
X131318000Y-101117200D01*
X131318000Y-101117200D02*
X131318000Y-100634500D01*
X130835300Y-100634500D02*
X130048000Y-100634500D01*
X131318000Y-101117200D02*
X130835300Y-100634500D01*
X130048000Y-101600000D02*
X130048000Y-100634500D01*
X118409900Y-108083300D02*
X118680600Y-108083300D01*
X132842000Y-118635800D02*
X133471000Y-118635800D01*
X133742700Y-118364100D02*
X133471000Y-118635800D01*
X134300000Y-112526300D02*
X134300000Y-113411000D01*
X131192900Y-105043300D02*
X131207200Y-105029000D01*
X130937000Y-105043300D02*
X131192900Y-105043300D01*
X132936000Y-105029000D02*
X131207200Y-105029000D01*
X124458700Y-114282500D02*
X124476200Y-114300000D01*
X124206000Y-114282500D02*
X124458700Y-114282500D01*
X126205000Y-114300000D02*
X124476200Y-114300000D01*
X124481000Y-107203000D02*
X123383300Y-107203000D01*
X117790000Y-113030000D02*
X118618900Y-113030000D01*
X118673600Y-113084700D02*
X118618900Y-113030000D01*
X118893600Y-113084700D02*
X118673600Y-113084700D01*
X122663000Y-114300000D02*
X122207000Y-114300000D01*
X129648800Y-121285800D02*
X122663000Y-114300000D01*
X132512100Y-121285800D02*
X129648800Y-121285800D01*
X133163100Y-120634800D02*
X132512100Y-121285800D01*
X133792000Y-120634800D02*
X133163100Y-120634800D01*
X133792000Y-120634800D02*
X133792000Y-120005800D01*
X132842000Y-93091000D02*
X131597100Y-93091000D01*
X137636200Y-116161600D02*
X133792000Y-120005800D01*
X137636200Y-102516100D02*
X137636200Y-116161600D01*
X134610000Y-99489900D02*
X137636200Y-102516100D01*
X132339300Y-99489900D02*
X134610000Y-99489900D01*
X129497100Y-96647700D02*
X132339300Y-99489900D01*
X129497100Y-93992500D02*
X129497100Y-96647700D01*
X128778000Y-93273400D02*
X129497100Y-93992500D01*
X128778000Y-93091000D02*
X128778000Y-93273400D01*
X130695600Y-93992500D02*
X131597100Y-93091000D01*
X129497100Y-93992500D02*
X130695600Y-93992500D01*
X115890000Y-115973200D02*
X115890000Y-113030000D01*
X120469300Y-120552500D02*
X115890000Y-115973200D01*
X124811500Y-120552500D02*
X120469300Y-120552500D01*
X126111000Y-119253000D02*
X124811500Y-120552500D01*
X119293500Y-109022600D02*
X115890000Y-112426100D01*
X119293500Y-107436600D02*
X119293500Y-109022600D01*
X118409900Y-106553000D02*
X119293500Y-107436600D01*
X117581000Y-106553000D02*
X118409900Y-106553000D01*
X115890000Y-113030000D02*
X115890000Y-112426100D01*
X118194000Y-97155000D02*
X120373100Y-97155000D01*
X118194000Y-99822000D02*
X120373100Y-99822000D01*
X123652100Y-101390500D02*
X123212900Y-100951300D01*
X123652100Y-105903000D02*
X123652100Y-101390500D01*
X124481000Y-105903000D02*
X123652100Y-105903000D01*
X123212900Y-99822000D02*
X123212900Y-100951300D01*
X130048000Y-95046500D02*
X131318000Y-95046500D01*
X130048000Y-96012000D02*
X130048000Y-95046500D01*
X131318000Y-95529200D02*
X132588000Y-95529200D01*
X131318000Y-96012000D02*
X131318000Y-95529200D01*
X131318000Y-95529200D02*
X131318000Y-95046500D01*
X132588000Y-96012000D02*
X132588000Y-95770600D01*
X132588000Y-95770600D02*
X132588000Y-95529200D01*
X135382000Y-93091000D02*
X135382000Y-94335900D01*
X132588000Y-95770600D02*
X133858000Y-95770600D01*
X133858000Y-96012000D02*
X133858000Y-95770600D01*
X135292700Y-94335900D02*
X135382000Y-94335900D01*
X133858000Y-95770600D02*
X135292700Y-94335900D01*
X131869000Y-109601000D02*
X131869000Y-108922100D01*
X124527800Y-107806200D02*
X124481000Y-107853000D01*
X130753100Y-107806200D02*
X124527800Y-107806200D01*
X131869000Y-108922100D02*
X130753100Y-107806200D01*
X119815500Y-107308600D02*
X118409900Y-105903000D01*
X119815500Y-119452400D02*
X119815500Y-107308600D01*
X120608100Y-120245000D02*
X119815500Y-119452400D01*
X121474600Y-120245000D02*
X120608100Y-120245000D01*
X122022200Y-119697400D02*
X121474600Y-120245000D01*
X122022200Y-117595400D02*
X122022200Y-119697400D01*
X120478100Y-116051300D02*
X122022200Y-117595400D01*
X120478100Y-111027000D02*
X120478100Y-116051300D01*
X123652100Y-107853000D02*
X120478100Y-111027000D01*
X124481000Y-107853000D02*
X123652100Y-107853000D01*
X117995500Y-105903000D02*
X118409900Y-105903000D01*
X117995500Y-105903000D02*
X117581000Y-105903000D01*
X117094000Y-101929300D02*
X117094000Y-93091000D01*
X116407000Y-102616300D02*
X117094000Y-101929300D01*
X116407000Y-105557900D02*
X116407000Y-102616300D01*
X116752100Y-105903000D02*
X116407000Y-105557900D01*
X117581000Y-105903000D02*
X116752100Y-105903000D01*
X135625600Y-102565500D02*
X135973100Y-102913000D01*
X133858000Y-102565500D02*
X135625600Y-102565500D01*
X133858000Y-101600000D02*
X133858000Y-102565500D01*
X136652000Y-102913000D02*
X135973100Y-102913000D01*
X117581000Y-104603000D02*
X118409900Y-104603000D01*
X120120600Y-106313700D02*
X118409900Y-104603000D01*
X120120600Y-118342600D02*
X120120600Y-106313700D01*
X121031000Y-119253000D02*
X120120600Y-118342600D01*
X135049000Y-106037100D02*
X135973100Y-105113000D01*
X126195200Y-106037100D02*
X135049000Y-106037100D01*
X125411100Y-105253000D02*
X126195200Y-106037100D01*
X124481000Y-105253000D02*
X125411100Y-105253000D01*
X136652000Y-105113000D02*
X135973100Y-105113000D01*
X117581000Y-105253000D02*
X116752100Y-105253000D01*
X116752100Y-104306700D02*
X116752100Y-105253000D01*
X116894400Y-104164400D02*
X116752100Y-104306700D01*
X121263500Y-104164400D02*
X116894400Y-104164400D01*
X123652100Y-106553000D02*
X121263500Y-104164400D01*
X124481000Y-106553000D02*
X123652100Y-106553000D01*
M02*
