G04 #@! TF.FileFunction,Copper,L2,Bot,Signal*
%FSLAX46Y46*%
G04 Gerber Fmt 4.6, Leading zero omitted, Abs format (unit mm)*
G04 Created by KiCad (PCBNEW 4.0.6) date Mon Jun  5 21:20:38 2017*
%MOMM*%
%LPD*%
G01*
G04 APERTURE LIST*
%ADD10C,0.100000*%
%ADD11C,2.500000*%
%ADD12O,1.998980X1.998980*%
%ADD13R,1.998980X1.998980*%
%ADD14R,1.000000X1.000000*%
%ADD15O,1.000000X1.000000*%
%ADD16R,1.200000X1.700000*%
%ADD17O,1.200000X1.700000*%
%ADD18O,2.540000X2.032000*%
%ADD19C,1.524000*%
%ADD20R,2.400000X1.600000*%
%ADD21O,2.400000X1.600000*%
%ADD22C,0.685800*%
%ADD23C,0.254000*%
G04 APERTURE END LIST*
D10*
D11*
X185000000Y-60000000D03*
X195000000Y-60000000D03*
X205000000Y-60000000D03*
X215000000Y-60000000D03*
D12*
X195620000Y-93000000D03*
D13*
X188000000Y-93000000D03*
D12*
X190540000Y-93000000D03*
X193080000Y-93000000D03*
D14*
X184000000Y-94000000D03*
D15*
X182730000Y-94000000D03*
X181460000Y-94000000D03*
X180190000Y-94000000D03*
D16*
X200000000Y-93000000D03*
D17*
X202000000Y-93000000D03*
D18*
X181000000Y-63000000D03*
X181000000Y-60460000D03*
X181000000Y-65540000D03*
X191000000Y-63000000D03*
X191000000Y-60460000D03*
X191000000Y-65540000D03*
X201000000Y-63000000D03*
X201000000Y-60460000D03*
X201000000Y-65540000D03*
X211000000Y-63000000D03*
X211000000Y-60460000D03*
X211000000Y-65540000D03*
D19*
X180000000Y-75540000D03*
X180000000Y-78080000D03*
X180000000Y-73000000D03*
D20*
X185674000Y-71755000D03*
D21*
X193294000Y-86995000D03*
X185674000Y-74295000D03*
X193294000Y-84455000D03*
X185674000Y-76835000D03*
X193294000Y-81915000D03*
X185674000Y-79375000D03*
X193294000Y-79375000D03*
X185674000Y-81915000D03*
X193294000Y-76835000D03*
X185674000Y-84455000D03*
X193294000Y-74295000D03*
X185674000Y-86995000D03*
X193294000Y-71755000D03*
D11*
X215000000Y-65000000D03*
X205000000Y-65000000D03*
X195000000Y-65000000D03*
X185000000Y-65000000D03*
D22*
X191000000Y-91000000D03*
X205500000Y-71500000D03*
X204500000Y-79500000D03*
X204000000Y-85000000D03*
X178500000Y-91000000D03*
X179000000Y-94000000D03*
X197000000Y-85000000D03*
D23*
X190540000Y-91460000D02*
X191000000Y-91000000D01*
X190540000Y-93000000D02*
X190540000Y-91460000D01*
X177127000Y-68627000D02*
X208373000Y-68627000D01*
X177127000Y-68830200D02*
X208373000Y-68830200D01*
X177127000Y-69033400D02*
X208373000Y-69033400D01*
X177127000Y-69236600D02*
X208373000Y-69236600D01*
X177127000Y-69439800D02*
X208373000Y-69439800D01*
X177127000Y-69643000D02*
X208373000Y-69643000D01*
X177127000Y-69846200D02*
X208373000Y-69846200D01*
X177127000Y-70049400D02*
X208373000Y-70049400D01*
X177127000Y-70252600D02*
X208373000Y-70252600D01*
X177127000Y-70455800D02*
X208373000Y-70455800D01*
X177127000Y-70659000D02*
X208373000Y-70659000D01*
X177127000Y-70862200D02*
X184207920Y-70862200D01*
X187141412Y-70862200D02*
X208373000Y-70862200D01*
X177127000Y-71065400D02*
X184189127Y-71065400D01*
X187158873Y-71065400D02*
X208373000Y-71065400D01*
X177127000Y-71268600D02*
X184189127Y-71268600D01*
X187158873Y-71268600D02*
X208373000Y-71268600D01*
X177127000Y-71471800D02*
X184189127Y-71471800D01*
X187158873Y-71471800D02*
X208373000Y-71471800D01*
X177127000Y-71675000D02*
X184189127Y-71675000D01*
X187158873Y-71675000D02*
X208373000Y-71675000D01*
X177127000Y-71878200D02*
X184189127Y-71878200D01*
X187158873Y-71878200D02*
X208373000Y-71878200D01*
X177127000Y-72081400D02*
X179496127Y-72081400D01*
X180503355Y-72081400D02*
X184189127Y-72081400D01*
X187158873Y-72081400D02*
X208373000Y-72081400D01*
X177127000Y-72284600D02*
X179242601Y-72284600D01*
X180757327Y-72284600D02*
X184189127Y-72284600D01*
X187158873Y-72284600D02*
X208373000Y-72284600D01*
X177127000Y-72487800D02*
X179085073Y-72487800D01*
X180915160Y-72487800D02*
X184189127Y-72487800D01*
X187158873Y-72487800D02*
X208373000Y-72487800D01*
X177127000Y-72691000D02*
X179000697Y-72691000D01*
X180999120Y-72691000D02*
X184229497Y-72691000D01*
X187119232Y-72691000D02*
X208373000Y-72691000D01*
X177127000Y-72894200D02*
X178958692Y-72894200D01*
X181041492Y-72894200D02*
X208373000Y-72894200D01*
X177127000Y-73097400D02*
X178958515Y-73097400D01*
X181041315Y-73097400D02*
X208373000Y-73097400D01*
X177127000Y-73300600D02*
X178997409Y-73300600D01*
X181002791Y-73300600D02*
X184827705Y-73300600D01*
X186520296Y-73300600D02*
X192447705Y-73300600D01*
X194140296Y-73300600D02*
X208373000Y-73300600D01*
X177127000Y-73503800D02*
X179081369Y-73503800D01*
X180918415Y-73503800D02*
X184523595Y-73503800D01*
X186824406Y-73503800D02*
X192143595Y-73503800D01*
X194444406Y-73503800D02*
X208373000Y-73503800D01*
X177127000Y-73707000D02*
X179234288Y-73707000D01*
X180765813Y-73707000D02*
X184364667Y-73707000D01*
X186983334Y-73707000D02*
X191984667Y-73707000D01*
X194603334Y-73707000D02*
X208373000Y-73707000D01*
X177127000Y-73910200D02*
X179476415Y-73910200D01*
X180524203Y-73910200D02*
X184242159Y-73910200D01*
X187105842Y-73910200D02*
X191862159Y-73910200D01*
X194725842Y-73910200D02*
X208373000Y-73910200D01*
X177127000Y-74113400D02*
X184201740Y-74113400D01*
X187146261Y-74113400D02*
X191821740Y-74113400D01*
X194766261Y-74113400D02*
X208373000Y-74113400D01*
X177127000Y-74316600D02*
X184169913Y-74316600D01*
X187178086Y-74316600D02*
X191789913Y-74316600D01*
X194798086Y-74316600D02*
X208373000Y-74316600D01*
X177127000Y-74519800D02*
X179742019Y-74519800D01*
X180258676Y-74519800D02*
X184210332Y-74519800D01*
X187137667Y-74519800D02*
X191830332Y-74519800D01*
X194757667Y-74519800D02*
X208373000Y-74519800D01*
X177127000Y-74723000D02*
X179344379Y-74723000D01*
X180655904Y-74723000D02*
X184257758Y-74723000D01*
X187090241Y-74723000D02*
X191877758Y-74723000D01*
X194710241Y-74723000D02*
X208373000Y-74723000D01*
X177127000Y-74926200D02*
X179140824Y-74926200D01*
X180858749Y-74926200D02*
X184393532Y-74926200D01*
X186954467Y-74926200D02*
X192013532Y-74926200D01*
X194574467Y-74926200D02*
X208373000Y-74926200D01*
X177127000Y-75129400D02*
X179042885Y-75129400D01*
X180957140Y-75129400D02*
X184588247Y-75129400D01*
X186759752Y-75129400D02*
X192208247Y-75129400D01*
X194379752Y-75129400D02*
X208373000Y-75129400D01*
X177127000Y-75332600D02*
X178958781Y-75332600D01*
X181041100Y-75332600D02*
X185034873Y-75332600D01*
X186313126Y-75332600D02*
X192654873Y-75332600D01*
X193933126Y-75332600D02*
X208373000Y-75332600D01*
X177127000Y-75535800D02*
X178958604Y-75535800D01*
X181041403Y-75535800D02*
X208373000Y-75535800D01*
X177127000Y-75739000D02*
X178958427Y-75739000D01*
X181041226Y-75739000D02*
X208373000Y-75739000D01*
X177127000Y-75942200D02*
X179039389Y-75942200D01*
X180960603Y-75942200D02*
X184675650Y-75942200D01*
X186672351Y-75942200D02*
X192295650Y-75942200D01*
X194292351Y-75942200D02*
X208373000Y-75942200D01*
X177127000Y-76145400D02*
X179132865Y-76145400D01*
X180867591Y-76145400D02*
X184432554Y-76145400D01*
X186915447Y-76145400D02*
X192052554Y-76145400D01*
X194535447Y-76145400D02*
X208373000Y-76145400D01*
X177127000Y-76348600D02*
X179335711Y-76348600D01*
X180664036Y-76348600D02*
X184296780Y-76348600D01*
X187051221Y-76348600D02*
X191916780Y-76348600D01*
X194671221Y-76348600D02*
X208373000Y-76348600D01*
X177127000Y-76551800D02*
X179721095Y-76551800D01*
X180278311Y-76551800D02*
X184221949Y-76551800D01*
X187126052Y-76551800D02*
X191841949Y-76551800D01*
X194746052Y-76551800D02*
X208373000Y-76551800D01*
X177127000Y-76755000D02*
X184181530Y-76755000D01*
X187166471Y-76755000D02*
X191801530Y-76755000D01*
X194786471Y-76755000D02*
X208373000Y-76755000D01*
X177127000Y-76958200D02*
X184190122Y-76958200D01*
X187157877Y-76958200D02*
X191810122Y-76958200D01*
X194777877Y-76958200D02*
X208373000Y-76958200D01*
X177127000Y-77161400D02*
X179496127Y-77161400D01*
X180503355Y-77161400D02*
X184230541Y-77161400D01*
X187117458Y-77161400D02*
X191850541Y-77161400D01*
X194737458Y-77161400D02*
X208373000Y-77161400D01*
X177127000Y-77364600D02*
X179242601Y-77364600D01*
X180757327Y-77364600D02*
X184325645Y-77364600D01*
X187022354Y-77364600D02*
X191945645Y-77364600D01*
X194642354Y-77364600D02*
X208373000Y-77364600D01*
X177127000Y-77567800D02*
X179085073Y-77567800D01*
X180915160Y-77567800D02*
X184461419Y-77567800D01*
X186886580Y-77567800D02*
X192081419Y-77567800D01*
X194506580Y-77567800D02*
X208373000Y-77567800D01*
X177127000Y-77771000D02*
X179000697Y-77771000D01*
X180999120Y-77771000D02*
X184740302Y-77771000D01*
X186607697Y-77771000D02*
X192360302Y-77771000D01*
X194227697Y-77771000D02*
X208373000Y-77771000D01*
X177127000Y-77974200D02*
X178958692Y-77974200D01*
X181041492Y-77974200D02*
X208373000Y-77974200D01*
X177127000Y-78177400D02*
X178958515Y-78177400D01*
X181041315Y-78177400D02*
X208373000Y-78177400D01*
X177127000Y-78380600D02*
X178997409Y-78380600D01*
X181002791Y-78380600D02*
X184827705Y-78380600D01*
X186520296Y-78380600D02*
X192447705Y-78380600D01*
X194140296Y-78380600D02*
X208373000Y-78380600D01*
X177127000Y-78583800D02*
X179081369Y-78583800D01*
X180918415Y-78583800D02*
X184523595Y-78583800D01*
X186824406Y-78583800D02*
X192143595Y-78583800D01*
X194444406Y-78583800D02*
X208373000Y-78583800D01*
X177127000Y-78787000D02*
X179234288Y-78787000D01*
X180765813Y-78787000D02*
X184364667Y-78787000D01*
X186983334Y-78787000D02*
X191984667Y-78787000D01*
X194603334Y-78787000D02*
X208373000Y-78787000D01*
X177127000Y-78990200D02*
X179476415Y-78990200D01*
X180524203Y-78990200D02*
X184242159Y-78990200D01*
X187105842Y-78990200D02*
X191862159Y-78990200D01*
X194725842Y-78990200D02*
X208373000Y-78990200D01*
X177127000Y-79193400D02*
X184201740Y-79193400D01*
X187146261Y-79193400D02*
X191821740Y-79193400D01*
X194766261Y-79193400D02*
X208373000Y-79193400D01*
X177127000Y-79396600D02*
X184169913Y-79396600D01*
X187178086Y-79396600D02*
X191789913Y-79396600D01*
X194798086Y-79396600D02*
X208373000Y-79396600D01*
X177127000Y-79599800D02*
X184210332Y-79599800D01*
X187137667Y-79599800D02*
X191830332Y-79599800D01*
X194757667Y-79599800D02*
X208373000Y-79599800D01*
X177127000Y-79803000D02*
X184257758Y-79803000D01*
X187090241Y-79803000D02*
X191877758Y-79803000D01*
X194710241Y-79803000D02*
X208373000Y-79803000D01*
X177127000Y-80006200D02*
X184393532Y-80006200D01*
X186954467Y-80006200D02*
X192013532Y-80006200D01*
X194574467Y-80006200D02*
X208373000Y-80006200D01*
X177127000Y-80209400D02*
X184588247Y-80209400D01*
X186759752Y-80209400D02*
X192208247Y-80209400D01*
X194379752Y-80209400D02*
X208373000Y-80209400D01*
X177127000Y-80412600D02*
X185034873Y-80412600D01*
X186313126Y-80412600D02*
X192654873Y-80412600D01*
X193933126Y-80412600D02*
X208373000Y-80412600D01*
X177127000Y-80615800D02*
X208373000Y-80615800D01*
X177127000Y-80819000D02*
X208373000Y-80819000D01*
X177127000Y-81022200D02*
X192295650Y-81022200D01*
X194292351Y-81022200D02*
X208373000Y-81022200D01*
X177127000Y-81225400D02*
X192052554Y-81225400D01*
X194535447Y-81225400D02*
X208373000Y-81225400D01*
X177127000Y-81428600D02*
X191916780Y-81428600D01*
X194671221Y-81428600D02*
X208373000Y-81428600D01*
X177127000Y-81631800D02*
X191841949Y-81631800D01*
X194746052Y-81631800D02*
X208373000Y-81631800D01*
X177127000Y-81835000D02*
X191801530Y-81835000D01*
X194786471Y-81835000D02*
X208373000Y-81835000D01*
X177127000Y-82038200D02*
X191810122Y-82038200D01*
X194777877Y-82038200D02*
X208373000Y-82038200D01*
X177127000Y-82241400D02*
X191850541Y-82241400D01*
X194737458Y-82241400D02*
X208373000Y-82241400D01*
X177127000Y-82444600D02*
X191945645Y-82444600D01*
X194642354Y-82444600D02*
X208373000Y-82444600D01*
X177127000Y-82647800D02*
X192081419Y-82647800D01*
X194506580Y-82647800D02*
X208373000Y-82647800D01*
X177127000Y-82851000D02*
X192360302Y-82851000D01*
X194227697Y-82851000D02*
X208373000Y-82851000D01*
X177127000Y-83054200D02*
X208373000Y-83054200D01*
X177127000Y-83257400D02*
X208373000Y-83257400D01*
X177127000Y-83460600D02*
X184827705Y-83460600D01*
X186520296Y-83460600D02*
X192447705Y-83460600D01*
X194140296Y-83460600D02*
X208373000Y-83460600D01*
X177127000Y-83663800D02*
X184523595Y-83663800D01*
X186824406Y-83663800D02*
X192143595Y-83663800D01*
X194444406Y-83663800D02*
X208373000Y-83663800D01*
X177127000Y-83867000D02*
X184364667Y-83867000D01*
X186983334Y-83867000D02*
X191984667Y-83867000D01*
X194603334Y-83867000D02*
X208373000Y-83867000D01*
X177127000Y-84070200D02*
X184242159Y-84070200D01*
X187105842Y-84070200D02*
X191862159Y-84070200D01*
X194725842Y-84070200D02*
X208373000Y-84070200D01*
X177127000Y-84273400D02*
X184201740Y-84273400D01*
X187146261Y-84273400D02*
X191821740Y-84273400D01*
X194766261Y-84273400D02*
X208373000Y-84273400D01*
X177127000Y-84476600D02*
X184169913Y-84476600D01*
X187178086Y-84476600D02*
X191789913Y-84476600D01*
X194798086Y-84476600D02*
X208373000Y-84476600D01*
X177127000Y-84679800D02*
X184210332Y-84679800D01*
X187137667Y-84679800D02*
X191830332Y-84679800D01*
X194757667Y-84679800D02*
X208373000Y-84679800D01*
X177127000Y-84883000D02*
X184257758Y-84883000D01*
X187090241Y-84883000D02*
X191877758Y-84883000D01*
X194710241Y-84883000D02*
X208373000Y-84883000D01*
X177127000Y-85086200D02*
X184393532Y-85086200D01*
X186954467Y-85086200D02*
X192013532Y-85086200D01*
X194574467Y-85086200D02*
X208373000Y-85086200D01*
X177127000Y-85289400D02*
X184588247Y-85289400D01*
X186759752Y-85289400D02*
X192208247Y-85289400D01*
X194379752Y-85289400D02*
X208373000Y-85289400D01*
X177127000Y-85492600D02*
X185034873Y-85492600D01*
X186313126Y-85492600D02*
X192654873Y-85492600D01*
X193933126Y-85492600D02*
X208373000Y-85492600D01*
X177127000Y-85695800D02*
X208373000Y-85695800D01*
X177127000Y-85899000D02*
X208373000Y-85899000D01*
X177127000Y-86102200D02*
X184675650Y-86102200D01*
X186672351Y-86102200D02*
X192295650Y-86102200D01*
X194292351Y-86102200D02*
X208373000Y-86102200D01*
X177127000Y-86305400D02*
X184432554Y-86305400D01*
X186915447Y-86305400D02*
X192052554Y-86305400D01*
X194535447Y-86305400D02*
X208373000Y-86305400D01*
X177127000Y-86508600D02*
X184296780Y-86508600D01*
X187051221Y-86508600D02*
X191916780Y-86508600D01*
X194671221Y-86508600D02*
X208373000Y-86508600D01*
X177127000Y-86711800D02*
X184221949Y-86711800D01*
X187126052Y-86711800D02*
X191841949Y-86711800D01*
X194746052Y-86711800D02*
X208373000Y-86711800D01*
X177127000Y-86915000D02*
X184181530Y-86915000D01*
X187166471Y-86915000D02*
X191801530Y-86915000D01*
X194786471Y-86915000D02*
X208373000Y-86915000D01*
X177127000Y-87118200D02*
X184190122Y-87118200D01*
X187157877Y-87118200D02*
X191810122Y-87118200D01*
X194777877Y-87118200D02*
X208373000Y-87118200D01*
X177127000Y-87321400D02*
X184230541Y-87321400D01*
X187117458Y-87321400D02*
X191850541Y-87321400D01*
X194737458Y-87321400D02*
X208373000Y-87321400D01*
X177127000Y-87524600D02*
X184325645Y-87524600D01*
X187022354Y-87524600D02*
X191945645Y-87524600D01*
X194642354Y-87524600D02*
X208373000Y-87524600D01*
X177127000Y-87727800D02*
X184461419Y-87727800D01*
X186886580Y-87727800D02*
X192081419Y-87727800D01*
X194506580Y-87727800D02*
X208373000Y-87727800D01*
X177127000Y-87931000D02*
X184740302Y-87931000D01*
X186607697Y-87931000D02*
X192360302Y-87931000D01*
X194227697Y-87931000D02*
X208373000Y-87931000D01*
X177127000Y-88134200D02*
X208373000Y-88134200D01*
X177127000Y-88337400D02*
X208373000Y-88337400D01*
X177127000Y-88540600D02*
X208373000Y-88540600D01*
X177127000Y-88743800D02*
X208373000Y-88743800D01*
X177127000Y-88947000D02*
X208373000Y-88947000D01*
X177127000Y-89150200D02*
X208373000Y-89150200D01*
X177127000Y-89353400D02*
X208373000Y-89353400D01*
X177127000Y-89556600D02*
X208373000Y-89556600D01*
X177127000Y-89759800D02*
X208373000Y-89759800D01*
X177127000Y-89963000D02*
X208373000Y-89963000D01*
X177127000Y-90166200D02*
X208373000Y-90166200D01*
X177127000Y-90369400D02*
X208373000Y-90369400D01*
X177127000Y-90572600D02*
X208373000Y-90572600D01*
X177127000Y-90775800D02*
X208373000Y-90775800D01*
X177127000Y-90979000D02*
X208373000Y-90979000D01*
X177127000Y-91182200D02*
X208373000Y-91182200D01*
X177127000Y-91385400D02*
X208373000Y-91385400D01*
X177127000Y-91588600D02*
X208373000Y-91588600D01*
X177127000Y-91791800D02*
X186808887Y-91791800D01*
X189188943Y-91791800D02*
X192699564Y-91791800D01*
X193460437Y-91791800D02*
X195239564Y-91791800D01*
X196000437Y-91791800D02*
X208373000Y-91791800D01*
X177127000Y-91995000D02*
X186716753Y-91995000D01*
X189283327Y-91995000D02*
X192301324Y-91995000D01*
X193858677Y-91995000D02*
X194841324Y-91995000D01*
X196398677Y-91995000D02*
X199167750Y-91995000D01*
X200832277Y-91995000D02*
X201544360Y-91995000D01*
X202455641Y-91995000D02*
X208373000Y-91995000D01*
X177127000Y-92198200D02*
X186715637Y-92198200D01*
X189284363Y-92198200D02*
X192082137Y-92198200D01*
X194077864Y-92198200D02*
X194622137Y-92198200D01*
X196617865Y-92198200D02*
X199115127Y-92198200D01*
X200884873Y-92198200D02*
X201316594Y-92198200D01*
X202683407Y-92198200D02*
X208373000Y-92198200D01*
X177127000Y-92401400D02*
X186715637Y-92401400D01*
X189284363Y-92401400D02*
X191946364Y-92401400D01*
X194213637Y-92401400D02*
X194486364Y-92401400D01*
X196753638Y-92401400D02*
X199115127Y-92401400D01*
X200884873Y-92401400D02*
X201185540Y-92401400D01*
X202814461Y-92401400D02*
X208373000Y-92401400D01*
X177127000Y-92604600D02*
X186715637Y-92604600D01*
X189284363Y-92604600D02*
X191854706Y-92604600D01*
X194305295Y-92604600D02*
X194394706Y-92604600D01*
X196845295Y-92604600D02*
X199115127Y-92604600D01*
X200884873Y-92604600D02*
X201145121Y-92604600D01*
X202854880Y-92604600D02*
X208373000Y-92604600D01*
X177127000Y-92807800D02*
X186715637Y-92807800D01*
X189284363Y-92807800D02*
X191814287Y-92807800D01*
X194345715Y-92807800D02*
X194354286Y-92807800D01*
X196885714Y-92807800D02*
X199115127Y-92807800D01*
X200884873Y-92807800D02*
X201120600Y-92807800D01*
X202879400Y-92807800D02*
X208373000Y-92807800D01*
X177127000Y-93011000D02*
X186715637Y-93011000D01*
X189284363Y-93011000D02*
X191778243Y-93011000D01*
X196921756Y-93011000D02*
X199115127Y-93011000D01*
X200884873Y-93011000D02*
X201120600Y-93011000D01*
X202879400Y-93011000D02*
X208373000Y-93011000D01*
X177127000Y-93214200D02*
X181415413Y-93214200D01*
X181504588Y-93214200D02*
X182685413Y-93214200D01*
X182774588Y-93214200D02*
X186715637Y-93214200D01*
X189284363Y-93214200D02*
X191818662Y-93214200D01*
X194341337Y-93214200D02*
X194358662Y-93214200D01*
X196881337Y-93214200D02*
X199115127Y-93214200D01*
X200884873Y-93214200D02*
X201120600Y-93214200D01*
X202879400Y-93214200D02*
X208373000Y-93214200D01*
X177127000Y-93417400D02*
X180933144Y-93417400D01*
X181986857Y-93417400D02*
X182203144Y-93417400D01*
X184769331Y-93417400D02*
X186715637Y-93417400D01*
X189284363Y-93417400D02*
X191859081Y-93417400D01*
X194300918Y-93417400D02*
X194399081Y-93417400D01*
X196840918Y-93417400D02*
X199115127Y-93417400D01*
X200884873Y-93417400D02*
X201149496Y-93417400D01*
X202850503Y-93417400D02*
X208373000Y-93417400D01*
X177127000Y-93620600D02*
X180783940Y-93620600D01*
X184784873Y-93620600D02*
X186715637Y-93620600D01*
X189284363Y-93620600D02*
X191961063Y-93620600D01*
X194198936Y-93620600D02*
X194501063Y-93620600D01*
X196738936Y-93620600D02*
X199115127Y-93620600D01*
X200884873Y-93620600D02*
X201195519Y-93620600D01*
X202804480Y-93620600D02*
X208373000Y-93620600D01*
X177127000Y-93823800D02*
X180712612Y-93823800D01*
X184784873Y-93823800D02*
X186715637Y-93823800D01*
X189284363Y-93823800D02*
X192096836Y-93823800D01*
X194063163Y-93823800D02*
X194636836Y-93823800D01*
X196603163Y-93823800D02*
X199115127Y-93823800D01*
X200884873Y-93823800D02*
X201331293Y-93823800D01*
X202668706Y-93823800D02*
X208373000Y-93823800D01*
X177127000Y-94027000D02*
X180682933Y-94027000D01*
X184784873Y-94027000D02*
X186720813Y-94027000D01*
X189278792Y-94027000D02*
X192334249Y-94027000D01*
X193825750Y-94027000D02*
X194874249Y-94027000D01*
X196365750Y-94027000D02*
X199181879Y-94027000D01*
X200817218Y-94027000D02*
X201577284Y-94027000D01*
X202422715Y-94027000D02*
X208373000Y-94027000D01*
X177127000Y-94230200D02*
X180723352Y-94230200D01*
X184784873Y-94230200D02*
X186843255Y-94230200D01*
X189156924Y-94230200D02*
X192810164Y-94230200D01*
X193349835Y-94230200D02*
X195350164Y-94230200D01*
X195889835Y-94230200D02*
X208373000Y-94230200D01*
X177127000Y-94433400D02*
X180820021Y-94433400D01*
X184784873Y-94433400D02*
X208373000Y-94433400D01*
X177127000Y-94636600D02*
X181013960Y-94636600D01*
X181906039Y-94636600D02*
X182283960Y-94636600D01*
X183176039Y-94636600D02*
X183255883Y-94636600D01*
X184744822Y-94636600D02*
X208373000Y-94636600D01*
X177127000Y-94839800D02*
X208373000Y-94839800D01*
X177127000Y-95043000D02*
X208373000Y-95043000D01*
X177127000Y-95246200D02*
X208373000Y-95246200D01*
X177127000Y-95449400D02*
X208373000Y-95449400D01*
X177127000Y-95652600D02*
X208373000Y-95652600D01*
X177127000Y-95855800D02*
X208373000Y-95855800D01*
X177127000Y-96059000D02*
X208373000Y-96059000D01*
X177127000Y-96262200D02*
X208373000Y-96262200D01*
X208373000Y-96373000D02*
X177127000Y-96373000D01*
X177127000Y-93984731D01*
X180680600Y-93984731D01*
X180680600Y-94015269D01*
X180739928Y-94313532D01*
X180908881Y-94566388D01*
X181161737Y-94735341D01*
X181460000Y-94794669D01*
X181758263Y-94735341D01*
X182011119Y-94566388D01*
X182095000Y-94440851D01*
X182178881Y-94566388D01*
X182431737Y-94735341D01*
X182730000Y-94794669D01*
X183028263Y-94735341D01*
X183233594Y-94598143D01*
X183234609Y-94603539D01*
X183295801Y-94698634D01*
X183389168Y-94762429D01*
X183500000Y-94784873D01*
X184500000Y-94784873D01*
X184603539Y-94765391D01*
X184698634Y-94704199D01*
X184762429Y-94610832D01*
X184784873Y-94500000D01*
X184784873Y-93500000D01*
X184765391Y-93396461D01*
X184704199Y-93301366D01*
X184610832Y-93237571D01*
X184500000Y-93215127D01*
X183500000Y-93215127D01*
X183396461Y-93234609D01*
X183301366Y-93295801D01*
X183237571Y-93389168D01*
X183234834Y-93402685D01*
X183028263Y-93264659D01*
X182730000Y-93205331D01*
X182431737Y-93264659D01*
X182178881Y-93433612D01*
X182095000Y-93559149D01*
X182011119Y-93433612D01*
X181758263Y-93264659D01*
X181460000Y-93205331D01*
X181161737Y-93264659D01*
X180908881Y-93433612D01*
X180739928Y-93686468D01*
X180680600Y-93984731D01*
X177127000Y-93984731D01*
X177127000Y-92000510D01*
X186715637Y-92000510D01*
X186715637Y-93999490D01*
X186735119Y-94103029D01*
X186796311Y-94198124D01*
X186889678Y-94261919D01*
X187000510Y-94284363D01*
X188999490Y-94284363D01*
X189103029Y-94264881D01*
X189198124Y-94203689D01*
X189261919Y-94110322D01*
X189284363Y-93999490D01*
X189284363Y-93000000D01*
X191776055Y-93000000D01*
X191873405Y-93489410D01*
X192150633Y-93904312D01*
X192565535Y-94181540D01*
X193054945Y-94278890D01*
X193105055Y-94278890D01*
X193594465Y-94181540D01*
X194009367Y-93904312D01*
X194286595Y-93489410D01*
X194350000Y-93170653D01*
X194413405Y-93489410D01*
X194690633Y-93904312D01*
X195105535Y-94181540D01*
X195594945Y-94278890D01*
X195645055Y-94278890D01*
X196134465Y-94181540D01*
X196549367Y-93904312D01*
X196826595Y-93489410D01*
X196923945Y-93000000D01*
X196826595Y-92510590D01*
X196585658Y-92150000D01*
X199115127Y-92150000D01*
X199115127Y-93850000D01*
X199134609Y-93953539D01*
X199195801Y-94048634D01*
X199289168Y-94112429D01*
X199400000Y-94134873D01*
X200600000Y-94134873D01*
X200703539Y-94115391D01*
X200798634Y-94054199D01*
X200862429Y-93960832D01*
X200884873Y-93850000D01*
X200884873Y-92727874D01*
X201120600Y-92727874D01*
X201120600Y-93272126D01*
X201187540Y-93608658D01*
X201378170Y-93893956D01*
X201663468Y-94084586D01*
X202000000Y-94151526D01*
X202336532Y-94084586D01*
X202621830Y-93893956D01*
X202812460Y-93608658D01*
X202879400Y-93272126D01*
X202879400Y-92727874D01*
X202812460Y-92391342D01*
X202621830Y-92106044D01*
X202336532Y-91915414D01*
X202000000Y-91848474D01*
X201663468Y-91915414D01*
X201378170Y-92106044D01*
X201187540Y-92391342D01*
X201120600Y-92727874D01*
X200884873Y-92727874D01*
X200884873Y-92150000D01*
X200865391Y-92046461D01*
X200804199Y-91951366D01*
X200710832Y-91887571D01*
X200600000Y-91865127D01*
X199400000Y-91865127D01*
X199296461Y-91884609D01*
X199201366Y-91945801D01*
X199137571Y-92039168D01*
X199115127Y-92150000D01*
X196585658Y-92150000D01*
X196549367Y-92095688D01*
X196134465Y-91818460D01*
X195645055Y-91721110D01*
X195594945Y-91721110D01*
X195105535Y-91818460D01*
X194690633Y-92095688D01*
X194413405Y-92510590D01*
X194350000Y-92829347D01*
X194286595Y-92510590D01*
X194009367Y-92095688D01*
X193594465Y-91818460D01*
X193105055Y-91721110D01*
X193054945Y-91721110D01*
X192565535Y-91818460D01*
X192150633Y-92095688D01*
X191873405Y-92510590D01*
X191776055Y-93000000D01*
X189284363Y-93000000D01*
X189284363Y-92000510D01*
X189264881Y-91896971D01*
X189203689Y-91801876D01*
X189110322Y-91738081D01*
X188999490Y-91715637D01*
X187000510Y-91715637D01*
X186896971Y-91735119D01*
X186801876Y-91796311D01*
X186738081Y-91889678D01*
X186715637Y-92000510D01*
X177127000Y-92000510D01*
X177127000Y-86995000D01*
X184165617Y-86995000D01*
X184247781Y-87408068D01*
X184481766Y-87758251D01*
X184831949Y-87992236D01*
X185245017Y-88074400D01*
X186102983Y-88074400D01*
X186516051Y-87992236D01*
X186866234Y-87758251D01*
X187100219Y-87408068D01*
X187182383Y-86995000D01*
X191785617Y-86995000D01*
X191867781Y-87408068D01*
X192101766Y-87758251D01*
X192451949Y-87992236D01*
X192865017Y-88074400D01*
X193722983Y-88074400D01*
X194136051Y-87992236D01*
X194486234Y-87758251D01*
X194720219Y-87408068D01*
X194802383Y-86995000D01*
X194720219Y-86581932D01*
X194486234Y-86231749D01*
X194136051Y-85997764D01*
X193722983Y-85915600D01*
X192865017Y-85915600D01*
X192451949Y-85997764D01*
X192101766Y-86231749D01*
X191867781Y-86581932D01*
X191785617Y-86995000D01*
X187182383Y-86995000D01*
X187100219Y-86581932D01*
X186866234Y-86231749D01*
X186516051Y-85997764D01*
X186102983Y-85915600D01*
X185245017Y-85915600D01*
X184831949Y-85997764D01*
X184481766Y-86231749D01*
X184247781Y-86581932D01*
X184165617Y-86995000D01*
X177127000Y-86995000D01*
X177127000Y-84455000D01*
X184165617Y-84455000D01*
X184247781Y-84868068D01*
X184481766Y-85218251D01*
X184831949Y-85452236D01*
X185245017Y-85534400D01*
X186102983Y-85534400D01*
X186516051Y-85452236D01*
X186866234Y-85218251D01*
X187100219Y-84868068D01*
X187182383Y-84455000D01*
X191785617Y-84455000D01*
X191867781Y-84868068D01*
X192101766Y-85218251D01*
X192451949Y-85452236D01*
X192865017Y-85534400D01*
X193722983Y-85534400D01*
X194136051Y-85452236D01*
X194486234Y-85218251D01*
X194720219Y-84868068D01*
X194802383Y-84455000D01*
X194720219Y-84041932D01*
X194486234Y-83691749D01*
X194136051Y-83457764D01*
X193722983Y-83375600D01*
X192865017Y-83375600D01*
X192451949Y-83457764D01*
X192101766Y-83691749D01*
X191867781Y-84041932D01*
X191785617Y-84455000D01*
X187182383Y-84455000D01*
X187100219Y-84041932D01*
X186866234Y-83691749D01*
X186516051Y-83457764D01*
X186102983Y-83375600D01*
X185245017Y-83375600D01*
X184831949Y-83457764D01*
X184481766Y-83691749D01*
X184247781Y-84041932D01*
X184165617Y-84455000D01*
X177127000Y-84455000D01*
X177127000Y-81915000D01*
X191785617Y-81915000D01*
X191867781Y-82328068D01*
X192101766Y-82678251D01*
X192451949Y-82912236D01*
X192865017Y-82994400D01*
X193722983Y-82994400D01*
X194136051Y-82912236D01*
X194486234Y-82678251D01*
X194720219Y-82328068D01*
X194802383Y-81915000D01*
X194720219Y-81501932D01*
X194486234Y-81151749D01*
X194136051Y-80917764D01*
X193722983Y-80835600D01*
X192865017Y-80835600D01*
X192451949Y-80917764D01*
X192101766Y-81151749D01*
X191867781Y-81501932D01*
X191785617Y-81915000D01*
X177127000Y-81915000D01*
X177127000Y-79375000D01*
X184165617Y-79375000D01*
X184247781Y-79788068D01*
X184481766Y-80138251D01*
X184831949Y-80372236D01*
X185245017Y-80454400D01*
X186102983Y-80454400D01*
X186516051Y-80372236D01*
X186866234Y-80138251D01*
X187100219Y-79788068D01*
X187182383Y-79375000D01*
X191785617Y-79375000D01*
X191867781Y-79788068D01*
X192101766Y-80138251D01*
X192451949Y-80372236D01*
X192865017Y-80454400D01*
X193722983Y-80454400D01*
X194136051Y-80372236D01*
X194486234Y-80138251D01*
X194720219Y-79788068D01*
X194802383Y-79375000D01*
X194720219Y-78961932D01*
X194486234Y-78611749D01*
X194136051Y-78377764D01*
X193722983Y-78295600D01*
X192865017Y-78295600D01*
X192451949Y-78377764D01*
X192101766Y-78611749D01*
X191867781Y-78961932D01*
X191785617Y-79375000D01*
X187182383Y-79375000D01*
X187100219Y-78961932D01*
X186866234Y-78611749D01*
X186516051Y-78377764D01*
X186102983Y-78295600D01*
X185245017Y-78295600D01*
X184831949Y-78377764D01*
X184481766Y-78611749D01*
X184247781Y-78961932D01*
X184165617Y-79375000D01*
X177127000Y-79375000D01*
X177127000Y-78286238D01*
X178958420Y-78286238D01*
X179116629Y-78669135D01*
X179409324Y-78962341D01*
X179791944Y-79121219D01*
X180206238Y-79121580D01*
X180589135Y-78963371D01*
X180882341Y-78670676D01*
X181041219Y-78288056D01*
X181041580Y-77873762D01*
X180883371Y-77490865D01*
X180590676Y-77197659D01*
X180208056Y-77038781D01*
X179793762Y-77038420D01*
X179410865Y-77196629D01*
X179117659Y-77489324D01*
X178958781Y-77871944D01*
X178958420Y-78286238D01*
X177127000Y-78286238D01*
X177127000Y-76835000D01*
X184165617Y-76835000D01*
X184247781Y-77248068D01*
X184481766Y-77598251D01*
X184831949Y-77832236D01*
X185245017Y-77914400D01*
X186102983Y-77914400D01*
X186516051Y-77832236D01*
X186866234Y-77598251D01*
X187100219Y-77248068D01*
X187182383Y-76835000D01*
X191785617Y-76835000D01*
X191867781Y-77248068D01*
X192101766Y-77598251D01*
X192451949Y-77832236D01*
X192865017Y-77914400D01*
X193722983Y-77914400D01*
X194136051Y-77832236D01*
X194486234Y-77598251D01*
X194720219Y-77248068D01*
X194802383Y-76835000D01*
X194720219Y-76421932D01*
X194486234Y-76071749D01*
X194136051Y-75837764D01*
X193722983Y-75755600D01*
X192865017Y-75755600D01*
X192451949Y-75837764D01*
X192101766Y-76071749D01*
X191867781Y-76421932D01*
X191785617Y-76835000D01*
X187182383Y-76835000D01*
X187100219Y-76421932D01*
X186866234Y-76071749D01*
X186516051Y-75837764D01*
X186102983Y-75755600D01*
X185245017Y-75755600D01*
X184831949Y-75837764D01*
X184481766Y-76071749D01*
X184247781Y-76421932D01*
X184165617Y-76835000D01*
X177127000Y-76835000D01*
X177127000Y-75746238D01*
X178958420Y-75746238D01*
X179116629Y-76129135D01*
X179409324Y-76422341D01*
X179791944Y-76581219D01*
X180206238Y-76581580D01*
X180589135Y-76423371D01*
X180882341Y-76130676D01*
X181041219Y-75748056D01*
X181041580Y-75333762D01*
X180883371Y-74950865D01*
X180590676Y-74657659D01*
X180208056Y-74498781D01*
X179793762Y-74498420D01*
X179410865Y-74656629D01*
X179117659Y-74949324D01*
X178958781Y-75331944D01*
X178958420Y-75746238D01*
X177127000Y-75746238D01*
X177127000Y-74295000D01*
X184165617Y-74295000D01*
X184247781Y-74708068D01*
X184481766Y-75058251D01*
X184831949Y-75292236D01*
X185245017Y-75374400D01*
X186102983Y-75374400D01*
X186516051Y-75292236D01*
X186866234Y-75058251D01*
X187100219Y-74708068D01*
X187182383Y-74295000D01*
X191785617Y-74295000D01*
X191867781Y-74708068D01*
X192101766Y-75058251D01*
X192451949Y-75292236D01*
X192865017Y-75374400D01*
X193722983Y-75374400D01*
X194136051Y-75292236D01*
X194486234Y-75058251D01*
X194720219Y-74708068D01*
X194802383Y-74295000D01*
X194720219Y-73881932D01*
X194486234Y-73531749D01*
X194136051Y-73297764D01*
X193722983Y-73215600D01*
X192865017Y-73215600D01*
X192451949Y-73297764D01*
X192101766Y-73531749D01*
X191867781Y-73881932D01*
X191785617Y-74295000D01*
X187182383Y-74295000D01*
X187100219Y-73881932D01*
X186866234Y-73531749D01*
X186516051Y-73297764D01*
X186102983Y-73215600D01*
X185245017Y-73215600D01*
X184831949Y-73297764D01*
X184481766Y-73531749D01*
X184247781Y-73881932D01*
X184165617Y-74295000D01*
X177127000Y-74295000D01*
X177127000Y-73206238D01*
X178958420Y-73206238D01*
X179116629Y-73589135D01*
X179409324Y-73882341D01*
X179791944Y-74041219D01*
X180206238Y-74041580D01*
X180589135Y-73883371D01*
X180882341Y-73590676D01*
X181041219Y-73208056D01*
X181041580Y-72793762D01*
X180883371Y-72410865D01*
X180590676Y-72117659D01*
X180208056Y-71958781D01*
X179793762Y-71958420D01*
X179410865Y-72116629D01*
X179117659Y-72409324D01*
X178958781Y-72791944D01*
X178958420Y-73206238D01*
X177127000Y-73206238D01*
X177127000Y-70955000D01*
X184189127Y-70955000D01*
X184189127Y-72555000D01*
X184208609Y-72658539D01*
X184269801Y-72753634D01*
X184363168Y-72817429D01*
X184474000Y-72839873D01*
X186874000Y-72839873D01*
X186977539Y-72820391D01*
X187072634Y-72759199D01*
X187136429Y-72665832D01*
X187158873Y-72555000D01*
X187158873Y-70955000D01*
X187139391Y-70851461D01*
X187078199Y-70756366D01*
X186984832Y-70692571D01*
X186874000Y-70670127D01*
X184474000Y-70670127D01*
X184370461Y-70689609D01*
X184275366Y-70750801D01*
X184211571Y-70844168D01*
X184189127Y-70955000D01*
X177127000Y-70955000D01*
X177127000Y-68627000D01*
X208373000Y-68627000D01*
X208373000Y-96373000D01*
M02*
