M48
;DRILL file {KiCad no-vcs-found-ea855c1~58~ubuntu16.04.1} date Tue Jun  6 15:51:42 2017
;FORMAT={-:-/ absolute / inch / decimal}
FMAT,2
INCH,TZ
T1C0.013
T2C0.028
T3C0.031
T4C0.032
T5C0.043
T6C0.045
T7C0.079
%
G90
G05
M72
T1
X7.0276Y-3.5827
X7.0472Y-3.7008
X7.5197Y-3.5827
X7.7559Y-3.3465
X8.0315Y-3.3465
X8.0512Y-3.1299
X8.0906Y-2.815
T2
X7.874Y-3.6614
X7.9528Y-3.6614
X7.0941Y-3.7008
X7.1441Y-3.7008
X7.1941Y-3.7008
X7.2441Y-3.7008
T3
X7.31Y-2.825
X7.31Y-2.925
X7.31Y-3.025
X7.31Y-3.125
X7.31Y-3.225
X7.31Y-3.325
X7.31Y-3.425
X7.61Y-2.825
X7.61Y-2.925
X7.61Y-3.025
X7.61Y-3.125
X7.61Y-3.225
X7.61Y-3.325
X7.61Y-3.425
T4
X7.0866Y-2.874
X7.0866Y-2.974
X7.0866Y-3.074
T5
X7.4016Y-3.6614
X7.5016Y-3.6614
X7.6016Y-3.6614
X7.7016Y-3.6614
T6
X8.3071Y-2.3803
X8.3071Y-2.4803
X8.3071Y-2.5803
X7.126Y-2.3803
X7.126Y-2.4803
X7.126Y-2.5803
X7.9134Y-2.3803
X7.9134Y-2.4803
X7.9134Y-2.5803
X7.5197Y-2.3803
X7.5197Y-2.4803
X7.5197Y-2.5803
T7
X7.2835Y-2.5591
X7.6772Y-2.5591
X8.0709Y-2.5591
X8.4646Y-2.5591
X7.2835Y-2.3622
X7.6772Y-2.3622
X8.0709Y-2.3622
X8.4646Y-2.3622
T0
M30
