G04 #@! TF.GenerationSoftware,KiCad,Pcbnew,no-vcs-found-ea855c1~58~ubuntu16.04.1*
G04 #@! TF.CreationDate,2017-06-06T15:51:32-04:00*
G04 #@! TF.ProjectId,KillSwitch,4B696C6C5377697463682E6B69636164,rev?*
G04 #@! TF.FileFunction,Copper,L1,Top,Signal*
G04 #@! TF.FilePolarity,Positive*
%FSLAX46Y46*%
G04 Gerber Fmt 4.6, Leading zero omitted, Abs format (unit mm)*
G04 Created by KiCad (PCBNEW no-vcs-found-ea855c1~58~ubuntu16.04.1) date Tue Jun  6 15:51:32 2017*
%MOMM*%
%LPD*%
G01*
G04 APERTURE LIST*
%ADD10C,0.100000*%
%ADD11C,2.500000*%
%ADD12O,1.998980X1.998980*%
%ADD13R,1.998980X1.998980*%
%ADD14R,1.000000X1.000000*%
%ADD15O,1.000000X1.000000*%
%ADD16R,1.200000X0.750000*%
%ADD17R,0.750000X1.200000*%
%ADD18R,1.500000X1.500000*%
%ADD19R,1.200000X1.700000*%
%ADD20O,1.200000X1.700000*%
%ADD21O,2.540000X2.032000*%
%ADD22R,1.200000X0.900000*%
%ADD23C,1.524000*%
%ADD24R,0.900000X1.200000*%
%ADD25R,0.650000X1.560000*%
%ADD26R,2.400000X1.600000*%
%ADD27O,2.400000X1.600000*%
%ADD28R,2.000000X2.500000*%
%ADD29C,0.685800*%
%ADD30C,0.254000*%
%ADD31C,2.540000*%
G04 APERTURE END LIST*
D10*
D11*
X185000000Y-60000000D03*
X195000000Y-60000000D03*
X205000000Y-60000000D03*
X215000000Y-60000000D03*
D12*
X195620000Y-93000000D03*
D13*
X188000000Y-93000000D03*
D12*
X190540000Y-93000000D03*
X193080000Y-93000000D03*
D14*
X184000000Y-94000000D03*
D15*
X182730000Y-94000000D03*
X181460000Y-94000000D03*
X180190000Y-94000000D03*
D16*
X180050000Y-91000000D03*
X181950000Y-91000000D03*
X180050000Y-86000000D03*
X181950000Y-86000000D03*
D17*
X196000000Y-85050000D03*
X196000000Y-86950000D03*
D18*
X200650000Y-73000000D03*
X197350000Y-73000000D03*
X200650000Y-77000000D03*
X197350000Y-77000000D03*
D19*
X200000000Y-93000000D03*
D20*
X202000000Y-93000000D03*
D21*
X181000000Y-63000000D03*
X181000000Y-60460000D03*
X181000000Y-65540000D03*
X191000000Y-63000000D03*
X191000000Y-60460000D03*
X191000000Y-65540000D03*
X201000000Y-63000000D03*
X201000000Y-60460000D03*
X201000000Y-65540000D03*
X211000000Y-63000000D03*
X211000000Y-60460000D03*
X211000000Y-65540000D03*
D22*
X202900000Y-73000000D03*
X205100000Y-73000000D03*
D23*
X180000000Y-75540000D03*
X180000000Y-78080000D03*
X180000000Y-73000000D03*
D24*
X208000000Y-69900000D03*
X208000000Y-72100000D03*
D22*
X205100000Y-77000000D03*
X202900000Y-77000000D03*
X196900000Y-81000000D03*
X199100000Y-81000000D03*
D25*
X201050000Y-86350000D03*
X202000000Y-86350000D03*
X202950000Y-86350000D03*
X202950000Y-83650000D03*
X201050000Y-83650000D03*
D26*
X185674000Y-71755000D03*
D27*
X193294000Y-86995000D03*
X185674000Y-74295000D03*
X193294000Y-84455000D03*
X185674000Y-76835000D03*
X193294000Y-81915000D03*
X185674000Y-79375000D03*
X193294000Y-79375000D03*
X185674000Y-81915000D03*
X193294000Y-76835000D03*
X185674000Y-84455000D03*
X193294000Y-74295000D03*
X185674000Y-86995000D03*
X193294000Y-71755000D03*
D11*
X215000000Y-65000000D03*
X205000000Y-65000000D03*
X195000000Y-65000000D03*
X185000000Y-65000000D03*
D28*
X178400000Y-55800000D03*
X182400000Y-55800000D03*
X188600000Y-55800000D03*
X192600000Y-55800000D03*
X198400000Y-55800000D03*
X202400000Y-55800000D03*
X208400000Y-55800000D03*
X212400000Y-55800000D03*
D29*
X191000000Y-91000000D03*
X205500000Y-71500000D03*
X204500000Y-79500000D03*
X204000000Y-85000000D03*
X178500000Y-91000000D03*
X179000000Y-94000000D03*
X197000000Y-85000000D03*
D30*
X205100000Y-73000000D02*
X205100000Y-71900000D01*
X205100000Y-71900000D02*
X205500000Y-71500000D01*
X205100000Y-77000000D02*
X205100000Y-78900000D01*
X205100000Y-78900000D02*
X204500000Y-79500000D01*
X201050000Y-83650000D02*
X201050000Y-84105000D01*
X201050000Y-84105000D02*
X201945000Y-85000000D01*
X201945000Y-85000000D02*
X204000000Y-85000000D01*
X180050000Y-91000000D02*
X178500000Y-91000000D01*
X180190000Y-94000000D02*
X179000000Y-94000000D01*
X196000000Y-85050000D02*
X196950000Y-85050000D01*
X196950000Y-85050000D02*
X197000000Y-85000000D01*
X193539000Y-72000000D02*
X193294000Y-71755000D01*
X180000000Y-78080000D02*
X180000000Y-85950000D01*
X180000000Y-85950000D02*
X180050000Y-86000000D01*
X180000000Y-78080000D02*
X184379000Y-78080000D01*
X184379000Y-78080000D02*
X185674000Y-79375000D01*
X200650000Y-73000000D02*
X202900000Y-73000000D01*
X202900000Y-77000000D02*
X200650000Y-77000000D01*
X193294000Y-76835000D02*
X197185000Y-76835000D01*
X197185000Y-76835000D02*
X197350000Y-77000000D01*
X193459000Y-77000000D02*
X193294000Y-76835000D01*
X188000000Y-93000000D02*
X188000000Y-89749000D01*
X188000000Y-89749000D02*
X193294000Y-84455000D01*
X193294000Y-84455000D02*
X193445000Y-84455000D01*
X193445000Y-84455000D02*
X196900000Y-81000000D01*
X185674000Y-76835000D02*
X193294000Y-84455000D01*
X201000000Y-65540000D02*
X201000000Y-69900000D01*
X201000000Y-69900000D02*
X201000000Y-70000000D01*
X201000000Y-70000000D02*
X201000000Y-69900000D01*
X191000000Y-65540000D02*
X191000000Y-69900000D01*
X191000000Y-69900000D02*
X191000000Y-70000000D01*
X191000000Y-70000000D02*
X191000000Y-69900000D01*
X208000000Y-69900000D02*
X201000000Y-69900000D01*
X201000000Y-69900000D02*
X191000000Y-69900000D01*
X191000000Y-69900000D02*
X181100000Y-69900000D01*
X181000000Y-69800000D02*
X181000000Y-65540000D01*
X181100000Y-69900000D02*
X181000000Y-69800000D01*
X208000000Y-69900000D02*
X208000000Y-68540000D01*
X208000000Y-68540000D02*
X211000000Y-65540000D01*
X185674000Y-71755000D02*
X181245000Y-71755000D01*
X181245000Y-71755000D02*
X180000000Y-73000000D01*
X180000000Y-73000000D02*
X180000000Y-75540000D01*
X202950000Y-83650000D02*
X203350000Y-83650000D01*
X208000000Y-79000000D02*
X208000000Y-72100000D01*
X203350000Y-83650000D02*
X208000000Y-79000000D01*
X185674000Y-74295000D02*
X188214000Y-74295000D01*
X188214000Y-74295000D02*
X193294000Y-79375000D01*
X202000000Y-93000000D02*
X202000000Y-86350000D01*
X193294000Y-74295000D02*
X205295000Y-74295000D01*
X199000000Y-87000000D02*
X201000000Y-87000000D01*
X199000000Y-84000000D02*
X199000000Y-87000000D01*
X201000000Y-82000000D02*
X199000000Y-84000000D01*
X204000000Y-82000000D02*
X201000000Y-82000000D01*
X207000000Y-79000000D02*
X204000000Y-82000000D01*
X207000000Y-76000000D02*
X207000000Y-79000000D01*
X205295000Y-74295000D02*
X207000000Y-76000000D01*
X201000000Y-87000000D02*
X201050000Y-86350000D01*
D31*
X208400000Y-55800000D02*
X208400000Y-58800000D01*
X208400000Y-63000000D02*
X211000000Y-63000000D01*
X208000000Y-63400000D02*
X208400000Y-63000000D01*
X208000000Y-59200000D02*
X208000000Y-63400000D01*
X208400000Y-58800000D02*
X208000000Y-59200000D01*
X211000000Y-63000000D02*
X213000000Y-63000000D01*
X213000000Y-63000000D02*
X215000000Y-65000000D01*
X198400000Y-55800000D02*
X198400000Y-58400000D01*
X198000000Y-63000000D02*
X201000000Y-63000000D01*
X198000000Y-58800000D02*
X198000000Y-63000000D01*
X198400000Y-58400000D02*
X198000000Y-58800000D01*
X201000000Y-63000000D02*
X203000000Y-63000000D01*
X203000000Y-63000000D02*
X205000000Y-65000000D01*
X188600000Y-55800000D02*
X188600000Y-59000000D01*
X187800000Y-63000000D02*
X191000000Y-63000000D01*
X187800000Y-59800000D02*
X187800000Y-63000000D01*
X188600000Y-59000000D02*
X187800000Y-59800000D01*
X191000000Y-63000000D02*
X193000000Y-63000000D01*
X193000000Y-63000000D02*
X195000000Y-65000000D01*
X178400000Y-55800000D02*
X178400000Y-58800000D01*
X178600000Y-63000000D02*
X181000000Y-63000000D01*
X178000000Y-62400000D02*
X178600000Y-63000000D01*
X178000000Y-59200000D02*
X178000000Y-62400000D01*
X178400000Y-58800000D02*
X178000000Y-59200000D01*
X181000000Y-63000000D02*
X183000000Y-63000000D01*
X183000000Y-63000000D02*
X185000000Y-65000000D01*
D30*
X176329400Y-53227000D02*
X216073000Y-53227000D01*
X176329400Y-53468300D02*
X216073000Y-53468300D01*
X176329400Y-53709600D02*
X216073000Y-53709600D01*
X176329400Y-53950900D02*
X216073000Y-53950900D01*
X176329400Y-54192200D02*
X216073000Y-54192200D01*
X176329400Y-54433500D02*
X177112403Y-54433500D01*
X179687598Y-54433500D02*
X187312403Y-54433500D01*
X189887598Y-54433500D02*
X197112403Y-54433500D01*
X199687598Y-54433500D02*
X207112403Y-54433500D01*
X209687598Y-54433500D02*
X216073000Y-54433500D01*
X176329400Y-54674800D02*
X177089229Y-54674800D01*
X179710771Y-54674800D02*
X187289229Y-54674800D01*
X189910771Y-54674800D02*
X197089229Y-54674800D01*
X199710771Y-54674800D02*
X207089229Y-54674800D01*
X209710771Y-54674800D02*
X216073000Y-54674800D01*
X176329400Y-54916100D02*
X177089229Y-54916100D01*
X179710771Y-54916100D02*
X187289229Y-54916100D01*
X189910771Y-54916100D02*
X197089229Y-54916100D01*
X199710771Y-54916100D02*
X207089229Y-54916100D01*
X209710771Y-54916100D02*
X216073000Y-54916100D01*
X176329400Y-55157400D02*
X176971769Y-55157400D01*
X179828232Y-55157400D02*
X187171769Y-55157400D01*
X190028232Y-55157400D02*
X196971769Y-55157400D01*
X199828232Y-55157400D02*
X206971769Y-55157400D01*
X209828232Y-55157400D02*
X216073000Y-55157400D01*
X176329400Y-55398700D02*
X176905024Y-55398700D01*
X179894977Y-55398700D02*
X187105024Y-55398700D01*
X190094977Y-55398700D02*
X196905024Y-55398700D01*
X199894977Y-55398700D02*
X206905024Y-55398700D01*
X209894977Y-55398700D02*
X216073000Y-55398700D01*
X176329400Y-55640000D02*
X176857027Y-55640000D01*
X179942974Y-55640000D02*
X187057027Y-55640000D01*
X190142974Y-55640000D02*
X196857027Y-55640000D01*
X199942974Y-55640000D02*
X206857027Y-55640000D01*
X209942974Y-55640000D02*
X216073000Y-55640000D01*
X176329400Y-55881300D02*
X176825200Y-55881300D01*
X179974800Y-55881300D02*
X187025200Y-55881300D01*
X190174800Y-55881300D02*
X196825200Y-55881300D01*
X199974800Y-55881300D02*
X206825200Y-55881300D01*
X209974800Y-55881300D02*
X216073000Y-55881300D01*
X176329400Y-56122600D02*
X176825200Y-56122600D01*
X179974800Y-56122600D02*
X187025200Y-56122600D01*
X190174800Y-56122600D02*
X196825200Y-56122600D01*
X199974800Y-56122600D02*
X206825200Y-56122600D01*
X209974800Y-56122600D02*
X216073000Y-56122600D01*
X176329400Y-56363900D02*
X176825200Y-56363900D01*
X179974800Y-56363900D02*
X187025200Y-56363900D01*
X190174800Y-56363900D02*
X196825200Y-56363900D01*
X199974800Y-56363900D02*
X206825200Y-56363900D01*
X209974800Y-56363900D02*
X216073000Y-56363900D01*
X176329400Y-56605200D02*
X176825200Y-56605200D01*
X179974800Y-56605200D02*
X187025200Y-56605200D01*
X190174800Y-56605200D02*
X196825200Y-56605200D01*
X199974800Y-56605200D02*
X206825200Y-56605200D01*
X209974800Y-56605200D02*
X216073000Y-56605200D01*
X176329400Y-56846500D02*
X176825200Y-56846500D01*
X179974800Y-56846500D02*
X187025200Y-56846500D01*
X190174800Y-56846500D02*
X196825200Y-56846500D01*
X199974800Y-56846500D02*
X206825200Y-56846500D01*
X209974800Y-56846500D02*
X216073000Y-56846500D01*
X176329400Y-57087800D02*
X176825200Y-57087800D01*
X179974800Y-57087800D02*
X187025200Y-57087800D01*
X190174800Y-57087800D02*
X196825200Y-57087800D01*
X199974800Y-57087800D02*
X206825200Y-57087800D01*
X209974800Y-57087800D02*
X216073000Y-57087800D01*
X176329400Y-57329100D02*
X176825200Y-57329100D01*
X179974800Y-57329100D02*
X187025200Y-57329100D01*
X190174800Y-57329100D02*
X196825200Y-57329100D01*
X199974800Y-57329100D02*
X206825200Y-57329100D01*
X209974800Y-57329100D02*
X216073000Y-57329100D01*
X176329400Y-57570400D02*
X176825200Y-57570400D01*
X179974800Y-57570400D02*
X187025200Y-57570400D01*
X190174800Y-57570400D02*
X196825200Y-57570400D01*
X199974800Y-57570400D02*
X206825200Y-57570400D01*
X209974800Y-57570400D02*
X216073000Y-57570400D01*
X176329400Y-57811700D02*
X176825200Y-57811700D01*
X179974800Y-57811700D02*
X187025200Y-57811700D01*
X190174800Y-57811700D02*
X196802758Y-57811700D01*
X199974800Y-57811700D02*
X206825200Y-57811700D01*
X209974800Y-57811700D02*
X216073000Y-57811700D01*
X176329400Y-58053000D02*
X176825200Y-58053000D01*
X179974800Y-58053000D02*
X187025200Y-58053000D01*
X190174800Y-58053000D02*
X196641527Y-58053000D01*
X199974800Y-58053000D02*
X206825200Y-58053000D01*
X209974800Y-58053000D02*
X216073000Y-58053000D01*
X176329400Y-58294300D02*
X176747566Y-58294300D01*
X179974800Y-58294300D02*
X187025200Y-58294300D01*
X190174800Y-58294300D02*
X196525791Y-58294300D01*
X199974800Y-58294300D02*
X206747566Y-58294300D01*
X209974800Y-58294300D02*
X216116927Y-58294300D01*
X176329400Y-58535600D02*
X176586335Y-58535600D01*
X179974800Y-58535600D02*
X186837296Y-58535600D01*
X190174800Y-58535600D02*
X196477793Y-58535600D01*
X199947827Y-58535600D02*
X206586335Y-58535600D01*
X209974800Y-58535600D02*
X216170600Y-58535600D01*
X176329400Y-58776900D02*
X176509361Y-58776900D01*
X179974800Y-58776900D02*
X186626011Y-58776900D01*
X190174800Y-58776900D02*
X196429795Y-58776900D01*
X199899829Y-58776900D02*
X206509361Y-58776900D01*
X209974800Y-58776900D02*
X216170600Y-58776900D01*
X176329400Y-59018200D02*
X176461363Y-59018200D01*
X179931397Y-59018200D02*
X186464779Y-59018200D01*
X190171179Y-59018200D02*
X196425200Y-59018200D01*
X199844534Y-59018200D02*
X206461363Y-59018200D01*
X209931397Y-59018200D02*
X216170600Y-59018200D01*
X176329400Y-59259500D02*
X176425200Y-59259500D01*
X179883399Y-59259500D02*
X186332713Y-59259500D01*
X190123182Y-59259500D02*
X196425200Y-59259500D01*
X199683303Y-59259500D02*
X206425200Y-59259500D01*
X209883399Y-59259500D02*
X216170600Y-59259500D01*
X176329400Y-59500800D02*
X176425200Y-59500800D01*
X179789343Y-59500800D02*
X186284715Y-59500800D01*
X190075184Y-59500800D02*
X196425200Y-59500800D01*
X199574800Y-59500800D02*
X206425200Y-59500800D01*
X209789343Y-59500800D02*
X216170600Y-59500800D01*
X176329400Y-59742100D02*
X176425200Y-59742100D01*
X179628112Y-59742100D02*
X186236718Y-59742100D01*
X189961747Y-59742100D02*
X196425200Y-59742100D01*
X199574800Y-59742100D02*
X206425200Y-59742100D01*
X209628112Y-59742100D02*
X216170600Y-59742100D01*
X176329400Y-59983400D02*
X176425200Y-59983400D01*
X179574800Y-59983400D02*
X186225200Y-59983400D01*
X189800516Y-59983400D02*
X196425200Y-59983400D01*
X199574800Y-59983400D02*
X206425200Y-59983400D01*
X209574800Y-59983400D02*
X216170600Y-59983400D01*
X176329400Y-60224700D02*
X176425200Y-60224700D01*
X179574800Y-60224700D02*
X186225200Y-60224700D01*
X189602404Y-60224700D02*
X196425200Y-60224700D01*
X199574800Y-60224700D02*
X206425200Y-60224700D01*
X209574800Y-60224700D02*
X216170600Y-60224700D01*
X176329400Y-60466000D02*
X176425200Y-60466000D01*
X179574800Y-60466000D02*
X186225200Y-60466000D01*
X189374800Y-60466000D02*
X196425200Y-60466000D01*
X199574800Y-60466000D02*
X206425200Y-60466000D01*
X209574800Y-60466000D02*
X216170600Y-60466000D01*
X176329400Y-60707300D02*
X176425200Y-60707300D01*
X179574800Y-60707300D02*
X186225200Y-60707300D01*
X189374800Y-60707300D02*
X196425200Y-60707300D01*
X199574800Y-60707300D02*
X206425200Y-60707300D01*
X209574800Y-60707300D02*
X216170600Y-60707300D01*
X176329400Y-60948600D02*
X176425200Y-60948600D01*
X179574800Y-60948600D02*
X186225200Y-60948600D01*
X189374800Y-60948600D02*
X196425200Y-60948600D01*
X199574800Y-60948600D02*
X206425200Y-60948600D01*
X209574800Y-60948600D02*
X216170600Y-60948600D01*
X176329400Y-61189900D02*
X176425200Y-61189900D01*
X179574800Y-61189900D02*
X186225200Y-61189900D01*
X189374800Y-61189900D02*
X196425200Y-61189900D01*
X199574800Y-61189900D02*
X206425200Y-61189900D01*
X209574800Y-61189900D02*
X216170600Y-61189900D01*
X176329400Y-61431200D02*
X176425200Y-61431200D01*
X183030164Y-61431200D02*
X186225200Y-61431200D01*
X193030164Y-61431200D02*
X196425200Y-61431200D01*
X203030164Y-61431200D02*
X206425200Y-61431200D01*
X213030164Y-61431200D02*
X216170600Y-61431200D01*
X176329400Y-61672500D02*
X176425200Y-61672500D01*
X183793356Y-61672500D02*
X186225200Y-61672500D01*
X193793356Y-61672500D02*
X196425200Y-61672500D01*
X203793356Y-61672500D02*
X206425200Y-61672500D01*
X213793356Y-61672500D02*
X216073000Y-61672500D01*
X176329400Y-61913800D02*
X176425200Y-61913800D01*
X184140904Y-61913800D02*
X186225200Y-61913800D01*
X194140904Y-61913800D02*
X196425200Y-61913800D01*
X204140904Y-61913800D02*
X206425200Y-61913800D01*
X214140904Y-61913800D02*
X216073000Y-61913800D01*
X176329400Y-62155100D02*
X176425200Y-62155100D01*
X184382204Y-62155100D02*
X186225200Y-62155100D01*
X194382204Y-62155100D02*
X196425200Y-62155100D01*
X204382204Y-62155100D02*
X206425200Y-62155100D01*
X214382204Y-62155100D02*
X216073000Y-62155100D01*
X176329400Y-62396400D02*
X176425200Y-62396400D01*
X184623504Y-62396400D02*
X186225200Y-62396400D01*
X194623504Y-62396400D02*
X196425200Y-62396400D01*
X204623504Y-62396400D02*
X206425200Y-62396400D01*
X214623504Y-62396400D02*
X216073000Y-62396400D01*
X176329400Y-62637700D02*
X176472481Y-62637700D01*
X184864804Y-62637700D02*
X186225200Y-62637700D01*
X194864804Y-62637700D02*
X196425200Y-62637700D01*
X204864804Y-62637700D02*
X206425200Y-62637700D01*
X214864804Y-62637700D02*
X216073000Y-62637700D01*
X176329400Y-62879000D02*
X176520479Y-62879000D01*
X185106104Y-62879000D02*
X186225200Y-62879000D01*
X195106104Y-62879000D02*
X196425200Y-62879000D01*
X205106104Y-62879000D02*
X206425200Y-62879000D01*
X215106104Y-62879000D02*
X216073000Y-62879000D01*
X176329400Y-63120300D02*
X176623685Y-63120300D01*
X185347404Y-63120300D02*
X186249129Y-63120300D01*
X195347404Y-63120300D02*
X196449129Y-63120300D01*
X205347404Y-63120300D02*
X206425200Y-63120300D01*
X215347404Y-63120300D02*
X216073000Y-63120300D01*
X176329400Y-63361600D02*
X176784917Y-63361600D01*
X185588704Y-63361600D02*
X186297126Y-63361600D01*
X195588704Y-63361600D02*
X196497126Y-63361600D01*
X205588704Y-63361600D02*
X206425200Y-63361600D01*
X215588704Y-63361600D02*
X216073000Y-63361600D01*
X176329400Y-63602900D02*
X176975796Y-63602900D01*
X185830004Y-63602900D02*
X186345242Y-63602900D01*
X195830004Y-63602900D02*
X196545242Y-63602900D01*
X205830004Y-63602900D02*
X206465559Y-63602900D01*
X215830004Y-63602900D02*
X216073000Y-63602900D01*
X176329400Y-63844200D02*
X177217096Y-63844200D01*
X186071304Y-63844200D02*
X186506473Y-63844200D01*
X196071304Y-63844200D02*
X196706473Y-63844200D01*
X206071304Y-63844200D02*
X206513557Y-63844200D01*
X216071304Y-63844200D02*
X216073000Y-63844200D01*
X176329400Y-64085500D02*
X177458396Y-64085500D01*
X186283998Y-64085500D02*
X186667704Y-64085500D01*
X196283998Y-64085500D02*
X196867704Y-64085500D01*
X206283998Y-64085500D02*
X206600433Y-64085500D01*
X176329400Y-64326800D02*
X177805596Y-64326800D01*
X186407785Y-64326800D02*
X187005596Y-64326800D01*
X196407785Y-64326800D02*
X197205596Y-64326800D01*
X206407785Y-64326800D02*
X206761664Y-64326800D01*
X176329400Y-64568100D02*
X178566316Y-64568100D01*
X186503839Y-64568100D02*
X187766316Y-64568100D01*
X196503839Y-64568100D02*
X197966316Y-64568100D01*
X206503839Y-64568100D02*
X206968085Y-64568100D01*
X176329400Y-64809400D02*
X179675788Y-64809400D01*
X182324213Y-64809400D02*
X182582296Y-64809400D01*
X186554966Y-64809400D02*
X189675788Y-64809400D01*
X192324213Y-64809400D02*
X192582296Y-64809400D01*
X196554966Y-64809400D02*
X199675788Y-64809400D01*
X202324213Y-64809400D02*
X202582296Y-64809400D01*
X206554966Y-64809400D02*
X207329216Y-64809400D01*
X208670783Y-64809400D02*
X209675788Y-64809400D01*
X212324213Y-64809400D02*
X212582296Y-64809400D01*
X176329400Y-65050700D02*
X179517573Y-65050700D01*
X182482428Y-65050700D02*
X182823596Y-65050700D01*
X186564715Y-65050700D02*
X189517573Y-65050700D01*
X192482428Y-65050700D02*
X192823596Y-65050700D01*
X196564715Y-65050700D02*
X199517573Y-65050700D01*
X202482428Y-65050700D02*
X202823596Y-65050700D01*
X206564715Y-65050700D02*
X209517573Y-65050700D01*
X212482428Y-65050700D02*
X212823596Y-65050700D01*
X176329400Y-65292000D02*
X179469576Y-65292000D01*
X182530425Y-65292000D02*
X183064896Y-65292000D01*
X186554545Y-65292000D02*
X189469576Y-65292000D01*
X192530425Y-65292000D02*
X193064896Y-65292000D01*
X196554545Y-65292000D02*
X199469576Y-65292000D01*
X202530425Y-65292000D02*
X203064896Y-65292000D01*
X206554545Y-65292000D02*
X209469576Y-65292000D01*
X212530425Y-65292000D02*
X213064896Y-65292000D01*
X176329400Y-65533300D02*
X179421578Y-65533300D01*
X182578423Y-65533300D02*
X183306196Y-65533300D01*
X186468719Y-65533300D02*
X189421578Y-65533300D01*
X192578423Y-65533300D02*
X193306196Y-65533300D01*
X196468719Y-65533300D02*
X199421578Y-65533300D01*
X202578423Y-65533300D02*
X203306196Y-65533300D01*
X206468719Y-65533300D02*
X209421578Y-65533300D01*
X212578423Y-65533300D02*
X213306196Y-65533300D01*
X176329400Y-65774600D02*
X179466909Y-65774600D01*
X182533090Y-65774600D02*
X183547496Y-65774600D01*
X186361870Y-65774600D02*
X189466909Y-65774600D01*
X192533090Y-65774600D02*
X193547496Y-65774600D01*
X196361870Y-65774600D02*
X199466909Y-65774600D01*
X202533090Y-65774600D02*
X203547496Y-65774600D01*
X206361870Y-65774600D02*
X209466909Y-65774600D01*
X212533090Y-65774600D02*
X213547496Y-65774600D01*
X176329400Y-66015900D02*
X179514906Y-66015900D01*
X182485093Y-66015900D02*
X183788796Y-66015900D01*
X186183065Y-66015900D02*
X189514906Y-66015900D01*
X192485093Y-66015900D02*
X193788796Y-66015900D01*
X196183065Y-66015900D02*
X199514906Y-66015900D01*
X202485093Y-66015900D02*
X203788796Y-66015900D01*
X206183065Y-66015900D02*
X209514906Y-66015900D01*
X212485093Y-66015900D02*
X213788796Y-66015900D01*
X176727000Y-66257200D02*
X179666834Y-66257200D01*
X182333165Y-66257200D02*
X184058105Y-66257200D01*
X185941344Y-66257200D02*
X189666834Y-66257200D01*
X192333165Y-66257200D02*
X194058105Y-66257200D01*
X195941344Y-66257200D02*
X199666834Y-66257200D01*
X202333165Y-66257200D02*
X204058105Y-66257200D01*
X205941344Y-66257200D02*
X209666834Y-66257200D01*
X212333165Y-66257200D02*
X214058105Y-66257200D01*
X177526702Y-66498500D02*
X179863285Y-66498500D01*
X182136714Y-66498500D02*
X184554441Y-66498500D01*
X185444819Y-66498500D02*
X189863285Y-66498500D01*
X192136714Y-66498500D02*
X194554441Y-66498500D01*
X195444819Y-66498500D02*
X199863285Y-66498500D01*
X202136714Y-66498500D02*
X204554441Y-66498500D01*
X205444819Y-66498500D02*
X209466764Y-66498500D01*
X212136714Y-66498500D02*
X214554441Y-66498500D01*
X177527000Y-66739800D02*
X180235029Y-66739800D01*
X181764970Y-66739800D02*
X190235029Y-66739800D01*
X191764970Y-66739800D02*
X200235029Y-66739800D01*
X201764970Y-66739800D02*
X209225464Y-66739800D01*
X211764970Y-66739800D02*
X215080594Y-66739800D01*
X177527000Y-66981100D02*
X180593600Y-66981100D01*
X181406400Y-66981100D02*
X190593600Y-66981100D01*
X191406400Y-66981100D02*
X200593600Y-66981100D01*
X201406400Y-66981100D02*
X208984164Y-66981100D01*
X210133636Y-66981100D02*
X214839294Y-66981100D01*
X177527000Y-67222400D02*
X180593600Y-67222400D01*
X181406400Y-67222400D02*
X190593600Y-67222400D01*
X191406400Y-67222400D02*
X200593600Y-67222400D01*
X201406400Y-67222400D02*
X208742864Y-67222400D01*
X209892336Y-67222400D02*
X214597994Y-67222400D01*
X177527000Y-67463700D02*
X180593600Y-67463700D01*
X181406400Y-67463700D02*
X190593600Y-67463700D01*
X191406400Y-67463700D02*
X200593600Y-67463700D01*
X201406400Y-67463700D02*
X208501564Y-67463700D01*
X209651036Y-67463700D02*
X214356694Y-67463700D01*
X177527000Y-67705000D02*
X180593600Y-67705000D01*
X181406400Y-67705000D02*
X190593600Y-67705000D01*
X191406400Y-67705000D02*
X200593600Y-67705000D01*
X201406400Y-67705000D02*
X208260264Y-67705000D01*
X209409736Y-67705000D02*
X214115394Y-67705000D01*
X177527000Y-67946300D02*
X180593600Y-67946300D01*
X181406400Y-67946300D02*
X190593600Y-67946300D01*
X191406400Y-67946300D02*
X200593600Y-67946300D01*
X201406400Y-67946300D02*
X208018964Y-67946300D01*
X209168436Y-67946300D02*
X213874094Y-67946300D01*
X177527000Y-68187600D02*
X180593600Y-68187600D01*
X181406400Y-68187600D02*
X190593600Y-68187600D01*
X191406400Y-68187600D02*
X200593600Y-68187600D01*
X201406400Y-68187600D02*
X207777664Y-68187600D01*
X208927136Y-68187600D02*
X213632794Y-68187600D01*
X177527000Y-68428900D02*
X180593600Y-68428900D01*
X181406400Y-68428900D02*
X190593600Y-68428900D01*
X191406400Y-68428900D02*
X200593600Y-68428900D01*
X201406400Y-68428900D02*
X207615699Y-68428900D01*
X208685836Y-68428900D02*
X213391494Y-68428900D01*
X177527000Y-68670200D02*
X180593600Y-68670200D01*
X181406400Y-68670200D02*
X190593600Y-68670200D01*
X191406400Y-68670200D02*
X200593600Y-68670200D01*
X201406400Y-68670200D02*
X207593600Y-68670200D01*
X208444536Y-68670200D02*
X213150194Y-68670200D01*
X177527000Y-68911500D02*
X180593600Y-68911500D01*
X181406400Y-68911500D02*
X190593600Y-68911500D01*
X191406400Y-68911500D02*
X200593600Y-68911500D01*
X201406400Y-68911500D02*
X207593600Y-68911500D01*
X208406400Y-68911500D02*
X212908894Y-68911500D01*
X177527000Y-69152800D02*
X180593600Y-69152800D01*
X181406400Y-69152800D02*
X190593600Y-69152800D01*
X191406400Y-69152800D02*
X200593600Y-69152800D01*
X201406400Y-69152800D02*
X207312326Y-69152800D01*
X208687675Y-69152800D02*
X212667594Y-69152800D01*
X177527000Y-69394100D02*
X180593600Y-69394100D01*
X181406400Y-69394100D02*
X190593600Y-69394100D01*
X191406400Y-69394100D02*
X200593600Y-69394100D01*
X201406400Y-69394100D02*
X207265127Y-69394100D01*
X208734873Y-69394100D02*
X212426294Y-69394100D01*
X177527000Y-69635400D02*
X180593600Y-69635400D01*
X208734873Y-69635400D02*
X212184994Y-69635400D01*
X177527000Y-69876700D02*
X180608856Y-69876700D01*
X208734873Y-69876700D02*
X211943694Y-69876700D01*
X177527000Y-70118000D02*
X180743264Y-70118000D01*
X208734873Y-70118000D02*
X211702394Y-70118000D01*
X177527000Y-70359300D02*
X190820284Y-70359300D01*
X191179715Y-70359300D02*
X200820284Y-70359300D01*
X201179715Y-70359300D02*
X207265127Y-70359300D01*
X208734873Y-70359300D02*
X211461094Y-70359300D01*
X177527000Y-70600600D02*
X207285137Y-70600600D01*
X208714862Y-70600600D02*
X211219794Y-70600600D01*
X177527000Y-70841900D02*
X184213541Y-70841900D01*
X187134460Y-70841900D02*
X192326031Y-70841900D01*
X194261970Y-70841900D02*
X210978494Y-70841900D01*
X177527000Y-71083200D02*
X184189127Y-71083200D01*
X187158873Y-71083200D02*
X192040661Y-71083200D01*
X194547340Y-71083200D02*
X205036694Y-71083200D01*
X205963226Y-71083200D02*
X210737194Y-71083200D01*
X177527000Y-71324500D02*
X184189127Y-71324500D01*
X187158873Y-71324500D02*
X191879429Y-71324500D01*
X194708572Y-71324500D02*
X204899058Y-71324500D01*
X206100815Y-71324500D02*
X207331235Y-71324500D01*
X208668766Y-71324500D02*
X210495894Y-71324500D01*
X177527000Y-71565800D02*
X180859464Y-71565800D01*
X187158873Y-71565800D02*
X191823252Y-71565800D01*
X194764749Y-71565800D02*
X204859464Y-71565800D01*
X206122243Y-71565800D02*
X207265127Y-71565800D01*
X208734873Y-71565800D02*
X210254594Y-71565800D01*
X177527000Y-71807100D02*
X180618164Y-71807100D01*
X187158873Y-71807100D02*
X191795980Y-71807100D01*
X194792019Y-71807100D02*
X204712079Y-71807100D01*
X206046297Y-71807100D02*
X207265127Y-71807100D01*
X208734873Y-71807100D02*
X210013294Y-71807100D01*
X177527000Y-72048400D02*
X179575993Y-72048400D01*
X187158873Y-72048400D02*
X191843977Y-72048400D01*
X194744022Y-72048400D02*
X199698810Y-72048400D01*
X201601191Y-72048400D02*
X204693600Y-72048400D01*
X205802352Y-72048400D02*
X207265127Y-72048400D01*
X208734873Y-72048400D02*
X209771994Y-72048400D01*
X177527000Y-72289700D02*
X179237492Y-72289700D01*
X181285036Y-72289700D02*
X184189127Y-72289700D01*
X187158873Y-72289700D02*
X191949052Y-72289700D01*
X194638947Y-72289700D02*
X199615127Y-72289700D01*
X201684873Y-72289700D02*
X202186662Y-72289700D01*
X203613339Y-72289700D02*
X204386662Y-72289700D01*
X205813339Y-72289700D02*
X207265127Y-72289700D01*
X208734873Y-72289700D02*
X209530694Y-72289700D01*
X177527000Y-72531000D02*
X179067135Y-72531000D01*
X181043736Y-72531000D02*
X184189127Y-72531000D01*
X187158873Y-72531000D02*
X192120846Y-72531000D01*
X194467153Y-72531000D02*
X199615127Y-72531000D01*
X201684873Y-72531000D02*
X202018907Y-72531000D01*
X203781094Y-72531000D02*
X204218907Y-72531000D01*
X205981094Y-72531000D02*
X207265127Y-72531000D01*
X208734873Y-72531000D02*
X209289394Y-72531000D01*
X177527000Y-72772300D02*
X178966938Y-72772300D01*
X181032713Y-72772300D02*
X184296306Y-72772300D01*
X187051693Y-72772300D02*
X192552817Y-72772300D01*
X194035182Y-72772300D02*
X199615127Y-72772300D01*
X203784873Y-72772300D02*
X204215127Y-72772300D01*
X205984873Y-72772300D02*
X207279508Y-72772300D01*
X208720491Y-72772300D02*
X209048094Y-72772300D01*
X177527000Y-73013600D02*
X178958588Y-73013600D01*
X181041388Y-73013600D02*
X199615127Y-73013600D01*
X203784873Y-73013600D02*
X204215127Y-73013600D01*
X205984873Y-73013600D02*
X207593600Y-73013600D01*
X177527000Y-73254900D02*
X178978526Y-73254900D01*
X181021767Y-73254900D02*
X185047442Y-73254900D01*
X186300559Y-73254900D02*
X192667442Y-73254900D01*
X193920559Y-73254900D02*
X199615127Y-73254900D01*
X203784873Y-73254900D02*
X204215127Y-73254900D01*
X205984873Y-73254900D02*
X207593600Y-73254900D01*
X177527000Y-73496200D02*
X179078229Y-73496200D01*
X180921570Y-73496200D02*
X184534969Y-73496200D01*
X186813032Y-73496200D02*
X192154969Y-73496200D01*
X194433032Y-73496200D02*
X199615127Y-73496200D01*
X201684873Y-73496200D02*
X202024316Y-73496200D01*
X203775683Y-73496200D02*
X204224316Y-73496200D01*
X205975683Y-73496200D02*
X207593600Y-73496200D01*
X177527000Y-73737500D02*
X179264735Y-73737500D01*
X180735260Y-73737500D02*
X184344288Y-73737500D01*
X187003713Y-73737500D02*
X191964288Y-73737500D01*
X194623713Y-73737500D02*
X199615127Y-73737500D01*
X201684873Y-73737500D02*
X207593600Y-73737500D01*
X177527000Y-73978800D02*
X179593600Y-73978800D01*
X180406400Y-73978800D02*
X184228513Y-73978800D01*
X188458219Y-73978800D02*
X191848513Y-73978800D01*
X205539219Y-73978800D02*
X207593600Y-73978800D01*
X177527000Y-74220100D02*
X179593600Y-74220100D01*
X180406400Y-74220100D02*
X184180516Y-74220100D01*
X188713836Y-74220100D02*
X191800516Y-74220100D01*
X205794836Y-74220100D02*
X207593600Y-74220100D01*
X177527000Y-74461400D02*
X179593600Y-74461400D01*
X180406400Y-74461400D02*
X184198715Y-74461400D01*
X188955136Y-74461400D02*
X191818715Y-74461400D01*
X206036136Y-74461400D02*
X207593600Y-74461400D01*
X177527000Y-74702700D02*
X179364714Y-74702700D01*
X180635639Y-74702700D02*
X184246713Y-74702700D01*
X187101286Y-74702700D02*
X188046964Y-74702700D01*
X189196436Y-74702700D02*
X191866713Y-74702700D01*
X194721286Y-74702700D02*
X205127964Y-74702700D01*
X206277436Y-74702700D02*
X207593600Y-74702700D01*
X177527000Y-74944000D02*
X179122993Y-74944000D01*
X180876518Y-74944000D02*
X184405425Y-74944000D01*
X186942574Y-74944000D02*
X188288264Y-74944000D01*
X189437736Y-74944000D02*
X192025425Y-74944000D01*
X194562574Y-74944000D02*
X205369264Y-74944000D01*
X206518736Y-74944000D02*
X207593600Y-74944000D01*
X177527000Y-75185300D02*
X179019674Y-75185300D01*
X180980238Y-75185300D02*
X184671908Y-75185300D01*
X186676091Y-75185300D02*
X188529564Y-75185300D01*
X189679036Y-75185300D02*
X192291908Y-75185300D01*
X194296091Y-75185300D02*
X205610564Y-75185300D01*
X206760036Y-75185300D02*
X207593600Y-75185300D01*
X177527000Y-75426600D02*
X178958699Y-75426600D01*
X181041499Y-75426600D02*
X188770864Y-75426600D01*
X189920336Y-75426600D02*
X205851864Y-75426600D01*
X207001336Y-75426600D02*
X207593600Y-75426600D01*
X177527000Y-75667900D02*
X178958489Y-75667900D01*
X181041288Y-75667900D02*
X189012164Y-75667900D01*
X190161636Y-75667900D02*
X206093164Y-75667900D01*
X207242636Y-75667900D02*
X207593600Y-75667900D01*
X177527000Y-75909200D02*
X179025754Y-75909200D01*
X180974306Y-75909200D02*
X184725038Y-75909200D01*
X186622963Y-75909200D02*
X189253464Y-75909200D01*
X190402936Y-75909200D02*
X192345038Y-75909200D01*
X194242963Y-75909200D02*
X206334464Y-75909200D01*
X207388340Y-75909200D02*
X207593600Y-75909200D01*
X177527000Y-76150500D02*
X179137956Y-76150500D01*
X180862482Y-76150500D02*
X184429147Y-76150500D01*
X186918854Y-76150500D02*
X189494764Y-76150500D01*
X190644236Y-76150500D02*
X192049147Y-76150500D01*
X194538854Y-76150500D02*
X196334920Y-76150500D01*
X198365081Y-76150500D02*
X199634920Y-76150500D01*
X201665081Y-76150500D02*
X206575764Y-76150500D01*
X207406400Y-76150500D02*
X207593600Y-76150500D01*
X177527000Y-76391800D02*
X179378836Y-76391800D01*
X180620761Y-76391800D02*
X184267915Y-76391800D01*
X187080086Y-76391800D02*
X189736064Y-76391800D01*
X190885536Y-76391800D02*
X191887915Y-76391800D01*
X194700086Y-76391800D02*
X196315127Y-76391800D01*
X198384873Y-76391800D02*
X199615127Y-76391800D01*
X201684873Y-76391800D02*
X202069676Y-76391800D01*
X203730325Y-76391800D02*
X204269676Y-76391800D01*
X205930325Y-76391800D02*
X206593600Y-76391800D01*
X207406400Y-76391800D02*
X207593600Y-76391800D01*
X177527000Y-76633100D02*
X184205778Y-76633100D01*
X187142223Y-76633100D02*
X189977364Y-76633100D01*
X191126836Y-76633100D02*
X191825778Y-76633100D01*
X198384873Y-76633100D02*
X199615127Y-76633100D01*
X203784873Y-76633100D02*
X204215127Y-76633100D01*
X205984873Y-76633100D02*
X206593600Y-76633100D01*
X207406400Y-76633100D02*
X207593600Y-76633100D01*
X177527000Y-76874400D02*
X184173454Y-76874400D01*
X187174545Y-76874400D02*
X190218664Y-76874400D01*
X191368136Y-76874400D02*
X191793454Y-76874400D01*
X198384873Y-76874400D02*
X199615127Y-76874400D01*
X203784873Y-76874400D02*
X204215127Y-76874400D01*
X205984873Y-76874400D02*
X206593600Y-76874400D01*
X207406400Y-76874400D02*
X207593600Y-76874400D01*
X177527000Y-77115700D02*
X179606730Y-77115700D01*
X180393298Y-77115700D02*
X184221451Y-77115700D01*
X187126548Y-77115700D02*
X190459964Y-77115700D01*
X191609436Y-77115700D02*
X191841451Y-77115700D01*
X198384873Y-77115700D02*
X199615127Y-77115700D01*
X203784873Y-77115700D02*
X204215127Y-77115700D01*
X205984873Y-77115700D02*
X206593600Y-77115700D01*
X207406400Y-77115700D02*
X207593600Y-77115700D01*
X177527000Y-77357000D02*
X179250215Y-77357000D01*
X180749740Y-77357000D02*
X184320567Y-77357000D01*
X187027432Y-77357000D02*
X190701264Y-77357000D01*
X191850736Y-77357000D02*
X191940567Y-77357000D01*
X194647432Y-77357000D02*
X196315127Y-77357000D01*
X198384873Y-77357000D02*
X199615127Y-77357000D01*
X203784873Y-77357000D02*
X204215127Y-77357000D01*
X205984873Y-77357000D02*
X206593600Y-77357000D01*
X207406400Y-77357000D02*
X207593600Y-77357000D01*
X177527000Y-77598300D02*
X179072409Y-77598300D01*
X180927762Y-77598300D02*
X184481839Y-77598300D01*
X187012036Y-77598300D02*
X190942564Y-77598300D01*
X192092036Y-77598300D02*
X192101839Y-77598300D01*
X194486160Y-77598300D02*
X196315127Y-77598300D01*
X198384873Y-77598300D02*
X199615127Y-77598300D01*
X201684873Y-77598300D02*
X202063060Y-77598300D01*
X203736939Y-77598300D02*
X204263060Y-77598300D01*
X205936939Y-77598300D02*
X206593600Y-77598300D01*
X207406400Y-77598300D02*
X207593600Y-77598300D01*
X177527000Y-77839600D02*
X178972212Y-77839600D01*
X184713337Y-77839600D02*
X184868970Y-77839600D01*
X187253336Y-77839600D02*
X191183864Y-77839600D01*
X192333336Y-77839600D02*
X192488970Y-77839600D01*
X194099029Y-77839600D02*
X196332949Y-77839600D01*
X198367050Y-77839600D02*
X199632949Y-77839600D01*
X201667050Y-77839600D02*
X204693600Y-77839600D01*
X205506400Y-77839600D02*
X206593600Y-77839600D01*
X207406400Y-77839600D02*
X207593600Y-77839600D01*
X177527000Y-78080900D02*
X178958599Y-78080900D01*
X184954637Y-78080900D02*
X186345164Y-78080900D01*
X187494636Y-78080900D02*
X191425164Y-78080900D01*
X192574636Y-78080900D02*
X204693600Y-78080900D01*
X205506400Y-78080900D02*
X206593600Y-78080900D01*
X207406400Y-78080900D02*
X207593600Y-78080900D01*
X177527000Y-78322200D02*
X178973279Y-78322200D01*
X186236711Y-78322200D02*
X186586464Y-78322200D01*
X187735936Y-78322200D02*
X191666464Y-78322200D01*
X193856711Y-78322200D02*
X204693600Y-78322200D01*
X205506400Y-78322200D02*
X206593600Y-78322200D01*
X207406400Y-78322200D02*
X207593600Y-78322200D01*
X177527000Y-78563500D02*
X179072981Y-78563500D01*
X180926844Y-78563500D02*
X184287763Y-78563500D01*
X186794025Y-78563500D02*
X186827764Y-78563500D01*
X187977236Y-78563500D02*
X191907764Y-78563500D01*
X194414025Y-78563500D02*
X204693600Y-78563500D01*
X205506400Y-78563500D02*
X206593600Y-78563500D01*
X207406400Y-78563500D02*
X207593600Y-78563500D01*
X177527000Y-78804800D02*
X179252057Y-78804800D01*
X180747982Y-78804800D02*
X184352774Y-78804800D01*
X186995227Y-78804800D02*
X187069064Y-78804800D01*
X188218536Y-78804800D02*
X191972774Y-78804800D01*
X194615227Y-78804800D02*
X204620464Y-78804800D01*
X205506400Y-78804800D02*
X206593600Y-78804800D01*
X207406400Y-78804800D02*
X207593600Y-78804800D01*
X177527000Y-79046100D02*
X179593600Y-79046100D01*
X180406400Y-79046100D02*
X184231040Y-79046100D01*
X187116961Y-79046100D02*
X187310364Y-79046100D01*
X188459836Y-79046100D02*
X191851040Y-79046100D01*
X194736961Y-79046100D02*
X204073859Y-79046100D01*
X205477339Y-79046100D02*
X206379164Y-79046100D01*
X177527000Y-79287400D02*
X179593600Y-79287400D01*
X180406400Y-79287400D02*
X184183042Y-79287400D01*
X187164959Y-79287400D02*
X187551664Y-79287400D01*
X188701136Y-79287400D02*
X191803042Y-79287400D01*
X194784959Y-79287400D02*
X203914463Y-79287400D01*
X205287336Y-79287400D02*
X206137864Y-79287400D01*
X177527000Y-79528700D02*
X179593600Y-79528700D01*
X180406400Y-79528700D02*
X184196189Y-79528700D01*
X187151810Y-79528700D02*
X187792964Y-79528700D01*
X188942436Y-79528700D02*
X191816189Y-79528700D01*
X194771810Y-79528700D02*
X203877675Y-79528700D01*
X205122275Y-79528700D02*
X205896564Y-79528700D01*
X208046036Y-79528700D02*
X208073000Y-79528700D01*
X177527000Y-79770000D02*
X179593600Y-79770000D01*
X180406400Y-79770000D02*
X184244187Y-79770000D01*
X187103812Y-79770000D02*
X188034264Y-79770000D01*
X189183736Y-79770000D02*
X191864187Y-79770000D01*
X194723812Y-79770000D02*
X203938232Y-79770000D01*
X205061703Y-79770000D02*
X205655264Y-79770000D01*
X207804736Y-79770000D02*
X208073000Y-79770000D01*
X177527000Y-80011300D02*
X179593600Y-80011300D01*
X180406400Y-80011300D02*
X184396939Y-80011300D01*
X186951060Y-80011300D02*
X188275564Y-80011300D01*
X189425036Y-80011300D02*
X192016939Y-80011300D01*
X194571060Y-80011300D02*
X204131109Y-80011300D01*
X204868640Y-80011300D02*
X205413964Y-80011300D01*
X207563436Y-80011300D02*
X208073000Y-80011300D01*
X177527000Y-80252600D02*
X179593600Y-80252600D01*
X180406400Y-80252600D02*
X184652901Y-80252600D01*
X186695098Y-80252600D02*
X188516864Y-80252600D01*
X189666336Y-80252600D02*
X192272901Y-80252600D01*
X194315098Y-80252600D02*
X205172664Y-80252600D01*
X207322136Y-80252600D02*
X208073000Y-80252600D01*
X177527000Y-80493900D02*
X179593600Y-80493900D01*
X180406400Y-80493900D02*
X188758164Y-80493900D01*
X189907636Y-80493900D02*
X196026287Y-80493900D01*
X197773714Y-80493900D02*
X204931364Y-80493900D01*
X207080836Y-80493900D02*
X208073000Y-80493900D01*
X177527000Y-80735200D02*
X179593600Y-80735200D01*
X180406400Y-80735200D02*
X188999464Y-80735200D01*
X190148936Y-80735200D02*
X196015127Y-80735200D01*
X197784873Y-80735200D02*
X204690064Y-80735200D01*
X206839536Y-80735200D02*
X208073000Y-80735200D01*
X177527000Y-80976500D02*
X179593600Y-80976500D01*
X180406400Y-80976500D02*
X184744045Y-80976500D01*
X186603956Y-80976500D02*
X189240764Y-80976500D01*
X190390236Y-80976500D02*
X196015127Y-80976500D01*
X197784873Y-80976500D02*
X204448764Y-80976500D01*
X206598236Y-80976500D02*
X208073000Y-80976500D01*
X177527000Y-81217800D02*
X179593600Y-81217800D01*
X180406400Y-81217800D02*
X184437633Y-81217800D01*
X186910368Y-81217800D02*
X189482064Y-81217800D01*
X190631536Y-81217800D02*
X196015127Y-81217800D01*
X197784873Y-81217800D02*
X204207464Y-81217800D01*
X206356936Y-81217800D02*
X208073000Y-81217800D01*
X177527000Y-81459100D02*
X179593600Y-81459100D01*
X180406400Y-81459100D02*
X184276401Y-81459100D01*
X187071600Y-81459100D02*
X189723364Y-81459100D01*
X190872836Y-81459100D02*
X195866164Y-81459100D01*
X197783062Y-81459100D02*
X203966164Y-81459100D01*
X206115636Y-81459100D02*
X208073000Y-81459100D01*
X177527000Y-81700400D02*
X179593600Y-81700400D01*
X180406400Y-81700400D02*
X184208304Y-81700400D01*
X187139697Y-81700400D02*
X189964664Y-81700400D01*
X191114136Y-81700400D02*
X195624864Y-81700400D01*
X197628154Y-81700400D02*
X200730939Y-81700400D01*
X205874336Y-81700400D02*
X208073000Y-81700400D01*
X177527000Y-81941700D02*
X179593600Y-81941700D01*
X180406400Y-81941700D02*
X184170927Y-81941700D01*
X187177072Y-81941700D02*
X190205964Y-81941700D01*
X191355436Y-81941700D02*
X195383564Y-81941700D01*
X196533036Y-81941700D02*
X200483564Y-81941700D01*
X205633036Y-81941700D02*
X208073000Y-81941700D01*
X177527000Y-82183000D02*
X179593600Y-82183000D01*
X180406400Y-82183000D02*
X184218925Y-82183000D01*
X187129074Y-82183000D02*
X190447264Y-82183000D01*
X191596736Y-82183000D02*
X195142264Y-82183000D01*
X196291736Y-82183000D02*
X200242264Y-82183000D01*
X205391736Y-82183000D02*
X208073000Y-82183000D01*
X177527000Y-82424300D02*
X179593600Y-82424300D01*
X180406400Y-82424300D02*
X184312081Y-82424300D01*
X187035918Y-82424300D02*
X190688564Y-82424300D01*
X191838036Y-82424300D02*
X194900964Y-82424300D01*
X196050436Y-82424300D02*
X200000964Y-82424300D01*
X205150436Y-82424300D02*
X208073000Y-82424300D01*
X177527000Y-82665600D02*
X179593600Y-82665600D01*
X180406400Y-82665600D02*
X184473312Y-82665600D01*
X186874687Y-82665600D02*
X190929864Y-82665600D01*
X192079336Y-82665600D02*
X194659664Y-82665600D01*
X195809136Y-82665600D02*
X199759664Y-82665600D01*
X204909136Y-82665600D02*
X208073000Y-82665600D01*
X177527000Y-82906900D02*
X179593600Y-82906900D01*
X180406400Y-82906900D02*
X184823963Y-82906900D01*
X186524036Y-82906900D02*
X191171164Y-82906900D01*
X192320636Y-82906900D02*
X194418364Y-82906900D01*
X195567836Y-82906900D02*
X199518364Y-82906900D01*
X204667836Y-82906900D02*
X208073000Y-82906900D01*
X177527000Y-83148200D02*
X179593600Y-83148200D01*
X180406400Y-83148200D02*
X191412464Y-83148200D01*
X192561936Y-83148200D02*
X194177064Y-83148200D01*
X195326536Y-83148200D02*
X199277064Y-83148200D01*
X204426536Y-83148200D02*
X208073000Y-83148200D01*
X177527000Y-83389500D02*
X179593600Y-83389500D01*
X180406400Y-83389500D02*
X191653764Y-83389500D01*
X193792863Y-83389500D02*
X193935764Y-83389500D01*
X195085236Y-83389500D02*
X199035764Y-83389500D01*
X204185236Y-83389500D02*
X208073000Y-83389500D01*
X177527000Y-83630800D02*
X179593600Y-83630800D01*
X180406400Y-83630800D02*
X191895064Y-83630800D01*
X194843936Y-83630800D02*
X198794464Y-83630800D01*
X203943936Y-83630800D02*
X208073000Y-83630800D01*
X177527000Y-83872100D02*
X179593600Y-83872100D01*
X180406400Y-83872100D02*
X191981260Y-83872100D01*
X194606742Y-83872100D02*
X198619041Y-83872100D01*
X203702636Y-83872100D02*
X208073000Y-83872100D01*
X177527000Y-84113400D02*
X179593600Y-84113400D01*
X180406400Y-84113400D02*
X191853566Y-84113400D01*
X194734435Y-84113400D02*
X198593600Y-84113400D01*
X203559873Y-84113400D02*
X208073000Y-84113400D01*
X177527000Y-84354700D02*
X179593600Y-84354700D01*
X180406400Y-84354700D02*
X191805568Y-84354700D01*
X194782433Y-84354700D02*
X195359084Y-84354700D01*
X196640917Y-84354700D02*
X198593600Y-84354700D01*
X203559873Y-84354700D02*
X208073000Y-84354700D01*
X177527000Y-84596000D02*
X179593600Y-84596000D01*
X180406400Y-84596000D02*
X191813663Y-84596000D01*
X194774336Y-84596000D02*
X195340127Y-84596000D01*
X197476003Y-84596000D02*
X198593600Y-84596000D01*
X204476003Y-84596000D02*
X208073000Y-84596000D01*
X177527000Y-84837300D02*
X179593600Y-84837300D01*
X180406400Y-84837300D02*
X191861660Y-84837300D01*
X194726339Y-84837300D02*
X195340127Y-84837300D01*
X197606104Y-84837300D02*
X198593600Y-84837300D01*
X204606104Y-84837300D02*
X208073000Y-84837300D01*
X177527000Y-85078600D02*
X179593600Y-85078600D01*
X180406400Y-85078600D02*
X192008454Y-85078600D01*
X194579545Y-85078600D02*
X195340127Y-85078600D01*
X197622231Y-85078600D02*
X198593600Y-85078600D01*
X204622231Y-85078600D02*
X208073000Y-85078600D01*
X177527000Y-85319900D02*
X179593600Y-85319900D01*
X180406400Y-85319900D02*
X191854364Y-85319900D01*
X194334105Y-85319900D02*
X195340127Y-85319900D01*
X197540982Y-85319900D02*
X198593600Y-85319900D01*
X204540982Y-85319900D02*
X208073000Y-85319900D01*
X177527000Y-85561200D02*
X179177818Y-85561200D01*
X180922183Y-85561200D02*
X191613064Y-85561200D01*
X192762536Y-85561200D02*
X195340127Y-85561200D01*
X196659873Y-85561200D02*
X196728788Y-85561200D01*
X197271374Y-85561200D02*
X198593600Y-85561200D01*
X202608123Y-85561200D02*
X203728788Y-85561200D01*
X204271374Y-85561200D02*
X208073000Y-85561200D01*
X177527000Y-85802500D02*
X179165127Y-85802500D01*
X180934873Y-85802500D02*
X191371764Y-85802500D01*
X192521236Y-85802500D02*
X195390866Y-85802500D01*
X196609133Y-85802500D02*
X198593600Y-85802500D01*
X202609873Y-85802500D02*
X208073000Y-85802500D01*
X177527000Y-86043800D02*
X179165127Y-86043800D01*
X180934873Y-86043800D02*
X191130464Y-86043800D01*
X192279936Y-86043800D02*
X198593600Y-86043800D01*
X202609873Y-86043800D02*
X208073000Y-86043800D01*
X177527000Y-86285100D02*
X179165127Y-86285100D01*
X180934873Y-86285100D02*
X190889164Y-86285100D01*
X192038636Y-86285100D02*
X198593600Y-86285100D01*
X202609873Y-86285100D02*
X208073000Y-86285100D01*
X177527000Y-86526400D02*
X179215131Y-86526400D01*
X180884868Y-86526400D02*
X190647864Y-86526400D01*
X191797336Y-86526400D02*
X198593600Y-86526400D01*
X202609873Y-86526400D02*
X208073000Y-86526400D01*
X177527000Y-86767700D02*
X190406564Y-86767700D01*
X191556036Y-86767700D02*
X198593600Y-86767700D01*
X202609873Y-86767700D02*
X208073000Y-86767700D01*
X177527000Y-87009000D02*
X190165264Y-87009000D01*
X191314736Y-87009000D02*
X198595390Y-87009000D01*
X202609873Y-87009000D02*
X208073000Y-87009000D01*
X177527000Y-87250300D02*
X189923964Y-87250300D01*
X191073436Y-87250300D02*
X198687863Y-87250300D01*
X202580648Y-87250300D02*
X208073000Y-87250300D01*
X177527000Y-87491600D02*
X189682664Y-87491600D01*
X190832136Y-87491600D02*
X201593600Y-87491600D01*
X202406400Y-87491600D02*
X208073000Y-87491600D01*
X177527000Y-87732900D02*
X189441364Y-87732900D01*
X190590836Y-87732900D02*
X201593600Y-87732900D01*
X202406400Y-87732900D02*
X208073000Y-87732900D01*
X177527000Y-87974200D02*
X189200064Y-87974200D01*
X190349536Y-87974200D02*
X201593600Y-87974200D01*
X202406400Y-87974200D02*
X208073000Y-87974200D01*
X177527000Y-88215500D02*
X188958764Y-88215500D01*
X190108236Y-88215500D02*
X201593600Y-88215500D01*
X202406400Y-88215500D02*
X208073000Y-88215500D01*
X177527000Y-88456800D02*
X188717464Y-88456800D01*
X189866936Y-88456800D02*
X201593600Y-88456800D01*
X202406400Y-88456800D02*
X208073000Y-88456800D01*
X177527000Y-88698100D02*
X188476164Y-88698100D01*
X189625636Y-88698100D02*
X201593600Y-88698100D01*
X202406400Y-88698100D02*
X208073000Y-88698100D01*
X177527000Y-88939400D02*
X188234864Y-88939400D01*
X189384336Y-88939400D02*
X201593600Y-88939400D01*
X202406400Y-88939400D02*
X208073000Y-88939400D01*
X177527000Y-89180700D02*
X187993564Y-89180700D01*
X189143036Y-89180700D02*
X201593600Y-89180700D01*
X202406400Y-89180700D02*
X208073000Y-89180700D01*
X177527000Y-89422000D02*
X187752264Y-89422000D01*
X188901736Y-89422000D02*
X201593600Y-89422000D01*
X202406400Y-89422000D02*
X208073000Y-89422000D01*
X177527000Y-89663300D02*
X187610647Y-89663300D01*
X188660436Y-89663300D02*
X201593600Y-89663300D01*
X202406400Y-89663300D02*
X208073000Y-89663300D01*
X177527000Y-89904600D02*
X187593600Y-89904600D01*
X188419136Y-89904600D02*
X201593600Y-89904600D01*
X202406400Y-89904600D02*
X208073000Y-89904600D01*
X177527000Y-90145900D02*
X187593600Y-90145900D01*
X188406400Y-90145900D02*
X201593600Y-90145900D01*
X202406400Y-90145900D02*
X208073000Y-90145900D01*
X177527000Y-90387200D02*
X178353507Y-90387200D01*
X178646945Y-90387200D02*
X179302988Y-90387200D01*
X180797013Y-90387200D02*
X187593600Y-90387200D01*
X188406400Y-90387200D02*
X190853507Y-90387200D01*
X191146945Y-90387200D02*
X201593600Y-90387200D01*
X202406400Y-90387200D02*
X208073000Y-90387200D01*
X177527000Y-90628500D02*
X177991315Y-90628500D01*
X180934873Y-90628500D02*
X187593600Y-90628500D01*
X188406400Y-90628500D02*
X190491315Y-90628500D01*
X191508446Y-90628500D02*
X201593600Y-90628500D01*
X202406400Y-90628500D02*
X208073000Y-90628500D01*
X177527000Y-90869800D02*
X177880248Y-90869800D01*
X180934873Y-90869800D02*
X187593600Y-90869800D01*
X188406400Y-90869800D02*
X190380248Y-90869800D01*
X191619533Y-90869800D02*
X201593600Y-90869800D01*
X202406400Y-90869800D02*
X208073000Y-90869800D01*
X177527000Y-91111100D02*
X177877603Y-91111100D01*
X180934873Y-91111100D02*
X187593600Y-91111100D01*
X188406400Y-91111100D02*
X190377603Y-91111100D01*
X191622203Y-91111100D02*
X201593600Y-91111100D01*
X202406400Y-91111100D02*
X208073000Y-91111100D01*
X177527000Y-91352400D02*
X177972487Y-91352400D01*
X180934873Y-91352400D02*
X187593600Y-91352400D01*
X188406400Y-91352400D02*
X190472487Y-91352400D01*
X191527487Y-91352400D02*
X201593600Y-91352400D01*
X202406400Y-91352400D02*
X208073000Y-91352400D01*
X177527000Y-91593700D02*
X178307057Y-91593700D01*
X178692718Y-91593700D02*
X179274401Y-91593700D01*
X180825598Y-91593700D02*
X187593600Y-91593700D01*
X188406400Y-91593700D02*
X190807057Y-91593700D01*
X191192718Y-91593700D02*
X201593600Y-91593700D01*
X202406400Y-91593700D02*
X208073000Y-91593700D01*
X177527000Y-91835000D02*
X186775070Y-91835000D01*
X189224931Y-91835000D02*
X190000782Y-91835000D01*
X191079219Y-91835000D02*
X195080782Y-91835000D01*
X196159219Y-91835000D02*
X201593600Y-91835000D01*
X202406400Y-91835000D02*
X208073000Y-91835000D01*
X177527000Y-92076300D02*
X186715637Y-92076300D01*
X189284363Y-92076300D02*
X189639650Y-92076300D01*
X191440351Y-92076300D02*
X194719650Y-92076300D01*
X196520351Y-92076300D02*
X201422685Y-92076300D01*
X202577316Y-92076300D02*
X208073000Y-92076300D01*
X177527000Y-92317600D02*
X186715637Y-92317600D01*
X189284363Y-92317600D02*
X189462357Y-92317600D01*
X191617644Y-92317600D02*
X194542357Y-92317600D01*
X196697644Y-92317600D02*
X201236813Y-92317600D01*
X202763188Y-92317600D02*
X208073000Y-92317600D01*
X177527000Y-92558900D02*
X186715637Y-92558900D01*
X189284363Y-92558900D02*
X189323796Y-92558900D01*
X191756205Y-92558900D02*
X194403796Y-92558900D01*
X196836205Y-92558900D02*
X201154211Y-92558900D01*
X202845790Y-92558900D02*
X208073000Y-92558900D01*
X177527000Y-92800200D02*
X186715637Y-92800200D01*
X191804203Y-92800200D02*
X194355798Y-92800200D01*
X196884203Y-92800200D02*
X201120600Y-92800200D01*
X202879400Y-92800200D02*
X208073000Y-92800200D01*
X177527000Y-93041500D02*
X186715637Y-93041500D01*
X191835690Y-93041500D02*
X194324309Y-93041500D01*
X196915690Y-93041500D02*
X201120600Y-93041500D01*
X202879400Y-93041500D02*
X208073000Y-93041500D01*
X177527000Y-93282800D02*
X179864588Y-93282800D01*
X180515413Y-93282800D02*
X183322157Y-93282800D01*
X184677844Y-93282800D02*
X186715637Y-93282800D01*
X189284363Y-93282800D02*
X189292307Y-93282800D01*
X191787692Y-93282800D02*
X194372307Y-93282800D01*
X196867692Y-93282800D02*
X201122723Y-93282800D01*
X202877276Y-93282800D02*
X208073000Y-93282800D01*
X177527000Y-93524100D02*
X178595898Y-93524100D01*
X179404229Y-93524100D02*
X179578419Y-93524100D01*
X180801582Y-93524100D02*
X183215127Y-93524100D01*
X184784873Y-93524100D02*
X186715637Y-93524100D01*
X189284363Y-93524100D02*
X189356584Y-93524100D01*
X191723415Y-93524100D02*
X194436584Y-93524100D01*
X196803415Y-93524100D02*
X201170720Y-93524100D01*
X202829279Y-93524100D02*
X208073000Y-93524100D01*
X177527000Y-93765400D02*
X178423598Y-93765400D01*
X180925773Y-93765400D02*
X183215127Y-93765400D01*
X184784873Y-93765400D02*
X186715637Y-93765400D01*
X189284363Y-93765400D02*
X189517815Y-93765400D01*
X191562184Y-93765400D02*
X194597815Y-93765400D01*
X196642184Y-93765400D02*
X201292271Y-93765400D01*
X202707728Y-93765400D02*
X208073000Y-93765400D01*
X177527000Y-94006700D02*
X178377694Y-94006700D01*
X180969400Y-94006700D02*
X183215127Y-94006700D01*
X184784873Y-94006700D02*
X186717071Y-94006700D01*
X189282928Y-94006700D02*
X189763867Y-94006700D01*
X191316132Y-94006700D02*
X194843867Y-94006700D01*
X196396132Y-94006700D02*
X201546903Y-94006700D01*
X202453096Y-94006700D02*
X208073000Y-94006700D01*
X177527000Y-94248000D02*
X178429141Y-94248000D01*
X180923107Y-94248000D02*
X183215127Y-94248000D01*
X184784873Y-94248000D02*
X186869526Y-94248000D01*
X189130473Y-94248000D02*
X190359650Y-94248000D01*
X190720349Y-94248000D02*
X195439650Y-94248000D01*
X195800349Y-94248000D02*
X208073000Y-94248000D01*
X177527000Y-94489300D02*
X178609148Y-94489300D01*
X179390679Y-94489300D02*
X179587372Y-94489300D01*
X180792627Y-94489300D02*
X183215127Y-94489300D01*
X184784873Y-94489300D02*
X208073000Y-94489300D01*
X177527000Y-94730600D02*
X179884641Y-94730600D01*
X180495358Y-94730600D02*
X183342211Y-94730600D01*
X184657788Y-94730600D02*
X208073000Y-94730600D01*
X177527000Y-94971900D02*
X208073000Y-94971900D01*
X177527000Y-95213200D02*
X208073000Y-95213200D01*
X177527000Y-95454500D02*
X208073000Y-95454500D01*
X177527000Y-95695800D02*
X208073000Y-95695800D01*
X177527000Y-95937100D02*
X208073000Y-95937100D01*
X177527000Y-96178400D02*
X208073000Y-96178400D01*
X216170600Y-58321152D02*
X216170600Y-61478848D01*
X215929300Y-53227000D02*
X215929300Y-63702196D01*
X215688000Y-53227000D02*
X215688000Y-63460896D01*
X215446700Y-53227000D02*
X215446700Y-63219596D01*
X215205400Y-53227000D02*
X215205400Y-62978296D01*
X215205400Y-66554979D02*
X215205400Y-66614994D01*
X214964100Y-53227000D02*
X214964100Y-62736996D01*
X214964100Y-66567659D02*
X214964100Y-66856294D01*
X214722800Y-53227000D02*
X214722800Y-62495696D01*
X214722800Y-66554558D02*
X214722800Y-67097594D01*
X214481500Y-53227000D02*
X214481500Y-62254396D01*
X214481500Y-66471663D02*
X214481500Y-67338894D01*
X214240200Y-53227000D02*
X214240200Y-62013096D01*
X214240200Y-66368015D02*
X214240200Y-67580194D01*
X213998900Y-53227000D02*
X213998900Y-61809841D01*
X213998900Y-66197891D02*
X213998900Y-67821494D01*
X213757600Y-53227000D02*
X213757600Y-61648610D01*
X213757600Y-65984704D02*
X213757600Y-68062794D01*
X213516300Y-53227000D02*
X213516300Y-61527899D01*
X213516300Y-65743404D02*
X213516300Y-68304094D01*
X213275000Y-53227000D02*
X213275000Y-61479902D01*
X213275000Y-65502104D02*
X213275000Y-68545394D01*
X213033700Y-53227000D02*
X213033700Y-61431904D01*
X213033700Y-65260804D02*
X213033700Y-68786694D01*
X212792400Y-53227000D02*
X212792400Y-61425200D01*
X212792400Y-65019504D02*
X212792400Y-69027994D01*
X212551100Y-53227000D02*
X212551100Y-61425200D01*
X212551100Y-64778204D02*
X212551100Y-65395941D01*
X212551100Y-65684060D02*
X212551100Y-69269294D01*
X212309800Y-53227000D02*
X212309800Y-61425200D01*
X212309800Y-64574800D02*
X212309800Y-64787831D01*
X212309800Y-66292170D02*
X212309800Y-69510594D01*
X212068500Y-53227000D02*
X212068500Y-61425200D01*
X212068500Y-66544080D02*
X212068500Y-69751894D01*
X211827200Y-53227000D02*
X211827200Y-61425200D01*
X211827200Y-66705312D02*
X211827200Y-69993194D01*
X211585900Y-53227000D02*
X211585900Y-61425200D01*
X211585900Y-66775420D02*
X211585900Y-70234494D01*
X211344600Y-53227000D02*
X211344600Y-61425200D01*
X211344600Y-66823417D02*
X211344600Y-70475794D01*
X211103300Y-53227000D02*
X211103300Y-61425200D01*
X211103300Y-66835400D02*
X211103300Y-70717094D01*
X210862000Y-53227000D02*
X210862000Y-61425200D01*
X210862000Y-66835400D02*
X210862000Y-70958394D01*
X210620700Y-53227000D02*
X210620700Y-61425200D01*
X210620700Y-66816514D02*
X210620700Y-71199694D01*
X210379400Y-53227000D02*
X210379400Y-61425200D01*
X210379400Y-66768517D02*
X210379400Y-71440994D01*
X210138100Y-53227000D02*
X210138100Y-61425200D01*
X210138100Y-66976636D02*
X210138100Y-71682294D01*
X209896800Y-53227000D02*
X209896800Y-55407870D01*
X209896800Y-59192131D02*
X209896800Y-61425200D01*
X209896800Y-67217936D02*
X209896800Y-71923594D01*
X209655500Y-53227000D02*
X209655500Y-54383759D01*
X209655500Y-59701112D02*
X209655500Y-61425200D01*
X209655500Y-64574800D02*
X209655500Y-64839762D01*
X209655500Y-66240236D02*
X209655500Y-66309764D01*
X209655500Y-67459236D02*
X209655500Y-72164894D01*
X209414200Y-53227000D02*
X209414200Y-54242054D01*
X209414200Y-64574800D02*
X209414200Y-66551064D01*
X209414200Y-67700536D02*
X209414200Y-72406194D01*
X209172900Y-53227000D02*
X209172900Y-54239229D01*
X209172900Y-64574800D02*
X209172900Y-66792364D01*
X209172900Y-67941836D02*
X209172900Y-72647494D01*
X208931600Y-53227000D02*
X208931600Y-54239229D01*
X208931600Y-64635129D02*
X208931600Y-67033664D01*
X208931600Y-68183136D02*
X208931600Y-72873000D01*
X208690300Y-53227000D02*
X208690300Y-54239229D01*
X208690300Y-64796360D02*
X208690300Y-67274964D01*
X208690300Y-68424436D02*
X208690300Y-69156730D01*
X208690300Y-70643271D02*
X208690300Y-71356730D01*
X208690300Y-72843271D02*
X208690300Y-72873000D01*
X208449000Y-53227000D02*
X208449000Y-54234947D01*
X208449000Y-64885489D02*
X208449000Y-67516264D01*
X208449000Y-68665736D02*
X208449000Y-69015127D01*
X208449000Y-70784873D02*
X208449000Y-71215127D01*
X208207700Y-53227000D02*
X208207700Y-54239229D01*
X208207700Y-64933486D02*
X208207700Y-67757564D01*
X208207700Y-70784873D02*
X208207700Y-71215127D01*
X207966400Y-53227000D02*
X207966400Y-54239229D01*
X207966400Y-64968116D02*
X207966400Y-67998864D01*
X207966400Y-70784873D02*
X207966400Y-71215127D01*
X207966400Y-79608336D02*
X207966400Y-96273000D01*
X207725100Y-53227000D02*
X207725100Y-54239229D01*
X207725100Y-64920118D02*
X207725100Y-68240164D01*
X207725100Y-70784873D02*
X207725100Y-71215127D01*
X207725100Y-79849636D02*
X207725100Y-96273000D01*
X207483800Y-53227000D02*
X207483800Y-54239229D01*
X207483800Y-64872121D02*
X207483800Y-69028295D01*
X207483800Y-70771704D02*
X207483800Y-71228295D01*
X207483800Y-72971704D02*
X207483800Y-78941464D01*
X207483800Y-80090936D02*
X207483800Y-96273000D01*
X207242500Y-53227000D02*
X207242500Y-54288658D01*
X207242500Y-64751457D02*
X207242500Y-69493600D01*
X207242500Y-70306400D02*
X207242500Y-75667764D01*
X207242500Y-80332236D02*
X207242500Y-96273000D01*
X207001200Y-53227000D02*
X207001200Y-55113352D01*
X207001200Y-64590226D02*
X207001200Y-69493600D01*
X207001200Y-70306400D02*
X207001200Y-75426464D01*
X207001200Y-80573536D02*
X207001200Y-96273000D01*
X206759900Y-53227000D02*
X206759900Y-58275840D01*
X206759900Y-64324159D02*
X206759900Y-69493600D01*
X206759900Y-70306400D02*
X206759900Y-75185164D01*
X206759900Y-80814836D02*
X206759900Y-96273000D01*
X206518600Y-53227000D02*
X206518600Y-58730448D01*
X206518600Y-63869551D02*
X206518600Y-64603827D01*
X206518600Y-65397153D02*
X206518600Y-69493600D01*
X206518600Y-70306400D02*
X206518600Y-74943864D01*
X206518600Y-76093336D02*
X206518600Y-78906664D01*
X206518600Y-81056136D02*
X206518600Y-96273000D01*
X206277300Y-53227000D02*
X206277300Y-64078791D01*
X206277300Y-65921830D02*
X206277300Y-69493600D01*
X206277300Y-70306400D02*
X206277300Y-74702564D01*
X206277300Y-75852036D02*
X206277300Y-79147964D01*
X206277300Y-81297436D02*
X206277300Y-96273000D01*
X206036000Y-53227000D02*
X206036000Y-63808896D01*
X206036000Y-66165371D02*
X206036000Y-69493600D01*
X206036000Y-70306400D02*
X206036000Y-71167637D01*
X206036000Y-71831900D02*
X206036000Y-74461264D01*
X206036000Y-75610736D02*
X206036000Y-79389264D01*
X206036000Y-81538736D02*
X206036000Y-96273000D01*
X205794700Y-53227000D02*
X205794700Y-63567596D01*
X205794700Y-66353933D02*
X205794700Y-69493600D01*
X205794700Y-70306400D02*
X205794700Y-70948554D01*
X205794700Y-72051563D02*
X205794700Y-72283965D01*
X205794700Y-73716036D02*
X205794700Y-74219964D01*
X205794700Y-75369436D02*
X205794700Y-76283965D01*
X205794700Y-77716036D02*
X205794700Y-79630564D01*
X205794700Y-81780036D02*
X205794700Y-96273000D01*
X205553400Y-53227000D02*
X205553400Y-63326296D01*
X205553400Y-66464722D02*
X205553400Y-69493600D01*
X205553400Y-70306400D02*
X205553400Y-70877747D01*
X205553400Y-72122347D02*
X205553400Y-72265127D01*
X205553400Y-73734873D02*
X205553400Y-73988276D01*
X205553400Y-75128136D02*
X205553400Y-76265127D01*
X205553400Y-77734873D02*
X205553400Y-79871864D01*
X205553400Y-82021336D02*
X205553400Y-96273000D01*
X205312100Y-53227000D02*
X205312100Y-63084996D01*
X205312100Y-66553339D02*
X205312100Y-69493600D01*
X205312100Y-70306400D02*
X205312100Y-70904308D01*
X205312100Y-73734873D02*
X205312100Y-73892002D01*
X205312100Y-74886836D02*
X205312100Y-76265127D01*
X205312100Y-79262636D02*
X205312100Y-80113164D01*
X205312100Y-82262636D02*
X205312100Y-96273000D01*
X205070800Y-53227000D02*
X205070800Y-62843696D01*
X205070800Y-66560718D02*
X205070800Y-69493600D01*
X205070800Y-70306400D02*
X205070800Y-71049153D01*
X205070800Y-73734873D02*
X205070800Y-73888600D01*
X205070800Y-74701400D02*
X205070800Y-76265127D01*
X205070800Y-79748092D02*
X205070800Y-80354464D01*
X205070800Y-82503936D02*
X205070800Y-96273000D01*
X204829500Y-53227000D02*
X204829500Y-62602396D01*
X204829500Y-66554651D02*
X204829500Y-69493600D01*
X204829500Y-70306400D02*
X204829500Y-71595764D01*
X204829500Y-73734873D02*
X204829500Y-73888600D01*
X204829500Y-74701400D02*
X204829500Y-76265127D01*
X204829500Y-80037184D02*
X204829500Y-80595764D01*
X204829500Y-82745236D02*
X204829500Y-96273000D01*
X204588200Y-53227000D02*
X204588200Y-62361096D01*
X204588200Y-66512517D02*
X204588200Y-69493600D01*
X204588200Y-70306400D02*
X204588200Y-72265127D01*
X204588200Y-73734873D02*
X204588200Y-73888600D01*
X204588200Y-74701400D02*
X204588200Y-76265127D01*
X204588200Y-77734873D02*
X204588200Y-78837064D01*
X204588200Y-80122377D02*
X204588200Y-80837064D01*
X204588200Y-82986536D02*
X204588200Y-84793971D01*
X204588200Y-85206189D02*
X204588200Y-96273000D01*
X204346900Y-53227000D02*
X204346900Y-62119796D01*
X204346900Y-66421215D02*
X204346900Y-69493600D01*
X204346900Y-70306400D02*
X204346900Y-72316267D01*
X204346900Y-73683732D02*
X204346900Y-73888600D01*
X204346900Y-74701400D02*
X204346900Y-76316267D01*
X204346900Y-77683732D02*
X204346900Y-78889929D01*
X204346900Y-80110244D02*
X204346900Y-81078364D01*
X204346900Y-83227836D02*
X204346900Y-84470229D01*
X204346900Y-85529994D02*
X204346900Y-96273000D01*
X204105600Y-53227000D02*
X204105600Y-61881135D01*
X204105600Y-66304777D02*
X204105600Y-69493600D01*
X204105600Y-70306400D02*
X204105600Y-72550000D01*
X204105600Y-72550000D02*
X204105600Y-73888600D01*
X204105600Y-74701400D02*
X204105600Y-79014414D01*
X204105600Y-79985745D02*
X204105600Y-81319664D01*
X204105600Y-83469136D02*
X204105600Y-84377792D01*
X204105600Y-85622392D02*
X204105600Y-96273000D01*
X203864300Y-53227000D02*
X203864300Y-61719904D01*
X203864300Y-66091404D02*
X203864300Y-69493600D01*
X203864300Y-70306400D02*
X203864300Y-72550000D01*
X203864300Y-72550000D02*
X203864300Y-73888600D01*
X203864300Y-74701400D02*
X203864300Y-79623240D01*
X203864300Y-79623240D02*
X203864300Y-81560964D01*
X203864300Y-83710436D02*
X203864300Y-84382740D01*
X203864300Y-85617469D02*
X203864300Y-96273000D01*
X203623000Y-53227000D02*
X203623000Y-61558673D01*
X203623000Y-65850104D02*
X203623000Y-69493600D01*
X203623000Y-70306400D02*
X203623000Y-72296156D01*
X203623000Y-73703845D02*
X203623000Y-73888600D01*
X203623000Y-74701400D02*
X203623000Y-76296156D01*
X203623000Y-77703845D02*
X203623000Y-79623240D01*
X203623000Y-79623240D02*
X203623000Y-81593600D01*
X203623000Y-83946969D02*
X203623000Y-84497044D01*
X203623000Y-85503175D02*
X203623000Y-96273000D01*
X203381700Y-53227000D02*
X203381700Y-61501126D01*
X203381700Y-65608804D02*
X203381700Y-69493600D01*
X203381700Y-70306400D02*
X203381700Y-72265127D01*
X203381700Y-73734873D02*
X203381700Y-73888600D01*
X203381700Y-74701400D02*
X203381700Y-76265127D01*
X203381700Y-77734873D02*
X203381700Y-79623240D01*
X203381700Y-79623240D02*
X203381700Y-81593600D01*
X203381700Y-85406400D02*
X203381700Y-96273000D01*
X203140400Y-53227000D02*
X203140400Y-61453128D01*
X203140400Y-65367504D02*
X203140400Y-69493600D01*
X203140400Y-70306400D02*
X203140400Y-72265127D01*
X203140400Y-73734873D02*
X203140400Y-73888600D01*
X203140400Y-74701400D02*
X203140400Y-76265127D01*
X203140400Y-77734873D02*
X203140400Y-79623240D01*
X203140400Y-79623240D02*
X203140400Y-81593600D01*
X203140400Y-85406400D02*
X203140400Y-96273000D01*
X202899100Y-53227000D02*
X202899100Y-61425200D01*
X202899100Y-65126204D02*
X202899100Y-69493600D01*
X202899100Y-70306400D02*
X202899100Y-72265127D01*
X202899100Y-73734873D02*
X202899100Y-73888600D01*
X202899100Y-74701400D02*
X202899100Y-76265127D01*
X202899100Y-77734873D02*
X202899100Y-79623240D01*
X202899100Y-79623240D02*
X202899100Y-81593600D01*
X202899100Y-85406400D02*
X202899100Y-96273000D01*
X202657800Y-53227000D02*
X202657800Y-61425200D01*
X202657800Y-64884904D02*
X202657800Y-69493600D01*
X202657800Y-70306400D02*
X202657800Y-72265127D01*
X202657800Y-73734873D02*
X202657800Y-73888600D01*
X202657800Y-74701400D02*
X202657800Y-76265127D01*
X202657800Y-77734873D02*
X202657800Y-79623240D01*
X202657800Y-79623240D02*
X202657800Y-81593600D01*
X202657800Y-85406400D02*
X202657800Y-92159877D01*
X202657800Y-93840124D02*
X202657800Y-96273000D01*
X202416500Y-53227000D02*
X202416500Y-61425200D01*
X202416500Y-64643604D02*
X202416500Y-64947519D01*
X202416500Y-66132482D02*
X202416500Y-69493600D01*
X202416500Y-70306400D02*
X202416500Y-72265127D01*
X202416500Y-73734873D02*
X202416500Y-73888600D01*
X202416500Y-74701400D02*
X202416500Y-76265127D01*
X202416500Y-77734873D02*
X202416500Y-79623240D01*
X202416500Y-79623240D02*
X202416500Y-81593600D01*
X202416500Y-87396673D02*
X202416500Y-91968847D01*
X202416500Y-94031154D02*
X202416500Y-96273000D01*
X202175200Y-53227000D02*
X202175200Y-61425200D01*
X202175200Y-64574800D02*
X202175200Y-64607216D01*
X202175200Y-66472785D02*
X202175200Y-69493600D01*
X202175200Y-70306400D02*
X202175200Y-72297358D01*
X202175200Y-73702641D02*
X202175200Y-73888600D01*
X202175200Y-74701400D02*
X202175200Y-76297358D01*
X202175200Y-77702641D02*
X202175200Y-79623240D01*
X202175200Y-79623240D02*
X202175200Y-81593600D01*
X202175200Y-94116677D02*
X202175200Y-96273000D01*
X201933900Y-53227000D02*
X201933900Y-61425200D01*
X201933900Y-66634017D02*
X201933900Y-69493600D01*
X201933900Y-70306400D02*
X201933900Y-72593600D01*
X201933900Y-73406400D02*
X201933900Y-73888600D01*
X201933900Y-74701400D02*
X201933900Y-76593600D01*
X201933900Y-77406400D02*
X201933900Y-79623240D01*
X201933900Y-79623240D02*
X201933900Y-81593600D01*
X201933900Y-94138377D02*
X201933900Y-96273000D01*
X201692600Y-53227000D02*
X201692600Y-61425200D01*
X201692600Y-66754196D02*
X201692600Y-69493600D01*
X201692600Y-70306400D02*
X201692600Y-72593600D01*
X201692600Y-73406400D02*
X201692600Y-73888600D01*
X201692600Y-74701400D02*
X201692600Y-76593600D01*
X201692600Y-77406400D02*
X201692600Y-79623240D01*
X201692600Y-79623240D02*
X201692600Y-81593600D01*
X201692600Y-94090380D02*
X201692600Y-96273000D01*
X201451300Y-53227000D02*
X201451300Y-61425200D01*
X201451300Y-66802193D02*
X201451300Y-69493600D01*
X201451300Y-70306400D02*
X201451300Y-71975332D01*
X201451300Y-74701400D02*
X201451300Y-75975332D01*
X201451300Y-78024669D02*
X201451300Y-79623240D01*
X201451300Y-79623240D02*
X201451300Y-81593600D01*
X201451300Y-87399696D02*
X201451300Y-92057180D01*
X201451300Y-93942819D02*
X201451300Y-96273000D01*
X201210000Y-53227000D02*
X201210000Y-61425200D01*
X201210000Y-70339065D02*
X201210000Y-71965127D01*
X201210000Y-74701400D02*
X201210000Y-75965127D01*
X201210000Y-78034873D02*
X201210000Y-79623240D01*
X201210000Y-79623240D02*
X201210000Y-81593600D01*
X201210000Y-87414873D02*
X201210000Y-92357728D01*
X201210000Y-93642271D02*
X201210000Y-96273000D01*
X200968700Y-53227000D02*
X200968700Y-61425200D01*
X200968700Y-70400174D02*
X200968700Y-71965127D01*
X200968700Y-74701400D02*
X200968700Y-75965127D01*
X200968700Y-78034873D02*
X200968700Y-79623240D01*
X200968700Y-79623240D02*
X200968700Y-81599825D01*
X200968700Y-87414873D02*
X200968700Y-96273000D01*
X200727400Y-53227000D02*
X200727400Y-61425200D01*
X200727400Y-70306400D02*
X200727400Y-71965127D01*
X200727400Y-74701400D02*
X200727400Y-75965127D01*
X200727400Y-78034873D02*
X200727400Y-79623240D01*
X200727400Y-79623240D02*
X200727400Y-81702764D01*
X200727400Y-87414873D02*
X200727400Y-96273000D01*
X200486100Y-53227000D02*
X200486100Y-61425200D01*
X200486100Y-66789740D02*
X200486100Y-69493600D01*
X200486100Y-70306400D02*
X200486100Y-71965127D01*
X200486100Y-74701400D02*
X200486100Y-75965127D01*
X200486100Y-78034873D02*
X200486100Y-79623240D01*
X200486100Y-79623240D02*
X200486100Y-81939164D01*
X200486100Y-87406400D02*
X200486100Y-96273000D01*
X200244800Y-53227000D02*
X200244800Y-61425200D01*
X200244800Y-66741743D02*
X200244800Y-69493600D01*
X200244800Y-70306400D02*
X200244800Y-71965127D01*
X200244800Y-74701400D02*
X200244800Y-75965127D01*
X200244800Y-78034873D02*
X200244800Y-79623240D01*
X200244800Y-79623240D02*
X200244800Y-82180464D01*
X200244800Y-87406400D02*
X200244800Y-96273000D01*
X200003500Y-53227000D02*
X200003500Y-61425200D01*
X200003500Y-66592188D02*
X200003500Y-69493600D01*
X200003500Y-70306400D02*
X200003500Y-71965127D01*
X200003500Y-74701400D02*
X200003500Y-75965127D01*
X200003500Y-78034873D02*
X200003500Y-79623240D01*
X200003500Y-79623240D02*
X200003500Y-82421764D01*
X200003500Y-87406400D02*
X200003500Y-96273000D01*
X199762200Y-53227000D02*
X199762200Y-55058578D01*
X199762200Y-59141424D02*
X199762200Y-61425200D01*
X199762200Y-64574800D02*
X199762200Y-64680075D01*
X199762200Y-66399924D02*
X199762200Y-69493600D01*
X199762200Y-70306400D02*
X199762200Y-72006044D01*
X199762200Y-74701400D02*
X199762200Y-76006044D01*
X199762200Y-77993955D02*
X199762200Y-79623240D01*
X199762200Y-79623240D02*
X199762200Y-82663064D01*
X199762200Y-87406400D02*
X199762200Y-96273000D01*
X199520900Y-53227000D02*
X199520900Y-54264204D01*
X199520900Y-64574800D02*
X199520900Y-65041205D01*
X199520900Y-66038794D02*
X199520900Y-69493600D01*
X199520900Y-70306400D02*
X199520900Y-73888600D01*
X199520900Y-74701400D02*
X199520900Y-76250000D01*
X199520900Y-76250000D02*
X199520900Y-79623240D01*
X199520900Y-79623240D02*
X199520900Y-82904364D01*
X199520900Y-87406400D02*
X199520900Y-96273000D01*
X199279600Y-53227000D02*
X199279600Y-54239229D01*
X199279600Y-64574800D02*
X199279600Y-69493600D01*
X199279600Y-70306400D02*
X199279600Y-73888600D01*
X199279600Y-74701400D02*
X199279600Y-76250000D01*
X199279600Y-76250000D02*
X199279600Y-79623240D01*
X199279600Y-79623240D02*
X199279600Y-83145664D01*
X199279600Y-87406400D02*
X199279600Y-96273000D01*
X199038300Y-53227000D02*
X199038300Y-54239229D01*
X199038300Y-64574800D02*
X199038300Y-69493600D01*
X199038300Y-70306400D02*
X199038300Y-73888600D01*
X199038300Y-74701400D02*
X199038300Y-76250000D01*
X199038300Y-76250000D02*
X199038300Y-79623240D01*
X199038300Y-79623240D02*
X199038300Y-83386964D01*
X199038300Y-87406400D02*
X199038300Y-96273000D01*
X198797000Y-53227000D02*
X198797000Y-54239229D01*
X198797000Y-64574800D02*
X198797000Y-69493600D01*
X198797000Y-70306400D02*
X198797000Y-73888600D01*
X198797000Y-74701400D02*
X198797000Y-76250000D01*
X198797000Y-76250000D02*
X198797000Y-79623240D01*
X198797000Y-79623240D02*
X198797000Y-83628264D01*
X198797000Y-87343741D02*
X198797000Y-96273000D01*
X198555700Y-53227000D02*
X198555700Y-54239229D01*
X198555700Y-64574800D02*
X198555700Y-69493600D01*
X198555700Y-70306400D02*
X198555700Y-73888600D01*
X198555700Y-74701400D02*
X198555700Y-76250000D01*
X198555700Y-76250000D02*
X198555700Y-79623240D01*
X198555700Y-79623240D02*
X198555700Y-96273000D01*
X198314400Y-53227000D02*
X198314400Y-54239229D01*
X198314400Y-64574800D02*
X198314400Y-69493600D01*
X198314400Y-70306400D02*
X198314400Y-73888600D01*
X198314400Y-74701400D02*
X198314400Y-76067967D01*
X198314400Y-77932034D02*
X198314400Y-79623240D01*
X198314400Y-79623240D02*
X198314400Y-96273000D01*
X198073100Y-53227000D02*
X198073100Y-54239229D01*
X198073100Y-64574800D02*
X198073100Y-69493600D01*
X198073100Y-70306400D02*
X198073100Y-73888600D01*
X198073100Y-74701400D02*
X198073100Y-75965127D01*
X198073100Y-78034873D02*
X198073100Y-79623240D01*
X198073100Y-79623240D02*
X198073100Y-96273000D01*
X197831800Y-53227000D02*
X197831800Y-54239229D01*
X197831800Y-64541342D02*
X197831800Y-69493600D01*
X197831800Y-70306400D02*
X197831800Y-73888600D01*
X197831800Y-74701400D02*
X197831800Y-75965127D01*
X197831800Y-78034873D02*
X197831800Y-79623240D01*
X197831800Y-79623240D02*
X197831800Y-96273000D01*
X197590500Y-53227000D02*
X197590500Y-54239229D01*
X197590500Y-64493345D02*
X197590500Y-69493600D01*
X197590500Y-70306400D02*
X197590500Y-73888600D01*
X197590500Y-74701400D02*
X197590500Y-75965127D01*
X197590500Y-78034873D02*
X197590500Y-79623240D01*
X197590500Y-79623240D02*
X197590500Y-80283129D01*
X197590500Y-81716872D02*
X197590500Y-84799537D01*
X197590500Y-85200649D02*
X197590500Y-96273000D01*
X197349200Y-53227000D02*
X197349200Y-54249333D01*
X197349200Y-64422752D02*
X197349200Y-69493600D01*
X197349200Y-70306400D02*
X197349200Y-73888600D01*
X197349200Y-74701400D02*
X197349200Y-75965127D01*
X197349200Y-78034873D02*
X197349200Y-79623240D01*
X197349200Y-79623240D02*
X197349200Y-80265127D01*
X197349200Y-81734873D02*
X197349200Y-84471184D01*
X197349200Y-85529044D02*
X197349200Y-96273000D01*
X197107900Y-53227000D02*
X197107900Y-54456134D01*
X197107900Y-64261521D02*
X197107900Y-69493600D01*
X197107900Y-70306400D02*
X197107900Y-73888600D01*
X197107900Y-74701400D02*
X197107900Y-75965127D01*
X197107900Y-78034873D02*
X197107900Y-79623240D01*
X197107900Y-79623240D02*
X197107900Y-80265127D01*
X197107900Y-81734873D02*
X197107900Y-84377794D01*
X197107900Y-85622394D02*
X197107900Y-96273000D01*
X196866600Y-53227000D02*
X196866600Y-55591868D01*
X196866600Y-64083847D02*
X196866600Y-69493600D01*
X196866600Y-70306400D02*
X196866600Y-73888600D01*
X196866600Y-74701400D02*
X196866600Y-75965127D01*
X196866600Y-78034873D02*
X196866600Y-79623240D01*
X196866600Y-79623240D02*
X196866600Y-80265127D01*
X196866600Y-81734873D02*
X196866600Y-84381790D01*
X196866600Y-85618424D02*
X196866600Y-92711709D01*
X196866600Y-93288292D02*
X196866600Y-96273000D01*
X196625300Y-53227000D02*
X196625300Y-58077284D01*
X196625300Y-63722715D02*
X196625300Y-69493600D01*
X196625300Y-70306400D02*
X196625300Y-73888600D01*
X196625300Y-74701400D02*
X196625300Y-75965127D01*
X196625300Y-78034873D02*
X196625300Y-79623240D01*
X196625300Y-79623240D02*
X196625300Y-80265127D01*
X196625300Y-81849436D02*
X196625300Y-84321696D01*
X196625300Y-85778305D02*
X196625300Y-92209331D01*
X196625300Y-93790670D02*
X196625300Y-96273000D01*
X196384000Y-53227000D02*
X196384000Y-64278070D01*
X196384000Y-65721306D02*
X196384000Y-69493600D01*
X196384000Y-70306400D02*
X196384000Y-73888600D01*
X196384000Y-74701400D02*
X196384000Y-76070360D01*
X196384000Y-77929639D02*
X196384000Y-79623240D01*
X196384000Y-79623240D02*
X196384000Y-80265127D01*
X196384000Y-82090736D02*
X196384000Y-84166918D01*
X196384000Y-85933083D02*
X196384000Y-91985194D01*
X196384000Y-94014807D02*
X196384000Y-96273000D01*
X196142700Y-53227000D02*
X196142700Y-63930072D01*
X196142700Y-66069929D02*
X196142700Y-69493600D01*
X196142700Y-70306400D02*
X196142700Y-73888600D01*
X196142700Y-74701400D02*
X196142700Y-76428600D01*
X196142700Y-77241400D02*
X196142700Y-79623240D01*
X196142700Y-79623240D02*
X196142700Y-80319073D01*
X196142700Y-82332036D02*
X196142700Y-84165127D01*
X196142700Y-85934873D02*
X196142700Y-91823963D01*
X196142700Y-94176038D02*
X196142700Y-96273000D01*
X195901400Y-53227000D02*
X195901400Y-63674296D01*
X195901400Y-66297075D02*
X195901400Y-69493600D01*
X195901400Y-70306400D02*
X195901400Y-73888600D01*
X195901400Y-74701400D02*
X195901400Y-76428600D01*
X195901400Y-77241400D02*
X195901400Y-79623240D01*
X195901400Y-79623240D02*
X195901400Y-81423864D01*
X195901400Y-82573336D02*
X195901400Y-84165127D01*
X195901400Y-85934873D02*
X195901400Y-91772101D01*
X195901400Y-94227900D02*
X195901400Y-96273000D01*
X195660100Y-53227000D02*
X195660100Y-63432996D01*
X195660100Y-66416538D02*
X195660100Y-69493600D01*
X195660100Y-70306400D02*
X195660100Y-73888600D01*
X195660100Y-74701400D02*
X195660100Y-76428600D01*
X195660100Y-77241400D02*
X195660100Y-79623240D01*
X195660100Y-79623240D02*
X195660100Y-81665164D01*
X195660100Y-82814636D02*
X195660100Y-84165127D01*
X195660100Y-85934873D02*
X195660100Y-91724103D01*
X195660100Y-94275898D02*
X195660100Y-96273000D01*
X195418800Y-53227000D02*
X195418800Y-63191696D01*
X195418800Y-66509252D02*
X195418800Y-69493600D01*
X195418800Y-70306400D02*
X195418800Y-73888600D01*
X195418800Y-74701400D02*
X195418800Y-76428600D01*
X195418800Y-77241400D02*
X195418800Y-79623240D01*
X195418800Y-79623240D02*
X195418800Y-81906464D01*
X195418800Y-83055936D02*
X195418800Y-84255693D01*
X195418800Y-85844306D02*
X195418800Y-91756147D01*
X195418800Y-94243852D02*
X195418800Y-96273000D01*
X195177500Y-53227000D02*
X195177500Y-62950396D01*
X195177500Y-66554955D02*
X195177500Y-69493600D01*
X195177500Y-70306400D02*
X195177500Y-73888600D01*
X195177500Y-74701400D02*
X195177500Y-76428600D01*
X195177500Y-77241400D02*
X195177500Y-79623240D01*
X195177500Y-79623240D02*
X195177500Y-82147764D01*
X195177500Y-83297236D02*
X195177500Y-84450000D01*
X195177500Y-84450000D02*
X195177500Y-91804145D01*
X195177500Y-94195854D02*
X195177500Y-96273000D01*
X194936200Y-53227000D02*
X194936200Y-62709096D01*
X194936200Y-66562109D02*
X194936200Y-69493600D01*
X194936200Y-70306400D02*
X194936200Y-73888600D01*
X194936200Y-74701400D02*
X194936200Y-76428600D01*
X194936200Y-77241400D02*
X194936200Y-79623240D01*
X194936200Y-79623240D02*
X194936200Y-82389064D01*
X194936200Y-83538536D02*
X194936200Y-84450000D01*
X194936200Y-84450000D02*
X194936200Y-91931605D01*
X194936200Y-94068394D02*
X194936200Y-96273000D01*
X194694900Y-53227000D02*
X194694900Y-62467796D01*
X194694900Y-66554533D02*
X194694900Y-69493600D01*
X194694900Y-70306400D02*
X194694900Y-71304040D01*
X194694900Y-72205961D02*
X194694900Y-73844040D01*
X194694900Y-74745961D02*
X194694900Y-76384040D01*
X194694900Y-77285961D02*
X194694900Y-78924040D01*
X194694900Y-79825961D02*
X194694900Y-82630364D01*
X194694900Y-83779836D02*
X194694900Y-84004040D01*
X194694900Y-84905961D02*
X194694900Y-92092836D01*
X194694900Y-93907163D02*
X194694900Y-96273000D01*
X194453600Y-53227000D02*
X194453600Y-62226496D01*
X194453600Y-66466113D02*
X194453600Y-69493600D01*
X194453600Y-70306400D02*
X194453600Y-70969944D01*
X194453600Y-72540057D02*
X194453600Y-73509944D01*
X194453600Y-75080057D02*
X194453600Y-76049944D01*
X194453600Y-77620057D02*
X194453600Y-78589944D01*
X194453600Y-80160057D02*
X194453600Y-82871664D01*
X194453600Y-85240057D02*
X194453600Y-92450433D01*
X194453600Y-93549566D02*
X194453600Y-96273000D01*
X194212300Y-53227000D02*
X194212300Y-61985196D01*
X194212300Y-66356430D02*
X194212300Y-69493600D01*
X194212300Y-70306400D02*
X194212300Y-70808712D01*
X194212300Y-72701289D02*
X194212300Y-73348712D01*
X194212300Y-75241289D02*
X194212300Y-75888712D01*
X194212300Y-77781289D02*
X194212300Y-78428712D01*
X194212300Y-80321289D02*
X194212300Y-83112964D01*
X194212300Y-85401289D02*
X194212300Y-93000000D01*
X194212300Y-93000000D02*
X194212300Y-96273000D01*
X193971000Y-53227000D02*
X193971000Y-61791199D01*
X193971000Y-66170047D02*
X193971000Y-69493600D01*
X193971000Y-70306400D02*
X193971000Y-70724934D01*
X193971000Y-72785067D02*
X193971000Y-73264934D01*
X193971000Y-75325067D02*
X193971000Y-75804934D01*
X193971000Y-77865067D02*
X193971000Y-78344934D01*
X193971000Y-80405067D02*
X193971000Y-83354264D01*
X193971000Y-85485067D02*
X193971000Y-93000000D01*
X193971000Y-93000000D02*
X193971000Y-96273000D01*
X193729700Y-53227000D02*
X193729700Y-61629967D01*
X193729700Y-65956804D02*
X193729700Y-69493600D01*
X193729700Y-70306400D02*
X193729700Y-70676937D01*
X193729700Y-72833064D02*
X193729700Y-73216937D01*
X193729700Y-75373064D02*
X193729700Y-75756937D01*
X193729700Y-77913064D02*
X193729700Y-78296937D01*
X193729700Y-80453064D02*
X193729700Y-83376937D01*
X193729700Y-85533064D02*
X193729700Y-93000000D01*
X193729700Y-93000000D02*
X193729700Y-96273000D01*
X193488400Y-53227000D02*
X193488400Y-61522350D01*
X193488400Y-65715504D02*
X193488400Y-69493600D01*
X193488400Y-70306400D02*
X193488400Y-70675600D01*
X193488400Y-72834400D02*
X193488400Y-73215600D01*
X193488400Y-75374400D02*
X193488400Y-75755600D01*
X193488400Y-77914400D02*
X193488400Y-78295600D01*
X193488400Y-80454400D02*
X193488400Y-83375600D01*
X193488400Y-85534400D02*
X193488400Y-93000000D01*
X193488400Y-93000000D02*
X193488400Y-96273000D01*
X193247100Y-53227000D02*
X193247100Y-61474352D01*
X193247100Y-65474204D02*
X193247100Y-69493600D01*
X193247100Y-70306400D02*
X193247100Y-70675600D01*
X193247100Y-72834400D02*
X193247100Y-73215600D01*
X193247100Y-75374400D02*
X193247100Y-75755600D01*
X193247100Y-77914400D02*
X193247100Y-78295600D01*
X193247100Y-80454400D02*
X193247100Y-83375600D01*
X193247100Y-85534400D02*
X193247100Y-93000000D01*
X193247100Y-93000000D02*
X193247100Y-96273000D01*
X193005800Y-53227000D02*
X193005800Y-61426354D01*
X193005800Y-65232904D02*
X193005800Y-69493600D01*
X193005800Y-70306400D02*
X193005800Y-70675600D01*
X193005800Y-72834400D02*
X193005800Y-73215600D01*
X193005800Y-75374400D02*
X193005800Y-75755600D01*
X193005800Y-77914400D02*
X193005800Y-78295600D01*
X193005800Y-80454400D02*
X193005800Y-83375600D01*
X193005800Y-85534400D02*
X193005800Y-93000000D01*
X193005800Y-93000000D02*
X193005800Y-96273000D01*
X192764500Y-53227000D02*
X192764500Y-61425200D01*
X192764500Y-64991604D02*
X192764500Y-69493600D01*
X192764500Y-70306400D02*
X192764500Y-70695593D01*
X192764500Y-72814406D02*
X192764500Y-73235593D01*
X192764500Y-75354406D02*
X192764500Y-75775593D01*
X192764500Y-77894406D02*
X192764500Y-78270764D01*
X192764500Y-80434406D02*
X192764500Y-83350764D01*
X192764500Y-85559236D02*
X192764500Y-93000000D01*
X192764500Y-93000000D02*
X192764500Y-96273000D01*
X192523200Y-53227000D02*
X192523200Y-61425200D01*
X192523200Y-64750304D02*
X192523200Y-65255678D01*
X192523200Y-65824323D02*
X192523200Y-69493600D01*
X192523200Y-70306400D02*
X192523200Y-70743591D01*
X192523200Y-72766408D02*
X192523200Y-73283591D01*
X192523200Y-75306408D02*
X192523200Y-75823591D01*
X192523200Y-77846408D02*
X192523200Y-78029464D01*
X192523200Y-80386408D02*
X192523200Y-83109464D01*
X192523200Y-85800536D02*
X192523200Y-93000000D01*
X192523200Y-93000000D02*
X192523200Y-96273000D01*
X192281900Y-53227000D02*
X192281900Y-61425200D01*
X192281900Y-64574800D02*
X192281900Y-64746076D01*
X192281900Y-66333925D02*
X192281900Y-69493600D01*
X192281900Y-70306400D02*
X192281900Y-70871387D01*
X192281900Y-72638612D02*
X192281900Y-73411387D01*
X192281900Y-75178612D02*
X192281900Y-75951387D01*
X192281900Y-77718612D02*
X192281900Y-77788164D01*
X192281900Y-80258612D02*
X192281900Y-82868164D01*
X192281900Y-86041836D02*
X192281900Y-93000000D01*
X192281900Y-93000000D02*
X192281900Y-96273000D01*
X192040600Y-53227000D02*
X192040600Y-61425200D01*
X192040600Y-66562722D02*
X192040600Y-69493600D01*
X192040600Y-70306400D02*
X192040600Y-71083290D01*
X192040600Y-72426709D02*
X192040600Y-73623290D01*
X192040600Y-74966709D02*
X192040600Y-76163290D01*
X192040600Y-77506709D02*
X192040600Y-77546864D01*
X192040600Y-78696336D02*
X192040600Y-78703291D01*
X192040600Y-80046709D02*
X192040600Y-82626864D01*
X192040600Y-83776336D02*
X192040600Y-83783291D01*
X192040600Y-85126708D02*
X192040600Y-85133664D01*
X192040600Y-86283136D02*
X192040600Y-93000000D01*
X192040600Y-93000000D02*
X192040600Y-96273000D01*
X191799300Y-53227000D02*
X191799300Y-61425200D01*
X191799300Y-66723954D02*
X191799300Y-69493600D01*
X191799300Y-70306400D02*
X191799300Y-71686210D01*
X191799300Y-71823789D02*
X191799300Y-74226210D01*
X191799300Y-74363789D02*
X191799300Y-76766210D01*
X191799300Y-76903789D02*
X191799300Y-77305564D01*
X191799300Y-78455036D02*
X191799300Y-79306210D01*
X191799300Y-79443789D02*
X191799300Y-82385564D01*
X191799300Y-83535036D02*
X191799300Y-84386210D01*
X191799300Y-84523789D02*
X191799300Y-85374964D01*
X191799300Y-86524436D02*
X191799300Y-92775556D01*
X191799300Y-93224445D02*
X191799300Y-96273000D01*
X191558000Y-53227000D02*
X191558000Y-61425200D01*
X191558000Y-66780969D02*
X191558000Y-69493600D01*
X191558000Y-70306400D02*
X191558000Y-71755000D01*
X191558000Y-71755000D02*
X191558000Y-76835000D01*
X191558000Y-76835000D02*
X191558000Y-77064264D01*
X191558000Y-78213736D02*
X191558000Y-82144264D01*
X191558000Y-83293736D02*
X191558000Y-85616264D01*
X191558000Y-86765736D02*
X191558000Y-90720881D01*
X191558000Y-91278918D02*
X191558000Y-92228337D01*
X191558000Y-93771664D02*
X191558000Y-96273000D01*
X191316700Y-53227000D02*
X191316700Y-61425200D01*
X191316700Y-70306400D02*
X191316700Y-71755000D01*
X191316700Y-71755000D02*
X191316700Y-76822964D01*
X191316700Y-77972436D02*
X191316700Y-81902964D01*
X191316700Y-83052436D02*
X191316700Y-85857564D01*
X191316700Y-87007036D02*
X191316700Y-90457689D01*
X191316700Y-91542472D02*
X191316700Y-91993680D01*
X191316700Y-94006321D02*
X191316700Y-96273000D01*
X191075400Y-53227000D02*
X191075400Y-61425200D01*
X191075400Y-70391403D02*
X191075400Y-71755000D01*
X191075400Y-71755000D02*
X191075400Y-76581664D01*
X191075400Y-77731136D02*
X191075400Y-81661664D01*
X191075400Y-82811136D02*
X191075400Y-86098864D01*
X191075400Y-87248336D02*
X191075400Y-90377766D01*
X191075400Y-91622366D02*
X191075400Y-91832449D01*
X191075400Y-94167552D02*
X191075400Y-96273000D01*
X190834100Y-53227000D02*
X190834100Y-61425200D01*
X190834100Y-70368531D02*
X190834100Y-71755000D01*
X190834100Y-71755000D02*
X190834100Y-76340364D01*
X190834100Y-77489836D02*
X190834100Y-81420364D01*
X190834100Y-82569836D02*
X190834100Y-86340164D01*
X190834100Y-87489636D02*
X190834100Y-90395218D01*
X190834100Y-91604929D02*
X190834100Y-91774627D01*
X190834100Y-94225374D02*
X190834100Y-96273000D01*
X190592800Y-53227000D02*
X190592800Y-61425200D01*
X190592800Y-66810964D02*
X190592800Y-69493600D01*
X190592800Y-70306400D02*
X190592800Y-71755000D01*
X190592800Y-71755000D02*
X190592800Y-76099064D01*
X190592800Y-77248536D02*
X190592800Y-81179064D01*
X190592800Y-82328536D02*
X190592800Y-86581464D01*
X190592800Y-87730936D02*
X190592800Y-90527191D01*
X190592800Y-91472923D02*
X190592800Y-91726629D01*
X190592800Y-94273372D02*
X190592800Y-96273000D01*
X190351500Y-53227000D02*
X190351500Y-61425200D01*
X190351500Y-66762967D02*
X190351500Y-69493600D01*
X190351500Y-70306400D02*
X190351500Y-71755000D01*
X190351500Y-71755000D02*
X190351500Y-75857764D01*
X190351500Y-77007236D02*
X190351500Y-80937764D01*
X190351500Y-82087236D02*
X190351500Y-86822764D01*
X190351500Y-87972236D02*
X190351500Y-91123240D01*
X190351500Y-91123240D02*
X190351500Y-91753621D01*
X190351500Y-94246378D02*
X190351500Y-96273000D01*
X190110200Y-53227000D02*
X190110200Y-55475236D01*
X190110200Y-59324765D02*
X190110200Y-61425200D01*
X190110200Y-66663483D02*
X190110200Y-69493600D01*
X190110200Y-70306400D02*
X190110200Y-71755000D01*
X190110200Y-71755000D02*
X190110200Y-75616464D01*
X190110200Y-76765936D02*
X190110200Y-80696464D01*
X190110200Y-81845936D02*
X190110200Y-87064064D01*
X190110200Y-88213536D02*
X190110200Y-91123240D01*
X190110200Y-91123240D02*
X190110200Y-91801619D01*
X190110200Y-94198380D02*
X190110200Y-96273000D01*
X189868900Y-53227000D02*
X189868900Y-54403813D01*
X189868900Y-59881057D02*
X189868900Y-61425200D01*
X189868900Y-64574800D02*
X189868900Y-64577748D01*
X189868900Y-66502251D02*
X189868900Y-69493600D01*
X189868900Y-70306400D02*
X189868900Y-71755000D01*
X189868900Y-71755000D02*
X189868900Y-75375164D01*
X189868900Y-76524636D02*
X189868900Y-80455164D01*
X189868900Y-81604636D02*
X189868900Y-87305364D01*
X189868900Y-88454836D02*
X189868900Y-91123240D01*
X189868900Y-91123240D02*
X189868900Y-91923119D01*
X189868900Y-94076880D02*
X189868900Y-96273000D01*
X189627600Y-53227000D02*
X189627600Y-54244719D01*
X189627600Y-60199504D02*
X189627600Y-61425200D01*
X189627600Y-64574800D02*
X189627600Y-64881517D01*
X189627600Y-66198482D02*
X189627600Y-69493600D01*
X189627600Y-70306400D02*
X189627600Y-71755000D01*
X189627600Y-71755000D02*
X189627600Y-75133864D01*
X189627600Y-76283336D02*
X189627600Y-80213864D01*
X189627600Y-81363336D02*
X189627600Y-87546664D01*
X189627600Y-88696136D02*
X189627600Y-91123240D01*
X189627600Y-91123240D02*
X189627600Y-92084351D01*
X189627600Y-93915648D02*
X189627600Y-96273000D01*
X189386300Y-53227000D02*
X189386300Y-54239229D01*
X189386300Y-60440804D02*
X189386300Y-61425200D01*
X189386300Y-64574800D02*
X189386300Y-69493600D01*
X189386300Y-70306400D02*
X189386300Y-71755000D01*
X189386300Y-71755000D02*
X189386300Y-74892564D01*
X189386300Y-76042036D02*
X189386300Y-79972564D01*
X189386300Y-81122036D02*
X189386300Y-87787964D01*
X189386300Y-88937436D02*
X189386300Y-91123240D01*
X189386300Y-91123240D02*
X189386300Y-92431426D01*
X189386300Y-93568573D02*
X189386300Y-96273000D01*
X189145000Y-53227000D02*
X189145000Y-54239229D01*
X189145000Y-64574800D02*
X189145000Y-69493600D01*
X189145000Y-70306400D02*
X189145000Y-71755000D01*
X189145000Y-71755000D02*
X189145000Y-74651264D01*
X189145000Y-75800736D02*
X189145000Y-79731264D01*
X189145000Y-80880736D02*
X189145000Y-88029264D01*
X189145000Y-89178736D02*
X189145000Y-91123240D01*
X189145000Y-91123240D02*
X189145000Y-91761707D01*
X189145000Y-94238294D02*
X189145000Y-96273000D01*
X188903700Y-53227000D02*
X188903700Y-54239229D01*
X188903700Y-64574800D02*
X188903700Y-69493600D01*
X188903700Y-70306400D02*
X188903700Y-71755000D01*
X188903700Y-71755000D02*
X188903700Y-74409964D01*
X188903700Y-75559436D02*
X188903700Y-79489964D01*
X188903700Y-80639436D02*
X188903700Y-88270564D01*
X188903700Y-89420036D02*
X188903700Y-91123240D01*
X188903700Y-91123240D02*
X188903700Y-91715637D01*
X188903700Y-94284363D02*
X188903700Y-96273000D01*
X188662400Y-53227000D02*
X188662400Y-54237613D01*
X188662400Y-64574800D02*
X188662400Y-69493600D01*
X188662400Y-70306400D02*
X188662400Y-71755000D01*
X188662400Y-71755000D02*
X188662400Y-74168664D01*
X188662400Y-75318136D02*
X188662400Y-79248664D01*
X188662400Y-80398136D02*
X188662400Y-88511864D01*
X188662400Y-89661336D02*
X188662400Y-91123240D01*
X188662400Y-91123240D02*
X188662400Y-91715637D01*
X188662400Y-94284363D02*
X188662400Y-96273000D01*
X188421100Y-53227000D02*
X188421100Y-54239229D01*
X188421100Y-64574800D02*
X188421100Y-69493600D01*
X188421100Y-70306400D02*
X188421100Y-71755000D01*
X188421100Y-71755000D02*
X188421100Y-73953999D01*
X188421100Y-75076836D02*
X188421100Y-79007364D01*
X188421100Y-80156836D02*
X188421100Y-88753164D01*
X188421100Y-89902636D02*
X188421100Y-91123240D01*
X188421100Y-91123240D02*
X188421100Y-91715637D01*
X188421100Y-94284363D02*
X188421100Y-96273000D01*
X188179800Y-53227000D02*
X188179800Y-54239229D01*
X188179800Y-64574800D02*
X188179800Y-69493600D01*
X188179800Y-70306400D02*
X188179800Y-71755000D01*
X188179800Y-71755000D02*
X188179800Y-73888600D01*
X188179800Y-74835536D02*
X188179800Y-78766064D01*
X188179800Y-79915536D02*
X188179800Y-88994464D01*
X188179800Y-94284363D02*
X188179800Y-96273000D01*
X187938500Y-53227000D02*
X187938500Y-54239229D01*
X187938500Y-64574800D02*
X187938500Y-69493600D01*
X187938500Y-70306400D02*
X187938500Y-71755000D01*
X187938500Y-71755000D02*
X187938500Y-73888600D01*
X187938500Y-74701400D02*
X187938500Y-78524764D01*
X187938500Y-79674236D02*
X187938500Y-89235764D01*
X187938500Y-94284363D02*
X187938500Y-96273000D01*
X187697200Y-53227000D02*
X187697200Y-54239229D01*
X187697200Y-64554351D02*
X187697200Y-69493600D01*
X187697200Y-70306400D02*
X187697200Y-71755000D01*
X187697200Y-71755000D02*
X187697200Y-73888600D01*
X187697200Y-74701400D02*
X187697200Y-78283464D01*
X187697200Y-79432936D02*
X187697200Y-89484727D01*
X187697200Y-94284363D02*
X187697200Y-96273000D01*
X187455900Y-53227000D02*
X187455900Y-54279705D01*
X187455900Y-64506353D02*
X187455900Y-69493600D01*
X187455900Y-70306400D02*
X187455900Y-71755000D01*
X187455900Y-71755000D02*
X187455900Y-73888600D01*
X187455900Y-74701400D02*
X187455900Y-78042164D01*
X187455900Y-79191636D02*
X187455900Y-91715637D01*
X187455900Y-94284363D02*
X187455900Y-96273000D01*
X187214600Y-53227000D02*
X187214600Y-55093298D01*
X187214600Y-64458356D02*
X187214600Y-69493600D01*
X187214600Y-70306400D02*
X187214600Y-71755000D01*
X187214600Y-71755000D02*
X187214600Y-73888600D01*
X187214600Y-74701400D02*
X187214600Y-77800864D01*
X187214600Y-78950336D02*
X187214600Y-91715637D01*
X187214600Y-94284363D02*
X187214600Y-96273000D01*
X186973300Y-53227000D02*
X186973300Y-58399596D01*
X186973300Y-64305219D02*
X186973300Y-69493600D01*
X186973300Y-70306400D02*
X186973300Y-70689880D01*
X186973300Y-72820121D02*
X186973300Y-73691985D01*
X186973300Y-74898016D02*
X186973300Y-76231985D01*
X186973300Y-77438015D02*
X186973300Y-77559564D01*
X186973300Y-78709036D02*
X186973300Y-78771985D01*
X186973300Y-79978016D02*
X186973300Y-81311985D01*
X186973300Y-82518016D02*
X186973300Y-91721049D01*
X186973300Y-94278950D02*
X186973300Y-96273000D01*
X186732000Y-53227000D02*
X186732000Y-58640896D01*
X186732000Y-64143988D02*
X186732000Y-69493600D01*
X186732000Y-70306400D02*
X186732000Y-70670127D01*
X186732000Y-72839873D02*
X186732000Y-73442057D01*
X186732000Y-75147944D02*
X186732000Y-75982057D01*
X186732000Y-78467736D02*
X186732000Y-78522057D01*
X186732000Y-80227944D02*
X186732000Y-81062057D01*
X186732000Y-82767944D02*
X186732000Y-91918249D01*
X186732000Y-94081750D02*
X186732000Y-96273000D01*
X186490700Y-53227000D02*
X186490700Y-58979406D01*
X186490700Y-63820593D02*
X186490700Y-64536304D01*
X186490700Y-65464343D02*
X186490700Y-69493600D01*
X186490700Y-70306400D02*
X186490700Y-70670127D01*
X186490700Y-72839873D02*
X186490700Y-73292722D01*
X186490700Y-75297279D02*
X186490700Y-75832722D01*
X186490700Y-78226436D02*
X186490700Y-78372722D01*
X186490700Y-80377279D02*
X186490700Y-80912722D01*
X186490700Y-82917279D02*
X186490700Y-96273000D01*
X186249400Y-53227000D02*
X186249400Y-59678338D01*
X186249400Y-63121661D02*
X186249400Y-64050842D01*
X186249400Y-65949681D02*
X186249400Y-69493600D01*
X186249400Y-70306400D02*
X186249400Y-70670127D01*
X186249400Y-72839873D02*
X186249400Y-73244725D01*
X186249400Y-75345276D02*
X186249400Y-75784725D01*
X186249400Y-77985136D02*
X186249400Y-78324725D01*
X186249400Y-80425276D02*
X186249400Y-80864725D01*
X186249400Y-82965276D02*
X186249400Y-96273000D01*
X186008100Y-53227000D02*
X186008100Y-63780996D01*
X186008100Y-66190561D02*
X186008100Y-69493600D01*
X186008100Y-70306400D02*
X186008100Y-70670127D01*
X186008100Y-72839873D02*
X186008100Y-73215600D01*
X186008100Y-75374400D02*
X186008100Y-75755600D01*
X186008100Y-77914400D02*
X186008100Y-78295600D01*
X186008100Y-80454400D02*
X186008100Y-80835600D01*
X186008100Y-82994400D02*
X186008100Y-96273000D01*
X185766800Y-53227000D02*
X185766800Y-63539696D01*
X185766800Y-66365461D02*
X185766800Y-69493600D01*
X185766800Y-70306400D02*
X185766800Y-70670127D01*
X185766800Y-72839873D02*
X185766800Y-73215600D01*
X185766800Y-75374400D02*
X185766800Y-75755600D01*
X185766800Y-77914400D02*
X185766800Y-78295600D01*
X185766800Y-80454400D02*
X185766800Y-80835600D01*
X185766800Y-82994400D02*
X185766800Y-96273000D01*
X185525500Y-53227000D02*
X185525500Y-63298396D01*
X185525500Y-66470271D02*
X185525500Y-69493600D01*
X185525500Y-70306400D02*
X185525500Y-70670127D01*
X185525500Y-72839873D02*
X185525500Y-73215600D01*
X185525500Y-75374400D02*
X185525500Y-75755600D01*
X185525500Y-77914400D02*
X185525500Y-78295600D01*
X185525500Y-80454400D02*
X185525500Y-80835600D01*
X185525500Y-82994400D02*
X185525500Y-96273000D01*
X185284200Y-53227000D02*
X185284200Y-63057096D01*
X185284200Y-66555048D02*
X185284200Y-69493600D01*
X185284200Y-70306400D02*
X185284200Y-70670127D01*
X185284200Y-72839873D02*
X185284200Y-73215600D01*
X185284200Y-75374400D02*
X185284200Y-75755600D01*
X185284200Y-77914400D02*
X185284200Y-78295600D01*
X185284200Y-80454400D02*
X185284200Y-80835600D01*
X185284200Y-82994400D02*
X185284200Y-96273000D01*
X185042900Y-53227000D02*
X185042900Y-62815796D01*
X185042900Y-66566267D02*
X185042900Y-69493600D01*
X185042900Y-70306400D02*
X185042900Y-70670127D01*
X185042900Y-72839873D02*
X185042900Y-73255803D01*
X185042900Y-75334196D02*
X185042900Y-75795803D01*
X185042900Y-77874196D02*
X185042900Y-78169164D01*
X185042900Y-80414196D02*
X185042900Y-80875803D01*
X185042900Y-82954196D02*
X185042900Y-96273000D01*
X184801600Y-53227000D02*
X184801600Y-62574496D01*
X184801600Y-66554626D02*
X184801600Y-69493600D01*
X184801600Y-70306400D02*
X184801600Y-70670127D01*
X184801600Y-72839873D02*
X184801600Y-73318042D01*
X184801600Y-75271957D02*
X184801600Y-75858042D01*
X184801600Y-77811957D02*
X184801600Y-77927864D01*
X184801600Y-80351957D02*
X184801600Y-80938042D01*
X184801600Y-82891957D02*
X184801600Y-96273000D01*
X184560300Y-53227000D02*
X184560300Y-62333196D01*
X184560300Y-66500932D02*
X184560300Y-69493600D01*
X184560300Y-70306400D02*
X184560300Y-70670127D01*
X184560300Y-72839873D02*
X184560300Y-73479274D01*
X184560300Y-75110725D02*
X184560300Y-76019274D01*
X184560300Y-77650725D02*
X184560300Y-77721759D01*
X184560300Y-80190725D02*
X184560300Y-81099274D01*
X184560300Y-82730725D02*
X184560300Y-93227122D01*
X184560300Y-94772879D02*
X184560300Y-96273000D01*
X184319000Y-53227000D02*
X184319000Y-62091896D01*
X184319000Y-66402573D02*
X184319000Y-69493600D01*
X184319000Y-70306400D02*
X184319000Y-70722536D01*
X184319000Y-72787463D02*
X184319000Y-73775345D01*
X184319000Y-74814654D02*
X184319000Y-76315345D01*
X184319000Y-77354654D02*
X184319000Y-77673600D01*
X184319000Y-78594736D02*
X184319000Y-78855345D01*
X184319000Y-79894654D02*
X184319000Y-81395345D01*
X184319000Y-82434654D02*
X184319000Y-93215127D01*
X184319000Y-94784873D02*
X184319000Y-96273000D01*
X184077700Y-53227000D02*
X184077700Y-61862493D01*
X184077700Y-66276828D02*
X184077700Y-69493600D01*
X184077700Y-70306400D02*
X184077700Y-71348600D01*
X184077700Y-72161400D02*
X184077700Y-74295000D01*
X184077700Y-74295000D02*
X184077700Y-76835000D01*
X184077700Y-76835000D02*
X184077700Y-77673600D01*
X184077700Y-78486400D02*
X184077700Y-81915000D01*
X184077700Y-81915000D02*
X184077700Y-93215127D01*
X184077700Y-94784873D02*
X184077700Y-96273000D01*
X183836400Y-53227000D02*
X183836400Y-61701262D01*
X183836400Y-66063504D02*
X183836400Y-69493600D01*
X183836400Y-70306400D02*
X183836400Y-71348600D01*
X183836400Y-72161400D02*
X183836400Y-74295000D01*
X183836400Y-74295000D02*
X183836400Y-76835000D01*
X183836400Y-76835000D02*
X183836400Y-77673600D01*
X183836400Y-78486400D02*
X183836400Y-81915000D01*
X183836400Y-81915000D02*
X183836400Y-93215127D01*
X183836400Y-94784873D02*
X183836400Y-96273000D01*
X183595100Y-53227000D02*
X183595100Y-61543574D01*
X183595100Y-65822204D02*
X183595100Y-69493600D01*
X183595100Y-70306400D02*
X183595100Y-71348600D01*
X183595100Y-72161400D02*
X183595100Y-74295000D01*
X183595100Y-74295000D02*
X183595100Y-76835000D01*
X183595100Y-76835000D02*
X183595100Y-77673600D01*
X183595100Y-78486400D02*
X183595100Y-81915000D01*
X183595100Y-81915000D02*
X183595100Y-93215127D01*
X183595100Y-94784873D02*
X183595100Y-96273000D01*
X183353800Y-53227000D02*
X183353800Y-61495576D01*
X183353800Y-65580904D02*
X183353800Y-69493600D01*
X183353800Y-70306400D02*
X183353800Y-71348600D01*
X183353800Y-72161400D02*
X183353800Y-74295000D01*
X183353800Y-74295000D02*
X183353800Y-76835000D01*
X183353800Y-76835000D02*
X183353800Y-77673600D01*
X183353800Y-78486400D02*
X183353800Y-81915000D01*
X183353800Y-81915000D02*
X183353800Y-93261657D01*
X183353800Y-94738342D02*
X183353800Y-96273000D01*
X183112500Y-53227000D02*
X183112500Y-61447578D01*
X183112500Y-65339604D02*
X183112500Y-69493600D01*
X183112500Y-70306400D02*
X183112500Y-71348600D01*
X183112500Y-72161400D02*
X183112500Y-74295000D01*
X183112500Y-74295000D02*
X183112500Y-76835000D01*
X183112500Y-76835000D02*
X183112500Y-77673600D01*
X183112500Y-78486400D02*
X183112500Y-81915000D01*
X183112500Y-81915000D02*
X183112500Y-93500000D01*
X183112500Y-93500000D02*
X183112500Y-96273000D01*
X182871200Y-53227000D02*
X182871200Y-61425200D01*
X182871200Y-65098304D02*
X182871200Y-69493600D01*
X182871200Y-70306400D02*
X182871200Y-71348600D01*
X182871200Y-72161400D02*
X182871200Y-74295000D01*
X182871200Y-74295000D02*
X182871200Y-76835000D01*
X182871200Y-76835000D02*
X182871200Y-77673600D01*
X182871200Y-78486400D02*
X182871200Y-81915000D01*
X182871200Y-81915000D02*
X182871200Y-93500000D01*
X182871200Y-93500000D02*
X182871200Y-96273000D01*
X182629900Y-53227000D02*
X182629900Y-61425200D01*
X182629900Y-64857004D02*
X182629900Y-69493600D01*
X182629900Y-70306400D02*
X182629900Y-71348600D01*
X182629900Y-72161400D02*
X182629900Y-74295000D01*
X182629900Y-74295000D02*
X182629900Y-76835000D01*
X182629900Y-76835000D02*
X182629900Y-77673600D01*
X182629900Y-78486400D02*
X182629900Y-81915000D01*
X182629900Y-81915000D02*
X182629900Y-93500000D01*
X182629900Y-93500000D02*
X182629900Y-96273000D01*
X182388600Y-53227000D02*
X182388600Y-61425200D01*
X182388600Y-64615704D02*
X182388600Y-64905763D01*
X182388600Y-66174238D02*
X182388600Y-69493600D01*
X182388600Y-70306400D02*
X182388600Y-71348600D01*
X182388600Y-72161400D02*
X182388600Y-74295000D01*
X182388600Y-74295000D02*
X182388600Y-76835000D01*
X182388600Y-76835000D02*
X182388600Y-77673600D01*
X182388600Y-78486400D02*
X182388600Y-81915000D01*
X182388600Y-81915000D02*
X182388600Y-93500000D01*
X182388600Y-93500000D02*
X182388600Y-96273000D01*
X182147300Y-53227000D02*
X182147300Y-61425200D01*
X182147300Y-64574800D02*
X182147300Y-64588574D01*
X182147300Y-66491427D02*
X182147300Y-69493600D01*
X182147300Y-70306400D02*
X182147300Y-71348600D01*
X182147300Y-72161400D02*
X182147300Y-74295000D01*
X182147300Y-74295000D02*
X182147300Y-76835000D01*
X182147300Y-76835000D02*
X182147300Y-77673600D01*
X182147300Y-78486400D02*
X182147300Y-81915000D01*
X182147300Y-81915000D02*
X182147300Y-93500000D01*
X182147300Y-93500000D02*
X182147300Y-96273000D01*
X181906000Y-53227000D02*
X181906000Y-61425200D01*
X181906000Y-66652659D02*
X181906000Y-69493600D01*
X181906000Y-70306400D02*
X181906000Y-71348600D01*
X181906000Y-72161400D02*
X181906000Y-74295000D01*
X181906000Y-74295000D02*
X181906000Y-76835000D01*
X181906000Y-76835000D02*
X181906000Y-77673600D01*
X181906000Y-78486400D02*
X181906000Y-81915000D01*
X181906000Y-81915000D02*
X181906000Y-93500000D01*
X181906000Y-93500000D02*
X181906000Y-96273000D01*
X181664700Y-53227000D02*
X181664700Y-61425200D01*
X181664700Y-66759746D02*
X181664700Y-69493600D01*
X181664700Y-70306400D02*
X181664700Y-71348600D01*
X181664700Y-72161400D02*
X181664700Y-74295000D01*
X181664700Y-74295000D02*
X181664700Y-76835000D01*
X181664700Y-76835000D02*
X181664700Y-77673600D01*
X181664700Y-78486400D02*
X181664700Y-81915000D01*
X181664700Y-81915000D02*
X181664700Y-93500000D01*
X181664700Y-93500000D02*
X181664700Y-96273000D01*
X181423400Y-53227000D02*
X181423400Y-61425200D01*
X181423400Y-66807743D02*
X181423400Y-69493600D01*
X181423400Y-70306400D02*
X181423400Y-71348600D01*
X181423400Y-72161400D02*
X181423400Y-74295000D01*
X181423400Y-74295000D02*
X181423400Y-76835000D01*
X181423400Y-76835000D02*
X181423400Y-77673600D01*
X181423400Y-78486400D02*
X181423400Y-81915000D01*
X181423400Y-81915000D02*
X181423400Y-93500000D01*
X181423400Y-93500000D02*
X181423400Y-96273000D01*
X181182100Y-53227000D02*
X181182100Y-61425200D01*
X181182100Y-70306400D02*
X181182100Y-71361111D01*
X181182100Y-72392636D02*
X181182100Y-74295000D01*
X181182100Y-74295000D02*
X181182100Y-76835000D01*
X181182100Y-76835000D02*
X181182100Y-77673600D01*
X181182100Y-78486400D02*
X181182100Y-81915000D01*
X181182100Y-81915000D02*
X181182100Y-93500000D01*
X181182100Y-93500000D02*
X181182100Y-96273000D01*
X180940800Y-53227000D02*
X180940800Y-61425200D01*
X180940800Y-70273008D02*
X180940800Y-71484464D01*
X180940800Y-73449892D02*
X180940800Y-74295000D01*
X180940800Y-74295000D02*
X180940800Y-75089855D01*
X180940800Y-75989892D02*
X180940800Y-76835000D01*
X180940800Y-76835000D02*
X180940800Y-77629855D01*
X180940800Y-78529891D02*
X180940800Y-81915000D01*
X180940800Y-81915000D02*
X180940800Y-93500000D01*
X180940800Y-93500000D02*
X180940800Y-93840949D01*
X180940800Y-94159052D02*
X180940800Y-96273000D01*
X180699500Y-53227000D02*
X180699500Y-61425200D01*
X180699500Y-70067714D02*
X180699500Y-71725764D01*
X180699500Y-73773199D02*
X180699500Y-74295000D01*
X180699500Y-74295000D02*
X180699500Y-74766673D01*
X180699500Y-76313199D02*
X180699500Y-76835000D01*
X180699500Y-76835000D02*
X180699500Y-77306673D01*
X180699500Y-78853199D02*
X180699500Y-81915000D01*
X180699500Y-81915000D02*
X180699500Y-85349974D01*
X180699500Y-86650027D02*
X180699500Y-90349974D01*
X180699500Y-91650027D02*
X180699500Y-93405804D01*
X180699500Y-94594197D02*
X180699500Y-96273000D01*
X180458200Y-53227000D02*
X180458200Y-61425200D01*
X180458200Y-66784191D02*
X180458200Y-71967064D01*
X180458200Y-73937472D02*
X180458200Y-74295000D01*
X180458200Y-74295000D02*
X180458200Y-74602651D01*
X180458200Y-76477472D02*
X180458200Y-76835000D01*
X180458200Y-76835000D02*
X180458200Y-77142651D01*
X180458200Y-79017472D02*
X180458200Y-81915000D01*
X180458200Y-81915000D02*
X180458200Y-85340127D01*
X180458200Y-86659873D02*
X180458200Y-90340127D01*
X180458200Y-91659873D02*
X180458200Y-93258680D01*
X180458200Y-94741321D02*
X180458200Y-96273000D01*
X180216900Y-53227000D02*
X180216900Y-61425200D01*
X180216900Y-66734778D02*
X180216900Y-71962454D01*
X180216900Y-76577175D02*
X180216900Y-76835000D01*
X180216900Y-76835000D02*
X180216900Y-77042454D01*
X180216900Y-86659873D02*
X180216900Y-90340127D01*
X180216900Y-91659873D02*
X180216900Y-93210682D01*
X180216900Y-94789319D02*
X180216900Y-96273000D01*
X179975600Y-53227000D02*
X179975600Y-61425200D01*
X179975600Y-66573546D02*
X179975600Y-71958579D01*
X179975600Y-76581379D02*
X179975600Y-76835000D01*
X179975600Y-76835000D02*
X179975600Y-77038579D01*
X179975600Y-86659873D02*
X179975600Y-90340127D01*
X179975600Y-91659873D02*
X179975600Y-93247977D01*
X179975600Y-94752022D02*
X179975600Y-96273000D01*
X179734300Y-53227000D02*
X179734300Y-55016822D01*
X179734300Y-59583179D02*
X179734300Y-61425200D01*
X179734300Y-64574800D02*
X179734300Y-64721830D01*
X179734300Y-66358169D02*
X179734300Y-71982989D01*
X179734300Y-76557283D02*
X179734300Y-76835000D01*
X179734300Y-76835000D02*
X179734300Y-77062989D01*
X179734300Y-86659873D02*
X179734300Y-90340127D01*
X179734300Y-91659873D02*
X179734300Y-93369855D01*
X179734300Y-94630144D02*
X179734300Y-96273000D01*
X179493000Y-53227000D02*
X179493000Y-54257728D01*
X179493000Y-64574800D02*
X179493000Y-65174234D01*
X179493000Y-65905765D02*
X179493000Y-72082691D01*
X179493000Y-73917086D02*
X179493000Y-74622691D01*
X179493000Y-76457086D02*
X179493000Y-76835000D01*
X179493000Y-76835000D02*
X179493000Y-77162691D01*
X179493000Y-78997086D02*
X179493000Y-85340127D01*
X179493000Y-86659873D02*
X179493000Y-90340127D01*
X179493000Y-91659873D02*
X179493000Y-93593600D01*
X179493000Y-94406400D02*
X179493000Y-96273000D01*
X179251700Y-53227000D02*
X179251700Y-54239229D01*
X179251700Y-64574800D02*
X179251700Y-72275516D01*
X179251700Y-73724441D02*
X179251700Y-74815516D01*
X179251700Y-76264441D02*
X179251700Y-76835000D01*
X179251700Y-76835000D02*
X179251700Y-77355516D01*
X179251700Y-78804441D02*
X179251700Y-85421468D01*
X179251700Y-86578531D02*
X179251700Y-90421468D01*
X179251700Y-91578531D02*
X179251700Y-93430699D01*
X179251700Y-94569330D02*
X179251700Y-96273000D01*
X179010400Y-53227000D02*
X179010400Y-54239229D01*
X179010400Y-64574800D02*
X179010400Y-72667631D01*
X179010400Y-73332039D02*
X179010400Y-75207631D01*
X179010400Y-75872039D02*
X179010400Y-76835000D01*
X179010400Y-76835000D02*
X179010400Y-77747631D01*
X179010400Y-78412039D02*
X179010400Y-90593600D01*
X179010400Y-91406400D02*
X179010400Y-93377709D01*
X179010400Y-94622309D02*
X179010400Y-96273000D01*
X178769100Y-53227000D02*
X178769100Y-54239229D01*
X178769100Y-64574800D02*
X178769100Y-73206238D01*
X178769100Y-73206238D02*
X178769100Y-76835000D01*
X178769100Y-76835000D02*
X178769100Y-78286238D01*
X178769100Y-78286238D02*
X178769100Y-90437924D01*
X178769100Y-91562140D02*
X178769100Y-93422076D01*
X178769100Y-94577938D02*
X178769100Y-96273000D01*
X178527800Y-53227000D02*
X178527800Y-54239229D01*
X178527800Y-64560438D02*
X178527800Y-73206238D01*
X178527800Y-73206238D02*
X178527800Y-76835000D01*
X178527800Y-76835000D02*
X178527800Y-78286238D01*
X178527800Y-78286238D02*
X178527800Y-90377724D01*
X178527800Y-91622324D02*
X178527800Y-93592078D01*
X178527800Y-94407809D02*
X178527800Y-96273000D01*
X178286500Y-53227000D02*
X178286500Y-54239229D01*
X178286500Y-64512440D02*
X178286500Y-73206238D01*
X178286500Y-73206238D02*
X178286500Y-76835000D01*
X178286500Y-76835000D02*
X178286500Y-78286238D01*
X178286500Y-78286238D02*
X178286500Y-90414886D01*
X178286500Y-91585163D02*
X178286500Y-94123240D01*
X178286500Y-94123240D02*
X178286500Y-96273000D01*
X178045200Y-53227000D02*
X178045200Y-54239229D01*
X178045200Y-64464442D02*
X178045200Y-73206238D01*
X178045200Y-73206238D02*
X178045200Y-76835000D01*
X178045200Y-76835000D02*
X178045200Y-78286238D01*
X178045200Y-78286238D02*
X178045200Y-90574708D01*
X178045200Y-91425239D02*
X178045200Y-94123240D01*
X178045200Y-94123240D02*
X178045200Y-96273000D01*
X177803900Y-53227000D02*
X177803900Y-54239229D01*
X177803900Y-64325666D02*
X177803900Y-73206238D01*
X177803900Y-73206238D02*
X177803900Y-76835000D01*
X177803900Y-76835000D02*
X177803900Y-78286238D01*
X177803900Y-78286238D02*
X177803900Y-91123240D01*
X177803900Y-91123240D02*
X177803900Y-94123240D01*
X177803900Y-94123240D02*
X177803900Y-96273000D01*
X177562600Y-53227000D02*
X177562600Y-54239229D01*
X177562600Y-64164435D02*
X177562600Y-73206238D01*
X177562600Y-73206238D02*
X177562600Y-76835000D01*
X177562600Y-76835000D02*
X177562600Y-78286238D01*
X177562600Y-78286238D02*
X177562600Y-91123240D01*
X177562600Y-91123240D02*
X177562600Y-94123240D01*
X177562600Y-94123240D02*
X177562600Y-96273000D01*
X177321300Y-53227000D02*
X177321300Y-54254883D01*
X177321300Y-63948404D02*
X177321300Y-66373000D01*
X177080000Y-53227000D02*
X177080000Y-54995420D01*
X177080000Y-63707104D02*
X177080000Y-66373000D01*
X176838700Y-53227000D02*
X176838700Y-55732131D01*
X176838700Y-63442092D02*
X176838700Y-66373000D01*
X176597400Y-53227000D02*
X176597400Y-58519039D01*
X176597400Y-63080960D02*
X176597400Y-66073000D01*
X176356100Y-53227000D02*
X176356100Y-66073000D01*
X216073000Y-58200000D02*
X216082667Y-58248601D01*
X216110197Y-58289803D01*
X216151399Y-58317333D01*
X216170600Y-58321152D01*
X216170600Y-61478848D01*
X216151399Y-61482667D01*
X216110197Y-61510197D01*
X216082667Y-61551399D01*
X216073000Y-61600000D01*
X216073000Y-63845896D01*
X214113552Y-61886448D01*
X213602650Y-61545075D01*
X213000000Y-61425200D01*
X209574800Y-61425200D01*
X209574800Y-59821888D01*
X209854925Y-59402650D01*
X209974800Y-58800000D01*
X209974800Y-55800000D01*
X209854925Y-55197350D01*
X209710771Y-54981608D01*
X209710771Y-54550000D01*
X209687115Y-54431073D01*
X209619748Y-54330252D01*
X209518927Y-54262885D01*
X209400000Y-54239229D01*
X208470528Y-54239229D01*
X208400000Y-54225200D01*
X208329472Y-54239229D01*
X207400000Y-54239229D01*
X207281073Y-54262885D01*
X207180252Y-54330252D01*
X207112885Y-54431073D01*
X207089229Y-54550000D01*
X207089229Y-54981608D01*
X206945075Y-55197350D01*
X206825200Y-55800000D01*
X206825200Y-58178112D01*
X206545075Y-58597350D01*
X206425200Y-59200000D01*
X206425200Y-63400000D01*
X206545075Y-64002650D01*
X206886448Y-64513552D01*
X207397350Y-64854925D01*
X208000000Y-64974800D01*
X208602650Y-64854925D01*
X209021888Y-64574800D01*
X209873313Y-64574800D01*
X209799659Y-64624014D01*
X209518851Y-65044272D01*
X209420245Y-65540000D01*
X209518851Y-66035728D01*
X209683349Y-66281915D01*
X207712632Y-68252632D01*
X207624535Y-68384477D01*
X207593600Y-68540000D01*
X207593600Y-69015127D01*
X207550000Y-69015127D01*
X207440984Y-69036812D01*
X207348564Y-69098564D01*
X207286812Y-69190984D01*
X207265127Y-69300000D01*
X207265127Y-69493600D01*
X201406400Y-69493600D01*
X201406400Y-66811124D01*
X201780083Y-66736794D01*
X202200341Y-66455986D01*
X202481149Y-66035728D01*
X202579755Y-65540000D01*
X202481149Y-65044272D01*
X202200341Y-64624014D01*
X202126687Y-64574800D01*
X202347696Y-64574800D01*
X203886448Y-66113552D01*
X203971316Y-66170259D01*
X204118127Y-66317326D01*
X204311736Y-66397720D01*
X204397350Y-66454925D01*
X204497455Y-66474837D01*
X204689374Y-66554529D01*
X204899011Y-66554712D01*
X205000000Y-66574800D01*
X205100106Y-66554888D01*
X205307912Y-66555069D01*
X205501665Y-66475012D01*
X205602649Y-66454925D01*
X205687511Y-66398222D01*
X205879573Y-66318864D01*
X206027938Y-66170757D01*
X206113552Y-66113552D01*
X206170258Y-66028685D01*
X206317326Y-65881873D01*
X206397721Y-65688262D01*
X206454925Y-65602649D01*
X206474837Y-65502545D01*
X206554529Y-65310626D01*
X206554712Y-65100989D01*
X206574800Y-65000000D01*
X206554888Y-64899894D01*
X206555069Y-64692088D01*
X206475012Y-64498336D01*
X206454925Y-64397350D01*
X206398221Y-64312487D01*
X206318864Y-64120427D01*
X206170757Y-63972062D01*
X206113552Y-63886448D01*
X204113552Y-61886448D01*
X203602650Y-61545075D01*
X203000000Y-61425200D01*
X199574800Y-61425200D01*
X199574800Y-59421888D01*
X199854925Y-59002650D01*
X199974800Y-58400000D01*
X199974800Y-55800000D01*
X199854925Y-55197350D01*
X199710771Y-54981608D01*
X199710771Y-54550000D01*
X199687115Y-54431073D01*
X199619748Y-54330252D01*
X199518927Y-54262885D01*
X199400000Y-54239229D01*
X198470528Y-54239229D01*
X198400000Y-54225200D01*
X198329472Y-54239229D01*
X197400000Y-54239229D01*
X197281073Y-54262885D01*
X197180252Y-54330252D01*
X197112885Y-54431073D01*
X197089229Y-54550000D01*
X197089229Y-54981608D01*
X196945075Y-55197350D01*
X196825200Y-55800000D01*
X196825200Y-57778112D01*
X196545075Y-58197350D01*
X196425200Y-58800000D01*
X196425200Y-63000000D01*
X196545075Y-63602650D01*
X196886448Y-64113552D01*
X197397350Y-64454925D01*
X198000000Y-64574800D01*
X199873313Y-64574800D01*
X199799659Y-64624014D01*
X199518851Y-65044272D01*
X199420245Y-65540000D01*
X199518851Y-66035728D01*
X199799659Y-66455986D01*
X200219917Y-66736794D01*
X200593600Y-66811124D01*
X200593600Y-69493600D01*
X191406400Y-69493600D01*
X191406400Y-66811124D01*
X191780083Y-66736794D01*
X192200341Y-66455986D01*
X192481149Y-66035728D01*
X192579755Y-65540000D01*
X192481149Y-65044272D01*
X192200341Y-64624014D01*
X192126687Y-64574800D01*
X192347696Y-64574800D01*
X193886448Y-66113552D01*
X193971316Y-66170259D01*
X194118127Y-66317326D01*
X194311736Y-66397720D01*
X194397350Y-66454925D01*
X194497455Y-66474837D01*
X194689374Y-66554529D01*
X194899011Y-66554712D01*
X195000000Y-66574800D01*
X195100106Y-66554888D01*
X195307912Y-66555069D01*
X195501665Y-66475012D01*
X195602649Y-66454925D01*
X195687511Y-66398222D01*
X195879573Y-66318864D01*
X196027938Y-66170757D01*
X196113552Y-66113552D01*
X196170258Y-66028685D01*
X196317326Y-65881873D01*
X196397721Y-65688262D01*
X196454925Y-65602649D01*
X196474837Y-65502545D01*
X196554529Y-65310626D01*
X196554712Y-65100989D01*
X196574800Y-65000000D01*
X196554888Y-64899894D01*
X196555069Y-64692088D01*
X196475012Y-64498336D01*
X196454925Y-64397350D01*
X196398221Y-64312487D01*
X196318864Y-64120427D01*
X196170757Y-63972062D01*
X196113552Y-63886448D01*
X194113552Y-61886448D01*
X193602650Y-61545075D01*
X193000000Y-61425200D01*
X189374800Y-61425200D01*
X189374800Y-60452304D01*
X189713552Y-60113552D01*
X189847187Y-59913552D01*
X190054925Y-59602650D01*
X190174800Y-59000000D01*
X190174800Y-55800000D01*
X190054925Y-55197350D01*
X189910771Y-54981608D01*
X189910771Y-54550000D01*
X189887115Y-54431073D01*
X189819748Y-54330252D01*
X189718927Y-54262885D01*
X189600000Y-54239229D01*
X188670528Y-54239229D01*
X188600000Y-54225200D01*
X188529472Y-54239229D01*
X187600000Y-54239229D01*
X187481073Y-54262885D01*
X187380252Y-54330252D01*
X187312885Y-54431073D01*
X187289229Y-54550000D01*
X187289229Y-54981608D01*
X187145075Y-55197350D01*
X187025200Y-55800000D01*
X187025200Y-58347696D01*
X186686448Y-58686448D01*
X186345075Y-59197350D01*
X186225200Y-59800000D01*
X186225200Y-63000000D01*
X186345075Y-63602650D01*
X186686448Y-64113552D01*
X187197350Y-64454925D01*
X187800000Y-64574800D01*
X189873313Y-64574800D01*
X189799659Y-64624014D01*
X189518851Y-65044272D01*
X189420245Y-65540000D01*
X189518851Y-66035728D01*
X189799659Y-66455986D01*
X190219917Y-66736794D01*
X190593600Y-66811124D01*
X190593600Y-69493600D01*
X181406400Y-69493600D01*
X181406400Y-66811124D01*
X181780083Y-66736794D01*
X182200341Y-66455986D01*
X182481149Y-66035728D01*
X182579755Y-65540000D01*
X182481149Y-65044272D01*
X182200341Y-64624014D01*
X182126687Y-64574800D01*
X182347696Y-64574800D01*
X183886448Y-66113552D01*
X183971316Y-66170259D01*
X184118127Y-66317326D01*
X184311736Y-66397720D01*
X184397350Y-66454925D01*
X184497455Y-66474837D01*
X184689374Y-66554529D01*
X184899011Y-66554712D01*
X185000000Y-66574800D01*
X185100106Y-66554888D01*
X185307912Y-66555069D01*
X185501665Y-66475012D01*
X185602649Y-66454925D01*
X185687511Y-66398222D01*
X185879573Y-66318864D01*
X186027938Y-66170757D01*
X186113552Y-66113552D01*
X186170258Y-66028685D01*
X186317326Y-65881873D01*
X186397721Y-65688262D01*
X186454925Y-65602649D01*
X186474837Y-65502545D01*
X186554529Y-65310626D01*
X186554712Y-65100989D01*
X186574800Y-65000000D01*
X186554888Y-64899894D01*
X186555069Y-64692088D01*
X186475012Y-64498336D01*
X186454925Y-64397350D01*
X186398221Y-64312487D01*
X186318864Y-64120427D01*
X186170757Y-63972062D01*
X186113552Y-63886448D01*
X184113552Y-61886448D01*
X183602650Y-61545075D01*
X183000000Y-61425200D01*
X179574800Y-61425200D01*
X179574800Y-59821888D01*
X179854925Y-59402650D01*
X179974800Y-58800000D01*
X179974800Y-55800000D01*
X179854925Y-55197350D01*
X179710771Y-54981608D01*
X179710771Y-54550000D01*
X179687115Y-54431073D01*
X179619748Y-54330252D01*
X179518927Y-54262885D01*
X179400000Y-54239229D01*
X178470528Y-54239229D01*
X178400000Y-54225200D01*
X178329472Y-54239229D01*
X177400000Y-54239229D01*
X177281073Y-54262885D01*
X177180252Y-54330252D01*
X177112885Y-54431073D01*
X177089229Y-54550000D01*
X177089229Y-54981608D01*
X176945075Y-55197350D01*
X176825200Y-55800000D01*
X176825200Y-58178112D01*
X176545075Y-58597350D01*
X176425200Y-59200000D01*
X176425200Y-62400000D01*
X176545075Y-63002650D01*
X176810575Y-63400000D01*
X176886448Y-63513552D01*
X177486448Y-64113552D01*
X177997350Y-64454925D01*
X178600000Y-64574800D01*
X179873313Y-64574800D01*
X179799659Y-64624014D01*
X179518851Y-65044272D01*
X179420245Y-65540000D01*
X179518851Y-66035728D01*
X179799659Y-66455986D01*
X180219917Y-66736794D01*
X180593600Y-66811124D01*
X180593600Y-69800000D01*
X180624535Y-69955523D01*
X180654254Y-70000000D01*
X180712632Y-70087368D01*
X180812632Y-70187368D01*
X180944477Y-70275465D01*
X181100000Y-70306400D01*
X190741115Y-70306400D01*
X190844477Y-70375465D01*
X191000000Y-70406400D01*
X191155523Y-70375465D01*
X191258885Y-70306400D01*
X200741115Y-70306400D01*
X200844477Y-70375465D01*
X201000000Y-70406400D01*
X201155523Y-70375465D01*
X201258885Y-70306400D01*
X207265127Y-70306400D01*
X207265127Y-70500000D01*
X207286812Y-70609016D01*
X207348564Y-70701436D01*
X207440984Y-70763188D01*
X207550000Y-70784873D01*
X208450000Y-70784873D01*
X208559016Y-70763188D01*
X208651436Y-70701436D01*
X208713188Y-70609016D01*
X208734873Y-70500000D01*
X208734873Y-69300000D01*
X208713188Y-69190984D01*
X208651436Y-69098564D01*
X208559016Y-69036812D01*
X208450000Y-69015127D01*
X208406400Y-69015127D01*
X208406400Y-68708336D01*
X210351724Y-66763012D01*
X210715645Y-66835400D01*
X211284355Y-66835400D01*
X211780083Y-66736794D01*
X212200341Y-66455986D01*
X212481149Y-66035728D01*
X212579755Y-65540000D01*
X212481149Y-65044272D01*
X212200341Y-64624014D01*
X212126687Y-64574800D01*
X212347696Y-64574800D01*
X213886448Y-66113552D01*
X213971316Y-66170259D01*
X214118127Y-66317326D01*
X214311736Y-66397720D01*
X214397350Y-66454925D01*
X214497455Y-66474837D01*
X214689374Y-66554529D01*
X214899011Y-66554712D01*
X215000000Y-66574800D01*
X215100106Y-66554888D01*
X215265362Y-66555032D01*
X208947394Y-72873000D01*
X208670436Y-72873000D01*
X208713188Y-72809016D01*
X208734873Y-72700000D01*
X208734873Y-71500000D01*
X208713188Y-71390984D01*
X208651436Y-71298564D01*
X208559016Y-71236812D01*
X208450000Y-71215127D01*
X207550000Y-71215127D01*
X207440984Y-71236812D01*
X207348564Y-71298564D01*
X207286812Y-71390984D01*
X207265127Y-71500000D01*
X207265127Y-72700000D01*
X207286812Y-72809016D01*
X207348564Y-72901436D01*
X207440984Y-72963188D01*
X207550000Y-72984873D01*
X207593600Y-72984873D01*
X207593600Y-78831664D01*
X207401716Y-79023548D01*
X207406400Y-79000000D01*
X207406400Y-76000000D01*
X207375465Y-75844477D01*
X207287368Y-75712632D01*
X205582368Y-74007632D01*
X205450523Y-73919535D01*
X205295000Y-73888600D01*
X201643421Y-73888600D01*
X201663188Y-73859016D01*
X201684873Y-73750000D01*
X201684873Y-73406400D01*
X202015127Y-73406400D01*
X202015127Y-73450000D01*
X202036812Y-73559016D01*
X202098564Y-73651436D01*
X202190984Y-73713188D01*
X202300000Y-73734873D01*
X203500000Y-73734873D01*
X203609016Y-73713188D01*
X203701436Y-73651436D01*
X203763188Y-73559016D01*
X203784873Y-73450000D01*
X203784873Y-72550000D01*
X204215127Y-72550000D01*
X204215127Y-73450000D01*
X204236812Y-73559016D01*
X204298564Y-73651436D01*
X204390984Y-73713188D01*
X204500000Y-73734873D01*
X205700000Y-73734873D01*
X205809016Y-73713188D01*
X205901436Y-73651436D01*
X205963188Y-73559016D01*
X205984873Y-73450000D01*
X205984873Y-72550000D01*
X205963188Y-72440984D01*
X205901436Y-72348564D01*
X205809016Y-72286812D01*
X205700000Y-72265127D01*
X205506400Y-72265127D01*
X205506400Y-72122306D01*
X205623240Y-72122408D01*
X205852044Y-72027868D01*
X206027253Y-71852965D01*
X206122192Y-71624326D01*
X206122408Y-71376760D01*
X206027868Y-71147956D01*
X205852965Y-70972747D01*
X205624326Y-70877808D01*
X205376760Y-70877592D01*
X205147956Y-70972132D01*
X204972747Y-71147035D01*
X204877808Y-71375674D01*
X204877658Y-71547606D01*
X204812632Y-71612632D01*
X204724535Y-71744477D01*
X204693600Y-71900000D01*
X204693600Y-72265127D01*
X204500000Y-72265127D01*
X204390984Y-72286812D01*
X204298564Y-72348564D01*
X204236812Y-72440984D01*
X204215127Y-72550000D01*
X203784873Y-72550000D01*
X203763188Y-72440984D01*
X203701436Y-72348564D01*
X203609016Y-72286812D01*
X203500000Y-72265127D01*
X202300000Y-72265127D01*
X202190984Y-72286812D01*
X202098564Y-72348564D01*
X202036812Y-72440984D01*
X202015127Y-72550000D01*
X202015127Y-72593600D01*
X201684873Y-72593600D01*
X201684873Y-72250000D01*
X201663188Y-72140984D01*
X201601436Y-72048564D01*
X201509016Y-71986812D01*
X201400000Y-71965127D01*
X199900000Y-71965127D01*
X199790984Y-71986812D01*
X199698564Y-72048564D01*
X199636812Y-72140984D01*
X199615127Y-72250000D01*
X199615127Y-73750000D01*
X199636812Y-73859016D01*
X199656579Y-73888600D01*
X194721545Y-73888600D01*
X194720219Y-73881932D01*
X194486234Y-73531749D01*
X194136051Y-73297764D01*
X193722983Y-73215600D01*
X192865017Y-73215600D01*
X192451949Y-73297764D01*
X192101766Y-73531749D01*
X191867781Y-73881932D01*
X191785617Y-74295000D01*
X191867781Y-74708068D01*
X192101766Y-75058251D01*
X192451949Y-75292236D01*
X192865017Y-75374400D01*
X193722983Y-75374400D01*
X194136051Y-75292236D01*
X194486234Y-75058251D01*
X194720219Y-74708068D01*
X194721545Y-74701400D01*
X205126664Y-74701400D01*
X206593600Y-76168336D01*
X206593600Y-78831664D01*
X203831664Y-81593600D01*
X201000000Y-81593600D01*
X200844477Y-81624535D01*
X200712632Y-81712632D01*
X198712632Y-83712632D01*
X198624535Y-83844477D01*
X198593600Y-84000000D01*
X198593600Y-87000000D01*
X198624535Y-87155523D01*
X198712632Y-87287368D01*
X198844477Y-87375465D01*
X199000000Y-87406400D01*
X200682404Y-87406400D01*
X200725000Y-87414873D01*
X201375000Y-87414873D01*
X201484016Y-87393188D01*
X201525000Y-87365804D01*
X201565984Y-87393188D01*
X201593600Y-87398681D01*
X201593600Y-91962098D01*
X201378170Y-92106044D01*
X201187540Y-92391342D01*
X201120600Y-92727874D01*
X201120600Y-93272126D01*
X201187540Y-93608658D01*
X201378170Y-93893956D01*
X201663468Y-94084586D01*
X202000000Y-94151526D01*
X202336532Y-94084586D01*
X202621830Y-93893956D01*
X202812460Y-93608658D01*
X202879400Y-93272126D01*
X202879400Y-92727874D01*
X202812460Y-92391342D01*
X202621830Y-92106044D01*
X202406400Y-91962098D01*
X202406400Y-87398681D01*
X202434016Y-87393188D01*
X202526436Y-87331436D01*
X202588188Y-87239016D01*
X202609873Y-87130000D01*
X202609873Y-85570000D01*
X202588188Y-85460984D01*
X202551717Y-85406400D01*
X203526393Y-85406400D01*
X203647035Y-85527253D01*
X203875674Y-85622192D01*
X204123240Y-85622408D01*
X204352044Y-85527868D01*
X204527253Y-85352965D01*
X204622192Y-85124326D01*
X204622408Y-84876760D01*
X204527868Y-84647956D01*
X204352965Y-84472747D01*
X204124326Y-84377808D01*
X203876760Y-84377592D01*
X203647956Y-84472132D01*
X203526275Y-84593600D01*
X203501717Y-84593600D01*
X203538188Y-84539016D01*
X203559873Y-84430000D01*
X203559873Y-83989149D01*
X203637368Y-83937368D01*
X208073000Y-79501736D01*
X208073000Y-96273000D01*
X177527000Y-96273000D01*
X177527000Y-94123240D01*
X178377592Y-94123240D01*
X178472132Y-94352044D01*
X178647035Y-94527253D01*
X178875674Y-94622192D01*
X179123240Y-94622408D01*
X179352044Y-94527868D01*
X179473725Y-94406400D01*
X179531980Y-94406400D01*
X179638881Y-94566388D01*
X179891737Y-94735341D01*
X180190000Y-94794669D01*
X180488263Y-94735341D01*
X180741119Y-94566388D01*
X180910072Y-94313532D01*
X180969400Y-94015269D01*
X180969400Y-93984731D01*
X180910072Y-93686468D01*
X180785479Y-93500000D01*
X183215127Y-93500000D01*
X183215127Y-94500000D01*
X183236812Y-94609016D01*
X183298564Y-94701436D01*
X183390984Y-94763188D01*
X183500000Y-94784873D01*
X184500000Y-94784873D01*
X184609016Y-94763188D01*
X184701436Y-94701436D01*
X184763188Y-94609016D01*
X184784873Y-94500000D01*
X184784873Y-93500000D01*
X184763188Y-93390984D01*
X184701436Y-93298564D01*
X184609016Y-93236812D01*
X184500000Y-93215127D01*
X183500000Y-93215127D01*
X183390984Y-93236812D01*
X183298564Y-93298564D01*
X183236812Y-93390984D01*
X183215127Y-93500000D01*
X180785479Y-93500000D01*
X180741119Y-93433612D01*
X180488263Y-93264659D01*
X180190000Y-93205331D01*
X179891737Y-93264659D01*
X179638881Y-93433612D01*
X179531980Y-93593600D01*
X179473607Y-93593600D01*
X179352965Y-93472747D01*
X179124326Y-93377808D01*
X178876760Y-93377592D01*
X178647956Y-93472132D01*
X178472747Y-93647035D01*
X178377808Y-93875674D01*
X178377592Y-94123240D01*
X177527000Y-94123240D01*
X177527000Y-91123240D01*
X177877592Y-91123240D01*
X177972132Y-91352044D01*
X178147035Y-91527253D01*
X178375674Y-91622192D01*
X178623240Y-91622408D01*
X178852044Y-91527868D01*
X178973725Y-91406400D01*
X179171373Y-91406400D01*
X179186812Y-91484016D01*
X179248564Y-91576436D01*
X179340984Y-91638188D01*
X179450000Y-91659873D01*
X180650000Y-91659873D01*
X180759016Y-91638188D01*
X180851436Y-91576436D01*
X180913188Y-91484016D01*
X180934873Y-91375000D01*
X180934873Y-90625000D01*
X180913188Y-90515984D01*
X180851436Y-90423564D01*
X180759016Y-90361812D01*
X180650000Y-90340127D01*
X179450000Y-90340127D01*
X179340984Y-90361812D01*
X179248564Y-90423564D01*
X179186812Y-90515984D01*
X179171373Y-90593600D01*
X178973607Y-90593600D01*
X178852965Y-90472747D01*
X178624326Y-90377808D01*
X178376760Y-90377592D01*
X178147956Y-90472132D01*
X177972747Y-90647035D01*
X177877808Y-90875674D01*
X177877592Y-91123240D01*
X177527000Y-91123240D01*
X177527000Y-78286238D01*
X178958420Y-78286238D01*
X179116629Y-78669135D01*
X179409324Y-78962341D01*
X179593600Y-79038859D01*
X179593600Y-85340127D01*
X179450000Y-85340127D01*
X179340984Y-85361812D01*
X179248564Y-85423564D01*
X179186812Y-85515984D01*
X179165127Y-85625000D01*
X179165127Y-86375000D01*
X179186812Y-86484016D01*
X179248564Y-86576436D01*
X179340984Y-86638188D01*
X179450000Y-86659873D01*
X180650000Y-86659873D01*
X180759016Y-86638188D01*
X180851436Y-86576436D01*
X180913188Y-86484016D01*
X180934873Y-86375000D01*
X180934873Y-85625000D01*
X180913188Y-85515984D01*
X180851436Y-85423564D01*
X180759016Y-85361812D01*
X180650000Y-85340127D01*
X180406400Y-85340127D01*
X180406400Y-81915000D01*
X184165617Y-81915000D01*
X184247781Y-82328068D01*
X184481766Y-82678251D01*
X184831949Y-82912236D01*
X185245017Y-82994400D01*
X186102983Y-82994400D01*
X186516051Y-82912236D01*
X186866234Y-82678251D01*
X187100219Y-82328068D01*
X187182383Y-81915000D01*
X187100219Y-81501932D01*
X186866234Y-81151749D01*
X186516051Y-80917764D01*
X186102983Y-80835600D01*
X185245017Y-80835600D01*
X184831949Y-80917764D01*
X184481766Y-81151749D01*
X184247781Y-81501932D01*
X184165617Y-81915000D01*
X180406400Y-81915000D01*
X180406400Y-79038875D01*
X180589135Y-78963371D01*
X180882341Y-78670676D01*
X180958859Y-78486400D01*
X184210664Y-78486400D01*
X184423385Y-78699122D01*
X184247781Y-78961932D01*
X184165617Y-79375000D01*
X184247781Y-79788068D01*
X184481766Y-80138251D01*
X184831949Y-80372236D01*
X185245017Y-80454400D01*
X186102983Y-80454400D01*
X186516051Y-80372236D01*
X186866234Y-80138251D01*
X187100219Y-79788068D01*
X187182383Y-79375000D01*
X187100219Y-78961932D01*
X186866234Y-78611749D01*
X186516051Y-78377764D01*
X186102983Y-78295600D01*
X185245017Y-78295600D01*
X185181893Y-78308156D01*
X184666368Y-77792632D01*
X184602565Y-77750000D01*
X184534523Y-77704535D01*
X184379000Y-77673600D01*
X180958875Y-77673600D01*
X180883371Y-77490865D01*
X180590676Y-77197659D01*
X180208056Y-77038781D01*
X179793762Y-77038420D01*
X179410865Y-77196629D01*
X179117659Y-77489324D01*
X178958781Y-77871944D01*
X178958420Y-78286238D01*
X177527000Y-78286238D01*
X177527000Y-76835000D01*
X184165617Y-76835000D01*
X184247781Y-77248068D01*
X184481766Y-77598251D01*
X184831949Y-77832236D01*
X185245017Y-77914400D01*
X186102983Y-77914400D01*
X186166108Y-77901844D01*
X192043386Y-83779122D01*
X191867781Y-84041932D01*
X191785617Y-84455000D01*
X191867781Y-84868068D01*
X192043386Y-85130878D01*
X187712632Y-89461632D01*
X187624535Y-89593477D01*
X187593600Y-89749000D01*
X187593600Y-91715637D01*
X187000510Y-91715637D01*
X186891494Y-91737322D01*
X186799074Y-91799074D01*
X186737322Y-91891494D01*
X186715637Y-92000510D01*
X186715637Y-93999490D01*
X186737322Y-94108506D01*
X186799074Y-94200926D01*
X186891494Y-94262678D01*
X187000510Y-94284363D01*
X188999490Y-94284363D01*
X189108506Y-94262678D01*
X189200926Y-94200926D01*
X189262678Y-94108506D01*
X189284363Y-93999490D01*
X189284363Y-93242860D01*
X189333405Y-93489410D01*
X189610633Y-93904312D01*
X190025535Y-94181540D01*
X190514945Y-94278890D01*
X190565055Y-94278890D01*
X191054465Y-94181540D01*
X191469367Y-93904312D01*
X191746595Y-93489410D01*
X191843945Y-93000000D01*
X194316055Y-93000000D01*
X194413405Y-93489410D01*
X194690633Y-93904312D01*
X195105535Y-94181540D01*
X195594945Y-94278890D01*
X195645055Y-94278890D01*
X196134465Y-94181540D01*
X196549367Y-93904312D01*
X196826595Y-93489410D01*
X196923945Y-93000000D01*
X196826595Y-92510590D01*
X196549367Y-92095688D01*
X196134465Y-91818460D01*
X195645055Y-91721110D01*
X195594945Y-91721110D01*
X195105535Y-91818460D01*
X194690633Y-92095688D01*
X194413405Y-92510590D01*
X194316055Y-93000000D01*
X191843945Y-93000000D01*
X191746595Y-92510590D01*
X191469367Y-92095688D01*
X191054465Y-91818460D01*
X190565055Y-91721110D01*
X190514945Y-91721110D01*
X190025535Y-91818460D01*
X189610633Y-92095688D01*
X189333405Y-92510590D01*
X189284363Y-92757140D01*
X189284363Y-92000510D01*
X189262678Y-91891494D01*
X189200926Y-91799074D01*
X189108506Y-91737322D01*
X188999490Y-91715637D01*
X188406400Y-91715637D01*
X188406400Y-91123240D01*
X190377592Y-91123240D01*
X190472132Y-91352044D01*
X190647035Y-91527253D01*
X190875674Y-91622192D01*
X191123240Y-91622408D01*
X191352044Y-91527868D01*
X191527253Y-91352965D01*
X191622192Y-91124326D01*
X191622408Y-90876760D01*
X191527868Y-90647956D01*
X191352965Y-90472747D01*
X191124326Y-90377808D01*
X190876760Y-90377592D01*
X190647956Y-90472132D01*
X190472747Y-90647035D01*
X190377808Y-90875674D01*
X190377592Y-91123240D01*
X188406400Y-91123240D01*
X188406400Y-89917336D01*
X192801892Y-85521844D01*
X192865017Y-85534400D01*
X193722983Y-85534400D01*
X194136051Y-85452236D01*
X194486234Y-85218251D01*
X194720219Y-84868068D01*
X194802383Y-84455000D01*
X194801389Y-84450000D01*
X195340127Y-84450000D01*
X195340127Y-85650000D01*
X195361812Y-85759016D01*
X195423564Y-85851436D01*
X195515984Y-85913188D01*
X195625000Y-85934873D01*
X196375000Y-85934873D01*
X196484016Y-85913188D01*
X196576436Y-85851436D01*
X196638188Y-85759016D01*
X196659873Y-85650000D01*
X196659873Y-85532584D01*
X196875674Y-85622192D01*
X197123240Y-85622408D01*
X197352044Y-85527868D01*
X197527253Y-85352965D01*
X197622192Y-85124326D01*
X197622408Y-84876760D01*
X197527868Y-84647956D01*
X197352965Y-84472747D01*
X197124326Y-84377808D01*
X196876760Y-84377592D01*
X196659873Y-84467208D01*
X196659873Y-84450000D01*
X196638188Y-84340984D01*
X196576436Y-84248564D01*
X196484016Y-84186812D01*
X196375000Y-84165127D01*
X195625000Y-84165127D01*
X195515984Y-84186812D01*
X195423564Y-84248564D01*
X195361812Y-84340984D01*
X195340127Y-84450000D01*
X194801389Y-84450000D01*
X194720219Y-84041932D01*
X194605097Y-83869639D01*
X196739863Y-81734873D01*
X197500000Y-81734873D01*
X197609016Y-81713188D01*
X197701436Y-81651436D01*
X197763188Y-81559016D01*
X197784873Y-81450000D01*
X197784873Y-80550000D01*
X197763188Y-80440984D01*
X197701436Y-80348564D01*
X197609016Y-80286812D01*
X197500000Y-80265127D01*
X196300000Y-80265127D01*
X196190984Y-80286812D01*
X196098564Y-80348564D01*
X196036812Y-80440984D01*
X196015127Y-80550000D01*
X196015127Y-81310137D01*
X193912055Y-83413209D01*
X193722983Y-83375600D01*
X192865017Y-83375600D01*
X192801892Y-83388156D01*
X186924614Y-77510878D01*
X187100219Y-77248068D01*
X187182383Y-76835000D01*
X187100219Y-76421932D01*
X186866234Y-76071749D01*
X186516051Y-75837764D01*
X186102983Y-75755600D01*
X185245017Y-75755600D01*
X184831949Y-75837764D01*
X184481766Y-76071749D01*
X184247781Y-76421932D01*
X184165617Y-76835000D01*
X177527000Y-76835000D01*
X177527000Y-73206238D01*
X178958420Y-73206238D01*
X179116629Y-73589135D01*
X179409324Y-73882341D01*
X179593600Y-73958859D01*
X179593600Y-74581125D01*
X179410865Y-74656629D01*
X179117659Y-74949324D01*
X178958781Y-75331944D01*
X178958420Y-75746238D01*
X179116629Y-76129135D01*
X179409324Y-76422341D01*
X179791944Y-76581219D01*
X180206238Y-76581580D01*
X180589135Y-76423371D01*
X180882341Y-76130676D01*
X181041219Y-75748056D01*
X181041580Y-75333762D01*
X180883371Y-74950865D01*
X180590676Y-74657659D01*
X180406400Y-74581141D01*
X180406400Y-74295000D01*
X184165617Y-74295000D01*
X184247781Y-74708068D01*
X184481766Y-75058251D01*
X184831949Y-75292236D01*
X185245017Y-75374400D01*
X186102983Y-75374400D01*
X186516051Y-75292236D01*
X186866234Y-75058251D01*
X187100219Y-74708068D01*
X187101545Y-74701400D01*
X188045664Y-74701400D01*
X192043386Y-78699122D01*
X191867781Y-78961932D01*
X191785617Y-79375000D01*
X191867781Y-79788068D01*
X192101766Y-80138251D01*
X192451949Y-80372236D01*
X192865017Y-80454400D01*
X193722983Y-80454400D01*
X194136051Y-80372236D01*
X194486234Y-80138251D01*
X194720219Y-79788068D01*
X194753005Y-79623240D01*
X203877592Y-79623240D01*
X203972132Y-79852044D01*
X204147035Y-80027253D01*
X204375674Y-80122192D01*
X204623240Y-80122408D01*
X204852044Y-80027868D01*
X205027253Y-79852965D01*
X205122192Y-79624326D01*
X205122342Y-79452394D01*
X205387368Y-79187368D01*
X205475465Y-79055523D01*
X205506400Y-78900000D01*
X205506400Y-77734873D01*
X205700000Y-77734873D01*
X205809016Y-77713188D01*
X205901436Y-77651436D01*
X205963188Y-77559016D01*
X205984873Y-77450000D01*
X205984873Y-76550000D01*
X205963188Y-76440984D01*
X205901436Y-76348564D01*
X205809016Y-76286812D01*
X205700000Y-76265127D01*
X204500000Y-76265127D01*
X204390984Y-76286812D01*
X204298564Y-76348564D01*
X204236812Y-76440984D01*
X204215127Y-76550000D01*
X204215127Y-77450000D01*
X204236812Y-77559016D01*
X204298564Y-77651436D01*
X204390984Y-77713188D01*
X204500000Y-77734873D01*
X204693600Y-77734873D01*
X204693600Y-78731664D01*
X204547523Y-78877741D01*
X204376760Y-78877592D01*
X204147956Y-78972132D01*
X203972747Y-79147035D01*
X203877808Y-79375674D01*
X203877592Y-79623240D01*
X194753005Y-79623240D01*
X194802383Y-79375000D01*
X194720219Y-78961932D01*
X194486234Y-78611749D01*
X194136051Y-78377764D01*
X193722983Y-78295600D01*
X192865017Y-78295600D01*
X192801892Y-78308156D01*
X191328736Y-76835000D01*
X191785617Y-76835000D01*
X191867781Y-77248068D01*
X192101766Y-77598251D01*
X192451949Y-77832236D01*
X192865017Y-77914400D01*
X193722983Y-77914400D01*
X194136051Y-77832236D01*
X194486234Y-77598251D01*
X194720219Y-77248068D01*
X194721545Y-77241400D01*
X196315127Y-77241400D01*
X196315127Y-77750000D01*
X196336812Y-77859016D01*
X196398564Y-77951436D01*
X196490984Y-78013188D01*
X196600000Y-78034873D01*
X198100000Y-78034873D01*
X198209016Y-78013188D01*
X198301436Y-77951436D01*
X198363188Y-77859016D01*
X198384873Y-77750000D01*
X198384873Y-76250000D01*
X199615127Y-76250000D01*
X199615127Y-77750000D01*
X199636812Y-77859016D01*
X199698564Y-77951436D01*
X199790984Y-78013188D01*
X199900000Y-78034873D01*
X201400000Y-78034873D01*
X201509016Y-78013188D01*
X201601436Y-77951436D01*
X201663188Y-77859016D01*
X201684873Y-77750000D01*
X201684873Y-77406400D01*
X202015127Y-77406400D01*
X202015127Y-77450000D01*
X202036812Y-77559016D01*
X202098564Y-77651436D01*
X202190984Y-77713188D01*
X202300000Y-77734873D01*
X203500000Y-77734873D01*
X203609016Y-77713188D01*
X203701436Y-77651436D01*
X203763188Y-77559016D01*
X203784873Y-77450000D01*
X203784873Y-76550000D01*
X203763188Y-76440984D01*
X203701436Y-76348564D01*
X203609016Y-76286812D01*
X203500000Y-76265127D01*
X202300000Y-76265127D01*
X202190984Y-76286812D01*
X202098564Y-76348564D01*
X202036812Y-76440984D01*
X202015127Y-76550000D01*
X202015127Y-76593600D01*
X201684873Y-76593600D01*
X201684873Y-76250000D01*
X201663188Y-76140984D01*
X201601436Y-76048564D01*
X201509016Y-75986812D01*
X201400000Y-75965127D01*
X199900000Y-75965127D01*
X199790984Y-75986812D01*
X199698564Y-76048564D01*
X199636812Y-76140984D01*
X199615127Y-76250000D01*
X198384873Y-76250000D01*
X198363188Y-76140984D01*
X198301436Y-76048564D01*
X198209016Y-75986812D01*
X198100000Y-75965127D01*
X196600000Y-75965127D01*
X196490984Y-75986812D01*
X196398564Y-76048564D01*
X196336812Y-76140984D01*
X196315127Y-76250000D01*
X196315127Y-76428600D01*
X194721545Y-76428600D01*
X194720219Y-76421932D01*
X194486234Y-76071749D01*
X194136051Y-75837764D01*
X193722983Y-75755600D01*
X192865017Y-75755600D01*
X192451949Y-75837764D01*
X192101766Y-76071749D01*
X191867781Y-76421932D01*
X191785617Y-76835000D01*
X191328736Y-76835000D01*
X188501368Y-74007632D01*
X188369523Y-73919535D01*
X188214000Y-73888600D01*
X187101545Y-73888600D01*
X187100219Y-73881932D01*
X186866234Y-73531749D01*
X186516051Y-73297764D01*
X186102983Y-73215600D01*
X185245017Y-73215600D01*
X184831949Y-73297764D01*
X184481766Y-73531749D01*
X184247781Y-73881932D01*
X184165617Y-74295000D01*
X180406400Y-74295000D01*
X180406400Y-73958875D01*
X180589135Y-73883371D01*
X180882341Y-73590676D01*
X181041219Y-73208056D01*
X181041580Y-72793762D01*
X180965384Y-72609352D01*
X181413336Y-72161400D01*
X184189127Y-72161400D01*
X184189127Y-72555000D01*
X184210812Y-72664016D01*
X184272564Y-72756436D01*
X184364984Y-72818188D01*
X184474000Y-72839873D01*
X186874000Y-72839873D01*
X186983016Y-72818188D01*
X187075436Y-72756436D01*
X187137188Y-72664016D01*
X187158873Y-72555000D01*
X187158873Y-71755000D01*
X191785617Y-71755000D01*
X191867781Y-72168068D01*
X192101766Y-72518251D01*
X192451949Y-72752236D01*
X192865017Y-72834400D01*
X193722983Y-72834400D01*
X194136051Y-72752236D01*
X194486234Y-72518251D01*
X194720219Y-72168068D01*
X194802383Y-71755000D01*
X194720219Y-71341932D01*
X194486234Y-70991749D01*
X194136051Y-70757764D01*
X193722983Y-70675600D01*
X192865017Y-70675600D01*
X192451949Y-70757764D01*
X192101766Y-70991749D01*
X191867781Y-71341932D01*
X191785617Y-71755000D01*
X187158873Y-71755000D01*
X187158873Y-70955000D01*
X187137188Y-70845984D01*
X187075436Y-70753564D01*
X186983016Y-70691812D01*
X186874000Y-70670127D01*
X184474000Y-70670127D01*
X184364984Y-70691812D01*
X184272564Y-70753564D01*
X184210812Y-70845984D01*
X184189127Y-70955000D01*
X184189127Y-71348600D01*
X181245000Y-71348600D01*
X181089477Y-71379535D01*
X181072343Y-71390984D01*
X180957632Y-71467632D01*
X180390659Y-72034605D01*
X180208056Y-71958781D01*
X179793762Y-71958420D01*
X179410865Y-72116629D01*
X179117659Y-72409324D01*
X178958781Y-72791944D01*
X178958420Y-73206238D01*
X177527000Y-73206238D01*
X177527000Y-66500000D01*
X177517333Y-66451399D01*
X177489803Y-66410197D01*
X177448601Y-66382667D01*
X177400000Y-66373000D01*
X176727000Y-66373000D01*
X176727000Y-66200000D01*
X176717333Y-66151399D01*
X176689803Y-66110197D01*
X176648601Y-66082667D01*
X176600000Y-66073000D01*
X176329400Y-66073000D01*
X176329400Y-53227000D01*
X216073000Y-53227000D01*
X216073000Y-58200000D01*
M02*
