G04 #@! TF.GenerationSoftware,KiCad,Pcbnew,no-vcs-found-ea855c1~58~ubuntu16.04.1*
G04 #@! TF.CreationDate,2017-06-06T15:51:32-04:00*
G04 #@! TF.ProjectId,KillSwitch,4B696C6C5377697463682E6B69636164,rev?*
G04 #@! TF.FileFunction,Copper,L2,Bot,Signal*
G04 #@! TF.FilePolarity,Positive*
%FSLAX46Y46*%
G04 Gerber Fmt 4.6, Leading zero omitted, Abs format (unit mm)*
G04 Created by KiCad (PCBNEW no-vcs-found-ea855c1~58~ubuntu16.04.1) date Tue Jun  6 15:51:32 2017*
%MOMM*%
%LPD*%
G01*
G04 APERTURE LIST*
%ADD10C,0.100000*%
%ADD11C,2.500000*%
%ADD12O,1.998980X1.998980*%
%ADD13R,1.998980X1.998980*%
%ADD14R,1.000000X1.000000*%
%ADD15O,1.000000X1.000000*%
%ADD16R,1.200000X1.700000*%
%ADD17O,1.200000X1.700000*%
%ADD18O,2.540000X2.032000*%
%ADD19C,1.524000*%
%ADD20R,2.400000X1.600000*%
%ADD21O,2.400000X1.600000*%
%ADD22C,0.685800*%
%ADD23C,0.254000*%
%ADD24C,2.540000*%
G04 APERTURE END LIST*
D10*
D11*
X185000000Y-60000000D03*
X195000000Y-60000000D03*
X205000000Y-60000000D03*
X215000000Y-60000000D03*
D12*
X195620000Y-93000000D03*
D13*
X188000000Y-93000000D03*
D12*
X190540000Y-93000000D03*
X193080000Y-93000000D03*
D14*
X184000000Y-94000000D03*
D15*
X182730000Y-94000000D03*
X181460000Y-94000000D03*
X180190000Y-94000000D03*
D16*
X200000000Y-93000000D03*
D17*
X202000000Y-93000000D03*
D18*
X181000000Y-63000000D03*
X181000000Y-60460000D03*
X181000000Y-65540000D03*
X191000000Y-63000000D03*
X191000000Y-60460000D03*
X191000000Y-65540000D03*
X201000000Y-63000000D03*
X201000000Y-60460000D03*
X201000000Y-65540000D03*
X211000000Y-63000000D03*
X211000000Y-60460000D03*
X211000000Y-65540000D03*
D19*
X180000000Y-75540000D03*
X180000000Y-78080000D03*
X180000000Y-73000000D03*
D20*
X185674000Y-71755000D03*
D21*
X193294000Y-86995000D03*
X185674000Y-74295000D03*
X193294000Y-84455000D03*
X185674000Y-76835000D03*
X193294000Y-81915000D03*
X185674000Y-79375000D03*
X193294000Y-79375000D03*
X185674000Y-81915000D03*
X193294000Y-76835000D03*
X185674000Y-84455000D03*
X193294000Y-74295000D03*
X185674000Y-86995000D03*
X193294000Y-71755000D03*
D11*
X215000000Y-65000000D03*
X205000000Y-65000000D03*
X195000000Y-65000000D03*
X185000000Y-65000000D03*
D22*
X191000000Y-91000000D03*
X205500000Y-71500000D03*
X204500000Y-79500000D03*
X204000000Y-85000000D03*
X178500000Y-91000000D03*
X179000000Y-94000000D03*
X197000000Y-85000000D03*
D23*
X190540000Y-91460000D02*
X191000000Y-91000000D01*
X190540000Y-93000000D02*
X190540000Y-91460000D01*
D24*
X185000000Y-60000000D02*
X183232234Y-60000000D01*
X183232234Y-60000000D02*
X182950044Y-60282190D01*
X182950044Y-60282190D02*
X181000000Y-60282190D01*
X195000000Y-60000000D02*
X193232234Y-60000000D01*
X193232234Y-60000000D02*
X192950044Y-60282190D01*
X192950044Y-60282190D02*
X191000000Y-60282190D01*
X205000000Y-60000000D02*
X203232234Y-60000000D01*
X202950044Y-60282190D02*
X201000000Y-60282190D01*
X203232234Y-60000000D02*
X202950044Y-60282190D01*
X215000000Y-60000000D02*
X213232234Y-60000000D01*
X212950044Y-60282190D02*
X211000000Y-60282190D01*
X213232234Y-60000000D02*
X212950044Y-60282190D01*
X215000000Y-65000000D02*
X213000000Y-63000000D01*
X213000000Y-63000000D02*
X211000000Y-63000000D01*
X205000000Y-65000000D02*
X203000000Y-63000000D01*
X203000000Y-63000000D02*
X201000000Y-63000000D01*
X195000000Y-65000000D02*
X193000000Y-63000000D01*
X193000000Y-63000000D02*
X191000000Y-63000000D01*
X185000000Y-65000000D02*
X183000000Y-63000000D01*
X183000000Y-63000000D02*
X181000000Y-63000000D01*
D23*
X177127000Y-68627000D02*
X208373000Y-68627000D01*
X177127000Y-68868300D02*
X208373000Y-68868300D01*
X177127000Y-69109600D02*
X208373000Y-69109600D01*
X177127000Y-69350900D02*
X208373000Y-69350900D01*
X177127000Y-69592200D02*
X208373000Y-69592200D01*
X177127000Y-69833500D02*
X208373000Y-69833500D01*
X177127000Y-70074800D02*
X208373000Y-70074800D01*
X177127000Y-70316100D02*
X208373000Y-70316100D01*
X177127000Y-70557400D02*
X208373000Y-70557400D01*
X177127000Y-70798700D02*
X184242406Y-70798700D01*
X187105595Y-70798700D02*
X208373000Y-70798700D01*
X177127000Y-71040000D02*
X184189127Y-71040000D01*
X187158873Y-71040000D02*
X208373000Y-71040000D01*
X177127000Y-71281300D02*
X184189127Y-71281300D01*
X187158873Y-71281300D02*
X208373000Y-71281300D01*
X177127000Y-71522600D02*
X184189127Y-71522600D01*
X187158873Y-71522600D02*
X208373000Y-71522600D01*
X177127000Y-71763900D02*
X184189127Y-71763900D01*
X187158873Y-71763900D02*
X208373000Y-71763900D01*
X177127000Y-72005200D02*
X179680546Y-72005200D01*
X180319846Y-72005200D02*
X184189127Y-72005200D01*
X187158873Y-72005200D02*
X208373000Y-72005200D01*
X177127000Y-72246500D02*
X179280768Y-72246500D01*
X180719293Y-72246500D02*
X184189127Y-72246500D01*
X187158873Y-72246500D02*
X208373000Y-72246500D01*
X177127000Y-72487800D02*
X179085073Y-72487800D01*
X180915160Y-72487800D02*
X184189127Y-72487800D01*
X187158873Y-72487800D02*
X208373000Y-72487800D01*
X177127000Y-72729100D02*
X178984877Y-72729100D01*
X181014863Y-72729100D02*
X184254298Y-72729100D01*
X187093701Y-72729100D02*
X208373000Y-72729100D01*
X177127000Y-72970400D02*
X178958626Y-72970400D01*
X181041426Y-72970400D02*
X208373000Y-72970400D01*
X177127000Y-73211700D02*
X178960676Y-73211700D01*
X181039705Y-73211700D02*
X208373000Y-73211700D01*
X177127000Y-73453000D02*
X179060379Y-73453000D01*
X180939509Y-73453000D02*
X184599623Y-73453000D01*
X186748378Y-73453000D02*
X192219623Y-73453000D01*
X194368378Y-73453000D02*
X208373000Y-73453000D01*
X177127000Y-73694300D02*
X179221610Y-73694300D01*
X180778536Y-73694300D02*
X184373153Y-73694300D01*
X186974848Y-73694300D02*
X191993153Y-73694300D01*
X194594848Y-73694300D02*
X208373000Y-73694300D01*
X177127000Y-73935600D02*
X179537585Y-73935600D01*
X180462730Y-73935600D02*
X184237106Y-73935600D01*
X187110895Y-73935600D02*
X191857106Y-73935600D01*
X194730895Y-73935600D02*
X208373000Y-73935600D01*
X177127000Y-74176900D02*
X184189109Y-74176900D01*
X187158892Y-74176900D02*
X191809109Y-74176900D01*
X194778892Y-74176900D02*
X208373000Y-74176900D01*
X177127000Y-74418200D02*
X184190122Y-74418200D01*
X187157877Y-74418200D02*
X191810122Y-74418200D01*
X194777877Y-74418200D02*
X208373000Y-74418200D01*
X177127000Y-74659500D02*
X179407989Y-74659500D01*
X180592514Y-74659500D02*
X184238120Y-74659500D01*
X187109879Y-74659500D02*
X191858120Y-74659500D01*
X194729879Y-74659500D02*
X208373000Y-74659500D01*
X177127000Y-74900800D02*
X179166268Y-74900800D01*
X180833394Y-74900800D02*
X184376560Y-74900800D01*
X186971439Y-74900800D02*
X191996560Y-74900800D01*
X194591439Y-74900800D02*
X208373000Y-74900800D01*
X177127000Y-75142100D02*
X179037612Y-75142100D01*
X180962388Y-75142100D02*
X184607254Y-75142100D01*
X186740745Y-75142100D02*
X192227254Y-75142100D01*
X194360745Y-75142100D02*
X208373000Y-75142100D01*
X177127000Y-75383400D02*
X178958737Y-75383400D01*
X181041536Y-75383400D02*
X208373000Y-75383400D01*
X177127000Y-75624700D02*
X178958526Y-75624700D01*
X181041326Y-75624700D02*
X208373000Y-75624700D01*
X177127000Y-75866000D02*
X179007904Y-75866000D01*
X180992244Y-75866000D02*
X184789691Y-75866000D01*
X186558310Y-75866000D02*
X192409691Y-75866000D01*
X194178310Y-75866000D02*
X208373000Y-75866000D01*
X177127000Y-76107300D02*
X179107607Y-76107300D01*
X180892047Y-76107300D02*
X184458012Y-76107300D01*
X186889989Y-76107300D02*
X192078012Y-76107300D01*
X194509989Y-76107300D02*
X208373000Y-76107300D01*
X177127000Y-76348600D02*
X179335711Y-76348600D01*
X180664036Y-76348600D02*
X184296780Y-76348600D01*
X187051221Y-76348600D02*
X191916780Y-76348600D01*
X194671221Y-76348600D02*
X208373000Y-76348600D01*
X177127000Y-76589900D02*
X184214371Y-76589900D01*
X187133630Y-76589900D02*
X191834371Y-76589900D01*
X194753630Y-76589900D02*
X208373000Y-76589900D01*
X177127000Y-76831200D02*
X184166373Y-76831200D01*
X187181628Y-76831200D02*
X191786373Y-76831200D01*
X194801628Y-76831200D02*
X208373000Y-76831200D01*
X177127000Y-77072500D02*
X179711282Y-77072500D01*
X180289261Y-77072500D02*
X184212858Y-77072500D01*
X187135141Y-77072500D02*
X191832858Y-77072500D01*
X194755141Y-77072500D02*
X208373000Y-77072500D01*
X177127000Y-77313800D02*
X179293490Y-77313800D01*
X180706615Y-77313800D02*
X184291701Y-77313800D01*
X187056298Y-77313800D02*
X191911701Y-77313800D01*
X194676298Y-77313800D02*
X208373000Y-77313800D01*
X177127000Y-77555100D02*
X179090347Y-77555100D01*
X180909913Y-77555100D02*
X184452933Y-77555100D01*
X186895066Y-77555100D02*
X192072933Y-77555100D01*
X194515066Y-77555100D02*
X208373000Y-77555100D01*
X177127000Y-77796400D02*
X178990150Y-77796400D01*
X181009615Y-77796400D02*
X184778316Y-77796400D01*
X186569683Y-77796400D02*
X192398316Y-77796400D01*
X194189683Y-77796400D02*
X208373000Y-77796400D01*
X177127000Y-78037700D02*
X178958637Y-78037700D01*
X181041437Y-78037700D02*
X208373000Y-78037700D01*
X177127000Y-78279000D02*
X178958427Y-78279000D01*
X181041226Y-78279000D02*
X208373000Y-78279000D01*
X177127000Y-78520300D02*
X179055131Y-78520300D01*
X180944782Y-78520300D02*
X184618629Y-78520300D01*
X186729372Y-78520300D02*
X192238629Y-78520300D01*
X194349372Y-78520300D02*
X208373000Y-78520300D01*
X177127000Y-78761600D02*
X179208932Y-78761600D01*
X180791258Y-78761600D02*
X184381639Y-78761600D01*
X186966362Y-78761600D02*
X192001639Y-78761600D01*
X194586362Y-78761600D02*
X208373000Y-78761600D01*
X177127000Y-79002900D02*
X179507000Y-79002900D01*
X180493467Y-79002900D02*
X184239632Y-79002900D01*
X187108369Y-79002900D02*
X191859632Y-79002900D01*
X194728369Y-79002900D02*
X208373000Y-79002900D01*
X177127000Y-79244200D02*
X184191635Y-79244200D01*
X187156366Y-79244200D02*
X191811635Y-79244200D01*
X194776366Y-79244200D02*
X208373000Y-79244200D01*
X177127000Y-79485500D02*
X184187596Y-79485500D01*
X187160403Y-79485500D02*
X191807596Y-79485500D01*
X194780403Y-79485500D02*
X208373000Y-79485500D01*
X177127000Y-79726800D02*
X184235594Y-79726800D01*
X187112405Y-79726800D02*
X191855594Y-79726800D01*
X194732405Y-79726800D02*
X208373000Y-79726800D01*
X177127000Y-79968100D02*
X184368074Y-79968100D01*
X186979925Y-79968100D02*
X191988074Y-79968100D01*
X194599925Y-79968100D02*
X208373000Y-79968100D01*
X177127000Y-80209400D02*
X184588247Y-80209400D01*
X186759752Y-80209400D02*
X192208247Y-80209400D01*
X194379752Y-80209400D02*
X208373000Y-80209400D01*
X177127000Y-80450700D02*
X185226415Y-80450700D01*
X186121584Y-80450700D02*
X192846415Y-80450700D01*
X193741584Y-80450700D02*
X208373000Y-80450700D01*
X177127000Y-80692000D02*
X208373000Y-80692000D01*
X177127000Y-80933300D02*
X192428698Y-80933300D01*
X194159303Y-80933300D02*
X208373000Y-80933300D01*
X177127000Y-81174600D02*
X192086498Y-81174600D01*
X194501503Y-81174600D02*
X208373000Y-81174600D01*
X177127000Y-81415900D02*
X191925266Y-81415900D01*
X194662735Y-81415900D02*
X208373000Y-81415900D01*
X177127000Y-81657200D02*
X191836897Y-81657200D01*
X194751104Y-81657200D02*
X208373000Y-81657200D01*
X177127000Y-81898500D02*
X191788900Y-81898500D01*
X194799101Y-81898500D02*
X208373000Y-81898500D01*
X177127000Y-82139800D02*
X191830332Y-82139800D01*
X194757667Y-82139800D02*
X208373000Y-82139800D01*
X177127000Y-82381100D02*
X191903215Y-82381100D01*
X194684784Y-82381100D02*
X208373000Y-82381100D01*
X177127000Y-82622400D02*
X192064447Y-82622400D01*
X194523552Y-82622400D02*
X208373000Y-82622400D01*
X177127000Y-82863700D02*
X192379309Y-82863700D01*
X194208690Y-82863700D02*
X208373000Y-82863700D01*
X177127000Y-83105000D02*
X208373000Y-83105000D01*
X177127000Y-83346300D02*
X208373000Y-83346300D01*
X177127000Y-83587600D02*
X184637636Y-83587600D01*
X186710365Y-83587600D02*
X192257636Y-83587600D01*
X194330365Y-83587600D02*
X208373000Y-83587600D01*
X177127000Y-83828900D02*
X184390125Y-83828900D01*
X186957876Y-83828900D02*
X192010125Y-83828900D01*
X194577876Y-83828900D02*
X208373000Y-83828900D01*
X177127000Y-84070200D02*
X184242159Y-84070200D01*
X187105842Y-84070200D02*
X191862159Y-84070200D01*
X194725842Y-84070200D02*
X208373000Y-84070200D01*
X177127000Y-84311500D02*
X184194161Y-84311500D01*
X187153840Y-84311500D02*
X191814161Y-84311500D01*
X194773840Y-84311500D02*
X208373000Y-84311500D01*
X177127000Y-84552800D02*
X184185070Y-84552800D01*
X187162929Y-84552800D02*
X191805070Y-84552800D01*
X194782929Y-84552800D02*
X208373000Y-84552800D01*
X177127000Y-84794100D02*
X184233067Y-84794100D01*
X187114932Y-84794100D02*
X191853067Y-84794100D01*
X194734932Y-84794100D02*
X208373000Y-84794100D01*
X177127000Y-85035400D02*
X184359588Y-85035400D01*
X186988411Y-85035400D02*
X191979588Y-85035400D01*
X194608411Y-85035400D02*
X208373000Y-85035400D01*
X177127000Y-85276700D02*
X184569241Y-85276700D01*
X186778758Y-85276700D02*
X192189241Y-85276700D01*
X194398758Y-85276700D02*
X208373000Y-85276700D01*
X177127000Y-85518000D02*
X185162568Y-85518000D01*
X186185431Y-85518000D02*
X192782568Y-85518000D01*
X193805431Y-85518000D02*
X208373000Y-85518000D01*
X177127000Y-85759300D02*
X208373000Y-85759300D01*
X177127000Y-86000600D02*
X184827705Y-86000600D01*
X186520296Y-86000600D02*
X192447705Y-86000600D01*
X194140296Y-86000600D02*
X208373000Y-86000600D01*
X177127000Y-86241900D02*
X184474984Y-86241900D01*
X186873017Y-86241900D02*
X192094984Y-86241900D01*
X194493017Y-86241900D02*
X208373000Y-86241900D01*
X177127000Y-86483200D02*
X184313752Y-86483200D01*
X187034249Y-86483200D02*
X191933752Y-86483200D01*
X194654249Y-86483200D02*
X208373000Y-86483200D01*
X177127000Y-86724500D02*
X184219423Y-86724500D01*
X187128578Y-86724500D02*
X191839423Y-86724500D01*
X194748578Y-86724500D02*
X208373000Y-86724500D01*
X177127000Y-86965800D02*
X184171426Y-86965800D01*
X187176575Y-86965800D02*
X191791426Y-86965800D01*
X194796575Y-86965800D02*
X208373000Y-86965800D01*
X177127000Y-87207100D02*
X184207806Y-87207100D01*
X187140193Y-87207100D02*
X191827806Y-87207100D01*
X194760193Y-87207100D02*
X208373000Y-87207100D01*
X177127000Y-87448400D02*
X184274730Y-87448400D01*
X187073269Y-87448400D02*
X191894730Y-87448400D01*
X194693269Y-87448400D02*
X208373000Y-87448400D01*
X177127000Y-87689700D02*
X184435961Y-87689700D01*
X186912038Y-87689700D02*
X192055961Y-87689700D01*
X194532038Y-87689700D02*
X208373000Y-87689700D01*
X177127000Y-87931000D02*
X184740302Y-87931000D01*
X186607697Y-87931000D02*
X192360302Y-87931000D01*
X194227697Y-87931000D02*
X208373000Y-87931000D01*
X177127000Y-88172300D02*
X208373000Y-88172300D01*
X177127000Y-88413600D02*
X208373000Y-88413600D01*
X177127000Y-88654900D02*
X208373000Y-88654900D01*
X177127000Y-88896200D02*
X208373000Y-88896200D01*
X177127000Y-89137500D02*
X208373000Y-89137500D01*
X177127000Y-89378800D02*
X208373000Y-89378800D01*
X177127000Y-89620100D02*
X208373000Y-89620100D01*
X177127000Y-89861400D02*
X208373000Y-89861400D01*
X177127000Y-90102700D02*
X208373000Y-90102700D01*
X177127000Y-90344000D02*
X208373000Y-90344000D01*
X177127000Y-90585300D02*
X208373000Y-90585300D01*
X177127000Y-90826600D02*
X208373000Y-90826600D01*
X177127000Y-91067900D02*
X208373000Y-91067900D01*
X177127000Y-91309200D02*
X208373000Y-91309200D01*
X177127000Y-91550500D02*
X208373000Y-91550500D01*
X177127000Y-91791800D02*
X186809961Y-91791800D01*
X189190040Y-91791800D02*
X192699564Y-91791800D01*
X193460437Y-91791800D02*
X195239564Y-91791800D01*
X196000437Y-91791800D02*
X208373000Y-91791800D01*
X177127000Y-92033100D02*
X186715637Y-92033100D01*
X189284363Y-92033100D02*
X192244303Y-92033100D01*
X193915698Y-92033100D02*
X194784303Y-92033100D01*
X196455698Y-92033100D02*
X199142080Y-92033100D01*
X200857921Y-92033100D02*
X201487339Y-92033100D01*
X202512662Y-92033100D02*
X208373000Y-92033100D01*
X177127000Y-92274400D02*
X186715637Y-92274400D01*
X189284363Y-92274400D02*
X192031222Y-92274400D01*
X194128779Y-92274400D02*
X194571222Y-92274400D01*
X196668779Y-92274400D02*
X199115127Y-92274400D01*
X200884873Y-92274400D02*
X201265679Y-92274400D01*
X202734322Y-92274400D02*
X208373000Y-92274400D01*
X177127000Y-92515700D02*
X186715637Y-92515700D01*
X189284363Y-92515700D02*
X191872389Y-92515700D01*
X194287612Y-92515700D02*
X194412389Y-92515700D01*
X196827612Y-92515700D02*
X199115127Y-92515700D01*
X200884873Y-92515700D02*
X201162804Y-92515700D01*
X202837197Y-92515700D02*
X208373000Y-92515700D01*
X177127000Y-92757000D02*
X186715637Y-92757000D01*
X189284363Y-92757000D02*
X191824391Y-92757000D01*
X194335610Y-92757000D02*
X194364391Y-92757000D01*
X196875610Y-92757000D02*
X199115127Y-92757000D01*
X200884873Y-92757000D02*
X201120600Y-92757000D01*
X202879400Y-92757000D02*
X208373000Y-92757000D01*
X177127000Y-92998300D02*
X186715637Y-92998300D01*
X189284363Y-92998300D02*
X191776394Y-92998300D01*
X196923607Y-92998300D02*
X199115127Y-92998300D01*
X200884873Y-92998300D02*
X201120600Y-92998300D01*
X202879400Y-92998300D02*
X208373000Y-92998300D01*
X177127000Y-93239600D02*
X181287718Y-93239600D01*
X181632283Y-93239600D02*
X182557718Y-93239600D01*
X182902283Y-93239600D02*
X183386812Y-93239600D01*
X184613189Y-93239600D02*
X186715637Y-93239600D01*
X189284363Y-93239600D02*
X191823714Y-93239600D01*
X194336285Y-93239600D02*
X194363714Y-93239600D01*
X196876285Y-93239600D02*
X199115127Y-93239600D01*
X200884873Y-93239600D02*
X201120600Y-93239600D01*
X202879400Y-93239600D02*
X208373000Y-93239600D01*
X177127000Y-93480900D02*
X180877285Y-93480900D01*
X182042716Y-93480900D02*
X182147285Y-93480900D01*
X184781074Y-93480900D02*
X186715637Y-93480900D01*
X189284363Y-93480900D02*
X191871712Y-93480900D01*
X194288287Y-93480900D02*
X194411712Y-93480900D01*
X196828287Y-93480900D02*
X199115127Y-93480900D01*
X200884873Y-93480900D02*
X201162127Y-93480900D01*
X202837872Y-93480900D02*
X208373000Y-93480900D01*
X177127000Y-93722200D02*
X180732821Y-93722200D01*
X184784873Y-93722200D02*
X186715637Y-93722200D01*
X189284363Y-93722200D02*
X192028949Y-93722200D01*
X194131050Y-93722200D02*
X194568949Y-93722200D01*
X196671050Y-93722200D02*
X199115127Y-93722200D01*
X200884873Y-93722200D02*
X201263406Y-93722200D01*
X202736593Y-93722200D02*
X208373000Y-93722200D01*
X177127000Y-93963500D02*
X180684824Y-93963500D01*
X184784873Y-93963500D02*
X186715637Y-93963500D01*
X189284363Y-93963500D02*
X192239214Y-93963500D01*
X193920785Y-93963500D02*
X194779214Y-93963500D01*
X196460785Y-93963500D02*
X199139808Y-93963500D01*
X200860191Y-93963500D02*
X201482249Y-93963500D01*
X202517750Y-93963500D02*
X208373000Y-93963500D01*
X177127000Y-94204800D02*
X180718299Y-94204800D01*
X184784873Y-94204800D02*
X186804871Y-94204800D01*
X189195128Y-94204800D02*
X192682470Y-94204800D01*
X193477529Y-94204800D02*
X195222470Y-94204800D01*
X196017529Y-94204800D02*
X208373000Y-94204800D01*
X177127000Y-94446100D02*
X180828507Y-94446100D01*
X182091492Y-94446100D02*
X182098507Y-94446100D01*
X184784873Y-94446100D02*
X208373000Y-94446100D01*
X177127000Y-94687400D02*
X181089988Y-94687400D01*
X181830011Y-94687400D02*
X182359988Y-94687400D01*
X183100011Y-94687400D02*
X183289185Y-94687400D01*
X184710814Y-94687400D02*
X208373000Y-94687400D01*
X177127000Y-94928700D02*
X208373000Y-94928700D01*
X177127000Y-95170000D02*
X208373000Y-95170000D01*
X177127000Y-95411300D02*
X208373000Y-95411300D01*
X177127000Y-95652600D02*
X208373000Y-95652600D01*
X177127000Y-95893900D02*
X208373000Y-95893900D01*
X177127000Y-96135200D02*
X208373000Y-96135200D01*
X208373000Y-68627000D02*
X208373000Y-96373000D01*
X208131700Y-68627000D02*
X208131700Y-96373000D01*
X207890400Y-68627000D02*
X207890400Y-96373000D01*
X207649100Y-68627000D02*
X207649100Y-96373000D01*
X207407800Y-68627000D02*
X207407800Y-96373000D01*
X207166500Y-68627000D02*
X207166500Y-96373000D01*
X206925200Y-68627000D02*
X206925200Y-96373000D01*
X206683900Y-68627000D02*
X206683900Y-96373000D01*
X206442600Y-68627000D02*
X206442600Y-96373000D01*
X206201300Y-68627000D02*
X206201300Y-96373000D01*
X205960000Y-68627000D02*
X205960000Y-96373000D01*
X205718700Y-68627000D02*
X205718700Y-96373000D01*
X205477400Y-68627000D02*
X205477400Y-96373000D01*
X205236100Y-68627000D02*
X205236100Y-96373000D01*
X204994800Y-68627000D02*
X204994800Y-96373000D01*
X204753500Y-68627000D02*
X204753500Y-96373000D01*
X204512200Y-68627000D02*
X204512200Y-96373000D01*
X204270900Y-68627000D02*
X204270900Y-96373000D01*
X204029600Y-68627000D02*
X204029600Y-96373000D01*
X203788300Y-68627000D02*
X203788300Y-96373000D01*
X203547000Y-68627000D02*
X203547000Y-96373000D01*
X203305700Y-68627000D02*
X203305700Y-96373000D01*
X203064400Y-68627000D02*
X203064400Y-96373000D01*
X202823100Y-68627000D02*
X202823100Y-92444834D01*
X202823100Y-93555167D02*
X202823100Y-96373000D01*
X202581800Y-68627000D02*
X202581800Y-92079297D01*
X202581800Y-93920704D02*
X202581800Y-96373000D01*
X202340500Y-68627000D02*
X202340500Y-91918066D01*
X202340500Y-94081935D02*
X202340500Y-96373000D01*
X202099200Y-68627000D02*
X202099200Y-91868206D01*
X202099200Y-94131795D02*
X202099200Y-96373000D01*
X201857900Y-68627000D02*
X201857900Y-91876739D01*
X201857900Y-94123260D02*
X201857900Y-96373000D01*
X201616600Y-68627000D02*
X201616600Y-91946730D01*
X201616600Y-94053269D02*
X201616600Y-96373000D01*
X201375300Y-68627000D02*
X201375300Y-92110339D01*
X201375300Y-93889660D02*
X201375300Y-96373000D01*
X201134000Y-68627000D02*
X201134000Y-92660507D01*
X201134000Y-93339492D02*
X201134000Y-96373000D01*
X200892700Y-68627000D02*
X200892700Y-92727874D01*
X200892700Y-92727874D02*
X200892700Y-96373000D01*
X200651400Y-68627000D02*
X200651400Y-91875352D01*
X200651400Y-94124649D02*
X200651400Y-96373000D01*
X200410100Y-68627000D02*
X200410100Y-91865127D01*
X200410100Y-94134873D02*
X200410100Y-96373000D01*
X200168800Y-68627000D02*
X200168800Y-91865127D01*
X200168800Y-94134873D02*
X200168800Y-96373000D01*
X199927500Y-68627000D02*
X199927500Y-91865127D01*
X199927500Y-94134873D02*
X199927500Y-96373000D01*
X199686200Y-68627000D02*
X199686200Y-91865127D01*
X199686200Y-94134873D02*
X199686200Y-96373000D01*
X199444900Y-68627000D02*
X199444900Y-91865127D01*
X199444900Y-94134873D02*
X199444900Y-96373000D01*
X199203600Y-68627000D02*
X199203600Y-91945199D01*
X199203600Y-94054800D02*
X199203600Y-96373000D01*
X198962300Y-68627000D02*
X198962300Y-92150000D01*
X198962300Y-92150000D02*
X198962300Y-96373000D01*
X198721000Y-68627000D02*
X198721000Y-92150000D01*
X198721000Y-92150000D02*
X198721000Y-96373000D01*
X198479700Y-68627000D02*
X198479700Y-92150000D01*
X198479700Y-92150000D02*
X198479700Y-96373000D01*
X198238400Y-68627000D02*
X198238400Y-92150000D01*
X198238400Y-92150000D02*
X198238400Y-96373000D01*
X197997100Y-68627000D02*
X197997100Y-92150000D01*
X197997100Y-92150000D02*
X197997100Y-96373000D01*
X197755800Y-68627000D02*
X197755800Y-92150000D01*
X197755800Y-92150000D02*
X197755800Y-96373000D01*
X197514500Y-68627000D02*
X197514500Y-92150000D01*
X197514500Y-92150000D02*
X197514500Y-96373000D01*
X197273200Y-68627000D02*
X197273200Y-92150000D01*
X197273200Y-92150000D02*
X197273200Y-96373000D01*
X197031900Y-68627000D02*
X197031900Y-92150000D01*
X197031900Y-92150000D02*
X197031900Y-96373000D01*
X196790600Y-68627000D02*
X196790600Y-92150000D01*
X196790600Y-92150000D02*
X196790600Y-92456720D01*
X196790600Y-93543281D02*
X196790600Y-96373000D01*
X196549300Y-68627000D02*
X196549300Y-92095644D01*
X196549300Y-93904357D02*
X196549300Y-96373000D01*
X196308000Y-68627000D02*
X196308000Y-91934413D01*
X196308000Y-94065588D02*
X196308000Y-96373000D01*
X196066700Y-68627000D02*
X196066700Y-91804981D01*
X196066700Y-94195020D02*
X196066700Y-96373000D01*
X195825400Y-68627000D02*
X195825400Y-91756983D01*
X195825400Y-94243018D02*
X195825400Y-96373000D01*
X195584100Y-68627000D02*
X195584100Y-91723267D01*
X195584100Y-94276732D02*
X195584100Y-96373000D01*
X195342800Y-68627000D02*
X195342800Y-91771264D01*
X195342800Y-94228735D02*
X195342800Y-96373000D01*
X195101500Y-68627000D02*
X195101500Y-91821156D01*
X195101500Y-94178843D02*
X195101500Y-96373000D01*
X194860200Y-68627000D02*
X194860200Y-91982387D01*
X194860200Y-94017612D02*
X194860200Y-96373000D01*
X194618900Y-68627000D02*
X194618900Y-73730298D01*
X194618900Y-74859703D02*
X194618900Y-76270298D01*
X194618900Y-77399703D02*
X194618900Y-78810298D01*
X194618900Y-79939703D02*
X194618900Y-81350298D01*
X194618900Y-82479703D02*
X194618900Y-83890298D01*
X194618900Y-85019703D02*
X194618900Y-86430298D01*
X194618900Y-87559703D02*
X194618900Y-92203044D01*
X194618900Y-93796955D02*
X194618900Y-96373000D01*
X194377600Y-68627000D02*
X194377600Y-73459163D01*
X194377600Y-75130838D02*
X194377600Y-75999163D01*
X194377600Y-77670838D02*
X194377600Y-78539163D01*
X194377600Y-80210838D02*
X194377600Y-81079163D01*
X194377600Y-82750838D02*
X194377600Y-83619163D01*
X194377600Y-85290838D02*
X194377600Y-86159163D01*
X194377600Y-87830838D02*
X194377600Y-92690593D01*
X194377600Y-93309406D02*
X194377600Y-96373000D01*
X194136300Y-68627000D02*
X194136300Y-73297931D01*
X194136300Y-75292070D02*
X194136300Y-75837931D01*
X194136300Y-77832070D02*
X194136300Y-78377931D01*
X194136300Y-80372070D02*
X194136300Y-80917931D01*
X194136300Y-82912070D02*
X194136300Y-83457931D01*
X194136300Y-85452070D02*
X194136300Y-85997931D01*
X194136300Y-87992070D02*
X194136300Y-92285658D01*
X194136300Y-93714343D02*
X194136300Y-96373000D01*
X193895000Y-68627000D02*
X193895000Y-73249817D01*
X193895000Y-75340184D02*
X193895000Y-75789817D01*
X193895000Y-77880184D02*
X193895000Y-78329817D01*
X193895000Y-80420184D02*
X193895000Y-80869817D01*
X193895000Y-82960184D02*
X193895000Y-83409817D01*
X193895000Y-85500184D02*
X193895000Y-85949817D01*
X193895000Y-88040184D02*
X193895000Y-92019271D01*
X193895000Y-93980730D02*
X193895000Y-96373000D01*
X193653700Y-68627000D02*
X193653700Y-73215600D01*
X193653700Y-75374400D02*
X193653700Y-75755600D01*
X193653700Y-77914400D02*
X193653700Y-78295600D01*
X193653700Y-80454400D02*
X193653700Y-80835600D01*
X193653700Y-82994400D02*
X193653700Y-83375600D01*
X193653700Y-85534400D02*
X193653700Y-85915600D01*
X193653700Y-88074400D02*
X193653700Y-91858040D01*
X193653700Y-94141961D02*
X193653700Y-96373000D01*
X193412400Y-68627000D02*
X193412400Y-73215600D01*
X193412400Y-75374400D02*
X193412400Y-75755600D01*
X193412400Y-77914400D02*
X193412400Y-78295600D01*
X193412400Y-80454400D02*
X193412400Y-80835600D01*
X193412400Y-82994400D02*
X193412400Y-83375600D01*
X193412400Y-85534400D02*
X193412400Y-85915600D01*
X193412400Y-88074400D02*
X193412400Y-91782245D01*
X193412400Y-94217756D02*
X193412400Y-96373000D01*
X193171100Y-68627000D02*
X193171100Y-73215600D01*
X193171100Y-75374400D02*
X193171100Y-75755600D01*
X193171100Y-77914400D02*
X193171100Y-78295600D01*
X193171100Y-80454400D02*
X193171100Y-80835600D01*
X193171100Y-82994400D02*
X193171100Y-83375600D01*
X193171100Y-85534400D02*
X193171100Y-85915600D01*
X193171100Y-88074400D02*
X193171100Y-91734248D01*
X193171100Y-94265753D02*
X193171100Y-96373000D01*
X192929800Y-68627000D02*
X192929800Y-73215600D01*
X192929800Y-75374400D02*
X192929800Y-75755600D01*
X192929800Y-77914400D02*
X192929800Y-78295600D01*
X192929800Y-80454400D02*
X192929800Y-80835600D01*
X192929800Y-82994400D02*
X192929800Y-83375600D01*
X192929800Y-85534400D02*
X192929800Y-85915600D01*
X192929800Y-88074400D02*
X192929800Y-91746002D01*
X192929800Y-94253997D02*
X192929800Y-96373000D01*
X192688500Y-68627000D02*
X192688500Y-73250711D01*
X192688500Y-75339288D02*
X192688500Y-75790711D01*
X192688500Y-77879288D02*
X192688500Y-78330711D01*
X192688500Y-80419288D02*
X192688500Y-80870711D01*
X192688500Y-82959288D02*
X192688500Y-83410711D01*
X192688500Y-85499288D02*
X192688500Y-85950711D01*
X192688500Y-88039288D02*
X192688500Y-91794000D01*
X192688500Y-94205999D02*
X192688500Y-96373000D01*
X192447200Y-68627000D02*
X192447200Y-73300937D01*
X192447200Y-75289062D02*
X192447200Y-75840937D01*
X192447200Y-77829062D02*
X192447200Y-78380937D01*
X192447200Y-80369062D02*
X192447200Y-80920937D01*
X192447200Y-82909062D02*
X192447200Y-83460937D01*
X192447200Y-85449062D02*
X192447200Y-86000937D01*
X192447200Y-87989062D02*
X192447200Y-91897528D01*
X192447200Y-94102471D02*
X192447200Y-96373000D01*
X192205900Y-68627000D02*
X192205900Y-73462168D01*
X192205900Y-75127831D02*
X192205900Y-76002168D01*
X192205900Y-77667831D02*
X192205900Y-78542168D01*
X192205900Y-80207831D02*
X192205900Y-81082168D01*
X192205900Y-82747831D02*
X192205900Y-83622168D01*
X192205900Y-85287831D02*
X192205900Y-86162168D01*
X192205900Y-87827831D02*
X192205900Y-92058759D01*
X192205900Y-93941240D02*
X192205900Y-96373000D01*
X191964600Y-68627000D02*
X191964600Y-73737032D01*
X191964600Y-74852967D02*
X191964600Y-76277032D01*
X191964600Y-77392967D02*
X191964600Y-78817032D01*
X191964600Y-79932967D02*
X191964600Y-81357032D01*
X191964600Y-82472967D02*
X191964600Y-83897032D01*
X191964600Y-85012967D02*
X191964600Y-86437032D01*
X191964600Y-87552967D02*
X191964600Y-92374106D01*
X191964600Y-93625893D02*
X191964600Y-96373000D01*
X191723300Y-68627000D02*
X191723300Y-74295000D01*
X191723300Y-74295000D02*
X191723300Y-76835000D01*
X191723300Y-76835000D02*
X191723300Y-79375000D01*
X191723300Y-79375000D02*
X191723300Y-81915000D01*
X191723300Y-81915000D02*
X191723300Y-84455000D01*
X191723300Y-84455000D02*
X191723300Y-86995000D01*
X191723300Y-86995000D02*
X191723300Y-93000000D01*
X191723300Y-93000000D02*
X191723300Y-96373000D01*
X191482000Y-68627000D02*
X191482000Y-74295000D01*
X191482000Y-74295000D02*
X191482000Y-76835000D01*
X191482000Y-76835000D02*
X191482000Y-79375000D01*
X191482000Y-79375000D02*
X191482000Y-81915000D01*
X191482000Y-81915000D02*
X191482000Y-84455000D01*
X191482000Y-84455000D02*
X191482000Y-86995000D01*
X191482000Y-86995000D02*
X191482000Y-93000000D01*
X191482000Y-93000000D02*
X191482000Y-96373000D01*
X191240700Y-68627000D02*
X191240700Y-74295000D01*
X191240700Y-74295000D02*
X191240700Y-76835000D01*
X191240700Y-76835000D02*
X191240700Y-79375000D01*
X191240700Y-79375000D02*
X191240700Y-81915000D01*
X191240700Y-81915000D02*
X191240700Y-84455000D01*
X191240700Y-84455000D02*
X191240700Y-86995000D01*
X191240700Y-86995000D02*
X191240700Y-93000000D01*
X191240700Y-93000000D02*
X191240700Y-96373000D01*
X190999400Y-68627000D02*
X190999400Y-74295000D01*
X190999400Y-74295000D02*
X190999400Y-76835000D01*
X190999400Y-76835000D02*
X190999400Y-79375000D01*
X190999400Y-79375000D02*
X190999400Y-81915000D01*
X190999400Y-81915000D02*
X190999400Y-84455000D01*
X190999400Y-84455000D02*
X190999400Y-86995000D01*
X190999400Y-86995000D02*
X190999400Y-93000000D01*
X190999400Y-93000000D02*
X190999400Y-96373000D01*
X190758100Y-68627000D02*
X190758100Y-74295000D01*
X190758100Y-74295000D02*
X190758100Y-76835000D01*
X190758100Y-76835000D02*
X190758100Y-79375000D01*
X190758100Y-79375000D02*
X190758100Y-81915000D01*
X190758100Y-81915000D02*
X190758100Y-84455000D01*
X190758100Y-84455000D02*
X190758100Y-86995000D01*
X190758100Y-86995000D02*
X190758100Y-93000000D01*
X190758100Y-93000000D02*
X190758100Y-96373000D01*
X190516800Y-68627000D02*
X190516800Y-74295000D01*
X190516800Y-74295000D02*
X190516800Y-76835000D01*
X190516800Y-76835000D02*
X190516800Y-79375000D01*
X190516800Y-79375000D02*
X190516800Y-81915000D01*
X190516800Y-81915000D02*
X190516800Y-84455000D01*
X190516800Y-84455000D02*
X190516800Y-86995000D01*
X190516800Y-86995000D02*
X190516800Y-93000000D01*
X190516800Y-93000000D02*
X190516800Y-96373000D01*
X190275500Y-68627000D02*
X190275500Y-74295000D01*
X190275500Y-74295000D02*
X190275500Y-76835000D01*
X190275500Y-76835000D02*
X190275500Y-79375000D01*
X190275500Y-79375000D02*
X190275500Y-81915000D01*
X190275500Y-81915000D02*
X190275500Y-84455000D01*
X190275500Y-84455000D02*
X190275500Y-86995000D01*
X190275500Y-86995000D02*
X190275500Y-93000000D01*
X190275500Y-93000000D02*
X190275500Y-96373000D01*
X190034200Y-68627000D02*
X190034200Y-74295000D01*
X190034200Y-74295000D02*
X190034200Y-76835000D01*
X190034200Y-76835000D02*
X190034200Y-79375000D01*
X190034200Y-79375000D02*
X190034200Y-81915000D01*
X190034200Y-81915000D02*
X190034200Y-84455000D01*
X190034200Y-84455000D02*
X190034200Y-86995000D01*
X190034200Y-86995000D02*
X190034200Y-93000000D01*
X190034200Y-93000000D02*
X190034200Y-96373000D01*
X189792900Y-68627000D02*
X189792900Y-74295000D01*
X189792900Y-74295000D02*
X189792900Y-76835000D01*
X189792900Y-76835000D02*
X189792900Y-79375000D01*
X189792900Y-79375000D02*
X189792900Y-81915000D01*
X189792900Y-81915000D02*
X189792900Y-84455000D01*
X189792900Y-84455000D02*
X189792900Y-86995000D01*
X189792900Y-86995000D02*
X189792900Y-93000000D01*
X189792900Y-93000000D02*
X189792900Y-96373000D01*
X189551600Y-68627000D02*
X189551600Y-74295000D01*
X189551600Y-74295000D02*
X189551600Y-76835000D01*
X189551600Y-76835000D02*
X189551600Y-79375000D01*
X189551600Y-79375000D02*
X189551600Y-81915000D01*
X189551600Y-81915000D02*
X189551600Y-84455000D01*
X189551600Y-84455000D02*
X189551600Y-86995000D01*
X189551600Y-86995000D02*
X189551600Y-93000000D01*
X189551600Y-93000000D02*
X189551600Y-96373000D01*
X189310300Y-68627000D02*
X189310300Y-74295000D01*
X189310300Y-74295000D02*
X189310300Y-76835000D01*
X189310300Y-76835000D02*
X189310300Y-79375000D01*
X189310300Y-79375000D02*
X189310300Y-81915000D01*
X189310300Y-81915000D02*
X189310300Y-84455000D01*
X189310300Y-84455000D02*
X189310300Y-86995000D01*
X189310300Y-86995000D02*
X189310300Y-93000000D01*
X189310300Y-93000000D02*
X189310300Y-96373000D01*
X189069000Y-68627000D02*
X189069000Y-74295000D01*
X189069000Y-74295000D02*
X189069000Y-76835000D01*
X189069000Y-76835000D02*
X189069000Y-79375000D01*
X189069000Y-79375000D02*
X189069000Y-81915000D01*
X189069000Y-81915000D02*
X189069000Y-84455000D01*
X189069000Y-84455000D02*
X189069000Y-86995000D01*
X189069000Y-86995000D02*
X189069000Y-91729464D01*
X189069000Y-94270537D02*
X189069000Y-96373000D01*
X188827700Y-68627000D02*
X188827700Y-74295000D01*
X188827700Y-74295000D02*
X188827700Y-76835000D01*
X188827700Y-76835000D02*
X188827700Y-79375000D01*
X188827700Y-79375000D02*
X188827700Y-81915000D01*
X188827700Y-81915000D02*
X188827700Y-84455000D01*
X188827700Y-84455000D02*
X188827700Y-86995000D01*
X188827700Y-86995000D02*
X188827700Y-91715637D01*
X188827700Y-94284363D02*
X188827700Y-96373000D01*
X188586400Y-68627000D02*
X188586400Y-74295000D01*
X188586400Y-74295000D02*
X188586400Y-76835000D01*
X188586400Y-76835000D02*
X188586400Y-79375000D01*
X188586400Y-79375000D02*
X188586400Y-81915000D01*
X188586400Y-81915000D02*
X188586400Y-84455000D01*
X188586400Y-84455000D02*
X188586400Y-86995000D01*
X188586400Y-86995000D02*
X188586400Y-91715637D01*
X188586400Y-94284363D02*
X188586400Y-96373000D01*
X188345100Y-68627000D02*
X188345100Y-74295000D01*
X188345100Y-74295000D02*
X188345100Y-76835000D01*
X188345100Y-76835000D02*
X188345100Y-79375000D01*
X188345100Y-79375000D02*
X188345100Y-81915000D01*
X188345100Y-81915000D02*
X188345100Y-84455000D01*
X188345100Y-84455000D02*
X188345100Y-86995000D01*
X188345100Y-86995000D02*
X188345100Y-91715637D01*
X188345100Y-94284363D02*
X188345100Y-96373000D01*
X188103800Y-68627000D02*
X188103800Y-74295000D01*
X188103800Y-74295000D02*
X188103800Y-76835000D01*
X188103800Y-76835000D02*
X188103800Y-79375000D01*
X188103800Y-79375000D02*
X188103800Y-81915000D01*
X188103800Y-81915000D02*
X188103800Y-84455000D01*
X188103800Y-84455000D02*
X188103800Y-86995000D01*
X188103800Y-86995000D02*
X188103800Y-91715637D01*
X188103800Y-94284363D02*
X188103800Y-96373000D01*
X187862500Y-68627000D02*
X187862500Y-74295000D01*
X187862500Y-74295000D02*
X187862500Y-76835000D01*
X187862500Y-76835000D02*
X187862500Y-79375000D01*
X187862500Y-79375000D02*
X187862500Y-81915000D01*
X187862500Y-81915000D02*
X187862500Y-84455000D01*
X187862500Y-84455000D02*
X187862500Y-86995000D01*
X187862500Y-86995000D02*
X187862500Y-91715637D01*
X187862500Y-94284363D02*
X187862500Y-96373000D01*
X187621200Y-68627000D02*
X187621200Y-74295000D01*
X187621200Y-74295000D02*
X187621200Y-76835000D01*
X187621200Y-76835000D02*
X187621200Y-79375000D01*
X187621200Y-79375000D02*
X187621200Y-81915000D01*
X187621200Y-81915000D02*
X187621200Y-84455000D01*
X187621200Y-84455000D02*
X187621200Y-86995000D01*
X187621200Y-86995000D02*
X187621200Y-91715637D01*
X187621200Y-94284363D02*
X187621200Y-96373000D01*
X187379900Y-68627000D02*
X187379900Y-74295000D01*
X187379900Y-74295000D02*
X187379900Y-76835000D01*
X187379900Y-76835000D02*
X187379900Y-79375000D01*
X187379900Y-79375000D02*
X187379900Y-81915000D01*
X187379900Y-81915000D02*
X187379900Y-84455000D01*
X187379900Y-84455000D02*
X187379900Y-86995000D01*
X187379900Y-86995000D02*
X187379900Y-91715637D01*
X187379900Y-94284363D02*
X187379900Y-96373000D01*
X187138600Y-68627000D02*
X187138600Y-70853083D01*
X187138600Y-72656918D02*
X187138600Y-74074888D01*
X187138600Y-74515113D02*
X187138600Y-76614888D01*
X187138600Y-77055113D02*
X187138600Y-79154888D01*
X187138600Y-79595113D02*
X187138600Y-81915000D01*
X187138600Y-81915000D02*
X187138600Y-84234888D01*
X187138600Y-84675113D02*
X187138600Y-86774888D01*
X187138600Y-87215113D02*
X187138600Y-91715637D01*
X187138600Y-94284363D02*
X187138600Y-96373000D01*
X186897300Y-68627000D02*
X186897300Y-70674762D01*
X186897300Y-72835239D02*
X186897300Y-73578243D01*
X186897300Y-75011758D02*
X186897300Y-76118243D01*
X186897300Y-77551758D02*
X186897300Y-78658243D01*
X186897300Y-80091758D02*
X186897300Y-81915000D01*
X186897300Y-81915000D02*
X186897300Y-83738243D01*
X186897300Y-85171758D02*
X186897300Y-86278243D01*
X186897300Y-87711758D02*
X186897300Y-91736167D01*
X186897300Y-94263832D02*
X186897300Y-96373000D01*
X186656000Y-68627000D02*
X186656000Y-70670127D01*
X186656000Y-72839873D02*
X186656000Y-73391276D01*
X186656000Y-75198725D02*
X186656000Y-75931276D01*
X186656000Y-77738725D02*
X186656000Y-78471276D01*
X186656000Y-80278725D02*
X186656000Y-81915000D01*
X186656000Y-81915000D02*
X186656000Y-83551276D01*
X186656000Y-85358725D02*
X186656000Y-86091276D01*
X186656000Y-87898725D02*
X186656000Y-92000510D01*
X186656000Y-92000510D02*
X186656000Y-96373000D01*
X186414700Y-68627000D02*
X186414700Y-70670127D01*
X186414700Y-72839873D02*
X186414700Y-73277605D01*
X186414700Y-75312396D02*
X186414700Y-75817605D01*
X186414700Y-77852396D02*
X186414700Y-78357605D01*
X186414700Y-80392396D02*
X186414700Y-81915000D01*
X186414700Y-81915000D02*
X186414700Y-83437605D01*
X186414700Y-85472396D02*
X186414700Y-85977605D01*
X186414700Y-88012396D02*
X186414700Y-92000510D01*
X186414700Y-92000510D02*
X186414700Y-96373000D01*
X186173400Y-68627000D02*
X186173400Y-70670127D01*
X186173400Y-72839873D02*
X186173400Y-73229607D01*
X186173400Y-75360394D02*
X186173400Y-75769607D01*
X186173400Y-77900394D02*
X186173400Y-78309607D01*
X186173400Y-80440394D02*
X186173400Y-81915000D01*
X186173400Y-81915000D02*
X186173400Y-83389607D01*
X186173400Y-85520394D02*
X186173400Y-85929607D01*
X186173400Y-88060394D02*
X186173400Y-92000510D01*
X186173400Y-92000510D02*
X186173400Y-96373000D01*
X185932100Y-68627000D02*
X185932100Y-70670127D01*
X185932100Y-72839873D02*
X185932100Y-73215600D01*
X185932100Y-75374400D02*
X185932100Y-75755600D01*
X185932100Y-77914400D02*
X185932100Y-78295600D01*
X185932100Y-80454400D02*
X185932100Y-81915000D01*
X185932100Y-81915000D02*
X185932100Y-83375600D01*
X185932100Y-85534400D02*
X185932100Y-85915600D01*
X185932100Y-88074400D02*
X185932100Y-92000510D01*
X185932100Y-92000510D02*
X185932100Y-96373000D01*
X185690800Y-68627000D02*
X185690800Y-70670127D01*
X185690800Y-72839873D02*
X185690800Y-73215600D01*
X185690800Y-75374400D02*
X185690800Y-75755600D01*
X185690800Y-77914400D02*
X185690800Y-78295600D01*
X185690800Y-80454400D02*
X185690800Y-81915000D01*
X185690800Y-81915000D02*
X185690800Y-83375600D01*
X185690800Y-85534400D02*
X185690800Y-85915600D01*
X185690800Y-88074400D02*
X185690800Y-92000510D01*
X185690800Y-92000510D02*
X185690800Y-96373000D01*
X185449500Y-68627000D02*
X185449500Y-70670127D01*
X185449500Y-72839873D02*
X185449500Y-73215600D01*
X185449500Y-75374400D02*
X185449500Y-75755600D01*
X185449500Y-77914400D02*
X185449500Y-78295600D01*
X185449500Y-80454400D02*
X185449500Y-81915000D01*
X185449500Y-81915000D02*
X185449500Y-83375600D01*
X185449500Y-85534400D02*
X185449500Y-85915600D01*
X185449500Y-88074400D02*
X185449500Y-92000510D01*
X185449500Y-92000510D02*
X185449500Y-96373000D01*
X185208200Y-68627000D02*
X185208200Y-70670127D01*
X185208200Y-72839873D02*
X185208200Y-73222923D01*
X185208200Y-75367076D02*
X185208200Y-75762923D01*
X185208200Y-77907076D02*
X185208200Y-78302923D01*
X185208200Y-80447076D02*
X185208200Y-81915000D01*
X185208200Y-81915000D02*
X185208200Y-83382923D01*
X185208200Y-85527076D02*
X185208200Y-85922923D01*
X185208200Y-88067076D02*
X185208200Y-92000510D01*
X185208200Y-92000510D02*
X185208200Y-96373000D01*
X184966900Y-68627000D02*
X184966900Y-70670127D01*
X184966900Y-72839873D02*
X184966900Y-73270920D01*
X184966900Y-75319079D02*
X184966900Y-75810920D01*
X184966900Y-77859079D02*
X184966900Y-78350920D01*
X184966900Y-80399079D02*
X184966900Y-81915000D01*
X184966900Y-81915000D02*
X184966900Y-83430920D01*
X184966900Y-85479079D02*
X184966900Y-85970920D01*
X184966900Y-88019079D02*
X184966900Y-92000510D01*
X184966900Y-92000510D02*
X184966900Y-96373000D01*
X184725600Y-68627000D02*
X184725600Y-70670127D01*
X184725600Y-72839873D02*
X184725600Y-73368824D01*
X184725600Y-75221175D02*
X184725600Y-75908824D01*
X184725600Y-77761175D02*
X184725600Y-78448824D01*
X184725600Y-80301175D02*
X184725600Y-81915000D01*
X184725600Y-81915000D02*
X184725600Y-83528824D01*
X184725600Y-85381175D02*
X184725600Y-86068824D01*
X184725600Y-87921175D02*
X184725600Y-92000510D01*
X184725600Y-92000510D02*
X184725600Y-93334729D01*
X184725600Y-94665272D02*
X184725600Y-96373000D01*
X184484300Y-68627000D02*
X184484300Y-70670127D01*
X184484300Y-72839873D02*
X184484300Y-73530055D01*
X184484300Y-75059944D02*
X184484300Y-76070055D01*
X184484300Y-77599944D02*
X184484300Y-78610055D01*
X184484300Y-80139944D02*
X184484300Y-81915000D01*
X184484300Y-81915000D02*
X184484300Y-83690055D01*
X184484300Y-85219944D02*
X184484300Y-86230055D01*
X184484300Y-87759944D02*
X184484300Y-92000510D01*
X184484300Y-92000510D02*
X184484300Y-93215127D01*
X184484300Y-94784873D02*
X184484300Y-96373000D01*
X184243000Y-68627000D02*
X184243000Y-70797810D01*
X184243000Y-72712189D02*
X184243000Y-73905967D01*
X184243000Y-74684032D02*
X184243000Y-76445967D01*
X184243000Y-77224032D02*
X184243000Y-78985967D01*
X184243000Y-79764032D02*
X184243000Y-81915000D01*
X184243000Y-81915000D02*
X184243000Y-84065967D01*
X184243000Y-84844032D02*
X184243000Y-86605967D01*
X184243000Y-87384032D02*
X184243000Y-92000510D01*
X184243000Y-92000510D02*
X184243000Y-93215127D01*
X184243000Y-94784873D02*
X184243000Y-96373000D01*
X184001700Y-68627000D02*
X184001700Y-70955000D01*
X184001700Y-70955000D02*
X184001700Y-74295000D01*
X184001700Y-74295000D02*
X184001700Y-76835000D01*
X184001700Y-76835000D02*
X184001700Y-79375000D01*
X184001700Y-79375000D02*
X184001700Y-81915000D01*
X184001700Y-81915000D02*
X184001700Y-84455000D01*
X184001700Y-84455000D02*
X184001700Y-86995000D01*
X184001700Y-86995000D02*
X184001700Y-92000510D01*
X184001700Y-92000510D02*
X184001700Y-93215127D01*
X184001700Y-94784873D02*
X184001700Y-96373000D01*
X183760400Y-68627000D02*
X183760400Y-70955000D01*
X183760400Y-70955000D02*
X183760400Y-74295000D01*
X183760400Y-74295000D02*
X183760400Y-76835000D01*
X183760400Y-76835000D02*
X183760400Y-79375000D01*
X183760400Y-79375000D02*
X183760400Y-81915000D01*
X183760400Y-81915000D02*
X183760400Y-84455000D01*
X183760400Y-84455000D02*
X183760400Y-86995000D01*
X183760400Y-86995000D02*
X183760400Y-92000510D01*
X183760400Y-92000510D02*
X183760400Y-93215127D01*
X183760400Y-94784873D02*
X183760400Y-96373000D01*
X183519100Y-68627000D02*
X183519100Y-70955000D01*
X183519100Y-70955000D02*
X183519100Y-74295000D01*
X183519100Y-74295000D02*
X183519100Y-76835000D01*
X183519100Y-76835000D02*
X183519100Y-79375000D01*
X183519100Y-79375000D02*
X183519100Y-81915000D01*
X183519100Y-81915000D02*
X183519100Y-84455000D01*
X183519100Y-84455000D02*
X183519100Y-86995000D01*
X183519100Y-86995000D02*
X183519100Y-92000510D01*
X183519100Y-92000510D02*
X183519100Y-93215127D01*
X183519100Y-94784873D02*
X183519100Y-96373000D01*
X183277800Y-68627000D02*
X183277800Y-70955000D01*
X183277800Y-70955000D02*
X183277800Y-74295000D01*
X183277800Y-74295000D02*
X183277800Y-76835000D01*
X183277800Y-76835000D02*
X183277800Y-79375000D01*
X183277800Y-79375000D02*
X183277800Y-81915000D01*
X183277800Y-81915000D02*
X183277800Y-84455000D01*
X183277800Y-84455000D02*
X183277800Y-86995000D01*
X183277800Y-86995000D02*
X183277800Y-92000510D01*
X183277800Y-92000510D02*
X183277800Y-93329640D01*
X183277800Y-94670359D02*
X183277800Y-96373000D01*
X183036500Y-68627000D02*
X183036500Y-70955000D01*
X183036500Y-70955000D02*
X183036500Y-74295000D01*
X183036500Y-74295000D02*
X183036500Y-76835000D01*
X183036500Y-76835000D02*
X183036500Y-79375000D01*
X183036500Y-79375000D02*
X183036500Y-81915000D01*
X183036500Y-81915000D02*
X183036500Y-84455000D01*
X183036500Y-84455000D02*
X183036500Y-86995000D01*
X183036500Y-86995000D02*
X183036500Y-92000510D01*
X183036500Y-92000510D02*
X183036500Y-93270163D01*
X183036500Y-94729838D02*
X183036500Y-96373000D01*
X182795200Y-68627000D02*
X182795200Y-70955000D01*
X182795200Y-70955000D02*
X182795200Y-74295000D01*
X182795200Y-74295000D02*
X182795200Y-76835000D01*
X182795200Y-76835000D02*
X182795200Y-79375000D01*
X182795200Y-79375000D02*
X182795200Y-81915000D01*
X182795200Y-81915000D02*
X182795200Y-84455000D01*
X182795200Y-84455000D02*
X182795200Y-86995000D01*
X182795200Y-86995000D02*
X182795200Y-92000510D01*
X182795200Y-92000510D02*
X182795200Y-93218301D01*
X182795200Y-94781700D02*
X182795200Y-96373000D01*
X182553900Y-68627000D02*
X182553900Y-70955000D01*
X182553900Y-70955000D02*
X182553900Y-74295000D01*
X182553900Y-74295000D02*
X182553900Y-76835000D01*
X182553900Y-76835000D02*
X182553900Y-79375000D01*
X182553900Y-79375000D02*
X182553900Y-81915000D01*
X182553900Y-81915000D02*
X182553900Y-84455000D01*
X182553900Y-84455000D02*
X182553900Y-86995000D01*
X182553900Y-86995000D02*
X182553900Y-92000510D01*
X182553900Y-92000510D02*
X182553900Y-93240359D01*
X182553900Y-94759640D02*
X182553900Y-96373000D01*
X182312600Y-68627000D02*
X182312600Y-70955000D01*
X182312600Y-70955000D02*
X182312600Y-74295000D01*
X182312600Y-74295000D02*
X182312600Y-76835000D01*
X182312600Y-76835000D02*
X182312600Y-79375000D01*
X182312600Y-79375000D02*
X182312600Y-81915000D01*
X182312600Y-81915000D02*
X182312600Y-84455000D01*
X182312600Y-84455000D02*
X182312600Y-86995000D01*
X182312600Y-86995000D02*
X182312600Y-92000510D01*
X182312600Y-92000510D02*
X182312600Y-93344263D01*
X182312600Y-94655736D02*
X182312600Y-96373000D01*
X182071300Y-68627000D02*
X182071300Y-70955000D01*
X182071300Y-70955000D02*
X182071300Y-74295000D01*
X182071300Y-74295000D02*
X182071300Y-76835000D01*
X182071300Y-76835000D02*
X182071300Y-79375000D01*
X182071300Y-79375000D02*
X182071300Y-81915000D01*
X182071300Y-81915000D02*
X182071300Y-84455000D01*
X182071300Y-84455000D02*
X182071300Y-86995000D01*
X182071300Y-86995000D02*
X182071300Y-92000510D01*
X182071300Y-92000510D02*
X182071300Y-93523680D01*
X182071300Y-94476321D02*
X182071300Y-96373000D01*
X181830000Y-68627000D02*
X181830000Y-70955000D01*
X181830000Y-70955000D02*
X181830000Y-74295000D01*
X181830000Y-74295000D02*
X181830000Y-76835000D01*
X181830000Y-76835000D02*
X181830000Y-79375000D01*
X181830000Y-79375000D02*
X181830000Y-81915000D01*
X181830000Y-81915000D02*
X181830000Y-84455000D01*
X181830000Y-84455000D02*
X181830000Y-86995000D01*
X181830000Y-86995000D02*
X181830000Y-92000510D01*
X181830000Y-92000510D02*
X181830000Y-93312593D01*
X181830000Y-94687408D02*
X181830000Y-96373000D01*
X181588700Y-68627000D02*
X181588700Y-70955000D01*
X181588700Y-70955000D02*
X181588700Y-74295000D01*
X181588700Y-74295000D02*
X181588700Y-76835000D01*
X181588700Y-76835000D02*
X181588700Y-79375000D01*
X181588700Y-79375000D02*
X181588700Y-81915000D01*
X181588700Y-81915000D02*
X181588700Y-84455000D01*
X181588700Y-84455000D02*
X181588700Y-86995000D01*
X181588700Y-86995000D02*
X181588700Y-92000510D01*
X181588700Y-92000510D02*
X181588700Y-93230931D01*
X181588700Y-94769070D02*
X181588700Y-96373000D01*
X181347400Y-68627000D02*
X181347400Y-70955000D01*
X181347400Y-70955000D02*
X181347400Y-74295000D01*
X181347400Y-74295000D02*
X181347400Y-76835000D01*
X181347400Y-76835000D02*
X181347400Y-79375000D01*
X181347400Y-79375000D02*
X181347400Y-81915000D01*
X181347400Y-81915000D02*
X181347400Y-84455000D01*
X181347400Y-84455000D02*
X181347400Y-86995000D01*
X181347400Y-86995000D02*
X181347400Y-92000510D01*
X181347400Y-92000510D02*
X181347400Y-93227728D01*
X181347400Y-94772271D02*
X181347400Y-96373000D01*
X181106100Y-68627000D02*
X181106100Y-70955000D01*
X181106100Y-70955000D02*
X181106100Y-74295000D01*
X181106100Y-74295000D02*
X181106100Y-76835000D01*
X181106100Y-76835000D02*
X181106100Y-79375000D01*
X181106100Y-79375000D02*
X181106100Y-81915000D01*
X181106100Y-81915000D02*
X181106100Y-84455000D01*
X181106100Y-84455000D02*
X181106100Y-86995000D01*
X181106100Y-86995000D02*
X181106100Y-92000510D01*
X181106100Y-92000510D02*
X181106100Y-93301834D01*
X181106100Y-94698165D02*
X181106100Y-96373000D01*
X180864800Y-68627000D02*
X180864800Y-70955000D01*
X180864800Y-70955000D02*
X180864800Y-72392262D01*
X180864800Y-73608187D02*
X180864800Y-74295000D01*
X180864800Y-74295000D02*
X180864800Y-74932262D01*
X180864800Y-76148187D02*
X180864800Y-76835000D01*
X180864800Y-76835000D02*
X180864800Y-77472262D01*
X180864800Y-78688187D02*
X180864800Y-79375000D01*
X180864800Y-79375000D02*
X180864800Y-81915000D01*
X180864800Y-81915000D02*
X180864800Y-84455000D01*
X180864800Y-84455000D02*
X180864800Y-86995000D01*
X180864800Y-86995000D02*
X180864800Y-92000510D01*
X180864800Y-92000510D02*
X180864800Y-93499583D01*
X180864800Y-94500416D02*
X180864800Y-96373000D01*
X180623500Y-68627000D02*
X180623500Y-70955000D01*
X180623500Y-70955000D02*
X180623500Y-72150541D01*
X180623500Y-73849066D02*
X180623500Y-74295000D01*
X180623500Y-74295000D02*
X180623500Y-74690541D01*
X180623500Y-76389066D02*
X180623500Y-76835000D01*
X180623500Y-76835000D02*
X180623500Y-77230541D01*
X180623500Y-78929066D02*
X180623500Y-79375000D01*
X180623500Y-79375000D02*
X180623500Y-81915000D01*
X180623500Y-81915000D02*
X180623500Y-84455000D01*
X180623500Y-84455000D02*
X180623500Y-86995000D01*
X180623500Y-86995000D02*
X180623500Y-92000510D01*
X180623500Y-92000510D02*
X180623500Y-93984731D01*
X180623500Y-93984731D02*
X180623500Y-96373000D01*
X180382200Y-68627000D02*
X180382200Y-70955000D01*
X180382200Y-70955000D02*
X180382200Y-72031093D01*
X180382200Y-73968875D02*
X180382200Y-74295000D01*
X180382200Y-74295000D02*
X180382200Y-74571093D01*
X180382200Y-76508875D02*
X180382200Y-76835000D01*
X180382200Y-76835000D02*
X180382200Y-77111093D01*
X180382200Y-79048875D02*
X180382200Y-79375000D01*
X180382200Y-79375000D02*
X180382200Y-81915000D01*
X180382200Y-81915000D02*
X180382200Y-84455000D01*
X180382200Y-84455000D02*
X180382200Y-86995000D01*
X180382200Y-86995000D02*
X180382200Y-92000510D01*
X180382200Y-92000510D02*
X180382200Y-93984731D01*
X180382200Y-93984731D02*
X180382200Y-96373000D01*
X180140900Y-68627000D02*
X180140900Y-70955000D01*
X180140900Y-70955000D02*
X180140900Y-71958723D01*
X180140900Y-74041523D02*
X180140900Y-74295000D01*
X180140900Y-74295000D02*
X180140900Y-74498723D01*
X180140900Y-76581523D02*
X180140900Y-76835000D01*
X180140900Y-76835000D02*
X180140900Y-77038723D01*
X180140900Y-79121523D02*
X180140900Y-79375000D01*
X180140900Y-79375000D02*
X180140900Y-81915000D01*
X180140900Y-81915000D02*
X180140900Y-84455000D01*
X180140900Y-84455000D02*
X180140900Y-86995000D01*
X180140900Y-86995000D02*
X180140900Y-92000510D01*
X180140900Y-92000510D02*
X180140900Y-93984731D01*
X180140900Y-93984731D02*
X180140900Y-96373000D01*
X179899600Y-68627000D02*
X179899600Y-70955000D01*
X179899600Y-70955000D02*
X179899600Y-71958513D01*
X179899600Y-74041312D02*
X179899600Y-74295000D01*
X179899600Y-74295000D02*
X179899600Y-74498513D01*
X179899600Y-76581312D02*
X179899600Y-76835000D01*
X179899600Y-76835000D02*
X179899600Y-77038513D01*
X179899600Y-79121312D02*
X179899600Y-79375000D01*
X179899600Y-79375000D02*
X179899600Y-81915000D01*
X179899600Y-81915000D02*
X179899600Y-84455000D01*
X179899600Y-84455000D02*
X179899600Y-86995000D01*
X179899600Y-86995000D02*
X179899600Y-92000510D01*
X179899600Y-92000510D02*
X179899600Y-93984731D01*
X179899600Y-93984731D02*
X179899600Y-96373000D01*
X179658300Y-68627000D02*
X179658300Y-70955000D01*
X179658300Y-70955000D02*
X179658300Y-72014391D01*
X179658300Y-73985725D02*
X179658300Y-74295000D01*
X179658300Y-74295000D02*
X179658300Y-74554391D01*
X179658300Y-76525725D02*
X179658300Y-76835000D01*
X179658300Y-76835000D02*
X179658300Y-77094391D01*
X179658300Y-79065725D02*
X179658300Y-79375000D01*
X179658300Y-79375000D02*
X179658300Y-81915000D01*
X179658300Y-81915000D02*
X179658300Y-84455000D01*
X179658300Y-84455000D02*
X179658300Y-86995000D01*
X179658300Y-86995000D02*
X179658300Y-92000510D01*
X179658300Y-92000510D02*
X179658300Y-93984731D01*
X179658300Y-93984731D02*
X179658300Y-96373000D01*
X179417000Y-68627000D02*
X179417000Y-70955000D01*
X179417000Y-70955000D02*
X179417000Y-72114094D01*
X179417000Y-73885528D02*
X179417000Y-74295000D01*
X179417000Y-74295000D02*
X179417000Y-74654094D01*
X179417000Y-76425528D02*
X179417000Y-76835000D01*
X179417000Y-76835000D02*
X179417000Y-77194094D01*
X179417000Y-78965528D02*
X179417000Y-79375000D01*
X179417000Y-79375000D02*
X179417000Y-81915000D01*
X179417000Y-81915000D02*
X179417000Y-84455000D01*
X179417000Y-84455000D02*
X179417000Y-86995000D01*
X179417000Y-86995000D02*
X179417000Y-92000510D01*
X179417000Y-92000510D02*
X179417000Y-93984731D01*
X179417000Y-93984731D02*
X179417000Y-96373000D01*
X179175700Y-68627000D02*
X179175700Y-70955000D01*
X179175700Y-70955000D02*
X179175700Y-72351384D01*
X179175700Y-73648309D02*
X179175700Y-74295000D01*
X179175700Y-74295000D02*
X179175700Y-74891384D01*
X179175700Y-76188309D02*
X179175700Y-76835000D01*
X179175700Y-76835000D02*
X179175700Y-77431384D01*
X179175700Y-78728309D02*
X179175700Y-79375000D01*
X179175700Y-79375000D02*
X179175700Y-81915000D01*
X179175700Y-81915000D02*
X179175700Y-84455000D01*
X179175700Y-84455000D02*
X179175700Y-86995000D01*
X179175700Y-86995000D02*
X179175700Y-92000510D01*
X179175700Y-92000510D02*
X179175700Y-93984731D01*
X179175700Y-93984731D02*
X179175700Y-96373000D01*
X178934400Y-68627000D02*
X178934400Y-70955000D01*
X178934400Y-70955000D02*
X178934400Y-73206238D01*
X178934400Y-73206238D02*
X178934400Y-74295000D01*
X178934400Y-74295000D02*
X178934400Y-75746238D01*
X178934400Y-75746238D02*
X178934400Y-76835000D01*
X178934400Y-76835000D02*
X178934400Y-78286238D01*
X178934400Y-78286238D02*
X178934400Y-79375000D01*
X178934400Y-79375000D02*
X178934400Y-81915000D01*
X178934400Y-81915000D02*
X178934400Y-84455000D01*
X178934400Y-84455000D02*
X178934400Y-86995000D01*
X178934400Y-86995000D02*
X178934400Y-92000510D01*
X178934400Y-92000510D02*
X178934400Y-93984731D01*
X178934400Y-93984731D02*
X178934400Y-96373000D01*
X178693100Y-68627000D02*
X178693100Y-70955000D01*
X178693100Y-70955000D02*
X178693100Y-73206238D01*
X178693100Y-73206238D02*
X178693100Y-74295000D01*
X178693100Y-74295000D02*
X178693100Y-75746238D01*
X178693100Y-75746238D02*
X178693100Y-76835000D01*
X178693100Y-76835000D02*
X178693100Y-78286238D01*
X178693100Y-78286238D02*
X178693100Y-79375000D01*
X178693100Y-79375000D02*
X178693100Y-81915000D01*
X178693100Y-81915000D02*
X178693100Y-84455000D01*
X178693100Y-84455000D02*
X178693100Y-86995000D01*
X178693100Y-86995000D02*
X178693100Y-92000510D01*
X178693100Y-92000510D02*
X178693100Y-93984731D01*
X178693100Y-93984731D02*
X178693100Y-96373000D01*
X178451800Y-68627000D02*
X178451800Y-70955000D01*
X178451800Y-70955000D02*
X178451800Y-73206238D01*
X178451800Y-73206238D02*
X178451800Y-74295000D01*
X178451800Y-74295000D02*
X178451800Y-75746238D01*
X178451800Y-75746238D02*
X178451800Y-76835000D01*
X178451800Y-76835000D02*
X178451800Y-78286238D01*
X178451800Y-78286238D02*
X178451800Y-79375000D01*
X178451800Y-79375000D02*
X178451800Y-81915000D01*
X178451800Y-81915000D02*
X178451800Y-84455000D01*
X178451800Y-84455000D02*
X178451800Y-86995000D01*
X178451800Y-86995000D02*
X178451800Y-92000510D01*
X178451800Y-92000510D02*
X178451800Y-93984731D01*
X178451800Y-93984731D02*
X178451800Y-96373000D01*
X178210500Y-68627000D02*
X178210500Y-70955000D01*
X178210500Y-70955000D02*
X178210500Y-73206238D01*
X178210500Y-73206238D02*
X178210500Y-74295000D01*
X178210500Y-74295000D02*
X178210500Y-75746238D01*
X178210500Y-75746238D02*
X178210500Y-76835000D01*
X178210500Y-76835000D02*
X178210500Y-78286238D01*
X178210500Y-78286238D02*
X178210500Y-79375000D01*
X178210500Y-79375000D02*
X178210500Y-81915000D01*
X178210500Y-81915000D02*
X178210500Y-84455000D01*
X178210500Y-84455000D02*
X178210500Y-86995000D01*
X178210500Y-86995000D02*
X178210500Y-92000510D01*
X178210500Y-92000510D02*
X178210500Y-93984731D01*
X178210500Y-93984731D02*
X178210500Y-96373000D01*
X177969200Y-68627000D02*
X177969200Y-70955000D01*
X177969200Y-70955000D02*
X177969200Y-73206238D01*
X177969200Y-73206238D02*
X177969200Y-74295000D01*
X177969200Y-74295000D02*
X177969200Y-75746238D01*
X177969200Y-75746238D02*
X177969200Y-76835000D01*
X177969200Y-76835000D02*
X177969200Y-78286238D01*
X177969200Y-78286238D02*
X177969200Y-79375000D01*
X177969200Y-79375000D02*
X177969200Y-81915000D01*
X177969200Y-81915000D02*
X177969200Y-84455000D01*
X177969200Y-84455000D02*
X177969200Y-86995000D01*
X177969200Y-86995000D02*
X177969200Y-92000510D01*
X177969200Y-92000510D02*
X177969200Y-93984731D01*
X177969200Y-93984731D02*
X177969200Y-96373000D01*
X177727900Y-68627000D02*
X177727900Y-70955000D01*
X177727900Y-70955000D02*
X177727900Y-73206238D01*
X177727900Y-73206238D02*
X177727900Y-74295000D01*
X177727900Y-74295000D02*
X177727900Y-75746238D01*
X177727900Y-75746238D02*
X177727900Y-76835000D01*
X177727900Y-76835000D02*
X177727900Y-78286238D01*
X177727900Y-78286238D02*
X177727900Y-79375000D01*
X177727900Y-79375000D02*
X177727900Y-81915000D01*
X177727900Y-81915000D02*
X177727900Y-84455000D01*
X177727900Y-84455000D02*
X177727900Y-86995000D01*
X177727900Y-86995000D02*
X177727900Y-92000510D01*
X177727900Y-92000510D02*
X177727900Y-93984731D01*
X177727900Y-93984731D02*
X177727900Y-96373000D01*
X177486600Y-68627000D02*
X177486600Y-70955000D01*
X177486600Y-70955000D02*
X177486600Y-73206238D01*
X177486600Y-73206238D02*
X177486600Y-74295000D01*
X177486600Y-74295000D02*
X177486600Y-75746238D01*
X177486600Y-75746238D02*
X177486600Y-76835000D01*
X177486600Y-76835000D02*
X177486600Y-78286238D01*
X177486600Y-78286238D02*
X177486600Y-79375000D01*
X177486600Y-79375000D02*
X177486600Y-81915000D01*
X177486600Y-81915000D02*
X177486600Y-84455000D01*
X177486600Y-84455000D02*
X177486600Y-86995000D01*
X177486600Y-86995000D02*
X177486600Y-92000510D01*
X177486600Y-92000510D02*
X177486600Y-93984731D01*
X177486600Y-93984731D02*
X177486600Y-96373000D01*
X177245300Y-68627000D02*
X177245300Y-70955000D01*
X177245300Y-70955000D02*
X177245300Y-73206238D01*
X177245300Y-73206238D02*
X177245300Y-74295000D01*
X177245300Y-74295000D02*
X177245300Y-75746238D01*
X177245300Y-75746238D02*
X177245300Y-76835000D01*
X177245300Y-76835000D02*
X177245300Y-78286238D01*
X177245300Y-78286238D02*
X177245300Y-79375000D01*
X177245300Y-79375000D02*
X177245300Y-81915000D01*
X177245300Y-81915000D02*
X177245300Y-84455000D01*
X177245300Y-84455000D02*
X177245300Y-86995000D01*
X177245300Y-86995000D02*
X177245300Y-92000510D01*
X177245300Y-92000510D02*
X177245300Y-93984731D01*
X177245300Y-93984731D02*
X177245300Y-96373000D01*
X208373000Y-96373000D02*
X177127000Y-96373000D01*
X177127000Y-93984731D01*
X180680600Y-93984731D01*
X180680600Y-94015269D01*
X180739928Y-94313532D01*
X180908881Y-94566388D01*
X181161737Y-94735341D01*
X181460000Y-94794669D01*
X181758263Y-94735341D01*
X182011119Y-94566388D01*
X182095000Y-94440851D01*
X182178881Y-94566388D01*
X182431737Y-94735341D01*
X182730000Y-94794669D01*
X183028263Y-94735341D01*
X183234525Y-94597521D01*
X183236812Y-94609016D01*
X183298564Y-94701436D01*
X183390984Y-94763188D01*
X183500000Y-94784873D01*
X184500000Y-94784873D01*
X184609016Y-94763188D01*
X184701436Y-94701436D01*
X184763188Y-94609016D01*
X184784873Y-94500000D01*
X184784873Y-93500000D01*
X184763188Y-93390984D01*
X184701436Y-93298564D01*
X184609016Y-93236812D01*
X184500000Y-93215127D01*
X183500000Y-93215127D01*
X183390984Y-93236812D01*
X183298564Y-93298564D01*
X183236812Y-93390984D01*
X183234525Y-93402479D01*
X183028263Y-93264659D01*
X182730000Y-93205331D01*
X182431737Y-93264659D01*
X182178881Y-93433612D01*
X182095000Y-93559149D01*
X182011119Y-93433612D01*
X181758263Y-93264659D01*
X181460000Y-93205331D01*
X181161737Y-93264659D01*
X180908881Y-93433612D01*
X180739928Y-93686468D01*
X180680600Y-93984731D01*
X177127000Y-93984731D01*
X177127000Y-92000510D01*
X186715637Y-92000510D01*
X186715637Y-93999490D01*
X186737322Y-94108506D01*
X186799074Y-94200926D01*
X186891494Y-94262678D01*
X187000510Y-94284363D01*
X188999490Y-94284363D01*
X189108506Y-94262678D01*
X189200926Y-94200926D01*
X189262678Y-94108506D01*
X189284363Y-93999490D01*
X189284363Y-93000000D01*
X191776055Y-93000000D01*
X191873405Y-93489410D01*
X192150633Y-93904312D01*
X192565535Y-94181540D01*
X193054945Y-94278890D01*
X193105055Y-94278890D01*
X193594465Y-94181540D01*
X194009367Y-93904312D01*
X194286595Y-93489410D01*
X194350000Y-93170653D01*
X194413405Y-93489410D01*
X194690633Y-93904312D01*
X195105535Y-94181540D01*
X195594945Y-94278890D01*
X195645055Y-94278890D01*
X196134465Y-94181540D01*
X196549367Y-93904312D01*
X196826595Y-93489410D01*
X196923945Y-93000000D01*
X196826595Y-92510590D01*
X196585658Y-92150000D01*
X199115127Y-92150000D01*
X199115127Y-93850000D01*
X199136812Y-93959016D01*
X199198564Y-94051436D01*
X199290984Y-94113188D01*
X199400000Y-94134873D01*
X200600000Y-94134873D01*
X200709016Y-94113188D01*
X200801436Y-94051436D01*
X200863188Y-93959016D01*
X200884873Y-93850000D01*
X200884873Y-92727874D01*
X201120600Y-92727874D01*
X201120600Y-93272126D01*
X201187540Y-93608658D01*
X201378170Y-93893956D01*
X201663468Y-94084586D01*
X202000000Y-94151526D01*
X202336532Y-94084586D01*
X202621830Y-93893956D01*
X202812460Y-93608658D01*
X202879400Y-93272126D01*
X202879400Y-92727874D01*
X202812460Y-92391342D01*
X202621830Y-92106044D01*
X202336532Y-91915414D01*
X202000000Y-91848474D01*
X201663468Y-91915414D01*
X201378170Y-92106044D01*
X201187540Y-92391342D01*
X201120600Y-92727874D01*
X200884873Y-92727874D01*
X200884873Y-92150000D01*
X200863188Y-92040984D01*
X200801436Y-91948564D01*
X200709016Y-91886812D01*
X200600000Y-91865127D01*
X199400000Y-91865127D01*
X199290984Y-91886812D01*
X199198564Y-91948564D01*
X199136812Y-92040984D01*
X199115127Y-92150000D01*
X196585658Y-92150000D01*
X196549367Y-92095688D01*
X196134465Y-91818460D01*
X195645055Y-91721110D01*
X195594945Y-91721110D01*
X195105535Y-91818460D01*
X194690633Y-92095688D01*
X194413405Y-92510590D01*
X194350000Y-92829347D01*
X194286595Y-92510590D01*
X194009367Y-92095688D01*
X193594465Y-91818460D01*
X193105055Y-91721110D01*
X193054945Y-91721110D01*
X192565535Y-91818460D01*
X192150633Y-92095688D01*
X191873405Y-92510590D01*
X191776055Y-93000000D01*
X189284363Y-93000000D01*
X189284363Y-92000510D01*
X189262678Y-91891494D01*
X189200926Y-91799074D01*
X189108506Y-91737322D01*
X188999490Y-91715637D01*
X187000510Y-91715637D01*
X186891494Y-91737322D01*
X186799074Y-91799074D01*
X186737322Y-91891494D01*
X186715637Y-92000510D01*
X177127000Y-92000510D01*
X177127000Y-86995000D01*
X184165617Y-86995000D01*
X184247781Y-87408068D01*
X184481766Y-87758251D01*
X184831949Y-87992236D01*
X185245017Y-88074400D01*
X186102983Y-88074400D01*
X186516051Y-87992236D01*
X186866234Y-87758251D01*
X187100219Y-87408068D01*
X187182383Y-86995000D01*
X191785617Y-86995000D01*
X191867781Y-87408068D01*
X192101766Y-87758251D01*
X192451949Y-87992236D01*
X192865017Y-88074400D01*
X193722983Y-88074400D01*
X194136051Y-87992236D01*
X194486234Y-87758251D01*
X194720219Y-87408068D01*
X194802383Y-86995000D01*
X194720219Y-86581932D01*
X194486234Y-86231749D01*
X194136051Y-85997764D01*
X193722983Y-85915600D01*
X192865017Y-85915600D01*
X192451949Y-85997764D01*
X192101766Y-86231749D01*
X191867781Y-86581932D01*
X191785617Y-86995000D01*
X187182383Y-86995000D01*
X187100219Y-86581932D01*
X186866234Y-86231749D01*
X186516051Y-85997764D01*
X186102983Y-85915600D01*
X185245017Y-85915600D01*
X184831949Y-85997764D01*
X184481766Y-86231749D01*
X184247781Y-86581932D01*
X184165617Y-86995000D01*
X177127000Y-86995000D01*
X177127000Y-84455000D01*
X184165617Y-84455000D01*
X184247781Y-84868068D01*
X184481766Y-85218251D01*
X184831949Y-85452236D01*
X185245017Y-85534400D01*
X186102983Y-85534400D01*
X186516051Y-85452236D01*
X186866234Y-85218251D01*
X187100219Y-84868068D01*
X187182383Y-84455000D01*
X191785617Y-84455000D01*
X191867781Y-84868068D01*
X192101766Y-85218251D01*
X192451949Y-85452236D01*
X192865017Y-85534400D01*
X193722983Y-85534400D01*
X194136051Y-85452236D01*
X194486234Y-85218251D01*
X194720219Y-84868068D01*
X194802383Y-84455000D01*
X194720219Y-84041932D01*
X194486234Y-83691749D01*
X194136051Y-83457764D01*
X193722983Y-83375600D01*
X192865017Y-83375600D01*
X192451949Y-83457764D01*
X192101766Y-83691749D01*
X191867781Y-84041932D01*
X191785617Y-84455000D01*
X187182383Y-84455000D01*
X187100219Y-84041932D01*
X186866234Y-83691749D01*
X186516051Y-83457764D01*
X186102983Y-83375600D01*
X185245017Y-83375600D01*
X184831949Y-83457764D01*
X184481766Y-83691749D01*
X184247781Y-84041932D01*
X184165617Y-84455000D01*
X177127000Y-84455000D01*
X177127000Y-81915000D01*
X191785617Y-81915000D01*
X191867781Y-82328068D01*
X192101766Y-82678251D01*
X192451949Y-82912236D01*
X192865017Y-82994400D01*
X193722983Y-82994400D01*
X194136051Y-82912236D01*
X194486234Y-82678251D01*
X194720219Y-82328068D01*
X194802383Y-81915000D01*
X194720219Y-81501932D01*
X194486234Y-81151749D01*
X194136051Y-80917764D01*
X193722983Y-80835600D01*
X192865017Y-80835600D01*
X192451949Y-80917764D01*
X192101766Y-81151749D01*
X191867781Y-81501932D01*
X191785617Y-81915000D01*
X177127000Y-81915000D01*
X177127000Y-79375000D01*
X184165617Y-79375000D01*
X184247781Y-79788068D01*
X184481766Y-80138251D01*
X184831949Y-80372236D01*
X185245017Y-80454400D01*
X186102983Y-80454400D01*
X186516051Y-80372236D01*
X186866234Y-80138251D01*
X187100219Y-79788068D01*
X187182383Y-79375000D01*
X191785617Y-79375000D01*
X191867781Y-79788068D01*
X192101766Y-80138251D01*
X192451949Y-80372236D01*
X192865017Y-80454400D01*
X193722983Y-80454400D01*
X194136051Y-80372236D01*
X194486234Y-80138251D01*
X194720219Y-79788068D01*
X194802383Y-79375000D01*
X194720219Y-78961932D01*
X194486234Y-78611749D01*
X194136051Y-78377764D01*
X193722983Y-78295600D01*
X192865017Y-78295600D01*
X192451949Y-78377764D01*
X192101766Y-78611749D01*
X191867781Y-78961932D01*
X191785617Y-79375000D01*
X187182383Y-79375000D01*
X187100219Y-78961932D01*
X186866234Y-78611749D01*
X186516051Y-78377764D01*
X186102983Y-78295600D01*
X185245017Y-78295600D01*
X184831949Y-78377764D01*
X184481766Y-78611749D01*
X184247781Y-78961932D01*
X184165617Y-79375000D01*
X177127000Y-79375000D01*
X177127000Y-78286238D01*
X178958420Y-78286238D01*
X179116629Y-78669135D01*
X179409324Y-78962341D01*
X179791944Y-79121219D01*
X180206238Y-79121580D01*
X180589135Y-78963371D01*
X180882341Y-78670676D01*
X181041219Y-78288056D01*
X181041580Y-77873762D01*
X180883371Y-77490865D01*
X180590676Y-77197659D01*
X180208056Y-77038781D01*
X179793762Y-77038420D01*
X179410865Y-77196629D01*
X179117659Y-77489324D01*
X178958781Y-77871944D01*
X178958420Y-78286238D01*
X177127000Y-78286238D01*
X177127000Y-76835000D01*
X184165617Y-76835000D01*
X184247781Y-77248068D01*
X184481766Y-77598251D01*
X184831949Y-77832236D01*
X185245017Y-77914400D01*
X186102983Y-77914400D01*
X186516051Y-77832236D01*
X186866234Y-77598251D01*
X187100219Y-77248068D01*
X187182383Y-76835000D01*
X191785617Y-76835000D01*
X191867781Y-77248068D01*
X192101766Y-77598251D01*
X192451949Y-77832236D01*
X192865017Y-77914400D01*
X193722983Y-77914400D01*
X194136051Y-77832236D01*
X194486234Y-77598251D01*
X194720219Y-77248068D01*
X194802383Y-76835000D01*
X194720219Y-76421932D01*
X194486234Y-76071749D01*
X194136051Y-75837764D01*
X193722983Y-75755600D01*
X192865017Y-75755600D01*
X192451949Y-75837764D01*
X192101766Y-76071749D01*
X191867781Y-76421932D01*
X191785617Y-76835000D01*
X187182383Y-76835000D01*
X187100219Y-76421932D01*
X186866234Y-76071749D01*
X186516051Y-75837764D01*
X186102983Y-75755600D01*
X185245017Y-75755600D01*
X184831949Y-75837764D01*
X184481766Y-76071749D01*
X184247781Y-76421932D01*
X184165617Y-76835000D01*
X177127000Y-76835000D01*
X177127000Y-75746238D01*
X178958420Y-75746238D01*
X179116629Y-76129135D01*
X179409324Y-76422341D01*
X179791944Y-76581219D01*
X180206238Y-76581580D01*
X180589135Y-76423371D01*
X180882341Y-76130676D01*
X181041219Y-75748056D01*
X181041580Y-75333762D01*
X180883371Y-74950865D01*
X180590676Y-74657659D01*
X180208056Y-74498781D01*
X179793762Y-74498420D01*
X179410865Y-74656629D01*
X179117659Y-74949324D01*
X178958781Y-75331944D01*
X178958420Y-75746238D01*
X177127000Y-75746238D01*
X177127000Y-74295000D01*
X184165617Y-74295000D01*
X184247781Y-74708068D01*
X184481766Y-75058251D01*
X184831949Y-75292236D01*
X185245017Y-75374400D01*
X186102983Y-75374400D01*
X186516051Y-75292236D01*
X186866234Y-75058251D01*
X187100219Y-74708068D01*
X187182383Y-74295000D01*
X191785617Y-74295000D01*
X191867781Y-74708068D01*
X192101766Y-75058251D01*
X192451949Y-75292236D01*
X192865017Y-75374400D01*
X193722983Y-75374400D01*
X194136051Y-75292236D01*
X194486234Y-75058251D01*
X194720219Y-74708068D01*
X194802383Y-74295000D01*
X194720219Y-73881932D01*
X194486234Y-73531749D01*
X194136051Y-73297764D01*
X193722983Y-73215600D01*
X192865017Y-73215600D01*
X192451949Y-73297764D01*
X192101766Y-73531749D01*
X191867781Y-73881932D01*
X191785617Y-74295000D01*
X187182383Y-74295000D01*
X187100219Y-73881932D01*
X186866234Y-73531749D01*
X186516051Y-73297764D01*
X186102983Y-73215600D01*
X185245017Y-73215600D01*
X184831949Y-73297764D01*
X184481766Y-73531749D01*
X184247781Y-73881932D01*
X184165617Y-74295000D01*
X177127000Y-74295000D01*
X177127000Y-73206238D01*
X178958420Y-73206238D01*
X179116629Y-73589135D01*
X179409324Y-73882341D01*
X179791944Y-74041219D01*
X180206238Y-74041580D01*
X180589135Y-73883371D01*
X180882341Y-73590676D01*
X181041219Y-73208056D01*
X181041580Y-72793762D01*
X180883371Y-72410865D01*
X180590676Y-72117659D01*
X180208056Y-71958781D01*
X179793762Y-71958420D01*
X179410865Y-72116629D01*
X179117659Y-72409324D01*
X178958781Y-72791944D01*
X178958420Y-73206238D01*
X177127000Y-73206238D01*
X177127000Y-70955000D01*
X184189127Y-70955000D01*
X184189127Y-72555000D01*
X184210812Y-72664016D01*
X184272564Y-72756436D01*
X184364984Y-72818188D01*
X184474000Y-72839873D01*
X186874000Y-72839873D01*
X186983016Y-72818188D01*
X187075436Y-72756436D01*
X187137188Y-72664016D01*
X187158873Y-72555000D01*
X187158873Y-70955000D01*
X187137188Y-70845984D01*
X187075436Y-70753564D01*
X186983016Y-70691812D01*
X186874000Y-70670127D01*
X184474000Y-70670127D01*
X184364984Y-70691812D01*
X184272564Y-70753564D01*
X184210812Y-70845984D01*
X184189127Y-70955000D01*
X177127000Y-70955000D01*
X177127000Y-68627000D01*
X208373000Y-68627000D01*
X208373000Y-96373000D01*
M02*
