G04 #@! TF.GenerationSoftware,KiCad,Pcbnew,no-vcs-found-ea855c1~58~ubuntu16.04.1*
G04 #@! TF.CreationDate,2017-06-06T15:51:33-04:00*
G04 #@! TF.ProjectId,KillSwitch,4B696C6C5377697463682E6B69636164,rev?*
G04 #@! TF.FileFunction,Legend,Top*
G04 #@! TF.FilePolarity,Positive*
%FSLAX46Y46*%
G04 Gerber Fmt 4.6, Leading zero omitted, Abs format (unit mm)*
G04 Created by KiCad (PCBNEW no-vcs-found-ea855c1~58~ubuntu16.04.1) date Tue Jun  6 15:51:33 2017*
%MOMM*%
%LPD*%
G01*
G04 APERTURE LIST*
%ADD10C,0.100000*%
%ADD11C,0.125000*%
%ADD12C,0.150000*%
%ADD13C,0.120000*%
G04 APERTURE END LIST*
D10*
D11*
X205236904Y-91352380D02*
X205236904Y-91733333D01*
X204436904Y-91733333D01*
X205236904Y-91085714D02*
X204703571Y-91085714D01*
X204436904Y-91085714D02*
X204475000Y-91123809D01*
X204513095Y-91085714D01*
X204475000Y-91047619D01*
X204436904Y-91085714D01*
X204513095Y-91085714D01*
X205236904Y-90361904D02*
X204817857Y-90361904D01*
X204741666Y-90400000D01*
X204703571Y-90476190D01*
X204703571Y-90628571D01*
X204741666Y-90704761D01*
X205198809Y-90361904D02*
X205236904Y-90438095D01*
X205236904Y-90628571D01*
X205198809Y-90704761D01*
X205122619Y-90742857D01*
X205046428Y-90742857D01*
X204970238Y-90704761D01*
X204932142Y-90628571D01*
X204932142Y-90438095D01*
X204894047Y-90361904D01*
X205236904Y-89980952D02*
X204703571Y-89980952D01*
X204779761Y-89980952D02*
X204741666Y-89942857D01*
X204703571Y-89866666D01*
X204703571Y-89752380D01*
X204741666Y-89676190D01*
X204817857Y-89638095D01*
X205236904Y-89638095D01*
X204817857Y-89638095D02*
X204741666Y-89600000D01*
X204703571Y-89523809D01*
X204703571Y-89409523D01*
X204741666Y-89333333D01*
X204817857Y-89295238D01*
X205236904Y-89295238D01*
X204817857Y-88038095D02*
X204855952Y-87923809D01*
X204894047Y-87885714D01*
X204970238Y-87847619D01*
X205084523Y-87847619D01*
X205160714Y-87885714D01*
X205198809Y-87923809D01*
X205236904Y-88000000D01*
X205236904Y-88304761D01*
X204436904Y-88304761D01*
X204436904Y-88038095D01*
X204475000Y-87961904D01*
X204513095Y-87923809D01*
X204589285Y-87885714D01*
X204665476Y-87885714D01*
X204741666Y-87923809D01*
X204779761Y-87961904D01*
X204817857Y-88038095D01*
X204817857Y-88304761D01*
X205198809Y-87200000D02*
X205236904Y-87276190D01*
X205236904Y-87428571D01*
X205198809Y-87504761D01*
X205122619Y-87542857D01*
X204817857Y-87542857D01*
X204741666Y-87504761D01*
X204703571Y-87428571D01*
X204703571Y-87276190D01*
X204741666Y-87200000D01*
X204817857Y-87161904D01*
X204894047Y-87161904D01*
X204970238Y-87542857D01*
X205236904Y-86819047D02*
X204703571Y-86819047D01*
X204855952Y-86819047D02*
X204779761Y-86780952D01*
X204741666Y-86742857D01*
X204703571Y-86666666D01*
X204703571Y-86590476D01*
X204703571Y-86438095D02*
X204703571Y-86133333D01*
X204436904Y-86323809D02*
X205122619Y-86323809D01*
X205198809Y-86285714D01*
X205236904Y-86209523D01*
X205236904Y-86133333D01*
X205236904Y-85866666D02*
X204703571Y-85866666D01*
X204436904Y-85866666D02*
X204475000Y-85904761D01*
X204513095Y-85866666D01*
X204475000Y-85828571D01*
X204436904Y-85866666D01*
X204513095Y-85866666D01*
X206561904Y-94704761D02*
X205761904Y-94704761D01*
X206333333Y-94361904D02*
X206333333Y-93980952D01*
X206561904Y-94438095D02*
X205761904Y-94171428D01*
X206561904Y-93904761D01*
X206561904Y-93180952D02*
X206180952Y-93447619D01*
X206561904Y-93638095D02*
X205761904Y-93638095D01*
X205761904Y-93333333D01*
X205800000Y-93257142D01*
X205838095Y-93219047D01*
X205914285Y-93180952D01*
X206028571Y-93180952D01*
X206104761Y-93219047D01*
X206142857Y-93257142D01*
X206180952Y-93333333D01*
X206180952Y-93638095D01*
X206485714Y-92380952D02*
X206523809Y-92419047D01*
X206561904Y-92533333D01*
X206561904Y-92609523D01*
X206523809Y-92723809D01*
X206447619Y-92800000D01*
X206371428Y-92838095D01*
X206219047Y-92876190D01*
X206104761Y-92876190D01*
X205952380Y-92838095D01*
X205876190Y-92800000D01*
X205800000Y-92723809D01*
X205761904Y-92609523D01*
X205761904Y-92533333D01*
X205800000Y-92419047D01*
X205838095Y-92380952D01*
X205761904Y-92114285D02*
X205761904Y-91580952D01*
X206561904Y-91923809D01*
X206523809Y-90704761D02*
X206561904Y-90590476D01*
X206561904Y-90400000D01*
X206523809Y-90323809D01*
X206485714Y-90285714D01*
X206409523Y-90247619D01*
X206333333Y-90247619D01*
X206257142Y-90285714D01*
X206219047Y-90323809D01*
X206180952Y-90400000D01*
X206142857Y-90552380D01*
X206104761Y-90628571D01*
X206066666Y-90666666D01*
X205990476Y-90704761D01*
X205914285Y-90704761D01*
X205838095Y-90666666D01*
X205800000Y-90628571D01*
X205761904Y-90552380D01*
X205761904Y-90361904D01*
X205800000Y-90247619D01*
X206561904Y-89561904D02*
X206142857Y-89561904D01*
X206066666Y-89600000D01*
X206028571Y-89676190D01*
X206028571Y-89828571D01*
X206066666Y-89904761D01*
X206523809Y-89561904D02*
X206561904Y-89638095D01*
X206561904Y-89828571D01*
X206523809Y-89904761D01*
X206447619Y-89942857D01*
X206371428Y-89942857D01*
X206295238Y-89904761D01*
X206257142Y-89828571D01*
X206257142Y-89638095D01*
X206219047Y-89561904D01*
X206028571Y-89295238D02*
X206028571Y-88990476D01*
X206561904Y-89180952D02*
X205876190Y-89180952D01*
X205800000Y-89142857D01*
X205761904Y-89066666D01*
X205761904Y-88990476D01*
X206523809Y-88419047D02*
X206561904Y-88495238D01*
X206561904Y-88647619D01*
X206523809Y-88723809D01*
X206447619Y-88761904D01*
X206142857Y-88761904D01*
X206066666Y-88723809D01*
X206028571Y-88647619D01*
X206028571Y-88495238D01*
X206066666Y-88419047D01*
X206142857Y-88380952D01*
X206219047Y-88380952D01*
X206295238Y-88761904D01*
X206028571Y-88152380D02*
X206028571Y-87847619D01*
X205761904Y-88038095D02*
X206447619Y-88038095D01*
X206523809Y-88000000D01*
X206561904Y-87923809D01*
X206561904Y-87847619D01*
X206028571Y-87657142D02*
X206561904Y-87466666D01*
X206028571Y-87276190D02*
X206561904Y-87466666D01*
X206752380Y-87542857D01*
X206790476Y-87580952D01*
X206828571Y-87657142D01*
X206523809Y-86400000D02*
X206561904Y-86285714D01*
X206561904Y-86095238D01*
X206523809Y-86019047D01*
X206485714Y-85980952D01*
X206409523Y-85942857D01*
X206333333Y-85942857D01*
X206257142Y-85980952D01*
X206219047Y-86019047D01*
X206180952Y-86095238D01*
X206142857Y-86247619D01*
X206104761Y-86323809D01*
X206066666Y-86361904D01*
X205990476Y-86400000D01*
X205914285Y-86400000D01*
X205838095Y-86361904D01*
X205800000Y-86323809D01*
X205761904Y-86247619D01*
X205761904Y-86057142D01*
X205800000Y-85942857D01*
X206028571Y-85676190D02*
X206561904Y-85523809D01*
X206180952Y-85371428D01*
X206561904Y-85219047D01*
X206028571Y-85066666D01*
X206561904Y-84761904D02*
X206028571Y-84761904D01*
X205761904Y-84761904D02*
X205800000Y-84800000D01*
X205838095Y-84761904D01*
X205800000Y-84723809D01*
X205761904Y-84761904D01*
X205838095Y-84761904D01*
X206028571Y-84495238D02*
X206028571Y-84190476D01*
X205761904Y-84380952D02*
X206447619Y-84380952D01*
X206523809Y-84342857D01*
X206561904Y-84266666D01*
X206561904Y-84190476D01*
X206523809Y-83580952D02*
X206561904Y-83657142D01*
X206561904Y-83809523D01*
X206523809Y-83885714D01*
X206485714Y-83923809D01*
X206409523Y-83961904D01*
X206180952Y-83961904D01*
X206104761Y-83923809D01*
X206066666Y-83885714D01*
X206028571Y-83809523D01*
X206028571Y-83657142D01*
X206066666Y-83580952D01*
X206561904Y-83238095D02*
X205761904Y-83238095D01*
X206561904Y-82895238D02*
X206142857Y-82895238D01*
X206066666Y-82933333D01*
X206028571Y-83009523D01*
X206028571Y-83123809D01*
X206066666Y-83200000D01*
X206104761Y-83238095D01*
X207886904Y-91085714D02*
X207086904Y-91085714D01*
X207086904Y-90780952D01*
X207125000Y-90704761D01*
X207163095Y-90666666D01*
X207239285Y-90628571D01*
X207353571Y-90628571D01*
X207429761Y-90666666D01*
X207467857Y-90704761D01*
X207505952Y-90780952D01*
X207505952Y-91085714D01*
X207886904Y-90285714D02*
X207353571Y-90285714D01*
X207086904Y-90285714D02*
X207125000Y-90323809D01*
X207163095Y-90285714D01*
X207125000Y-90247619D01*
X207086904Y-90285714D01*
X207163095Y-90285714D01*
X207353571Y-90019047D02*
X207353571Y-89714285D01*
X207086904Y-89904761D02*
X207772619Y-89904761D01*
X207848809Y-89866666D01*
X207886904Y-89790476D01*
X207886904Y-89714285D01*
X207353571Y-89561904D02*
X207353571Y-89257142D01*
X207086904Y-89447619D02*
X207772619Y-89447619D01*
X207848809Y-89409523D01*
X207886904Y-89333333D01*
X207886904Y-89257142D01*
X207886904Y-87923809D02*
X207505952Y-88190476D01*
X207886904Y-88380952D02*
X207086904Y-88380952D01*
X207086904Y-88076190D01*
X207125000Y-88000000D01*
X207163095Y-87961904D01*
X207239285Y-87923809D01*
X207353571Y-87923809D01*
X207429761Y-87961904D01*
X207467857Y-88000000D01*
X207505952Y-88076190D01*
X207505952Y-88380952D01*
X207658333Y-87619047D02*
X207658333Y-87238095D01*
X207886904Y-87695238D02*
X207086904Y-87428571D01*
X207886904Y-87161904D01*
X207848809Y-86933333D02*
X207886904Y-86819047D01*
X207886904Y-86628571D01*
X207848809Y-86552380D01*
X207810714Y-86514285D01*
X207734523Y-86476190D01*
X207658333Y-86476190D01*
X207582142Y-86514285D01*
X207544047Y-86552380D01*
X207505952Y-86628571D01*
X207467857Y-86780952D01*
X207429761Y-86857142D01*
X207391666Y-86895238D01*
X207315476Y-86933333D01*
X207239285Y-86933333D01*
X207163095Y-86895238D01*
X207125000Y-86857142D01*
X207086904Y-86780952D01*
X207086904Y-86590476D01*
X207125000Y-86476190D01*
D12*
X197110980Y-89901200D02*
X186509020Y-89901200D01*
X186509020Y-90299980D02*
X197110980Y-90299980D01*
X186509020Y-95600960D02*
X197110980Y-95600960D01*
X197110980Y-96098800D02*
X186509020Y-96098800D01*
X194306820Y-95600960D02*
X194306820Y-96098800D01*
X191810000Y-95600960D02*
X191810000Y-96098800D01*
X186712220Y-96098800D02*
X186712220Y-95600960D01*
X196910320Y-95600960D02*
X196910320Y-96098800D01*
X189313180Y-96098800D02*
X189313180Y-95600960D01*
X197108440Y-96098800D02*
X197108440Y-89901200D01*
X186514100Y-89901200D02*
X186514100Y-96098800D01*
D13*
X183365000Y-92670000D02*
X179495000Y-92670000D01*
X179495000Y-92670000D02*
X179495000Y-95330000D01*
X179495000Y-95330000D02*
X183365000Y-95330000D01*
X183365000Y-95330000D02*
X183365000Y-92670000D01*
X184000000Y-92670000D02*
X184695000Y-92670000D01*
X184695000Y-92670000D02*
X184695000Y-94000000D01*
X180650000Y-90400000D02*
X181350000Y-90400000D01*
X181350000Y-91600000D02*
X180650000Y-91600000D01*
X180650000Y-85400000D02*
X181350000Y-85400000D01*
X181350000Y-86600000D02*
X180650000Y-86600000D01*
X196600000Y-85650000D02*
X196600000Y-86350000D01*
X195400000Y-86350000D02*
X195400000Y-85650000D01*
X196500000Y-72150000D02*
X196500000Y-73850000D01*
X196550000Y-73850000D02*
X200600000Y-73850000D01*
X196550000Y-72150000D02*
X200600000Y-72150000D01*
X196500000Y-76150000D02*
X196500000Y-77850000D01*
X196550000Y-77850000D02*
X200600000Y-77850000D01*
X196550000Y-76150000D02*
X200600000Y-76150000D01*
X197950000Y-91200000D02*
X197950000Y-95900000D01*
X197950000Y-95900000D02*
X204050000Y-95900000D01*
X204050000Y-95900000D02*
X204050000Y-91200000D01*
X204050000Y-91200000D02*
X197950000Y-91200000D01*
X200500000Y-91200000D02*
X200500000Y-91800000D01*
X200500000Y-91800000D02*
X198550000Y-91800000D01*
X198550000Y-91800000D02*
X198550000Y-95300000D01*
X198550000Y-95300000D02*
X203450000Y-95300000D01*
X203450000Y-95300000D02*
X203450000Y-91800000D01*
X203450000Y-91800000D02*
X201500000Y-91800000D01*
X201500000Y-91800000D02*
X201500000Y-91200000D01*
X197950000Y-92500000D02*
X198550000Y-92500000D01*
X197950000Y-93800000D02*
X198550000Y-93800000D01*
X204050000Y-92500000D02*
X203450000Y-92500000D01*
X204050000Y-93800000D02*
X203450000Y-93800000D01*
X199700000Y-91200000D02*
X199700000Y-91000000D01*
X199700000Y-91000000D02*
X199400000Y-91000000D01*
X199400000Y-91000000D02*
X199400000Y-91200000D01*
X199700000Y-91100000D02*
X199400000Y-91100000D01*
X200900000Y-95300000D02*
X200900000Y-94800000D01*
X200900000Y-94800000D02*
X201100000Y-94800000D01*
X201100000Y-94800000D02*
X201100000Y-95300000D01*
X201000000Y-95300000D02*
X201000000Y-94800000D01*
X198900000Y-90900000D02*
X197650000Y-90900000D01*
X197650000Y-90900000D02*
X197650000Y-92150000D01*
D12*
X179349000Y-58174000D02*
X182778000Y-58174000D01*
X179349000Y-67826000D02*
X182778000Y-67826000D01*
X178206000Y-57666000D02*
X178206000Y-68334000D01*
X179222000Y-61222000D02*
X177952000Y-61222000D01*
X179222000Y-64778000D02*
X177952000Y-64778000D01*
X179349000Y-68334000D02*
X179349000Y-57666000D01*
X182778000Y-57666000D02*
X182778000Y-68334000D01*
X177952000Y-68334000D02*
X182778000Y-68334000D01*
X177952000Y-57666000D02*
X182778000Y-57666000D01*
X177952000Y-57666000D02*
X177952000Y-68334000D01*
X189349000Y-58174000D02*
X192778000Y-58174000D01*
X189349000Y-67826000D02*
X192778000Y-67826000D01*
X188206000Y-57666000D02*
X188206000Y-68334000D01*
X189222000Y-61222000D02*
X187952000Y-61222000D01*
X189222000Y-64778000D02*
X187952000Y-64778000D01*
X189349000Y-68334000D02*
X189349000Y-57666000D01*
X192778000Y-57666000D02*
X192778000Y-68334000D01*
X187952000Y-68334000D02*
X192778000Y-68334000D01*
X187952000Y-57666000D02*
X192778000Y-57666000D01*
X187952000Y-57666000D02*
X187952000Y-68334000D01*
X199349000Y-58174000D02*
X202778000Y-58174000D01*
X199349000Y-67826000D02*
X202778000Y-67826000D01*
X198206000Y-57666000D02*
X198206000Y-68334000D01*
X199222000Y-61222000D02*
X197952000Y-61222000D01*
X199222000Y-64778000D02*
X197952000Y-64778000D01*
X199349000Y-68334000D02*
X199349000Y-57666000D01*
X202778000Y-57666000D02*
X202778000Y-68334000D01*
X197952000Y-68334000D02*
X202778000Y-68334000D01*
X197952000Y-57666000D02*
X202778000Y-57666000D01*
X197952000Y-57666000D02*
X197952000Y-68334000D01*
X209349000Y-58174000D02*
X212778000Y-58174000D01*
X209349000Y-67826000D02*
X212778000Y-67826000D01*
X208206000Y-57666000D02*
X208206000Y-68334000D01*
X209222000Y-61222000D02*
X207952000Y-61222000D01*
X209222000Y-64778000D02*
X207952000Y-64778000D01*
X209349000Y-68334000D02*
X209349000Y-57666000D01*
X212778000Y-57666000D02*
X212778000Y-68334000D01*
X207952000Y-68334000D02*
X212778000Y-68334000D01*
X207952000Y-57666000D02*
X212778000Y-57666000D01*
X207952000Y-57666000D02*
X207952000Y-68334000D01*
D13*
X204500000Y-73680000D02*
X203500000Y-73680000D01*
X203500000Y-72320000D02*
X204500000Y-72320000D01*
D12*
X182032000Y-71984000D02*
X180762000Y-71984000D01*
X181282700Y-72771400D02*
X181536700Y-72733300D01*
X181536700Y-72733300D02*
X181816100Y-72555500D01*
X181816100Y-72555500D02*
X182032000Y-72238000D01*
X182032000Y-72238000D02*
X182044700Y-71793500D01*
X182044700Y-71793500D02*
X181841500Y-71437900D01*
X181841500Y-71437900D02*
X181549400Y-71260100D01*
X181549400Y-71260100D02*
X181231900Y-71209300D01*
X181231900Y-71209300D02*
X180825500Y-71310900D01*
X180825500Y-71310900D02*
X180571500Y-71653800D01*
X180571500Y-71653800D02*
X180482600Y-71831600D01*
X178222000Y-80366000D02*
X178222000Y-70714000D01*
X181270000Y-70714000D02*
X182540000Y-70714000D01*
X182540000Y-70714000D02*
X182540000Y-80366000D01*
X182540000Y-80366000D02*
X177460000Y-80366000D01*
X177460000Y-70714000D02*
X180000000Y-70714000D01*
X180000000Y-70714000D02*
X181270000Y-70714000D01*
D13*
X207320000Y-71500000D02*
X207320000Y-70500000D01*
X208680000Y-70500000D02*
X208680000Y-71500000D01*
X203500000Y-76320000D02*
X204500000Y-76320000D01*
X204500000Y-77680000D02*
X203500000Y-77680000D01*
X198500000Y-81680000D02*
X197500000Y-81680000D01*
X197500000Y-80320000D02*
X198500000Y-80320000D01*
X203610000Y-85900000D02*
X203610000Y-84100000D01*
X200390000Y-84100000D02*
X200390000Y-86550000D01*
X190484000Y-70365000D02*
G75*
G02X188484000Y-70365000I-1000000J0D01*
G01*
X188484000Y-70365000D02*
X187114000Y-70365000D01*
X187114000Y-70365000D02*
X187114000Y-88385000D01*
X187114000Y-88385000D02*
X191854000Y-88385000D01*
X191854000Y-88385000D02*
X191854000Y-70365000D01*
X191854000Y-70365000D02*
X190484000Y-70365000D01*
X181400000Y-57280000D02*
X179400000Y-57280000D01*
X179400000Y-54320000D02*
X181400000Y-54320000D01*
X191600000Y-57280000D02*
X189600000Y-57280000D01*
X189600000Y-54320000D02*
X191600000Y-54320000D01*
X201400000Y-57280000D02*
X199400000Y-57280000D01*
X199400000Y-54320000D02*
X201400000Y-54320000D01*
X211400000Y-57280000D02*
X209400000Y-57280000D01*
X209400000Y-54320000D02*
X211400000Y-54320000D01*
D12*
X214666666Y-62452380D02*
X214666666Y-63166666D01*
X214619047Y-63309523D01*
X214523809Y-63404761D01*
X214380952Y-63452380D01*
X214285714Y-63452380D01*
X215666666Y-63452380D02*
X215095238Y-63452380D01*
X215380952Y-63452380D02*
X215380952Y-62452380D01*
X215285714Y-62595238D01*
X215190476Y-62690476D01*
X215095238Y-62738095D01*
X191476666Y-87951500D02*
X191476666Y-88665786D01*
X191429047Y-88808643D01*
X191333809Y-88903881D01*
X191190952Y-88951500D01*
X191095714Y-88951500D01*
X192143333Y-87951500D02*
X192238571Y-87951500D01*
X192333809Y-87999120D01*
X192381428Y-88046739D01*
X192429047Y-88141977D01*
X192476666Y-88332453D01*
X192476666Y-88570548D01*
X192429047Y-88761024D01*
X192381428Y-88856262D01*
X192333809Y-88903881D01*
X192238571Y-88951500D01*
X192143333Y-88951500D01*
X192048095Y-88903881D01*
X192000476Y-88856262D01*
X191952857Y-88761024D01*
X191905238Y-88570548D01*
X191905238Y-88332453D01*
X191952857Y-88141977D01*
X192000476Y-88046739D01*
X192048095Y-87999120D01*
X192143333Y-87951500D01*
X185147380Y-94333333D02*
X185861666Y-94333333D01*
X186004523Y-94380952D01*
X186099761Y-94476190D01*
X186147380Y-94619047D01*
X186147380Y-94714285D01*
X185480714Y-93428571D02*
X186147380Y-93428571D01*
X185099761Y-93666666D02*
X185814047Y-93904761D01*
X185814047Y-93285714D01*
X180833333Y-90107142D02*
X180785714Y-90154761D01*
X180642857Y-90202380D01*
X180547619Y-90202380D01*
X180404761Y-90154761D01*
X180309523Y-90059523D01*
X180261904Y-89964285D01*
X180214285Y-89773809D01*
X180214285Y-89630952D01*
X180261904Y-89440476D01*
X180309523Y-89345238D01*
X180404761Y-89250000D01*
X180547619Y-89202380D01*
X180642857Y-89202380D01*
X180785714Y-89250000D01*
X180833333Y-89297619D01*
X181785714Y-90202380D02*
X181214285Y-90202380D01*
X181500000Y-90202380D02*
X181500000Y-89202380D01*
X181404761Y-89345238D01*
X181309523Y-89440476D01*
X181214285Y-89488095D01*
X180833333Y-85107142D02*
X180785714Y-85154761D01*
X180642857Y-85202380D01*
X180547619Y-85202380D01*
X180404761Y-85154761D01*
X180309523Y-85059523D01*
X180261904Y-84964285D01*
X180214285Y-84773809D01*
X180214285Y-84630952D01*
X180261904Y-84440476D01*
X180309523Y-84345238D01*
X180404761Y-84250000D01*
X180547619Y-84202380D01*
X180642857Y-84202380D01*
X180785714Y-84250000D01*
X180833333Y-84297619D01*
X181690476Y-84535714D02*
X181690476Y-85202380D01*
X181452380Y-84154761D02*
X181214285Y-84869047D01*
X181833333Y-84869047D01*
X197607142Y-87357142D02*
X197654761Y-87404761D01*
X197702380Y-87547619D01*
X197702380Y-87642857D01*
X197654761Y-87785714D01*
X197559523Y-87880952D01*
X197464285Y-87928571D01*
X197273809Y-87976190D01*
X197130952Y-87976190D01*
X196940476Y-87928571D01*
X196845238Y-87880952D01*
X196750000Y-87785714D01*
X196702380Y-87642857D01*
X196702380Y-87547619D01*
X196750000Y-87404761D01*
X196797619Y-87357142D01*
X197702380Y-86785714D02*
X197654761Y-86880952D01*
X197607142Y-86928571D01*
X197511904Y-86976190D01*
X197226190Y-86976190D01*
X197130952Y-86928571D01*
X197083333Y-86880952D01*
X197035714Y-86785714D01*
X197035714Y-86642857D01*
X197083333Y-86547619D01*
X197130952Y-86500000D01*
X197226190Y-86452380D01*
X197511904Y-86452380D01*
X197607142Y-86500000D01*
X197654761Y-86547619D01*
X197702380Y-86642857D01*
X197702380Y-86785714D01*
X197035714Y-85595238D02*
X197702380Y-85595238D01*
X197035714Y-86023809D02*
X197559523Y-86023809D01*
X197654761Y-85976190D01*
X197702380Y-85880952D01*
X197702380Y-85738095D01*
X197654761Y-85642857D01*
X197607142Y-85595238D01*
X197035714Y-85261904D02*
X197035714Y-84880952D01*
X196702380Y-85119047D02*
X197559523Y-85119047D01*
X197654761Y-85071428D01*
X197702380Y-84976190D01*
X197702380Y-84880952D01*
X197702380Y-84023809D02*
X197702380Y-84595238D01*
X197702380Y-84309523D02*
X196702380Y-84309523D01*
X196845238Y-84404761D01*
X196940476Y-84500000D01*
X196988095Y-84595238D01*
X198261904Y-71852380D02*
X198261904Y-70852380D01*
X198500000Y-70852380D01*
X198642857Y-70900000D01*
X198738095Y-70995238D01*
X198785714Y-71090476D01*
X198833333Y-71280952D01*
X198833333Y-71423809D01*
X198785714Y-71614285D01*
X198738095Y-71709523D01*
X198642857Y-71804761D01*
X198500000Y-71852380D01*
X198261904Y-71852380D01*
X199785714Y-71852380D02*
X199214285Y-71852380D01*
X199500000Y-71852380D02*
X199500000Y-70852380D01*
X199404761Y-70995238D01*
X199309523Y-71090476D01*
X199214285Y-71138095D01*
X198261904Y-75852380D02*
X198261904Y-74852380D01*
X198500000Y-74852380D01*
X198642857Y-74900000D01*
X198738095Y-74995238D01*
X198785714Y-75090476D01*
X198833333Y-75280952D01*
X198833333Y-75423809D01*
X198785714Y-75614285D01*
X198738095Y-75709523D01*
X198642857Y-75804761D01*
X198500000Y-75852380D01*
X198261904Y-75852380D01*
X199214285Y-74947619D02*
X199261904Y-74900000D01*
X199357142Y-74852380D01*
X199595238Y-74852380D01*
X199690476Y-74900000D01*
X199738095Y-74947619D01*
X199785714Y-75042857D01*
X199785714Y-75138095D01*
X199738095Y-75280952D01*
X199166666Y-75852380D01*
X199785714Y-75852380D01*
X201166666Y-89652380D02*
X201166666Y-90366666D01*
X201119047Y-90509523D01*
X201023809Y-90604761D01*
X200880952Y-90652380D01*
X200785714Y-90652380D01*
X201547619Y-89652380D02*
X202166666Y-89652380D01*
X201833333Y-90033333D01*
X201976190Y-90033333D01*
X202071428Y-90080952D01*
X202119047Y-90128571D01*
X202166666Y-90223809D01*
X202166666Y-90461904D01*
X202119047Y-90557142D01*
X202071428Y-90604761D01*
X201976190Y-90652380D01*
X201690476Y-90652380D01*
X201595238Y-90604761D01*
X201547619Y-90557142D01*
X177229619Y-63095238D02*
X177182000Y-63190476D01*
X177086761Y-63285714D01*
X176943904Y-63428571D01*
X176896285Y-63523809D01*
X176896285Y-63619047D01*
X177134380Y-63571428D02*
X177086761Y-63666666D01*
X176991523Y-63761904D01*
X176801047Y-63809523D01*
X176467714Y-63809523D01*
X176277238Y-63761904D01*
X176182000Y-63666666D01*
X176134380Y-63571428D01*
X176134380Y-63380952D01*
X176182000Y-63285714D01*
X176277238Y-63190476D01*
X176467714Y-63142857D01*
X176801047Y-63142857D01*
X176991523Y-63190476D01*
X177086761Y-63285714D01*
X177134380Y-63380952D01*
X177134380Y-63571428D01*
X176134380Y-62523809D02*
X176134380Y-62428571D01*
X176182000Y-62333333D01*
X176229619Y-62285714D01*
X176324857Y-62238095D01*
X176515333Y-62190476D01*
X176753428Y-62190476D01*
X176943904Y-62238095D01*
X177039142Y-62285714D01*
X177086761Y-62333333D01*
X177134380Y-62428571D01*
X177134380Y-62523809D01*
X177086761Y-62619047D01*
X177039142Y-62666666D01*
X176943904Y-62714285D01*
X176753428Y-62761904D01*
X176515333Y-62761904D01*
X176324857Y-62714285D01*
X176229619Y-62666666D01*
X176182000Y-62619047D01*
X176134380Y-62523809D01*
X187229619Y-63095238D02*
X187182000Y-63190476D01*
X187086761Y-63285714D01*
X186943904Y-63428571D01*
X186896285Y-63523809D01*
X186896285Y-63619047D01*
X187134380Y-63571428D02*
X187086761Y-63666666D01*
X186991523Y-63761904D01*
X186801047Y-63809523D01*
X186467714Y-63809523D01*
X186277238Y-63761904D01*
X186182000Y-63666666D01*
X186134380Y-63571428D01*
X186134380Y-63380952D01*
X186182000Y-63285714D01*
X186277238Y-63190476D01*
X186467714Y-63142857D01*
X186801047Y-63142857D01*
X186991523Y-63190476D01*
X187086761Y-63285714D01*
X187134380Y-63380952D01*
X187134380Y-63571428D01*
X187134380Y-62190476D02*
X187134380Y-62761904D01*
X187134380Y-62476190D02*
X186134380Y-62476190D01*
X186277238Y-62571428D01*
X186372476Y-62666666D01*
X186420095Y-62761904D01*
X197229619Y-63095238D02*
X197182000Y-63190476D01*
X197086761Y-63285714D01*
X196943904Y-63428571D01*
X196896285Y-63523809D01*
X196896285Y-63619047D01*
X197134380Y-63571428D02*
X197086761Y-63666666D01*
X196991523Y-63761904D01*
X196801047Y-63809523D01*
X196467714Y-63809523D01*
X196277238Y-63761904D01*
X196182000Y-63666666D01*
X196134380Y-63571428D01*
X196134380Y-63380952D01*
X196182000Y-63285714D01*
X196277238Y-63190476D01*
X196467714Y-63142857D01*
X196801047Y-63142857D01*
X196991523Y-63190476D01*
X197086761Y-63285714D01*
X197134380Y-63380952D01*
X197134380Y-63571428D01*
X196229619Y-62761904D02*
X196182000Y-62714285D01*
X196134380Y-62619047D01*
X196134380Y-62380952D01*
X196182000Y-62285714D01*
X196229619Y-62238095D01*
X196324857Y-62190476D01*
X196420095Y-62190476D01*
X196562952Y-62238095D01*
X197134380Y-62809523D01*
X197134380Y-62190476D01*
X207229619Y-63095238D02*
X207182000Y-63190476D01*
X207086761Y-63285714D01*
X206943904Y-63428571D01*
X206896285Y-63523809D01*
X206896285Y-63619047D01*
X207134380Y-63571428D02*
X207086761Y-63666666D01*
X206991523Y-63761904D01*
X206801047Y-63809523D01*
X206467714Y-63809523D01*
X206277238Y-63761904D01*
X206182000Y-63666666D01*
X206134380Y-63571428D01*
X206134380Y-63380952D01*
X206182000Y-63285714D01*
X206277238Y-63190476D01*
X206467714Y-63142857D01*
X206801047Y-63142857D01*
X206991523Y-63190476D01*
X207086761Y-63285714D01*
X207134380Y-63380952D01*
X207134380Y-63571428D01*
X206134380Y-62809523D02*
X206134380Y-62190476D01*
X206515333Y-62523809D01*
X206515333Y-62380952D01*
X206562952Y-62285714D01*
X206610571Y-62238095D01*
X206705809Y-62190476D01*
X206943904Y-62190476D01*
X207039142Y-62238095D01*
X207086761Y-62285714D01*
X207134380Y-62380952D01*
X207134380Y-62666666D01*
X207086761Y-62761904D01*
X207039142Y-62809523D01*
X203833333Y-72002380D02*
X203500000Y-71526190D01*
X203261904Y-72002380D02*
X203261904Y-71002380D01*
X203642857Y-71002380D01*
X203738095Y-71050000D01*
X203785714Y-71097619D01*
X203833333Y-71192857D01*
X203833333Y-71335714D01*
X203785714Y-71430952D01*
X203738095Y-71478571D01*
X203642857Y-71526190D01*
X203261904Y-71526190D01*
X204785714Y-72002380D02*
X204214285Y-72002380D01*
X204500000Y-72002380D02*
X204500000Y-71002380D01*
X204404761Y-71145238D01*
X204309523Y-71240476D01*
X204214285Y-71288095D01*
X179833333Y-83612380D02*
X179500000Y-83136190D01*
X179261904Y-83612380D02*
X179261904Y-82612380D01*
X179642857Y-82612380D01*
X179738095Y-82660000D01*
X179785714Y-82707619D01*
X179833333Y-82802857D01*
X179833333Y-82945714D01*
X179785714Y-83040952D01*
X179738095Y-83088571D01*
X179642857Y-83136190D01*
X179261904Y-83136190D01*
X180214285Y-82707619D02*
X180261904Y-82660000D01*
X180357142Y-82612380D01*
X180595238Y-82612380D01*
X180690476Y-82660000D01*
X180738095Y-82707619D01*
X180785714Y-82802857D01*
X180785714Y-82898095D01*
X180738095Y-83040952D01*
X180166666Y-83612380D01*
X180785714Y-83612380D01*
X209902380Y-71166666D02*
X209426190Y-71500000D01*
X209902380Y-71738095D02*
X208902380Y-71738095D01*
X208902380Y-71357142D01*
X208950000Y-71261904D01*
X208997619Y-71214285D01*
X209092857Y-71166666D01*
X209235714Y-71166666D01*
X209330952Y-71214285D01*
X209378571Y-71261904D01*
X209426190Y-71357142D01*
X209426190Y-71738095D01*
X208902380Y-70833333D02*
X208902380Y-70214285D01*
X209283333Y-70547619D01*
X209283333Y-70404761D01*
X209330952Y-70309523D01*
X209378571Y-70261904D01*
X209473809Y-70214285D01*
X209711904Y-70214285D01*
X209807142Y-70261904D01*
X209854761Y-70309523D01*
X209902380Y-70404761D01*
X209902380Y-70690476D01*
X209854761Y-70785714D01*
X209807142Y-70833333D01*
X203833333Y-78902380D02*
X203500000Y-78426190D01*
X203261904Y-78902380D02*
X203261904Y-77902380D01*
X203642857Y-77902380D01*
X203738095Y-77950000D01*
X203785714Y-77997619D01*
X203833333Y-78092857D01*
X203833333Y-78235714D01*
X203785714Y-78330952D01*
X203738095Y-78378571D01*
X203642857Y-78426190D01*
X203261904Y-78426190D01*
X204690476Y-78235714D02*
X204690476Y-78902380D01*
X204452380Y-77854761D02*
X204214285Y-78569047D01*
X204833333Y-78569047D01*
X197833333Y-80002380D02*
X197500000Y-79526190D01*
X197261904Y-80002380D02*
X197261904Y-79002380D01*
X197642857Y-79002380D01*
X197738095Y-79050000D01*
X197785714Y-79097619D01*
X197833333Y-79192857D01*
X197833333Y-79335714D01*
X197785714Y-79430952D01*
X197738095Y-79478571D01*
X197642857Y-79526190D01*
X197261904Y-79526190D01*
X198738095Y-79002380D02*
X198261904Y-79002380D01*
X198214285Y-79478571D01*
X198261904Y-79430952D01*
X198357142Y-79383333D01*
X198595238Y-79383333D01*
X198690476Y-79430952D01*
X198738095Y-79478571D01*
X198785714Y-79573809D01*
X198785714Y-79811904D01*
X198738095Y-79907142D01*
X198690476Y-79954761D01*
X198595238Y-80002380D01*
X198357142Y-80002380D01*
X198261904Y-79954761D01*
X198214285Y-79907142D01*
X198552380Y-85761904D02*
X199361904Y-85761904D01*
X199457142Y-85714285D01*
X199504761Y-85666666D01*
X199552380Y-85571428D01*
X199552380Y-85380952D01*
X199504761Y-85285714D01*
X199457142Y-85238095D01*
X199361904Y-85190476D01*
X198552380Y-85190476D01*
X198552380Y-84523809D02*
X198552380Y-84428571D01*
X198600000Y-84333333D01*
X198647619Y-84285714D01*
X198742857Y-84238095D01*
X198933333Y-84190476D01*
X199171428Y-84190476D01*
X199361904Y-84238095D01*
X199457142Y-84285714D01*
X199504761Y-84333333D01*
X199552380Y-84428571D01*
X199552380Y-84523809D01*
X199504761Y-84619047D01*
X199457142Y-84666666D01*
X199361904Y-84714285D01*
X199171428Y-84761904D01*
X198933333Y-84761904D01*
X198742857Y-84714285D01*
X198647619Y-84666666D01*
X198600000Y-84619047D01*
X198552380Y-84523809D01*
X188722095Y-68817380D02*
X188722095Y-69626904D01*
X188769714Y-69722142D01*
X188817333Y-69769761D01*
X188912571Y-69817380D01*
X189103047Y-69817380D01*
X189198285Y-69769761D01*
X189245904Y-69722142D01*
X189293523Y-69626904D01*
X189293523Y-68817380D01*
X189722095Y-68912619D02*
X189769714Y-68865000D01*
X189864952Y-68817380D01*
X190103047Y-68817380D01*
X190198285Y-68865000D01*
X190245904Y-68912619D01*
X190293523Y-69007857D01*
X190293523Y-69103095D01*
X190245904Y-69245952D01*
X189674476Y-69817380D01*
X190293523Y-69817380D01*
X214666666Y-57452380D02*
X214666666Y-58166666D01*
X214619047Y-58309523D01*
X214523809Y-58404761D01*
X214380952Y-58452380D01*
X214285714Y-58452380D01*
X215095238Y-57547619D02*
X215142857Y-57500000D01*
X215238095Y-57452380D01*
X215476190Y-57452380D01*
X215571428Y-57500000D01*
X215619047Y-57547619D01*
X215666666Y-57642857D01*
X215666666Y-57738095D01*
X215619047Y-57880952D01*
X215047619Y-58452380D01*
X215666666Y-58452380D01*
X179804761Y-53952380D02*
X179471428Y-53476190D01*
X179233333Y-53952380D02*
X179233333Y-52952380D01*
X179614285Y-52952380D01*
X179709523Y-53000000D01*
X179757142Y-53047619D01*
X179804761Y-53142857D01*
X179804761Y-53285714D01*
X179757142Y-53380952D01*
X179709523Y-53428571D01*
X179614285Y-53476190D01*
X179233333Y-53476190D01*
X180090476Y-52952380D02*
X180423809Y-53952380D01*
X180757142Y-52952380D01*
X181614285Y-53952380D02*
X181042857Y-53952380D01*
X181328571Y-53952380D02*
X181328571Y-52952380D01*
X181233333Y-53095238D01*
X181138095Y-53190476D01*
X181042857Y-53238095D01*
X190004761Y-53952380D02*
X189671428Y-53476190D01*
X189433333Y-53952380D02*
X189433333Y-52952380D01*
X189814285Y-52952380D01*
X189909523Y-53000000D01*
X189957142Y-53047619D01*
X190004761Y-53142857D01*
X190004761Y-53285714D01*
X189957142Y-53380952D01*
X189909523Y-53428571D01*
X189814285Y-53476190D01*
X189433333Y-53476190D01*
X190290476Y-52952380D02*
X190623809Y-53952380D01*
X190957142Y-52952380D01*
X191242857Y-53047619D02*
X191290476Y-53000000D01*
X191385714Y-52952380D01*
X191623809Y-52952380D01*
X191719047Y-53000000D01*
X191766666Y-53047619D01*
X191814285Y-53142857D01*
X191814285Y-53238095D01*
X191766666Y-53380952D01*
X191195238Y-53952380D01*
X191814285Y-53952380D01*
X199804761Y-53952380D02*
X199471428Y-53476190D01*
X199233333Y-53952380D02*
X199233333Y-52952380D01*
X199614285Y-52952380D01*
X199709523Y-53000000D01*
X199757142Y-53047619D01*
X199804761Y-53142857D01*
X199804761Y-53285714D01*
X199757142Y-53380952D01*
X199709523Y-53428571D01*
X199614285Y-53476190D01*
X199233333Y-53476190D01*
X200090476Y-52952380D02*
X200423809Y-53952380D01*
X200757142Y-52952380D01*
X200995238Y-52952380D02*
X201614285Y-52952380D01*
X201280952Y-53333333D01*
X201423809Y-53333333D01*
X201519047Y-53380952D01*
X201566666Y-53428571D01*
X201614285Y-53523809D01*
X201614285Y-53761904D01*
X201566666Y-53857142D01*
X201519047Y-53904761D01*
X201423809Y-53952380D01*
X201138095Y-53952380D01*
X201042857Y-53904761D01*
X200995238Y-53857142D01*
X209804761Y-53952380D02*
X209471428Y-53476190D01*
X209233333Y-53952380D02*
X209233333Y-52952380D01*
X209614285Y-52952380D01*
X209709523Y-53000000D01*
X209757142Y-53047619D01*
X209804761Y-53142857D01*
X209804761Y-53285714D01*
X209757142Y-53380952D01*
X209709523Y-53428571D01*
X209614285Y-53476190D01*
X209233333Y-53476190D01*
X210090476Y-52952380D02*
X210423809Y-53952380D01*
X210757142Y-52952380D01*
X211519047Y-53285714D02*
X211519047Y-53952380D01*
X211280952Y-52904761D02*
X211042857Y-53619047D01*
X211661904Y-53619047D01*
M02*
